<?xml version="1.0" encoding="UTF-8"?>
<svg class="h-[38px] shrink-0" fill="none" version="1.1" viewBox="0 0 48 48" xmlns="http://www.w3.org/2000/svg"><path d="m40 0h-32c-4.42 0-8 3.58-8 8v32c0 4.42 3.58 8 8 8h32c4.42 0 8-3.58 8-8v-32c0-4.42-3.58-8-8-8z" clip-path="url(#c)" fill="#2563eb"/><g clip-path="url(#d)" filter="url(#b)"><path d="m34 8h-20c-3.31 0-6 2.69-6 6v20c0 3.31 2.69 6 6 6h20c3.31 0 6-2.69 6-6v-20c0-3.31-2.69-6-6-6z" fill="#fff"/></g><g clip-path="url(#e)" filter="url(#a)"><path d="m25.6 24.1-0.132 0.486 3.28 0.866-7.28 5.28 2.01-7.38-3.28-0.866 7.28-5.28z" stroke="#4f46e5" stroke-opacity=".6"/></g><path d="m25.6 24.1-0.132 0.486 3.28 0.866-7.28 5.28 2.01-7.38-3.28-0.866 7.28-5.28z" clip-path="url(#f)" fill="#2563eb" stroke="#1d4ed8"/><defs><filter id="b" x="6" y="7" width="36" height="36" color-interpolation-filters="sRGB" filterUnits="userSpaceOnUse"><feFlood flood-opacity="0" result="BackgroundImageFix"/><feColorMatrix in="SourceAlpha" result="hardAlpha" values="0 0 0 0 0 0 0 0 0 0 0 0 0 0 0 0 0 0 127 0"/><feOffset dy="1"/><feGaussianBlur stdDeviation="1"/><feComposite in2="hardAlpha" operator="out"/><feColorMatrix values="0 0 0 0 0 0 0 0 0 0 0 0 0 0 0 0 0 0 0.25 0"/><feBlend in2="BackgroundImageFix" result="effect1_dropShadow_1339_2278"/><feBlend in="SourceGraphic" in2="effect1_dropShadow_1339_2278" result="shape"/></filter><filter id="a" x="15" y="12" width="18.9" height="24" color-interpolation-filters="sRGB" filterUnits="userSpaceOnUse"><feFlood flood-opacity="0" result="BackgroundImageFix"/><feBlend in="SourceGraphic" in2="BackgroundImageFix" result="shape"/><feGaussianBlur result="effect1_foregroundBlur_1339_2278" stdDeviation="2"/></filter><clipPath id="f"><rect width="204" height="48" fill="#fff"/></clipPath><clipPath id="e"><rect width="204" height="48" fill="#fff"/></clipPath><clipPath id="d"><rect width="204" height="48" fill="#fff"/></clipPath><clipPath id="c"><rect width="204" height="48" fill="#fff"/></clipPath></defs></svg>
