<?xml version="1.0" encoding="UTF-8" standalone="no"?>
<svg
   width="200"
   height="200"
   viewBox="0 0 200 200"
   fill="none"
   version="1.1"
   id="svg219"
   sodipodi:docname="bearer.svg"
   inkscape:version="1.2.1 (9c6d41e, 2022-07-14)"
   xmlns:inkscape="http://www.inkscape.org/namespaces/inkscape"
   xmlns:sodipodi="http://sodipodi.sourceforge.net/DTD/sodipodi-0.dtd"
   xmlns="http://www.w3.org/2000/svg"
   xmlns:svg="http://www.w3.org/2000/svg">
  <g
     id="g449"
     transform="matrix(0.34550039,0,0,0.34550039,7.4527834,22.262411)">
    <path
       d="m 98.8834,222.894 -9.6968,-10.291 c -3.4685,4.711 -7.614,8.829 -12.2874,12.258 l 9.3726,9.944 c 1.6554,1.76 3.896,2.728 6.3087,2.728 0.3271,0 0.657,-0.02 0.9783,-0.055 1.8762,-0.212 3.5918,-1.013 4.966,-2.317 1.6872,-1.586 2.6512,-3.74 2.7202,-6.058 0.068,-2.32 -0.769,-4.52 -2.3616,-6.209 z"
       fill="#ffffff"
       id="path194"
       clip-path="url(#clipPath398)" />
    <path
       d="m 216.698,112.276 c -5.149,2.585 -10.643,4.515 -16.378,5.707 l 9.8,26.969 c 1.242,3.42 4.518,5.724 8.148,5.724 1.007,0 2.005,-0.178 2.966,-0.529 4.49,-1.637 6.816,-6.626 5.184,-11.126 z"
       fill="#ffffff"
       id="path196"
       clip-path="url(#clipPath392)" />
    <path
       d="m 355.93,114.26 c -1.937,-0.807 -3.801,-1.717 -5.62,-2.682 l -11.43,31.466 c -1.635,4.498 0.692,9.492 5.179,11.124 0.966,0.35 1.962,0.528 2.966,0.528 l 0.364,-0.006 c 3.52,-0.149 6.582,-2.389 7.789,-5.709 l 11.39,-31.358 c -3.606,-0.838 -7.167,-1.918 -10.638,-3.363 z"
       fill="#ffffff"
       id="path198"
       clip-path="url(#clipPath386)" />
    <path
       d="m 463.297,238.088 -10.919,13.32 c -3.032,3.7 -2.496,9.179 1.194,12.212 1.167,0.957 2.501,1.574 3.97,1.833 0.508,0.095 1.021,0.141 1.532,0.141 2.611,0 5.055,-1.155 6.705,-3.174 l 10.534,-12.847 c -5.058,-3.044 -9.424,-6.968 -13.016,-11.485 z"
       fill="#ffffff"
       id="path200"
       clip-path="url(#clipPath380)" />
    <path
       d="m 278.718,160.082 c -58.341,0 -109.284,38.123 -126.007,93.463 -3.735,-0.443 -7.473,-0.667 -11.183,-0.667 -2.553,0 -5.127,0.106 -7.651,0.316 -16.132,0.908 -32.307,6.336 -46.7975,15.705 l -0.2009,0.129 -0.1979,0.135 c -7.6112,5.21 -13.7018,10.489 -18.6105,16.127 -5.0951,5.491 -9.6968,12.105 -14.0518,20.207 -15.6641,30.151 -14.4076,67.641 3.0668,95.798 8.3083,13.93 20.4351,25.817 35.0837,34.388 14.1461,8.188 30.6221,12.671 47.7211,13.01 l 0.439,0.009 0.158,-0.003 278.457,1.301 c 25.203,0 49.778,-12.31 64.481,-32.147 15.107,-19.447 20.168,-46.703 13.205,-71.216 -6.985,-24.533 -26.058,-45.14 -49.778,-53.785 -9.065,-3.458 -18.946,-5.256 -29.122,-5.256 -2.45,0 -4.929,0.109 -7.376,0.324 -2.123,-70.854 -60.358,-127.838 -131.636,-127.838 z m 0,18.275 c 62.551,0 113.442,50.947 113.442,113.567 v 11.945 c -4.22,2.01 -8.208,4.446 -11.817,7.332 -0.815,0.661 -1.085,1.841 -0.563,2.798 0.402,0.741 1.162,1.16 1.951,1.16 0.359,0 0.72,-0.086 1.059,-0.27 9.034,-4.836 18.757,-7.844 28.663,-8.72 2.089,-0.198 4.183,-0.298 6.277,-0.298 7.824,0 15.615,1.384 22.877,4.15 18.573,6.769 33.135,22.893 38.466,41.613 5.316,18.718 1.787,39.876 -10.182,55.159 -11.464,15.589 -30.462,24.935 -49.675,24.935 h -0.149 -0.032 -0.005 l -278.744,-1.304 h -0.029 -0.003 C 126.661,430.151 113.123,426.702 101.381,419.906 89.6959,413.071 79.5917,403.441 72.6776,391.792 58.293,368.729 57.616,338.176 70.0928,314.157 c 3.1988,-5.948 6.9054,-11.692 11.5501,-16.641 4.4296,-5.144 9.7542,-9.446 15.34,-13.266 11.3721,-7.35 24.5461,-12.103 38.1561,-12.824 2.126,-0.184 4.257,-0.273 6.389,-0.273 11.476,0 22.937,2.605 33.463,7.327 6.26,2.777 12.19,6.379 17.598,10.69 5.485,4.227 10.385,9.222 14.789,14.682 l 0.023,0.028 c 0.714,0.888 1.781,1.37 2.868,1.37 0.66,0 1.326,-0.178 1.928,-0.548 1.733,-1.066 2.273,-3.337 1.205,-5.069 -4.005,-6.517 -9.037,-12.416 -14.688,-17.666 -5.732,-5.167 -12.144,-9.625 -19.044,-13.203 -3.526,-1.807 -7.187,-3.369 -10.936,-4.682 12.7,-50.568 57.636,-85.725 109.984,-85.725 z"
       fill="#ffffff"
       id="path202"
       clip-path="url(#clipPath374)" />
    <path
       d="m 186.617,104.767 c -6.845,0 -13.584,-1.361 -20.022,-4.043 C 153.719,95.3672 143.692,85.2862 138.356,72.336 133.017,59.3916 133.026,45.1662 138.379,32.2792 146.515,12.6716 165.487,1.09719e-5 186.703,1.09719e-5 c 6.854,0 13.595,1.3613590281 20.042,4.0438690281 26.623,11.08042 39.275,41.78582 28.204,68.44432 -8.142,19.6077 -27.114,32.2788 -48.332,32.2788 z"
       fill="#9dace3"
       id="path204"
       clip-path="url(#clipPath368)" />
    <path
       d="m 381.577,104.767 c -6.859,0 -13.596,-1.361 -20.022,-4.038 C 334.92,89.6403 322.26,58.9378 333.331,32.2792 341.473,12.6773 360.448,0.00287483 381.663,0.00287483 c 6.845,0 13.593,1.36423517 20.051,4.04387517 26.612,11.07755 39.261,41.78295 28.192,68.44145 -8.144,19.6077 -27.113,32.2788 -48.329,32.2788 z"
       fill="#9dace3"
       id="path206"
       clip-path="url(#clipPath362)" />
    <path
       d="m 501.518,241.919 c -2.811,0 -5.646,-0.35 -8.431,-1.051 -18.307,-4.618 -29.458,-23.301 -24.851,-41.637 3.847,-15.268 17.483,-25.934 33.162,-25.934 2.808,0 5.646,0.356 8.431,1.057 8.871,2.24 16.339,7.803 21.026,15.661 4.7,7.861 6.057,17.083 3.825,25.972 -3.842,15.271 -17.478,25.932 -33.162,25.932 z"
       fill="#9dace3"
       id="path208"
       clip-path="url(#clipPath356)" />
    <path
       d="m 42.999,221.337 c -3.523,0 -7.0718,-0.445 -10.5575,-1.324 -11.1112,-2.797 -20.4638,-9.765 -26.34788,-19.619 -5.878352,-9.845 -7.57673,-21.399 -4.7767,-32.537 4.80826,-19.126 21.89538,-32.484 41.54718,-32.484 3.5173,0 7.0661,0.446 10.5547,1.322 22.9339,5.781 36.8967,29.183 31.1245,52.159 -4.814,19.128 -21.8953,32.483 -41.5443,32.483 z"
       fill="#9dace3"
       id="path210"
       clip-path="url(#clipPath350)" />
  </g>
  <sodipodi:namedview
     id="namedview221"
     pagecolor="#ffffff"
     bordercolor="#666666"
     borderopacity="1.0"
     inkscape:showpageshadow="2"
     inkscape:pageopacity="0.0"
     inkscape:pagecheckerboard="0"
     inkscape:deskcolor="#d1d1d1"
     showgrid="false"
     inkscape:zoom="0.5703951"
     inkscape:cx="305.92829"
     inkscape:cy="277.87756"
     inkscape:window-width="1728"
     inkscape:window-height="1051"
     inkscape:window-x="0"
     inkscape:window-y="38"
     inkscape:window-maximized="1"
     inkscape:current-layer="svg219" />
  <defs
     id="defs217">
    <clipPath
       clipPathUnits="userSpaceOnUse"
       id="clipPath350">
      <g
         id="g354">
        <rect
           width="1796.34"
           height="450"
           fill="#ffffff"
           id="rect352"
           x="0"
           y="0" />
      </g>
    </clipPath>
    <clipPath
       clipPathUnits="userSpaceOnUse"
       id="clipPath356">
      <g
         id="g360">
        <rect
           width="1796.34"
           height="450"
           fill="#ffffff"
           id="rect358"
           x="0"
           y="0" />
      </g>
    </clipPath>
    <clipPath
       clipPathUnits="userSpaceOnUse"
       id="clipPath362">
      <g
         id="g366">
        <rect
           width="1796.34"
           height="450"
           fill="#ffffff"
           id="rect364"
           x="0"
           y="0" />
      </g>
    </clipPath>
    <clipPath
       clipPathUnits="userSpaceOnUse"
       id="clipPath368">
      <g
         id="g372">
        <rect
           width="1796.34"
           height="450"
           fill="#ffffff"
           id="rect370"
           x="0"
           y="0" />
      </g>
    </clipPath>
    <clipPath
       clipPathUnits="userSpaceOnUse"
       id="clipPath374">
      <g
         id="g378">
        <rect
           width="1796.34"
           height="450"
           fill="#ffffff"
           id="rect376"
           x="0"
           y="0" />
      </g>
    </clipPath>
    <clipPath
       clipPathUnits="userSpaceOnUse"
       id="clipPath380">
      <g
         id="g384">
        <rect
           width="1796.34"
           height="450"
           fill="#ffffff"
           id="rect382"
           x="0"
           y="0" />
      </g>
    </clipPath>
    <clipPath
       clipPathUnits="userSpaceOnUse"
       id="clipPath386">
      <g
         id="g390">
        <rect
           width="1796.34"
           height="450"
           fill="#ffffff"
           id="rect388"
           x="0"
           y="0" />
      </g>
    </clipPath>
    <clipPath
       clipPathUnits="userSpaceOnUse"
       id="clipPath392">
      <g
         id="g396">
        <rect
           width="1796.34"
           height="450"
           fill="#ffffff"
           id="rect394"
           x="0"
           y="0" />
      </g>
    </clipPath>
    <clipPath
       clipPathUnits="userSpaceOnUse"
       id="clipPath398">
      <g
         id="g402">
        <rect
           width="1796.34"
           height="450"
           fill="#ffffff"
           id="rect400"
           x="0"
           y="0" />
      </g>
    </clipPath>
    <clipPath
       clipPathUnits="userSpaceOnUse"
       id="clipPath404">
      <g
         id="g408">
        <rect
           width="1796.34"
           height="450"
           fill="#ffffff"
           id="rect406"
           x="0"
           y="0" />
      </g>
    </clipPath>
    <clipPath
       clipPathUnits="userSpaceOnUse"
       id="clipPath410">
      <g
         id="g414">
        <rect
           width="1796.34"
           height="450"
           fill="#ffffff"
           id="rect412"
           x="0"
           y="0" />
      </g>
    </clipPath>
    <clipPath
       clipPathUnits="userSpaceOnUse"
       id="clipPath416">
      <g
         id="g420">
        <rect
           width="1796.34"
           height="450"
           fill="#ffffff"
           id="rect418"
           x="0"
           y="0" />
      </g>
    </clipPath>
    <clipPath
       clipPathUnits="userSpaceOnUse"
       id="clipPath422">
      <g
         id="g426">
        <rect
           width="1796.34"
           height="450"
           fill="#ffffff"
           id="rect424"
           x="0"
           y="0" />
      </g>
    </clipPath>
    <clipPath
       clipPathUnits="userSpaceOnUse"
       id="clipPath428">
      <g
         id="g432">
        <rect
           width="1796.34"
           height="450"
           fill="#ffffff"
           id="rect430"
           x="0"
           y="0" />
      </g>
    </clipPath>
    <clipPath
       clipPathUnits="userSpaceOnUse"
       id="clipPath434">
      <g
         id="g438">
        <rect
           width="1796.34"
           height="450"
           fill="#ffffff"
           id="rect436"
           x="0"
           y="0" />
      </g>
    </clipPath>
  </defs>
</svg>
