<?xml version="1.0" encoding="UTF-8"?>
<svg width="700pt" height="700pt" version="1.1" viewBox="0 0 700 700" xmlns="http://www.w3.org/2000/svg"><path d="m582 363c-25.8-82.9-108-139-206-141v-96.9c0-4.48-3.92-8.4-8.4-8.4-1.68 0-3.36 0.559-5.04 1.68l-249 180c-3.92 2.8-4.48 7.84-1.68 11.8l1.68 1.68 249 179c3.92 2.8 8.96 1.68 11.8-1.68 1.12-1.68 1.68-3.36 1.68-5.04v-96.3c60.5 0 111 28.6 129 71.7 15.1 37 2.8 76.7-33 110-3.36 3.36-3.92 8.4-0.559 11.8 1.68 1.68 3.92 2.8 6.16 2.8h6.72c1.68 0 3.36-0.559 4.48-1.68 82.3-54.3 118-139 92.4-220z" fill="#fff"/></svg>
