<svg width="15" height="15" viewBox="0 0 15 15" fill="none" xmlns="http://www.w3.org/2000/svg">
<path d="M12.5001 0C13.1631 0 13.799 0.263392 14.2679 0.732233C14.7367 1.20107 15.0001 1.83696 15.0001 2.5V12.5C15.0001 13.163 14.7367 13.7989 14.2679 14.2678C13.799 14.7366 13.1631 15 12.5001 15H2.50009C1.83705 15 1.20117 14.7366 0.732325 14.2678C0.263484 13.7989 9.15527e-05 13.163 9.15527e-05 12.5V2.5C9.15527e-05 1.83696 0.263484 1.20107 0.732325 0.732233C1.20117 0.263392 1.83705 0 2.50009 0H12.5001ZM11.2251 4.14167L5.83342 9.53333L3.77509 7.475C3.65661 7.3646 3.49991 7.3045 3.33799 7.30735C3.17607 7.31021 3.02158 7.3758 2.90707 7.49032C2.79256 7.60483 2.72697 7.75931 2.72411 7.92123C2.72126 8.08315 2.78136 8.23985 2.89176 8.35833L5.39176 10.8583C5.50895 10.9754 5.6678 11.0411 5.83342 11.0411C5.99905 11.0411 6.1579 10.9754 6.27509 10.8583L12.1084 5.025C12.2188 4.90652 12.2789 4.74982 12.2761 4.5879C12.2732 4.42598 12.2076 4.27149 12.0931 4.15698C11.9786 4.04247 11.8241 3.97688 11.6622 3.97402C11.5003 3.97116 11.3436 4.03127 11.2251 4.14167Z" fill="white"/>
</svg>
