<svg width="40" height="40" viewBox="0 0 40 40" fill="none" xmlns="http://www.w3.org/2000/svg">
<path d="M33.75 0H6.25C2.79822 0 0 2.79822 0 6.25V33.75C0 37.2018 2.79822 40 6.25 40H33.75C37.2018 40 40 37.2018 40 33.75V6.25C40 2.79822 37.2018 0 33.75 0Z" fill="#292929"/>
<path d="M17.3335 13.6667V23.6667C17.3335 24.1087 17.5091 24.5326 17.8217 24.8452C18.1342 25.1577 18.5581 25.3333 19.0002 25.3333H25.6668C26.1089 25.3333 26.5328 25.1577 26.8453 24.8452C27.1579 24.5326 27.3335 24.1087 27.3335 23.6667V16.3683C27.3335 16.1463 27.2891 15.9265 27.2029 15.7219C27.1168 15.5172 26.9906 15.3319 26.8318 15.1767L24.0693 12.475C23.758 12.1705 23.3398 12.0001 22.9043 12H19.0002C18.5581 12 18.1342 12.1756 17.8217 12.4882C17.5091 12.8007 17.3335 13.2246 17.3335 13.6667V13.6667Z" stroke="white" stroke-width="0.833333" stroke-linecap="round" stroke-linejoin="round"/>
<path d="M24 25.3333V27C24 27.442 23.8244 27.8659 23.5118 28.1785C23.1993 28.4911 22.7754 28.6667 22.3333 28.6667H15.6667C15.2246 28.6667 14.8007 28.4911 14.4882 28.1785C14.1756 27.8659 14 27.442 14 27V17.8333C14 17.3913 14.1756 16.9674 14.4882 16.6548C14.8007 16.3423 15.2246 16.1667 15.6667 16.1667H17.3333" stroke="white" stroke-width="0.833333" stroke-linecap="round" stroke-linejoin="round"/>
</svg>
