<svg width="13" height="13" viewBox="0 0 13 13" fill="none" xmlns="http://www.w3.org/2000/svg">
<path d="M6.5 0C2.91049 0 0 2.91049 0 6.5C0 10.0895 2.91049 13 6.5 13C10.0895 13 13 10.0895 13 6.5C13 2.91049 10.0895 0 6.5 0ZM6.57835 9.72098C4.98237 9.72098 4.0625 8.65893 4.0625 6.89319V6.13437C4.0625 4.35558 4.98237 3.27902 6.5769 3.27902C7.94509 3.27902 8.9375 4.15971 8.9375 5.41763C8.9375 5.45536 8.90703 5.48583 8.86931 5.48583H8.04665C7.98571 5.48583 7.93638 5.4394 7.93058 5.37846C7.87254 4.66027 7.35022 4.16842 6.58125 4.16842C5.63382 4.16842 5.09989 4.8721 5.09989 6.13437V6.89754C5.09989 8.14096 5.63527 8.83594 6.58125 8.83594C7.34732 8.83594 7.86819 8.376 7.93058 7.70714C7.93638 7.64766 7.98571 7.60123 8.04665 7.60123H8.87076C8.90848 7.60123 8.93895 7.6317 8.93895 7.66942C8.93895 8.86786 7.94219 9.72098 6.57835 9.72098Z" fill="white"/>
</svg>
