<svg width="14" height="14" viewBox="0 0 14 14" fill="none" xmlns="http://www.w3.org/2000/svg">
<path fill-rule="evenodd" clip-rule="evenodd" d="M7.00009 0C3.13259 0 9.15527e-05 3.21173 9.15527e-05 7.17706C9.15527e-05 10.3529 2.00384 13.0353 4.78634 13.9863C5.13634 14.0491 5.26759 13.8338 5.26759 13.6454C5.26759 13.4749 5.25884 12.9097 5.25884 12.3087C3.50009 12.6406 3.04509 11.8691 2.90509 11.4653C2.82634 11.259 2.48509 10.622 2.18759 10.4516C1.94259 10.317 1.59259 9.98508 2.17884 9.97611C2.73009 9.96714 3.12384 10.4964 3.25509 10.7118C3.88509 11.7973 4.89134 11.4923 5.29384 11.3039C5.35509 10.8374 5.53884 10.5234 5.74009 10.3439C4.18259 10.1645 2.55509 9.54549 2.55509 6.80026C2.55509 6.01976 2.82634 5.37382 3.27259 4.87143C3.20259 4.692 2.95759 3.95635 3.34259 2.96951C3.34259 2.96951 3.92884 2.78111 5.26759 3.70516C5.82759 3.54367 6.42259 3.46293 7.01759 3.46293C7.61259 3.46293 8.20759 3.54367 8.76759 3.70516C10.1063 2.77214 10.6926 2.96951 10.6926 2.96951C11.0776 3.95635 10.8326 4.692 10.7626 4.87143C11.2088 5.37382 11.4801 6.01079 11.4801 6.80026C11.4801 9.55446 9.84384 10.1645 8.28634 10.3439C8.54009 10.5682 8.75884 10.9988 8.75884 11.6717C8.75884 12.6316 8.75009 13.4032 8.75009 13.6454C8.75009 13.8338 8.88134 14.0581 9.23134 13.9863C10.621 13.5053 11.8285 12.5896 12.684 11.3681C13.5394 10.1466 13.9997 8.68083 14.0001 7.17706C14.0001 3.21173 10.8676 0 7.00009 0Z" fill="white"/>
</svg>
