<svg width="10" height="10" viewBox="0 0 10 10" fill="none" xmlns="http://www.w3.org/2000/svg">
<path d="M5.6862 4.31378C5.32216 3.9499 4.82852 3.74548 4.3138 3.74548C3.79908 3.74548 3.30544 3.9499 2.9414 4.31378L1.56856 5.68618C1.20452 6.05022 1 6.54397 1 7.0588C1 7.57364 1.20452 8.06738 1.56856 8.43142C1.9326 8.79547 2.42635 8.99998 2.94118 8.99998C3.45601 8.99998 3.94976 8.79547 4.3138 8.43142L5 7.74522" stroke="white" stroke-width="1.16667" stroke-linecap="round" stroke-linejoin="round"/>
<path d="M4.31372 5.6862C4.67776 6.05008 5.1714 6.2545 5.68612 6.2545C6.20084 6.2545 6.69448 6.05008 7.05852 5.6862L8.43136 4.3138C8.7954 3.94976 8.99992 3.45601 8.99992 2.94118C8.99992 2.42635 8.7954 1.9326 8.43136 1.56856C8.06732 1.20452 7.57357 1 7.05874 1C6.54391 1 6.05016 1.20452 5.68612 1.56856L4.99992 2.25476" stroke="white" stroke-width="1.16667" stroke-linecap="round" stroke-linejoin="round"/>
</svg>
