<svg width="40" height="40" viewBox="0 0 40 40" fill="none" xmlns="http://www.w3.org/2000/svg">
<path d="M40 6.25C40 2.79822 37.2018 0 33.75 0H6.25C2.79822 0 0 2.79822 0 6.25V33.75C0 37.2018 2.79822 40 6.25 40H33.75C37.2018 40 40 37.2018 40 33.75V6.25Z" fill="#4A154B"/>
<path d="M14.2197 22.6433C14.2197 23.8057 13.2802 24.7452 12.1178 24.7452C10.9554 24.7452 10.0159 23.8057 10.0159 22.6433C10.0159 21.4809 10.9554 20.5414 12.1178 20.5414H14.2197V22.6433Z" fill="#E01E5A"/>
<path d="M15.271 22.6434C15.271 21.481 16.2105 20.5415 17.3729 20.5415C18.5353 20.5415 19.4748 21.481 19.4748 22.6434V27.8982C19.4748 29.0606 18.5353 30.0001 17.3729 30.0001C16.2105 30.0001 15.271 29.0606 15.271 27.8982V22.6434Z" fill="#E01E5A"/>
<path d="M17.3729 14.2038C16.2105 14.2038 15.271 13.2643 15.271 12.1019C15.271 10.9395 16.2105 10 17.3729 10C18.5353 10 19.4748 10.9395 19.4748 12.1019V14.2038H17.3729Z" fill="#36C5F0"/>
<path d="M17.3726 15.2707C18.535 15.2707 19.4745 16.2102 19.4745 17.3726C19.4745 18.535 18.535 19.4745 17.3726 19.4745H12.1019C10.9395 19.4745 10 18.535 10 17.3726C10 16.2102 10.9395 15.2707 12.1019 15.2707H17.3726Z" fill="#36C5F0"/>
<path d="M25.7964 17.3726C25.7964 16.2102 26.7359 15.2707 27.8983 15.2707C29.0607 15.2707 30.0002 16.2102 30.0002 17.3726C30.0002 18.535 29.0607 19.4745 27.8983 19.4745H25.7964V17.3726Z" fill="#2EB67D"/>
<path d="M24.7453 17.3726C24.7453 18.535 23.8058 19.4745 22.6434 19.4745C21.481 19.4745 20.5415 18.535 20.5415 17.3726V12.1019C20.5415 10.9395 21.481 10 22.6434 10C23.8058 10 24.7453 10.9395 24.7453 12.1019V17.3726Z" fill="#2EB67D"/>
<path d="M22.6434 25.7962C23.8058 25.7962 24.7453 26.7357 24.7453 27.8981C24.7453 29.0605 23.8058 30 22.6434 30C21.481 30 20.5415 29.0605 20.5415 27.8981V25.7962H22.6434Z" fill="#ECB22E"/>
<path d="M22.6434 24.7452C21.481 24.7452 20.5415 23.8057 20.5415 22.6433C20.5415 21.4809 21.481 20.5414 22.6434 20.5414H27.9141C29.0765 20.5414 30.016 21.4809 30.016 22.6433C30.016 23.8057 29.0765 24.7452 27.9141 24.7452H22.6434Z" fill="#ECB22E"/>
</svg>
