<?xml version="1.0" encoding="UTF-8"?>
<svg width="500pt" height="477pt" version="1.1" viewBox="0 0 500 477" xmlns="http://www.w3.org/2000/svg"><path d="m500 181c-1.63-5.04-5.96-8.72-11.2-9.52l-156-22.7-69.7-141c-2.36-4.77-7.22-7.78-12.5-7.78s-10.2 3.02-12.5 7.78l-69.7 141-156 22.4v4e-3c-5.43 0.664-9.98 4.43-11.6 9.64-1.66 5.21-0.133 10.9 3.91 14.6l113 110-26.6 155c-0.918 5.26 1.24 10.6 5.56 13.7 4.32 3.14 10 3.55 14.8 1.06l139-73.3 139 73.2c4.72 2.49 10.5 2.08 14.8-1.06 4.32-3.14 6.48-8.46 5.56-13.7l-26.7-155 113-110c3.83-3.73 5.2-9.31 3.53-14.4z" fill="#fff"/></svg>
