<svg width="42" height="42" viewBox="0 0 42 42" fill="none" xmlns="http://www.w3.org/2000/svg">
<path d="M21 1.48779C19.6634 1.48779 18.361 1.62789 17.0975 1.88413V4.90243C15.4049 5.31165 13.8195 5.96813 12.3756 6.85365L10.239 4.7195C9.14633 5.44448 8.14633 6.29501 7.2195 7.2195C6.29755 8.14379 5.44389 9.14379 4.72194 10.2379L6.85365 12.3721C5.97072 13.8194 5.31218 15.4023 4.90243 17.0975H1.8878C1.62926 18.3584 1.48779 19.6638 1.48779 20.9999C1.48779 22.336 1.62926 23.6414 1.8878 24.9023H4.90243C5.31218 26.5975 5.97072 28.1804 6.85365 29.6282L4.72194 31.7623C5.44389 32.856 6.29755 33.856 7.2195 34.7804C8.14633 35.7048 9.14633 36.5555 10.239 37.2804L12.3756 35.1462C13.8195 36.0321 15.4049 36.6882 17.0975 37.0975V40.116C18.361 40.3721 19.6634 40.5121 21 40.5121C22.3366 40.5121 23.6439 40.3721 24.9024 40.116V37.0975C26.6 36.6882 28.1805 36.0321 29.6293 35.1462L31.7658 37.2804C32.8585 36.5555 33.8585 35.7048 34.7805 34.7804C35.7073 33.856 36.5561 32.856 37.2829 31.7623L35.1463 29.6282C36.0341 28.1804 36.6878 26.5975 37.0975 24.9023H40.1171C40.3756 23.6414 40.5122 22.336 40.5122 20.9999C40.5122 19.6638 40.3756 18.3584 40.1171 17.0975H37.0975C36.6878 15.4023 36.0341 13.8194 35.1463 12.3721L37.2829 10.2379C36.5561 9.14379 35.7073 8.14379 34.7805 7.2195C33.8585 6.29501 32.8585 5.44448 31.7658 4.7195L29.6293 6.85365C28.1805 5.96813 26.6 5.31165 24.9024 4.90243V1.88413C23.6439 1.62789 22.3366 1.48779 21 1.48779V1.48779ZM21 11.2439C26.3854 11.2439 30.7561 15.6146 30.7561 21C30.7561 26.3854 26.3854 30.7561 21 30.7561C15.6146 30.7561 11.2439 26.3854 11.2439 21C11.2439 15.6146 15.6146 11.2439 21 11.2439Z" fill="white" stroke="#486A8B" stroke-width="2" stroke-linecap="round" stroke-linejoin="round"/>
</svg>
