<?xml version="1.0" encoding="UTF-8"?>
<svg width="310pt" height="348pt" version="1.1" viewBox="0 0 310 348" xmlns="http://www.w3.org/2000/svg"><g transform="translate(-195 -106)" fill="#fff"><path d="m505 197c-50.3-36.6-155-90.6-155-90.6l-155 90.6v181l117 73.6c-0.402-13-0.656-25.9-1.15-38.8-0.898-24-10.8-42.9-29.9-58.6-9.43-7.77-18.9-21.4-19.4-32.8-1.13-24 2.75-48.4 6.42-72.3 7.85-51.4 13.7-22.8 15.3-16.8 4.75 18.2 9.11 36.5 14.4 54.5 5.98 20.4 12.3 24.6 32.9 19.8 14.5-3.35 28.4-8.88 42.5-13.8 13.6-4.76 16.8-14.5 13.2-27.9-4.9-18.1-14.6-59.8-14.6-59.8-2.17-6.73-0.871-17.8 24.6 13.3 12.2 14.9 25.1 30 34 46.9 14.2 26.9 7.38 55.5-16.9 76.7-23.7 20.6-33.4 46.9-32.9 76.9 0.199 11.7 0.477 23.5 0.699 35.3l123-76.2v-181z" fill="#fff"/></g></svg>
