<svg width="40" height="40" viewBox="0 0 40 40" fill="none" xmlns="http://www.w3.org/2000/svg">
<path d="M33.75 0H6.25C2.79822 0 0 2.79822 0 6.25V33.75C0 37.2018 2.79822 40 6.25 40H33.75C37.2018 40 40 37.2018 40 33.75V6.25C40 2.79822 37.2018 0 33.75 0Z" fill="#1DA1F2"/>
<path d="M30 13.75C29.25 14.125 28.5 14.25 27.625 14.375C28.5 13.875 29.125 13.125 29.375 12.125C28.625 12.625 27.75 12.875 26.75 13.125C26 12.375 24.875 11.875 23.75 11.875C21.125 11.875 19.125 14.375 19.75 16.875C16.375 16.75 13.375 15.125 11.25 12.625C10.125 14.5 10.75 16.875 12.5 18.125C11.875 18.125 11.25 17.875 10.625 17.625C10.625 19.5 12 21.25 13.875 21.75C13.25 21.875 12.625 22 12 21.875C12.5 23.5 14 24.75 15.875 24.75C14.375 25.875 12.125 26.5 10 26.25C11.875 27.375 14 28.125 16.25 28.125C23.875 28.125 28.125 21.75 27.875 15.875C28.75 15.375 29.5 14.625 30 13.75Z" fill="white"/>
</svg>
