<svg width="18" height="20" viewBox="0 0 18 20" fill="none" xmlns="http://www.w3.org/2000/svg">
<path d="M1.00003 11.5558H5.00003V18.2376C5.00003 18.4907 5.10539 18.7335 5.29292 18.9125C5.48046 19.0915 5.73481 19.1921 6.00003 19.1921H12C12.2652 19.1921 12.5196 19.0915 12.7071 18.9125C12.8947 18.7335 13 18.4907 13 18.2376V11.5558H17C17.1883 11.5555 17.3727 11.5045 17.5319 11.4087C17.6912 11.3129 17.819 11.1762 17.9005 11.0142C17.9821 10.8523 18.0141 10.6716 17.993 10.493C17.9719 10.3145 17.8984 10.1452 17.781 10.0047L9.78103 0.459317C9.40003 0.00591141 8.60003 0.00591141 8.21903 0.459317L0.219031 10.0047C0.101669 10.1452 0.0282014 10.3145 0.00706273 10.493C-0.014076 10.6716 0.0179715 10.8523 0.0995253 11.0142C0.181079 11.1762 0.308833 11.3129 0.468118 11.4087C0.627404 11.5045 0.811764 11.5555 1.00003 11.5558Z" fill="white"/>
</svg>
