<svg xmlns="http://www.w3.org/2000/svg" xml:space="preserve" viewBox="0 0 455 392"><path fill="#5d97e5" d="m450 234-5-2h-9l-145-84c-4-2-9-2-13 0l-158 91H96l-15-9c-4-2-9-2-13 0l-43 25-11-1v10l3 4 191 110c4 3 8 3 12 0l228-130c2-1 2-3 2-5v-9"/><path fill="#1a162c" d="M15 255v9l2 3 191 111c4 2 8 2 12 0l228-131 2-4v-9l-5-1h-9l-145-84c-4-2-9-2-13 0l-157 91H96l-1-1-15-9c-3-2-8-2-12 0l-43 25Zm199 126-7-2L16 269l-2-5v-10h10l44-25c4-2 9-2 13 0l15 9 24 1 158-91c4-3 9-3 13 0l146 84h8l6 2v9c0 2-1 4-3 5L221 379l-7 2"/><path fill="#fff" d="M208 369 17 259c-4-2-4-7 0-9l51-29c4-3 9-3 13 0l21 12c4 3 9 3 13 0l163-94c4-2 9-2 13 0l157 91c3 2 3 6 0 8L220 369c-3 3-8 3-12 0"/><path fill="#1a162c" d="M208 369c4 2 8 2 12 0l228-131 2-4-2-4-157-90c-4-3-9-3-13 0l-163 94c-4 2-9 2-13 0l-21-13c-4-2-9-2-13 0l-51 30-2 3 2 4 191 111Zm6 3-7-2L17 259c-2-1-3-3-3-5s1-3 3-5l51-29c4-2 9-2 13 0l21 13c4 2 9 2 13 0l163-94c4-3 9-3 13 0l157 90c2 1 3 3 3 5s-1 4-3 5L221 370l-7 2"/><path fill="#1a162c" d="M215 380h-2v-9h2v9m6-1h-1v-10h1v10m226-130h-1v-9h1v9M19 269h-1v-9h1v9m188 109h-1v-10h1v10m16-10v9l221-127v-9L223 368"/><path fill="#fff" d="m274 159-1 5 3 1h11l2-2-1-2-9-4-5 2"/><path fill="#1a162c" d="m273 163 3 1h11l1-1v-1l-9-4-5 2-1 3zm12 2h-9l-3-1v-5l6-2 9 4c1 0 2 1 1 2l-2 2h-2"/><path fill="#fff" d="M263 168v6l1 4 4 2h3l1-2-2-4-1-4v-3l-6 1"/><path fill="#1a162c" d="m264 169-1 5 1 3 1 1 3 2h2l1-2-1-4-1-4-1-2zm6 12h-2l-4-3h-1v-10l6-1v3l2 4 1 4-1 2-1 1m2-41a478 478 0 0 0 2 20h6l1-2 1-23c1-9-5-9-5-9l-7 7 2 7"/><path fill="#1a162c" d="m271 134 1 5 2 20v1c1 0 4 1 6-1l1-1v-23l-1-7-3-1zm6 27h-3l-1-2-2-19-1-7 7-7 3 1c2 2 2 4 2 8l-1 23c1 1 0 2-1 2l-3 1"/><path fill="#1a162c" d="M263 143v15l-1 11 1 1 5-1c1 0 2-1 2-3 0-3 2-16 5-26 4-12-8 0-8 0l-4 3"/><path fill="#1a162c" d="M264 143c-1 1-2 8-1 15a53 53 0 0 1 0 11h5l1-3c0-4 2-16 5-26 2-4 1-5 1-5l-8 6zm1 27h-3v-12c-1-7 1-15 1-15l3-3c2-1 7-7 9-6v6c-3 10-5 23-5 26 0 2 0 3-2 4h-3"/><path fill="#5d97e5" d="M274 83s3-2 7 0c3 2 3 17 3 17s-1 5 1 16c1 11-1 24-1 24s-5-4-6-19l-2-34-2-4"/><path fill="#1a162c" d="m274 84 2 3 3 34c0 11 3 16 4 18 1-3 3-14 1-23l-1-16c0-6 0-15-2-16-3-2-6-1-7 0zm10 57h-1c0-1-4-5-5-20l-3-34-2-4c1 0 4-2 8 0 3 1 3 14 3 17 0 0-1 5 1 15 2 11-1 25-1 25v1"/><path fill="#5d97e5" d="M263 106s-1 29-3 40c0 0 13 3 17-10s2-29 2-29l-2-8-8-15-7 4-3 2 4 16"/><path fill="#1a162c" d="M261 146c2 0 12 1 16-10 4-13 1-28 1-29l-1-8-9-14-6 3-2 2 3 16c0 1 0 29-2 40zm2 1-3-1h-1 1c2-10 2-38 3-40l-4-16 3-3 7-4 8 16 2 8s3 16-2 29c-2 9-9 11-14 11"/><path fill="#fff" d="M266 82v4s3 6 9 7c0 0-2-6-1-8 1-3-5-3-5-3h-3"/><path fill="#1a162c" d="M266 86c1 1 4 5 9 6-1-1-2-5-1-7v-1l-5-2h-2v3zm10 7h-1c-6 0-10-6-10-6l1-2-1-3-1-1h5c1 0 4 0 5 2l1 2c-1 2 1 7 1 7v1"/><path fill="#1a162c" d="m273 90 1-5h2v6l1 8-4-9"/><path fill="#1a162c" d="m274 90 2 4v-8h-2v4zm3 9-4-8v-6h4v14"/><path fill="#1a162c" d="M266 85s0 4 7 5l4 9c-1-1-2-4-5-6h-1l-1-2-2 1-5-4c0-3 1-4 3-5v2"/><path fill="#1a162c" d="M270 91h1v1l1 1 4 4-3-6c-7-2-7-6-7-6v-1l-2 1v3c0 2 3 3 4 3h2zm7 9-1-1-5-5v-1l-1-1h-2c-2 0-4-2-5-4l1-3 2-2h1v2s-1 3 6 5h1s3 5 3 9v1"/><path fill="#fff" d="M267 82c0 2 2 4 8 4l1-1c1-2 2-6 0-11v-1l-10 2v3s-2 0-2 2l2 2h1"/><path fill="#1a162c" d="M267 82c1 1 2 3 8 3h1V75l-1-2-8 2-1 4h-1v1l1 1 1 1zm8 4c-6 0-8-2-9-3v-1l-2-1v-2l1-1 1-4 10-2v2c2 5 1 9 1 11l-2 1"/><path fill="#1a162c" d="m265 75-2-2 1-3 2-1c2-1 5 2 7 1 4-2 0-3-1-2 0 0 2-3 4-1 3 3 2 7-3 7l-5 1h-3"/><path fill="#1a162c" d="M267 69h-1l-2 1-1 3 2 2h3l5-1c2 0 4-1 4-3 1-1 0-2-1-3l-2-1 1 1-1 2h-5l-2-1zm0 7h-2l-2-2v-4l3-2 3 1h4l1-1h-2v-1c1-1 3-2 5 0 1 1 2 3 1 5s-2 3-5 3l-4 1h-2"/><path fill="#1a162c" d="m263 79-1-1v-3c0-2 3-1 5-1v2l-1 2-1 1h-2"/><path fill="#1a162c" d="m263 78 1 1 1-1h1l1-2-1-1-3-1-1 1 1 3zm1 1h-1l-1-1-1-4h6l1 2-1 2-2 1h-1m3 2h-1v-1h1v1m-1 93v-1l4-1v1l-4 1m1 2v-1l3-1 1 1-4 1m15-14-1-1 2-2h1l-2 3m2 0-1-1 2-1h1l-2 2"/><path fill="#fff" d="m276 95-3-4h1l2 4m-9-19-2-2h-2v-1h2c1 0 2 0 3 2l-1 1"/><path fill="#f9a70d" d="M265 167h-1v-11l1-10h1l-1 10v11m10-10-1-15h1l1 15h-1"/><path fill="#1a162c" d="M277 114a1 1 0 1 1-2 0 1 1 0 0 1 2 0m1 5a1 1 0 1 1-2 0 1 1 0 0 1 2 0m-1 4a1 1 0 1 1-2 0 1 1 0 0 1 2 0"/><path fill="#fff" d="M282 125s-3 6 0 15c3 7 1 12 1 13l8-2h1c0-2 0-8-2-12-2-5 0-12 0-14v-3l-3 2-1 1h-4"/><path fill="#1a162c" d="M282 125c0 2-2 7 1 14 2 7 1 12 0 13l8-1c0-1 1-8-1-12-3-4-1-11 0-14v-2l-2 2h-6zm1 28a1 1 0 0 1-1 0c1-1 2-6 0-13-3-9-1-15 0-16l4 1 1-1 3-2v3c0 4-2 9 0 14 3 4 2 10 2 12l-1 1-8 1"/><path fill="#fff" d="M282 125s3 1 4-2l-5-20c0-5-1-11 2-13l8 2s-3 5-2 11c1 7 6 18 3 21 0 0-3 3-10 1"/><path fill="#1a162c" d="M285 125c5 1 7-1 7-1 2-2 0-9-2-14l-1-6c-1-6 0-10 1-11l-7-2c-3 2-2 7-1 11l2 9 2 12-1 2zm2 1-5-1v-1h2l1-1-2-12-2-8c-1-5-2-11 2-13l8 2s-3 6-2 11l2 6c2 6 4 13 1 16l-5 1"/><path fill="#1a162c" d="M287 122v-1l5-1v1l-5 1m-1 28v-1l4-1v1l-4 1m0-3 4-1v1h-4m0-2v-1l4-1v1l-4 1m-1-3v-1h4v1h-4m2-22v-1l4-1v1l-4 1m-1-3v-1h5l-5 1m0-2v-1l4-1v1l-4 1m-1-2v-1l4-1 1 1-5 1"/><path fill="#fff" d="M278 96s0-3 2-4v2l1 1 3-3c1-2 2 0 2 2s-5 4-5 4l-3-2"/><path fill="#1a162c" d="m279 96 2 2c1-1 4-2 4-4v-2l-4 3h-1v-2l-1 3zm2 3-3-3 1-4h2v2l3-2 1-1c1 0 2 1 1 3 0 3-5 5-5 5"/><path fill="#5d97e5" d="m262 88-2 2-2 2c0 3 0 11 5 17l2 2 4-2a325 325 0 0 0 10-10l-2-2h-1l-9 7s0-6-3-12l-2-4"/><path fill="#1a162c" d="M266 111h-1l-2-1c-5-7-5-15-5-18l1-3 3-2v1l-2 2-1 2c0 3 0 11 4 17l2 1 4-1a327 327 0 0 0 10-9l-2-3h-1l-9 8v-1l-3-12h1l3 11 8-6h1l3 2v2a324 324 0 0 1-14 10"/><path fill="#1a162c" d="m281 99-1 1-3-3 1-1h1l2 2v1"/><path fill="#1a162c" d="M281 98v1zm-3-1 2 2v-1l-2-1zm2 3-4-3 2-1h1l2 2a1 1 0 0 1 0 1l-1 1"/><path fill="#fff" d="M283 90s2 1 2 3c0 0-1 4 1 7h8l-2-6c1-2 0-3-1-3 0 0-5-2-8-1"/><path fill="#1a162c" d="M286 99h7l-1-5-1-3h-6v2l1 6zm9 1h-9c-2-3-2-7-2-7v-2h-1l-1-1h9c2 1 2 2 2 4l2 5v1"/><path fill="#1a162c" d="M291 98h-4v-1h4v1m0-2h-4v-1h4v1"/><path fill="#fff" d="M272 74v-1c2 0 3-1 3-2v-2l1-1v3c0 2-2 3-4 3"/><path fill="#1a162c" d="M268 80v-1l2-1v1l-2 1"/><path fill="#1a162c" d="M271 78a1 1 0 1 0 0 2 1 1 0 0 0 0-2zm0 3a2 2 0 1 1 0-4 2 2 0 0 1 0 4m4-5-1 1 1 1 1-1-1-1zm0 3-2-2 2-2 2 2-2 2"/><path fill="#1a162c" d="m273 79-1-1 1-1h1v1h-1v1m4-2 1-1v1h-1m-3 4v-1h1l-1-1 1-1 1 2v1h-2m0 3h-1v-1h2l-1 1"/><path fill="#5d97e5" d="m117 342-24-13v-6l16-5 8-4h2l16 9h8v5l-1 1-23 13h-2"/><path fill="#1a162c" d="M117 342h2l23-14v-4h-7l-16-10-2 1-7 4h-1l-15 5v4zm1 1h-1l-24-14v-6l16-5 8-4h2l16 9h8a1 1 0 0 1 0 1v5l-24 14h-1"/><path fill="#1a162c" d="M136 323a2182 2182 0 0 1 7 1v4l-1 1-23 13v-5c-1-1 17-14 17-14"/><path fill="#1a162c" d="M120 337v4l22-13v-4h-6c-8 5-16 12-16 13zm-1 6v-6l8-8 9-6h7v6l-24 14"/><path fill="#fff" d="m142 323-23-14h-2l-23 13v2l23 13h2l23-13v-1"/><path fill="#1a162c" d="m94 323 23 14h2l23-14-23-14-2 1-23 13zm24 15h-1l-24-14v-2l24-13h2l24 13v2l-24 14h-1"/><path fill="#1a162c" d="M97 330h-1v-5h1v5"/><path fill="#fff" d="M139 331h-1v-4h1v4m-30 4-4-2-4 2v1l4 4v1h2l-2 1 4-3v-4"/><path fill="#1a162c" d="m101 336 4 4v1l2-1 2-1v-3l-1-1-3-2zm4 7v-1h-1v-2l-4-4 1-1 4-3 4 2 1 2v3l-1 1-4 2v1"/><path fill="#1a162c" d="m102 339 3 3 4-3v-3l-4 2-3 1"/><path fill="#1a162c" d="m103 339 2 2 4-2v-2l-4 2zm2 3h-1l-3-2v-1l4-1 4-3a1 1 0 0 1 1 1v3l-1 1-4 2"/><path fill="#5d97e5" d="m104 342-3-2-1-1v-3l1-1 3 2 1 1v4h-1"/><path fill="#1a162c" d="M101 336v4l3 2v-4zm4 7-1-1-3-1-1-2v-4h1l4 2v6"/><path fill="#fff" d="m105 340 4-2-4 2"/><path fill="#5d97e5" d="m121 321-15-9h-1v-5h8l8-4h2l7 4h8v5l-15 9h-2"/><path fill="#1a162c" d="M121 321h2l15-9v-5h-8l-7-4h-2l-7 4h-8v5zm1 1h-1l-16-9v-6l1-1h7l8-4h2l8 5 7-1a1 1 0 0 1 1 1v5l-1 1-15 8-1 1"/><path fill="#1a162c" d="M131 307a2854 2854 0 0 1 7 0v5l-15 9v-5c-1-1 8-9 8-9"/><path fill="#1a162c" d="M123 316v4l15-8v-5h-6l-9 9zm0 6v-1h-1v-5c0-2 6-7 9-9v-1h7l1 1v5l-1 1-15 9"/><path fill="#fff" d="m138 306-15-8h-2l-15 8v1l15 9h2l15-9v-1"/><path fill="#1a162c" d="m106 307 15 9h2l15-9-15-9h-2l-15 9zm16 10h-1l-16-9v-1l1-1 15-9h2l15 9 1 1-1 1-15 9h-1"/><path fill="#1a162c" d="M109 314h-1v-5h1v5"/><path fill="#fff" d="M134 314v-4 4"/><path fill="#5d97e5" d="M126 301h-9l1 5 1 1h5l1-1 1-5"/><path fill="#1a162c" d="m119 306 1 1h4l1-1 1-5h-8zm3 2h-3l-1-2-1-6h10l-1 6-1 2h-3"/><path fill="#fff" d="M127 299v-3h-10v3c0 1 0 2 2 3h5l3-3"/><path fill="#1a162c" d="M117 297v2c0 1 1 2 3 2h4c2 0 3-1 3-2v-2h-6zm5 6-3-1c-2 0-3-1-3-3v-3h11a1 1 0 0 1 1 0v3c0 2-2 3-4 3l-2 1"/><path fill="#5d97e5" d="M126 294c2 1 2 3 0 4h-8c-2-1-2-3 0-4h8"/><path fill="#1a162c" d="M122 294h-4l-1 2 1 2h7l2-2-2-2h-3zm0 6-4-1-2-3 2-2c2-2 6-2 8 0l2 2-2 3-4 1"/><path fill="#1a162c" d="M126 296h-8l-1 1 1 1h8l1-1-1-1"/><path fill="#1a162c" d="M118 297v1h7l1-1h-8zm4 3-4-1-1-1-1-1h1l1-1h8l1 1v1l-1 1-4 1"/><path fill="#5d97e5" d="M122 286s-3 1-3 5c0 5 3 5 3 5s3 0 3-5c0-4-3-5-3-5"/><path fill="#1a162c" d="M122 287c-1 0-3 1-3 4 0 4 2 5 3 5 0 0 2-1 2-5 0-3-2-4-2-4zm0 10s-3-1-3-6c0-4 3-5 3-5s3 1 3 5c0 5-3 6-3 6"/><path fill="#5d97e5" d="M315 304v-6l-11 1-1-5-10 5h-2v5l1 1 10 5h2l10-5 1-1"/><path fill="#1a162c" d="M292 299v5l10 6h2l10-6v-5l-10 1-1-6-10 6zm11 12h-2l-9-6-1-1v-5a1 1 0 0 1 0-1l2 1 10-6h1v6l11-1v6l-1 1-9 6h-2"/><path fill="#1a162c" d="m315 298-11 1-1 4v8l1-1 10-5 1-1v-6"/><path fill="#1a162c" d="M303 303v7h1l10-6v-5l-10 1zm0 8h-1v-8l2-4 11-1v1a6535 6535 0 0 1-1 6l-9 6h-2m-10-11v-1h-2v5h1l1 1v-5"/><path fill="#1a162c" d="M292 299v5-5zm1 7-1-1-1-1v-5a1 1 0 0 1 0-1l3 1-1 1v6"/><path fill="#fff" d="m302 305-10-6v-1l10-6h2l10 6v1l-10 6h-2"/><path fill="#1a162c" d="M303 292h-1l-10 6v1l10 6h2l10-6v-1l-10-6h-1zm0 14h-2l-9-6-1-1 1-2 10-6h3l9 6 1 2-1 1-10 6h-1"/><path fill="#5d97e5" d="M314 293a5334 5334 0 0 0 0-5l-11 1-1-6-10 6-2-1v6h1l10 6h2l10-6 1-1"/><path fill="#1a162c" d="M291 289v5l10 6h2l10-6v-5l-10 1-1-6-10 5zm11 12-2-1-9-5-1-1v-6h2l10-5h1l1 6 10-1v6l-1 1-9 5-2 1"/><path fill="#1a162c" d="m314 288-11 1-1 4v7h1l10-6 1-1a5337 5337 0 0 0 0-5"/><path fill="#1a162c" d="M302 293v7h1l10-6v-5l-10 1zm0 8h-1v-8l2-4 11-1v6l-1 1-9 5-2 1m-10-11v-1l-2-1v6h1l1 1v-5"/><path fill="#1a162c" d="M291 289v5-5zm1 7-1-1-1-1v-6l3 1-1 1v6"/><path fill="#fff" d="m301 295-10-6v-2l10-5h2l10 5v2l-10 6h-2"/><path fill="#1a162c" d="M302 282h-1l-10 6v1l10 6h2l10-6v-1l-10-6h-1zm0 14-2-1-9-5-1-2 1-1 10-6h3l9 6 1 1-1 2-10 5-1 1"/><path fill="#fff" d="m299 285 7 4 6-4-6-4-7 4"/><path fill="#1a162c" d="m300 285 6 3 5-3-5-3zm6 4-8-4 8-4 7 4-7 4"/><path fill="#5d97e5" d="M84 230v-55h-1l-10 1-1-6-10 6-2-1v55l1 1 9 6h3l10-6 1-1"/><path fill="#1a162c" d="M61 176v55l10 5h2l10-5v-55l-10 1-1-1v-5l-10 5zm11 62-2-1-10-6v-56h2l10-5 1 6 11-1v55l-1 1-10 6-1 1"/><path fill="#1a162c" d="m83 175-10 1-1 4v57h1l10-6 1-1v-55h-1"/><path fill="#1a162c" d="M72 180v57l1-1 10-5v-55l-10 1zm0 58h-1v-58l2-5v1l11-1a729799 729799 0 0 1-1 56l-10 6-1 1m-10-61v-1l-2-1v55l1 1 1 1v-55"/><path fill="#1a162c" d="M61 176v55-55zm1 56-2-1v-56l2 1v56"/><path fill="#fff" d="m70 182-9-6v-2l10-5h2l10 5v2l-10 6h-3"/><path fill="#1a162c" d="M72 169h-1l-10 6v1l10 6h2l10-6v-1l-10-6h-1zm0 14-2-1-10-5v-3l10-6h3l10 6 1 1-1 2-10 5-1 1"/><path fill="#5d97e5" d="M67 240v-72l-18 5 5-10-17 10-3-1v71l1 1 11 7h3l17-10 1-1"/><path fill="#1a162c" d="M35 173v19a138266 138266 0 0 0 0 52l11 6h3l17-10h1v-71l-18 5-1-1 5-9-16 9h-1zm12 79-1-1-11-6-1-2v-71h3l17-9c0-1 0-1 0 0h1l-5 9 17-4 1 1v71l-1 1-18 10-2 1"/><path fill="#1a162c" d="m67 168-18 5-2 4v74h2l17-10 1-1v-72"/><path fill="#1a162c" d="M48 177v74l1-1 17-10h1v-71l-18 5zm0 75h-1v-75l2-5v1l18-5 1 1v71l-1 1-18 10-1 1m-12-78v-1l-2-1v71l1 1 1 1v-71"/><path fill="#1a162c" d="M35 173v19a138263 138263 0 0 0 0 52h1v-71zm2 73-2-1-1-2v-71h3v74"/><path fill="#fff" d="m46 180-11-7v-2l17-10h3l11 7v2l-17 10h-3"/><path fill="#1a162c" d="m54 161-1 1-18 10v1l11 6h3l17-10h1l-1-1-11-6-1-1zm-6 20-2-1-11-6-1-2 1-1 17-10h4l11 6 1 2-1 1-18 10-1 1"/><path fill="#5d97e5" d="M67 163v-2l-18 4 5-10-17 10-3-1v3l1 1 11 6h3l17-10 1-1"/><path fill="#1a162c" d="M35 165v3l11 6h3l17-10 1-1v-2l-18 5-1-1 5-9-16 9h-1zm13 10h-2l-11-7-1-1v-3h3l17-9h1l-5 10 17-5 1 1v2l-1 2-18 10h-1"/><path fill="#1a162c" d="m67 161-18 4-2 4v6l2-1 17-10 1-1v-2"/><path fill="#1a162c" d="M48 169v5h1l17-10 1-1v-2l-18 5zm0 6h-1v-6l2-4 18-5 1 1v2l-1 2-18 10h-1m-12-9v-1l-2-1v3l1 1 1 1v-3"/><path fill="#1a162c" d="M35 165v3h1v-3zm2 4-2-1-1-1v-3h1l2 1v4"/><path fill="#fff" d="m46 172-11-7v-2l17-10h3l11 7v2l-17 10h-3"/><path fill="#1a162c" d="m54 153-1 1-18 10a1 1 0 0 0 0 1l11 6h3l17-10h1l-1-1-11-6-1-1zm-6 20-2-1-11-6-1-2 1-1 17-10h4l11 6 1 2-1 1-18 10-1 1"/><path fill="#fff" d="m41 157 11 6 11-6-11-6-11 6"/><path fill="#1a162c" d="m42 157 10 6 10-6-10-6zm10 7-12-7 12-7 12 7-12 7"/><path fill="#fff" d="m43 164 6 4 7-4-7-3-6 3"/><path fill="#1a162c" d="m44 164 5 3 6-3-6-3zm5 4-7-4 7-4 8 4-8 4"/><path fill="#fff" d="M65 230h-1l-14 8v4l14-8 1-2v-2zm-15 13h-1v-4l1-2 14-8h1l1 1v2l-2 2-14 9"/><path fill="#fff" d="m52 239-1 1 1-1zm-1 1h-1l1-2h1v2h-1m3-3-1 1h1v-1zm-1 2v-1l1-1h1l-1 2h-1m4-3-1 1h-1l1-1h1m2-1-1 1 1-1zm-1 1h-1l1-2h1v2h-1m3-3-1 1h1v-1zm-1 2v-1l1-1c0-1 0-1 0 0h1l-1 2h-1m5-14h-1l-14 8v5l14-8 1-2v-3zm-15 13h-1v-3l1-2 14-8h1l1 1v2l-2 2-14 8"/><path fill="#fff" d="m52 230-1 1h1v-1zm-1 2-1-1 1-1h1v2h-1m3-3-1 1h1v-1zm-1 2v-1l1-2 1 1-1 2h-1m3-3v1-1zm0 1h-1l1-2h1v1l-1 1m3-3-1 1 1-1zm-1 2-1-1 1-1h1v2h-1m3-3v1h-1l1-1m2-1v1-1zm0 1h-1l1-2h1v1l-1 1"/><path fill="#f9f9f9" d="M65 213h-1l-14 8v4c0 1 0 0 0 0l14-8 1-1v-3zm-15 13h-1v-3l1-2 14-8h1l1 1v2l-2 2-14 8"/><path fill="#f9f9f9" d="m52 222-1 1 1-1zm-1 2-1-1 1-1h1v2h-1m3-3v1h-1l1-1c0-1 0 0 0 0m3-1-1 1-1-1 1-1 1 1m2-2-1 1 1-1zm-1 2-1-1 1-1h1v2h-1m3-3-1 1h1v-1zm-1 2v-1l1-2 1 1-1 1-1 1m3-4v1-1zm0 2h-1v-1l1-1h1v1l-1 1m2-12h-1l-14 8v4l14-8 1-1v-3zm-15 13h-1v-3l1-3 14-8h1l1 1v3l-2 2-14 8"/><path fill="#f9f9f9" d="m52 214-1 1 1-1zm-1 2-1-1 1-2h1v3h-1m5-5v1-1zm0 2h-1v-1l1-1h1l-1 2m3-3-1 1 1-1zm-1 2-1-1 1-2h1v3h-1m3-3v1l-1-1 1-1v1m2-2v1-1zm0 2h-1v-1l1-1h1l-1 2m2-12h-1l-14 8v4l14-8 1-2v-2zm-15 13h-1v-4l1-2 14-8h1l1 1v2l-2 3-14 8"/><path fill="#f9f9f9" d="m52 206-1 1 1-1zm-1 2v-1h-1l1-2h1v2l-1 1m3-4v1h-1 1v-1zm-1 2v-1l1-1 1 1-1 1h-1m4-3-1 1h-1l1-1h1m2-1-1 1 1-1zm-1 1h-1l1-2h1v2h-1m3-3-1 1h1v-1zm-1 2v-1l1-1 1 1-1 1h-1m3-3v1-1zm0 2h-1v-1l1-2h1v1l-1 2"/><path fill="#fff" d="m65 188-1 1-14 8v4l14-8 1-2v-3zm-15 14-1-1v-3l1-2 14-8h1v3l-1 2-14 8v1"/><path fill="#fff" d="M52 198h-1v1l1-1zm-1 1-1-1 1-1h1v2h-1m3-3-1 1 1-1zm-1 2v-2h2l-1 2h-1m3-3v1-1zm0 2-1-1 1-2h1v1l-1 1v1m3-3-1 1v-2l1 1m2-2v1h-1l1-1m4-12h-1l-14 8v5l14-8 1-2v-3zm-15 13h-1v-3l1-2 14-8h1v3l-1 2-14 8"/><path fill="#fff" d="M52 189h-1v1h1v-1zm-1 2-1-1 1-1h1v1l-1 1m3-3v1h-1l1-1m2-1v1-1zm0 1h-1l1-2h1v1l-1 1m3-3-1 1 1-1zm-1 2-1-1 1-1h1v2h-1m3-3-1 1h1v-1zm-1 2v-1l1-2 1 1-1 2h-1m3-3v1-1zm0 1h-1l1-2h1v1l-1 1m-25 20-5-4h-1v-11h1l5 3 1 1v10l-1 1"/><path fill="#1a162c" d="M33 189v11l5 3v-11zm5 15-5-3-1-1v-12h1l6 4v12h-1"/><path fill="#1a162c" d="M36 194v1l-1-1 1-1v1"/><path fill="#5d97e5" d="M44 250a23150 23150 0 0 0 0-11l-11 1-1-6-9 6-2-1v11l10 6h3l10-6"/><path fill="#1a162c" d="M21 240v10l10 6h2l10-6h1v-10l-11 1-1-6-9 6-1-1zm11 17h-1l-10-6-1-1v-11h1l2 1 9-6h1l1 6 10-1h1v11l-1 1-10 6h-2"/><path fill="#1a162c" d="m44 239-11 1-1 4v13l2-1 10-6a23158 23158 0 0 0 0-11"/><path fill="#1a162c" d="M33 244v12l10-6h1v-10l-10 1zm-1 13v-13l1-4h1l10-1h1a25353 25353 0 0 1-1 12l-10 6h-2m-10-16v-1l-1-1v11l1 1v-10"/><path fill="#1a162c" d="M21 240v10h1v-10zm2 12-2-1-1-1v-11h1l2 1v12"/><path fill="#fff" d="m31 246-10-6v-2l10-5h3l10 5v2l-10 6h-3"/><path fill="#1a162c" d="M32 233h-1l-10 6v1l10 6h2l10-6 1-1h-1l-10-6h-1zm0 14-1-1-10-5-1-2 1-1 10-6h3l10 6 1 1-1 2-10 5-2 1"/><path fill="#fff" d="m31 243-5-3 7-4 5 3-7 4"/><path fill="#1a162c" d="m27 240 4 2 6-3-4-2zm4 3-6-3 8-5 6 4-8 4"/><path fill="#5d97e5" d="M29 229v9l2 1h2l1-1 1-8v-1h-6"/><path fill="#1a162c" d="m29 230 1 8 1 1h2l1-1 1-8zm3 10h-1c-2 0-2-1-2-2l-1-8a1 1 0 0 1 1-1h6a1 1 0 0 1 1 1l-1 8-2 2h-1"/><path fill="#5d97e5" d="M34 228v3h-4c-2-1-2-2 0-3h4"/><path fill="#1a162c" d="M32 228h-2l-1 1 1 1h4l1-1-1-1h-2zm0 4-3-1-1-2 1-2h5l2 2-2 2-2 1"/><path fill="#fff" d="m77 219 10-5 1-1v-11h-1l-10 6v11"/><path fill="#1a162c" d="m87 203-9 5h-1v11l10-6zm-10 17v-13l10-5h1v11l-1 1-9 6h-1"/><path fill="#1a162c" d="M79 210h1v-1l-1 1"/><path fill="#fff" d="M71 165v9l2 2h2l1-2 1-8v-1h-6"/><path fill="#1a162c" d="m71 166 1 8 1 1h1l2-1v-8zm3 10h-1c-2 0-2-1-2-2l-1-8a1 1 0 0 1 1-1h6a1 1 0 0 1 0 1v8l-2 2h-1"/><path fill="#5d97e5" d="M76 164v3h-5v-3h5"/><path fill="#1a162c" d="M74 164h-2l-1 1 1 1h4l1-1-1-1h-2zm0 4-3-1-1-2 1-1h5l1 1-1 2-2 1"/><path fill="#5d97e5" d="m243 309-1 1 2 9 3 3h4l3-3 2-9-1-1h-12"/><path fill="#1a162c" d="M243 310h-1l2 9c0 1 1 2 3 2h3c2 0 3-1 3-2l2-9zm6 12h-2c-2 0-4-2-4-3l-2-9 1-1h13a1 1 0 0 1 1 1l-2 9c0 1-1 3-3 3h-2"/><path fill="#1a162c" d="M255 309h-3l-2 4v9h1l3-3 2-9-1-1"/><path fill="#1a162c" d="m251 313-1 8c2 0 3-1 3-2l2-9h-3zm-2 9 1-9 1-4h4a1 1 0 0 1 1 1l-2 9c0 1-1 3-3 3h-2"/><path fill="#5d97e5" d="M254 306c2 2 2 4 0 6-3 2-7 2-10 0s-3-4 0-6h10"/><path fill="#1a162c" d="m249 306-5 1-2 2 2 3h9c2-1 2-2 2-3s0-2-2-2l-4-1zm0 8-5-2c-2 0-3-2-3-3l3-3c2-2 7-2 10 0l2 3-2 3-5 2"/><path fill="#1a162c" d="m247 305-3 1c-3 2-3 4 0 6l4 1-1-8"/><path fill="#1a162c" d="m246 306-2 1-2 2 2 3h3zm2 8h-1l-3-2c-2 0-3-2-3-3l3-3 3-1 1 9"/><path fill="#fff" d="m245 310 2-1 1-1 1-1 2 1v1l1 1h1v2c-2 1-5 1-8-1v-1"/><path fill="#1a162c" d="M245 310v1c3 2 6 1 8 1v-1h-1l-1-1v-2h-3l-1 1zm4 3-4-1a1 1 0 0 1 0-3l2-1 1-1h3l1 1v2h1l1 1-1 1-4 1"/><path fill="#fff" d="M249 309a1 1 0 1 1-3 0 1 1 0 0 1 3 0"/><path fill="#1a162c" d="M247 308a1 1 0 1 0 0 2 1 1 0 0 0 0-2zm0 3a2 2 0 1 1 0-4 2 2 0 0 1 0 4"/><path fill="#fff" d="M254 310a1 1 0 1 1-3 0 1 1 0 0 1 3 0"/><path fill="#1a162c" d="M253 309a1 1 0 0 0 0 2 1 1 0 0 0 0-2zm0 3a2 2 0 1 1 0-4 2 2 0 0 1 0 4"/><path fill="#fff" d="m59 260-5-3-6 4 6 6v2l2-1-3 2h1l6-4v-5l-1-1"/><path fill="#1a162c" d="m49 261 5 6v1h3l2-2v-6l-5-3zm5 9a1 1 0 0 1-1 0v-3l-5-6v-1l6-3h1l4 2 1 2v6l-6 3"/><path fill="#1a162c" d="m49 266 4 4h1l6-4v-5l-6 4-5 1"/><path fill="#1a162c" d="m50 266 4 3 5-3v-4l-5 3zm4 4h-1l-4-3v-1l5-1v-1l5-3a1 1 0 0 1 1 1v5l-6 3"/><path fill="#5d97e5" d="m53 270-5-3v-6s0-1 0 0l5 2 1 2v4l-1 1"/><path fill="#1a162c" d="M53 270v-6l-5-3v5l1 1zm0 1v-1l-5-2-1-2v-5l1-1h1l4 3 1 2v5l-1 1"/><path fill="#fff" d="m55 268-1-1 5-3 1 1-5 3"/><path fill="#5d97e5" d="M275 243v-5l-11 1-1-6-9 6h-1l-1-1v6l10 6h3l10-6v-1"/><path fill="#1a162c" d="M252 239a1758 1758 0 0 0 0 5l10 6h2l10-6 1-1v-4l-11 1-1-6-9 5h-1zm11 12-1-1-10-5-1-1v-5a1 1 0 0 1 1-1h1l10-5h1l1 6 10-1h1v6l-1 1-10 5-2 1"/><path fill="#1a162c" d="m275 238-11 1-1 4v7h2l10-6v-6"/><path fill="#1a162c" d="M264 243v7l10-6 1-1v-4l-10 1zm-1 8v-8l1-4 11-1h1v6l-1 1-10 5-2 1m-10-11v-1l-1-1v6l1 1v-5"/><path fill="#1a162c" d="M252 239a1756 1756 0 0 0 0 5h1v-5zm1 7-1-1-1-1v-5a1 1 0 0 1 1-1l2 1-1 1v6"/><path fill="#fff" d="m262 245-10-6v-2l10-5h3l10 5v2l-10 6h-3"/><path fill="#1a162c" d="M263 232h-1l-10 6v1l10 6h2l10-6 1-1h-1l-10-6h-1zm0 14-1-1-10-5-1-2 1-1 10-6h3l10 6 1 1-1 2-10 5-2 1"/><path fill="#fff" d="m264 237 7 4 6-4-6-4-7 4"/><path fill="#1a162c" d="m265 237 6 3 5-3-5-3zm6 4-8-4 8-4 7 4-7 4"/><path fill="#5d97e5" d="m443 103-1-1 3-2-5-3h-7c-6 3-12 12-12 19 0 4 1 6 3 7l6 3 1-2-1-1a12 12 0 0 0 2-1l1 5v1l5 3 1-2v-6h-3l5-11 2-9"/><path fill="none" d="M433 121v1a10 10 0 0 1 0 5l5 3v-6h-3l5-13c2-3 2-6 2-8v-1l2-2-5-3h-6c-6 3-11 12-11 19l2 7 5 3 1-2-1-1h1a12 12 0 0 0 2-1zm5 10-5-3-1-1a12 12 0 0 0 0-4l-1 1-1 2a1 1 0 0 1-1 1l-5-3c-2-2-3-4-3-8 0-7 5-17 12-19 2-2 5-2 6-1l1 1 5 2v1l-2 2v1c0 2 0 6-2 9l-4 11h2v8a1 1 0 0 1-1 0"/><path fill="#fff" d="M441 112a19 19 0 0 0 1-10l3-2-5-3h-7c-3 1-5 4-7 7l15 8"/><path fill="#1a162c" d="m426 103 14 9v-1a19 19 0 0 0 2-9l2-2-5-3h-6l-7 6zm15 10-16-9v-1c2-3 5-5 8-6 2-2 5-2 6-1l1 1 5 2v1l-2 2v1c0 2 0 6-2 9v1"/><path fill="#1a162c" d="m446 115 2-9c-1-6-5-8-10-6-6 3-12 12-12 19s5 10 11 7l1-1v5h1l7-15"/><path fill="#1a162c" d="M438 125a10 10 0 0 1 0 5h1l7-16c1-3 2-6 1-8 0-3-1-5-3-6h-6c-6 3-11 12-11 19 0 3 1 6 3 7s4 1 7-1zm0 6-1-1v-4c-3 2-6 2-8 1-2-2-3-4-3-8 0-7 6-17 12-19 3-2 5-2 7-1 2 2 3 4 3 7 1 2 0 6-1 9l-7 15-2 1"/><path fill="#1a162c" d="m433 115-1 3c-2 1-2 1-2-1 0-1 0-2 2-3l1 1"/><path fill="#fff" d="M432 114v1l-2 2v1h1l2-3v-1h-1zm-1 5h-1l-1-2 2-3h2l1 1-2 4h-1"/><path fill="#1a162c" d="m439 112-2 3c-1 1-2 0-2-1l2-3c1-1 2 0 2 1"/><path fill="#fff" d="M438 111h-1l-1 3v1h1l1-3v-1zm-2 5-1-2 2-3 2-1v2c0 1 0 3-2 4h-1"/><path fill="#1a162c" d="m444 109-1 3c-1 1-2 0-2-1l2-3c1-1 1 0 1 1"/><path fill="#fff" d="m443 108-2 3 1 1 2-3v-1h-1zm-1 5h-1l-1-2 2-4h2l1 2-2 3-1 1"/><path fill="#f9a70d" d="m421 118 5 3-5-3"/><path fill="#1a162c" d="m426 121-5-3v-1l6 3-1 1"/><path fill="#f9a70d" d="m433 97 6 3-6-3"/><path fill="#1a162c" d="m438 100-5-3 1-1 5 3-1 1"/><path fill="#5d97e5" d="m210 104 2-2v-1l-5-2-1-1-6 1c-6 3-12 12-12 19 0 3 1 6 3 7l6 3 1-2-1-1a12 12 0 0 0 2-1l1 5 5 3 1-1v-6h-3l5-12 2-9"/><path fill="#1a162c" d="M200 123v1a10 10 0 0 1 0 5l5 3v-7h-3l6-12 1-9v-1l2-1-5-3h-6c-6 3-11 12-11 19l2 6 4 3h2v-1l-1-1h1a12 12 0 0 0 2-2zm5 10-5-3-1-1v-4h-1 1l-2 3h-2l-4-3c-2-1-3-4-3-7 0-8 5-17 12-20h7l5 3a1 1 0 0 1 0 1l-2 2c0 3 0 6-2 9l-4 11h2v8a1 1 0 0 1-1 1"/><path fill="#fff" d="M208 114v-1a19 19 0 0 0 2-9l2-2v-1l-5-2-1-1-6 1c-3 1-5 3-7 6l15 9"/><path fill="#1a162c" d="m193 105 14 8h1a19 19 0 0 0 1-9v-1l2-1-5-3h-6l-7 6zm15 10-16-10c2-3 5-6 8-7h7l5 3a1 1 0 0 1 0 1l-2 2c0 3 0 6-2 10v1"/><path fill="#1a162c" d="M213 116c2-3 2-6 2-9-1-5-5-8-10-5-6 3-12 12-12 19s5 10 11 6h1v5c0 1 1 1 2-1l6-15"/><path fill="#1a162c" d="M205 126v1a10 10 0 0 1 1 5v-1l7-15c1-3 2-6 1-9l-2-5h-6c-7 3-12 12-12 19 0 3 1 5 3 6 2 2 4 1 7 0v-1zm1 7h-1v-1a12 12 0 0 0-1-4c-3 1-5 2-8 0-2-1-3-4-3-7 0-8 6-17 12-20h7c2 1 3 3 3 6 1 3 0 6-1 9v1l-7 15-1 1"/><path fill="#1a162c" d="m200 117-1 3c-1 1-2 0-2-1l2-3c1-1 1 0 1 1"/><path fill="#fff" d="m199 116-2 3 1 1 2-3v-1h-1zm-1 5h-1l-1-2 2-4h2l1 2-2 4h-1"/><path fill="#1a162c" d="m206 114-2 3c-1 1-2 0-2-1l2-3c1-1 2 0 2 1"/><path fill="#fff" d="M205 113h-1l-1 3v1l1-1 2-2-1-1zm-2 5v-1l-1-1 2-4h2l1 2c0 1-1 3-3 3l-1 1"/><path fill="#1a162c" d="m212 111-2 3-2-1 2-4c1 0 2 0 2 2"/><path fill="#fff" d="M211 110h-1l-2 3h2l1-2v-1zm-2 4h-1l-1-1c0-2 1-3 3-4h1l1 2-2 3h-1"/><path fill="#f9a70d" d="m188 119 6 3-6-3"/><path fill="#1a162c" d="m193 123-5-3 1-1 5 3-1 1"/><path fill="#f9a70d" d="m201 99 5 3-5-3"/><path fill="#1a162c" d="m206 102-6-3 1-1 5 3v1"/><path fill="#5d97e5" d="m232 212-26-15-1-1v-5h1l17-5 8-5h3l17 10h9v6h-1l-25 15h-2"/><path fill="#1a162c" d="m232 212 2-1 25-14v-5h-8l-18-11h-1l-9 5-17 5v5zm1 1-2-1-26-15v-6l1-1 17-5 8-4 3-1 17 11h9v7l-26 14-1 1"/><path fill="#1a162c" d="M252 191a3365 3365 0 0 1 8 0v6h-1l-25 15v-6c-1-1 18-15 18-15"/><path fill="#1a162c" d="M234 207v4l25-14v-5h-7l-18 14v1zm0 5h-1v-6l10-8 9-7h8v7l-26 14"/><path fill="#fff" d="m260 191-26-16-3 1-25 14v1l26 16 2-1 25-14 1-1"/><path fill="#1a162c" d="M233 176h-1l-26 15 26 15h2l25-15-26-15zm0 31h-2l-25-15-1-1 1-1 25-15h3l26 15v2l-26 15h-1"/><path fill="#1a162c" d="M209 199h-1v-6h1v6"/><path fill="#fff" d="M256 199h-1v-4h1v4m-34 5-3-2h-1l-4 2v1l4 4v2l2-1-2 2 5-3v-4l-1-1"/><path fill="#1a162c" d="m214 205 4 4v1h2l2-2v-4l-4-2zm4 7-1-1h1v-2l-5-4v-1l5-3h1l4 2v6l-5 3"/><path fill="#1a162c" d="m215 209 3 2v1l5-3v-4l-5 3-3 1"/><path fill="#1a162c" d="m216 209 2 2 4-3v-2l-3 2zm2 3-4-3v-1l4-1 4-2h1v4l-4 3h-1"/><path fill="#5d97e5" d="m218 212-4-2-1-2v-3l1-1 4 3v5"/><path fill="#1a162c" d="M214 205v4l4 2v-3l-1-1zm4 7h-1l-3-2-1-2v-4h1l4 2 1 2v3l-1 1"/><path fill="#fff" d="m219 210-1-1 4-2 1 1-4 2"/><path fill="#5d97e5" d="m265 364-21-13h-1v-5h1l14-4 7-4h2l14 8v1l7-1v5l-21 12-2 1"/><path fill="#1a162c" d="M265 363h2l20-12h1v-4h-7l-15-9-1 1-7 3-14 5v4zm1 1h-1l-21-12-1-1v-5h1l14-5 7-3h2l14 8h7l1 1v4l-1 1-21 12h-1"/><path fill="#1a162c" d="M282 346a2105 2105 0 0 1 6 1v4l-21 12v-4c-1-1 15-13 15-13"/><path fill="#1a162c" d="M267 359v4l20-12h1v-4h-6l-15 12zm0 5-1-1v-4l8-7 8-6h6l1 1v4l-1 1-21 12"/><path fill="#fff" d="m288 346-21-12h-2l-21 12v1l21 12h2l21-12v-1"/><path fill="#1a162c" d="m244 346 21 13h2l21-12v-1l-22-12h-1l-21 12zm22 14-1-1-21-12-1-1 1-1 21-12h2l21 13h1l-1 1-21 12-1 1"/><path fill="#1a162c" d="M247 353h-1v-5h1v5"/><path fill="#fff" d="M285 353h-1v-4h1v4"/><path fill="#fff" d="m286 353-3-1-4 2 4 4v1h2l-2 1 4-2v-4l-1-1"/><path fill="#1a162c" d="m280 354 3 4v1l2-1 1-1v-3l-3-2zm3 6a1 1 0 0 1-1 0v-2l-3-4 4-3 4 2v5l-4 2"/><path fill="#1a162c" d="M280 357v1l3 2 4-2v-4l-4 3h-3"/><path fill="#1a162c" d="m281 358 2 1 3-2v-2l-3 2zm2 2h-1l-2-2v-1l3-1 3-2a1 1 0 0 1 1 1v3l-4 2"/><path fill="#5d97e5" d="m282 360-3-2v-4l3 2 1 1v3h-1"/><path fill="#1a162c" d="M279 355v2l1 1 2 1v-3zm4 5h-1 1zm0 1-1-1-3-1-1-2v-3h2l3 1v6"/><path fill="#fff" d="M283 359v-1l3-2 1 1-4 2"/><path fill="#5d97e5" d="m243 355-14-8v-5h7l7-4h1l7 4h7v5l-14 8h-1"/><path fill="#1a162c" d="m243 355 1-1 14-7v-4h-7l-7-4h-1l-7 3v1h-7v4zm0 1-1-1-13-8h-1v-5h8l6-4h3l6 4h8v5l-1 1-13 7-2 1"/><path fill="#1a162c" d="M252 342a2104 2104 0 0 1 6 0v5l-14 8v-5l8-8"/><path fill="#1a162c" d="M245 351v3l13-7v-4h-6l-7 7zm-1 4v-5l8-8h7v5l-1 1-14 7"/><path fill="#fff" d="m258 342-14-8h-1l-14 8v1l14 7h1l14-7v-1"/><path fill="#1a162c" d="m229 342 14 8h1l14-8-14-8h-1l-14 8zm14 9h-1l-13-8-1-1 1-1 13-8h3l13 8 1 1-1 1-13 8h-2"/><path fill="#1a162c" d="M232 348h-1v-4h1v4"/><path fill="#fff" d="M255 349h-1v-4h1v4m16-20-3-2h-1l-4 2 4 6v1l1 2-4-2h1l3 6 4-2v-9l-1-2"/><path fill="#1a162c" d="m266 337 2 4 4-1v-9l-1-1-4-3-3 2 3 6v1l1 1-1 1zm2 6v-1l-4-6h2l-3-6v-1l4-2h1l4 2 1 2v8l-1 1-4 2v1"/><path fill="#1a162c" d="M264 335s2-8 3-1l-3 2h1l3 6 4-2v-9l-4 2-4 2"/><path fill="#1a162c" d="m266 331-1 3 1-1v-2zm-1 5 3 5 4-1v-8l-4 1-1 1zm3 7a1 1 0 0 1-1-1l-3-6 1-1-1 1v-1c0-3 1-5 2-5l1 3h1l4-3 1 1v8l-1 1-4 2v1"/><path fill="#5d97e5" d="m267 342-3-2-1-2v-8l1-1 3 2 1 2v9h-1"/><path fill="#1a162c" d="M268 342v-9l-1-1-3-2v10zm0 1h-1l-3-3-1-2v-9h1l4 2 1 2v9l-1 1"/><path fill="#1a162c" d="m267 331-1-1 4-2v1l-3 2"/><path fill="#fff" d="m269 338-1-1 4-2v1l-3 2"/><path fill="#5d97e5" d="m394 295-22-13v-5l15-4 7-4h1l15 9h7v4h-1l-20 13h-2"/><path fill="#1a162c" d="M394 294h1l21-12v-4h-6l-15-8h-1l-7 3-14 5v4zm1 1h-2l-21-12v-6l15-4 6-4h3l14 8h7v6l-21 12h-1"/><path fill="#1a162c" d="M411 278a2263 2263 0 0 1 6 0v4h-1l-20 12v-4c-1-1 15-12 15-12"/><path fill="#1a162c" d="M396 290v4l20-12v-4h-5l-15 12zm0 5h-1v-5l8-7 7-6h7v6l-21 12"/><path fill="#fff" d="m417 277-22-12h-1l-21 12v1l21 12h2l20-12 1-1"/><path fill="#1a162c" d="m373 277 21 13h1l21-12v-1l-21-12h-1l-21 12zm22 14h-1l-22-13v-2l21-12h3l21 13v1l-21 12-1 1"/><path fill="#1a162c" d="M375 284v-5h1l-1 5"/><path fill="#fff" d="M413 284v-4 4m-27 4-3-2-4 2v1l4 3v2l1-1-1 1 3-2h1v-3l-1-1"/><path fill="#1a162c" d="m380 289 3 3v1h1l2-1v-4l-3-2zm3 6h-1v-2l-3-4v-1l3-2h1l3 1 1 2v3l-4 3"/><path fill="#1a162c" d="m380 292 2 2h1l3-2h1v-3h-1l-3 2-3 1"/><path fill="#1a162c" d="m381 292 2 2 3-2v-2l-3 1v1zm2 3h-1l-3-3v-1h4l3-3a1 1 0 0 1 1 1v3l-4 3"/><path fill="#5d97e5" d="m382 294-3-1v-5l3 2 1 1v3h-1"/><path fill="#1a162c" d="M379 289v3l3 2v-3zm4 5h-1 1zm-1 1-3-2-1-1v-3l1-1 4 2v5h-1"/><path fill="#fff" d="M383 293v-1l3-2 1 1-4 2"/><path fill="#5d97e5" d="m397 276-14-8v-5h7l7-4h2l7 4h7v4l-1 1-13 7-2 1"/><path fill="#1a162c" d="M397 275h2l13-8v-4h-7l-6-4h-2l-6 4h-7v4zm1 1h-1l-14-8v-6h7l7-4h2l7 4h7v6l-14 8h-1"/><path fill="#1a162c" d="M407 263a2262 2262 0 0 1 6 0v4l-1 1-13 7v-4c-1-1 8-8 8-8"/><path fill="#1a162c" d="M399 271v4l13-8v-4h-5l-8 8zm0 5-1-1v-4c0-2 5-6 8-9h7v6l-14 8"/><path fill="#fff" d="m413 262-14-8h-2l-13 8v1l13 8h2l13-8 1-1"/><path fill="#1a162c" d="m384 263 13 8h2l13-8-13-8h-2l-13 8zm14 9-1-1-14-7v-2l14-8h2l14 8v2l-14 7-1 1"/><path fill="#1a162c" d="M386 269v-4h1l-1 4"/><path fill="#fff" d="M409 269v-3 3m-7 0-4-2h-1l-3 2 3 6v1l1 1-3-1 3 6h1l3-2v-11"/><path fill="#1a162c" d="m396 277 3 4 3-2v-8l-1-2-3-2-4 2 4 6v3zm2 5-3-6v-1l2 1v-1l-4-6h1l3-3h1l4 3 1 2v8l-1 1-3 2h-1"/><path fill="#1a162c" d="M395 275s1-8 2-2l-2 3 3 6h1l3-2v-9l-3 2-4 2"/><path fill="#1a162c" d="m396 271-1 3 2-1-1-2zm-1 5 4 5 3-2v-8l-3 2-1 1zm4 6h-1l-4-6 1-1h-1v-1l2-4 2 3v-1l4-2h1v9l-1 1-3 2"/><path fill="#5d97e5" d="m398 282-4-2-1-2v-8l1-1 4 2 1 2v8l-1 1"/><path fill="#1a162c" d="M398 282v-10l-4-2v-1 10zm0 1v-1l-4-2-1-2v-9h1l4 2 1 2v9l-1 1"/><path fill="#1a162c" d="M397 271v-1l3-2 1 1-4 2"/><path fill="#fff" d="M399 278v-1l3-2v1l-3 2"/><path fill="#5d97e5" d="M333 177a119201 119201 0 0 0 0-22l-10 1-1-6-10 6-2-1v23l10 6h3l10-6v-1"/><path fill="#1a162c" d="M310 156v22h1l9 6h3l10-6v-22h-11l-1-5-9 5zm12 29-2-1-10-5-1-1v-23h3l9-5h1l1 5h11v23l-1 1-10 5-1 1"/><path fill="#1a162c" d="m333 155-10 1-1 4v24h1l10-6v-1a119201 119201 0 0 0 0-22"/><path fill="#1a162c" d="M322 160v24h1l10-6v-22h-10zm0 25h-1v-26l1-4h12v23l-1 1-10 5-1 1m-11-28 1-1-2-1v23l1 1v-22"/><path fill="#1a162c" d="M310 156v22h1v-22zm2 24-2-1-1-1v-23h3v25"/><path fill="#fff" d="m320 162-10-6v-2l10-6h3l10 6v2l-10 6h-3"/><path fill="#1a162c" d="M322 149h-1l-10 6h-1l1 1 10 5h2l10-5v-1l-10-6h-1zm0 14-2-1-10-6-1-1 1-1 10-6h3l10 6 1 1-1 1-10 6-1 1"/><path fill="#fff" d="m321 152 6 4 7-4-7-4-6 4"/><path fill="#1a162c" d="m322 152 5 3 6-3-6-3zm5 4-7-4 7-4 8 4-8 4"/><path fill="#fff" d="m311 152 5 3 3-2-5-3-3 2"/><path fill="#1a162c" d="m312 152 4 3 2-2-4-2zm4 4-6-4 4-2 6 3-4 3"/><path fill="#fff" d="m323 178-6-3v-11s0-1 0 0l6 3v11"/><path fill="#1a162c" d="M318 164v11l5 3v-11zm5 15-6-3v-13h1l5 3 1 1v12h-1"/><path fill="#1a162c" d="m321 169-1-1h1v1"/><path fill="#5d97e5" d="M394 240v-10h-11l-1-5-10 5h-2v10l1 1 9 5h3l10-5 1-1"/><path fill="#1a162c" d="M371 230v10l10 6h2l10-6v-10l-10 1-1-6-10 6zm11 17h-2l-10-6v-11a1 1 0 0 1 0-1l2 1 10-6 1 6 11-1v11l-1 1-10 6h-1"/><path fill="#1a162c" d="m394 230-11 1v-1l-1 4v13l1-1 10-5 1-1v-10"/><path fill="#1a162c" d="M382 234v12h1l10-6v-10l-10 1zm0 13h-1v-13l2-4 11-1v11l-1 1-10 6h-1m-10-16v-1h-2v10l1 1h1v-10"/><path fill="#1a162c" d="M371 230v10-10zm1 12-2-1v-12l3 1h-1v12"/><path fill="#fff" d="m381 236-10-5v-2l10-6h2l10 6v2l-10 5h-2"/><path fill="#1a162c" d="M382 223h-1l-10 6v1l10 6h2l10-6v-1l-10-6h-1zm0 14h-2l-10-6v-3l10-5h4l9 5 1 2-1 1-10 6h-1"/><path fill="#fff" d="m381 233-5-3 7-4 5 3-7 4"/><path fill="#1a162c" d="m377 230 4 2 6-3-4-2zm4 3-6-3 8-4 5 3-7 4"/><path fill="#5d97e5" d="M378 219v1l1 8 1 2h2l2-2 1-8-1-1h-6"/><path fill="#1a162c" d="M379 220v8l2 1h1l1-1 1-8zm2 10h-1l-2-2v-8a1 1 0 0 1 0-1h6a1 1 0 0 1 1 1l-1 8-2 2h-1"/><path fill="#5c94e2" d="M384 218v3h-5v-3h5"/><path fill="#1a162c" d="m381 218-2 1v1h4l1-1h-1l-2-1zm0 4-2-1-1-2 1-1h5l1 1-1 2-3 1m17-54-1 2-77-44h-3l-3-1s-2 2 0 4v1l78 44h3l4-2 3-2-4-2"/><path fill="#1a162c" d="m314 129 78 45h3l6-4-3-1-1 2-78-45h-1l-1 1-3-1v3zm79 46h-2l-77-45h-1v-1c-1-2 0-3 1-4l3 1 1-1h2l77 44 1-1 5 2-8 5h-2"/><path fill="#fff" d="m392 172-78-45v-2l4-2h2l79 46v1l-4 2h-3"/><path fill="#1a162c" d="M319 123h-1l-3 2-1 1v1l78 44h3l3-2h1l-80-46zm74 50-2-1-77-45-1-1 1-2 4-1 2-1 79 46 1 1-1 1-4 2-2 1"/><path fill="#f9a70d" d="M394 175h-1v-3h1v3"/><path fill="#fff" d="M412 167v-54c0-3-2-7-5-9l-90-52h-6l-3 4h4v53c0 3 2 7 5 8l90 52-2 1-1 3s3 1 5-1c3-1 3-5 3-5"/><path fill="#1a162c" d="M405 172h4c2-1 2-3 2-4v-55c0-3-2-7-4-8l-91-53-5 1-2 2 4 1v53c0 3 2 7 4 8l91 52-3 1zm1 2-2-1h-1l1-3 1-1-89-51c-2-2-4-6-4-9V57l-5-1h1s0-3 3-4c2-2 4-1 5-1l1 1 91 52c2 1 4 5 4 9v54s0 4-3 6l-3 1"/><path fill="#1a162c" d="M317 52h-6l-3 4h2l3-1s2-2 5-2l-1-1m87 121s3 1 5-1c3-1 3-5 3-5v-54l-2-6s-1 2-5 2c-2 1-7 41-9 54l11 6-2 1-1 3"/><path fill="#5d97e5" d="m403 172-91-52c-2-1-4-5-4-8V58c0-3 2-5 4-3l91 52c2 1 4 5 4 8v54c0 3-2 5-4 3"/><path fill="#1a162c" d="M403 172h3l1-3v-54c0-3-2-6-4-8l-91-52h-2c-1 0-2 1-2 3v54c0 3 2 6 4 7zm2 1h-2l-91-53c-3-1-5-5-5-8V58l2-4h3l91 53c3 1 5 5 5 8v54l-2 4h-1"/><path fill="none" d="m402 167-89-51-1-3V61c0-1 0-2 1-1l89 51 1 3v52c0 1 0 2-1 1"/><path fill="#1a162c" d="M402 167h1v-53l-2-3-88-51-1 1v52l2 3zm0 1h-1l-88-51-2-4V61l1-2h2l88 51 2 4v52l-1 2h-1"/><path fill="#1a162c" d="m316 115-2-3V60h-1c-1-1-1 0-1 1v52l1 3 89 51c1 1 1 0 1-1l-87-51"/><path fill="#1a162c" d="m313 60-1 1v52l2 3 88 51h1v-1l-87-51c-2 0-2-2-2-3V60h-1zm89 108h-1l-88-51-2-4V61l1-2h2l1 1v52l1 3 88 50v1l-1 2h-1"/><path fill="#fff" d="M408 114v-1l3-2 1 1-4 2"/><path fill="#f9a70d" d="M408 169v-1l3-2 1 1-4 2m-95-54-1-1 2-1v1l-1 1m46 35 4 2h1l1-1v-1l-3-2h-2l-1 1v1"/><path fill="#1a162c" d="m359 150 4 2h1l1-1v-1l-3-2h-1l-2 1v1zm4 3h-1l-3-2a1 1 0 0 1 0-3l1-1h2l4 2a1 1 0 0 1 0 2l-1 1-2 1"/><path fill="#5d97e5" d="m359 149 4 2h1l1-1v-1l-3-2h-2l-1 1v1"/><path fill="#1a162c" d="m361 147-2 1v1l4 2h1l1-1v-1l-3-2h-1zm2 5h-1l-3-2a1 1 0 0 1 0-2l1-1 2-1 4 2v3h-1l-2 1"/><path fill="#f9a70d" d="m321 129 13 7h2l1-1v-1l-13-8h-2l-1 1v2"/><path fill="#1a162c" d="m322 128 12 7h1l1-1h1-1l-12-7h-1l-2 1h1zm13 9-1-1-13-7a1 1 0 0 1 0-2l1-1h2l13 7a1 1 0 0 1 0 2l-1 1-1 1"/><path fill="#5d97e5" d="m321 128 13 7h2l1-1v-1l-13-8h-2l-1 1v2"/><path fill="#1a162c" d="m322 127 12 7h1l1-1h1-1l-12-7h-1l-2 1h1zm13 9-1-1-13-7a1 1 0 0 1 0-2l1-1h2l13 7a1 1 0 0 1 0 2l-1 1-1 1"/><path fill="#5d97e5" d="m368 147 1 9 1 1h2l2-1 1-9h-7"/><path fill="#1a162c" d="M369 147v9l2 1h1l1-1 1-9zm2 11-1-1-2-1v-9a1 1 0 0 1 0-1h6a1 1 0 0 1 1 1l-1 9-2 1-1 1"/><path fill="#5d97e5" d="M374 145v3h-5v-3h5"/><path fill="#1a162c" d="m371 145-2 1v2h4l1-1-1-1-2-1zm0 4h-2l-1-2 1-2h5l1 2-1 2h-3"/><path fill="#fff" d="m336 110-4-10 1-1 3 11m4 7v-1l9-1v1l-9 1m17-2-12-12 22 3-20-2 10 10v1m8 7-9-20 9 20"/><path fill="#fff" d="m334 112-2-12 1-1 2 13h-1"/><path fill="#33537e" d="m391 147-24-13v-32l24 14v31"/><path fill="#33537e" d="m367 133 24 14v-31l-24-13Zm25 15-26-14v-33l26 15v32m-46-38-10-6V91l10 6v13"/><path fill="#33537e" d="m337 104 9 5V97l-9-5zm10 7-11-7V90l11 6v15"/><path fill="#fff" d="m335 114-9-11v-1l9 11v1m47 14-6-8 1-1 5 8v1m0 11v-1l8-3v1l-8 3"/><path fill="#fff" d="m382 124-6-6 1-1 6 7h-1"/><path fill="#fff" d="m389 125-13-7v-1l13 7v1m-6 17-10-11v-1l6 7-7-14h1l10 19m-50-54v-1l13-1v1l-13 1"/><path fill="#fff" d="m334 95-7-4v-7l7 3v8"/><path fill="#1a162c" d="m328 91 5 3v-6l-5-4zm6 5-7-5v-8l7 4v9"/><path fill="#fff" d="m338 103-6-4v-7l6 3v8"/><path fill="#1a162c" d="m332 99 6 3v-6l-6-4zm7 5-8-5v-8l8 4v9"/><path fill="#fff" d="m329 109-7-4v-7l7 4v7"/><path fill="#1a162c" d="m323 105 5 3v-6l-5-3zm6 5-7-4v-9l7 4v9"/><path fill="#fff" d="m355 125-6-4v-8l6 4v8"/><path fill="#1a162c" d="m349 121 6 3v-7l-6-3zm7 5-8-5v-8l8 4v9"/><path fill="#fff" d="m393 138-11-7v-7l11 6v8"/><path fill="#1a162c" d="m382 131 11 6v-7l-11-6zm12 7-13-7v-8l13 7v8"/><path fill="#fff" d="m340 120-6-4v-8l6 4v8"/><path fill="#1a162c" d="m334 116 6 3v-7l-6-3zm7 4-8-4v-8l8 4v8"/><path fill="#fff" d="m330 88-7-4v-7l7 3v8"/><path fill="#1a162c" d="m324 84 5 3v-6l-5-4zm6 5-7-5v-8l7 4v9"/><path fill="#fff" d="m373 130-8-4v-14l8 5v13"/><path fill="#1a162c" d="m365 125 8 5v-13l-8-4zm9 6-10-5v-15l10 6v14"/><path fill="#fff" d="m360 124-6-4v-8l6 4v8"/><path fill="#1a162c" d="m354 120 6 3v-7l-6-3zm7 4-8-4v-8l8 4v8"/><path fill="#fff" d="m352 96-6-4v-7l6 4v7"/><path fill="#1a162c" d="m346 92 6 3v-6l-6-3zm7 5-8-4v-9l8 4v9"/><path fill="#fff" d="m356 102-6-3v-8l6 4v7"/><path fill="#1a162c" d="m350 98 6 3v-6l-6-3zm7 5-8-4v-9l8 4v9"/><path fill="#fff" d="m376 123-6-4v-7l6 4v7"/><path fill="#1a162c" d="m370 119 6 3v-6l-6-3zm7 5-8-4v-9l8 4v9"/><path fill="#fff" d="m386 148-6-3v-8l6 4v7"/><path fill="#1a162c" d="m380 144 6 4v-7l-6-3zm7 5-8-4v-9l8 5v8"/><path fill="#fff" d="m395 134-6-4v-7l6 4v7"/><path fill="#1a162c" d="m389 130 6 3v-6l-6-3zm7 5-8-4v-9l8 4v9"/><path fill="#5d97e5" d="M426 152s4 10 4 18l-1 2-2 15-9-9 4-16 4-10"/><path fill="#1a162c" d="m419 178 7 8a247 247 0 0 1 3-16c0-6-2-14-3-17l-3 9zm8 10-9-10 4-16 4-12 1 1c0 1 3 11 3 19v2l-3 15v1m-12 50 1 4-1 1-2 1h-2v-1l-2-1-1-1-4-2v-2l2-1h5l4 2"/><path fill="#1a162c" d="M407 236h-1l-2 1v1l4 3h1l2 1 1 1 1 1 2-1 1-1-1-4-4-1-4-1zm6 9-2-1-1-1-1-1h-1l-4-3-1-1 1-1 1-1h6l5 1 1 5-2 2h-2v1m14-14 1 5v2l-1 1h-4l-2-3-2-2s-2-1-1-2l3-2h2l4 1"/><path fill="#1a162c" d="M423 231h-2l-3 1 1 2 2 2 3 2 1 1 2-1 1-2-2-5h-3zm1 9-1-1-2-3-3-2v-3l3-1h2l4 1 1 5v2l-1 1-2 1h-1"/><path fill="#5d97e5" d="M405 188c2-2 6 1 9 3 1-5 12-1 12-1l-1 19c1 4 3 7 3 15a266 266 0 0 0-1 11h-4a132 132 0 0 0-5-24v-3l-1-3-1 2v5l1 10a124 124 0 0 1-2 18h-4l-1-1-1-16-1-8s-3-12-3-21v-6"/><path fill="#1a162c" d="M405 188v5l4 22 1 8a99 99 0 0 1 1 16h4a125 125 0 0 0 1-21l-1-6 1-5v-3h1l1 2v2l1 3 1 7 3 16c2 2 4 1 4 1v-11l-1-11-1-4c-1-3 0-16 1-18-2-1-8-3-10-1l-1 1-1 1c-5-4-8-5-9-4zm8 53-2-1-1-1a92 92 0 0 0-2-24l-4-21v-7c2-1 5 0 10 4l1-2c4-2 11 1 11 1h1a192 192 0 0 0 0 23l1 11a269 269 0 0 0 0 11c-1 1-3 2-5 0h-1a131 131 0 0 0-4-24l-1-3v-1l-1 5 1 6 1 4-2 17v1l-3 1"/><path fill="#1a162c" d="M421 149s3-2 5 1 1 11 0 18a98 98 0 0 0 2 21l-4 2-12 3-5-1-4-4s4-10 4-16-2-18 2-20 8-1 8-1l4-3"/><path fill="#1a162c" d="m404 189 3 3 5 1 12-3 4-1c-1-3-3-15-2-21 0-7 1-15-1-18l-1-1h-2l-5 4s-4-2-7 0-3 9-2 15v5c0 6-4 14-4 16zm8 5-5-1c-2-1-4-2-4-4v-1s4-9 4-15v-5c-1-7-1-14 2-15 4-2 7-2 8-1l4-4h3l2 2c2 3 1 10 1 18-1 6 1 18 2 20l-1 2-3 1c-4 2-9 3-13 3"/><path fill="#fff" d="M420 149v1c-1 1-3 2-8 1v-3l-2-1s-2-3-2-8l1-3h5l4 4v4l2 5"/><path fill="#1a162c" d="M413 151c4 1 6-1 7-2l-2-5-1-4-3-3h-5v2c-1 4 1 7 1 8h2v1zm2 1h-3v-4l-3-1s-2-3-1-8v-3h6l4 4 1 4 2 5-1 1c0 1-2 2-5 2"/><path fill="#1a162c" d="M419 149h3c1 2-3 6-9 5l-3-1h-1l2-2h5c2 0 3-1 3-2"/><path fill="#1a162c" d="M410 153h3c4 1 8-1 9-2v-1h-1v-1l-1 1-4 2-4-1h-1l-1 2zm6 1h-7v-1l2-2h5l3-2h4l-1 2c0 2-3 3-6 3"/><path fill="#5d97e5" d="M420 192h-1c3-4 2-10 2-10h1s1 7-2 10"/><path fill="#fff" d="M393 148c1-1 1-2 2-1l1 2v2l1-1h1v1l-1 4-3 1-1-3v-5"/><path fill="#1a162c" d="M394 147v1l-1 5 1 2 3-1 1-3v-1h-1v1l-1 1v-2a4 4 0 0 0-1-3h-1zm-1 9-1-3c-1-1 0-4 1-5l1-2h1l1 1a5 5 0 0 1 1 2h1l1 1v1l-1 4-5 1"/><path fill="#1a162c" d="M411 158s-1 8-7 16l-3 3h-2v-1l-2-2v-1l-2-8-1-7v-2l3-1 1 1 1 7 2 8s3-14 6-17c3-2 5 1 4 4"/><path fill="#1a162c" d="m397 156-2 1-1 1 1 7a55 55 0 0 0 2 9l2 2 1 1h1l3-3c5-8 7-16 7-16l-1-4-3 1c-3 2-6 16-6 17v2l-1-3-1-8-1-4-1-3zm3 22-1-1h-1a8 8 0 0 1-2-4l-2-8-1-7 1-2 3-1h1v1l1 3 1 4 1 6c1-5 3-13 6-15l3-1c2 1 2 4 2 5-1 1-2 9-7 16l-4 3v1h-1"/><path fill="#5d97e5" d="m420 134 2 4c1 1 0 4-1 6-2 3-6 2-7 2 0-1 1-3-1-5l-3-1c0-1-3-3-1-6 1-4 6-4 9-3 1 0 1 0 0 0v2l2 1"/><path fill="#1a162c" d="M415 146c1 0 4 1 6-3l1-5a8 8 0 0 0-3-4l-1-1-1-1 1-1c-4-1-7 0-9 4-1 1 0 3 1 4l4 2 1 5zm1 1h-2v-1l-1-5-3-1c-3-2-3-4-2-6 2-4 7-5 11-3v1h-1 1v1h1l3 4c0 3 0 5-2 7-1 2-3 3-5 3"/><path fill="#1a162c" d="m414 135-1-1c1-2 4-2 5-2v1c-1 0-4 0-4 2m1 10h-1v-1c3 0 4-2 4-2h1c0 1-1 3-4 3"/><path fill="#5d97e5" d="M416 154h-1l-5-1h5c3 1 4 0 6-1v-3h1v3l-1 1-5 1m-10 18h-1s5-9 6-14l-1-2 1-1 1 3c-1 6-6 14-6 14m-5-2h-1c0-3 2-5 2-5v1l-1 4"/><path fill="#1a162c" d="M417 206h-1l2-8h1l-2 8"/><path fill="#5d97e5" d="M420 180v-3h1v3h-1m-26-21v-1l3-1 1 1-4 1m12 26h-1l1-4 1 1-1 3"/><path fill="#fff" d="m420 233-1-1 3-1v1l-2 1m-14 5h-1c1-2 3-2 4-2v1l-3 1"/><path fill="#1a162c" d="M407 201h-2l1-1h3l2-4h1l-3 5h-2m16 14v-1l2-2h1s0 2-3 3m-11 4v-1c4 0 4-2 4-2h1s-1 3-5 3"/><path fill="#fff" d="M421 195s0 6 2 6h2l1-8-5 2"/><path fill="#1a162c" d="m421 195 1 5h3v-6l-4 1zm2 6h-1c-2-2-2-6-2-6v-1h1l5-1 1-2-1 9v1h-3m-2-4v-1 1"/><path fill="#1a162c" d="M425 196h-1l1-1v1zm-2 1v-1h1v1h-1zm-1 0v-1l1 1h-1m4-1-1-1h1v1"/><path fill="#5d97e5" d="M185 263v-12l-11 1-1-6-10 6-2-1v12l1 1 9 6h3l10-6 1-1"/><path fill="#1a162c" d="M162 252v2a6513 6513 0 0 0 0 9l10 6h2l10-6h1-1v-11l-10 1-1-6-10 5zm11 18h-2l-10-6v-12a1 1 0 0 1 0-1h2l10-5 1 6 11-1v12l-1 1-10 6h-1"/><path fill="#1a162c" d="m185 251-11 1-1 4v14h1l10-6 1-1v-12"/><path fill="#1a162c" d="M173 256v13h1l10-6v-11l-10 1zm0 14h-1v-14l2-4 11-1v12l-1 1-10 6h-1m-10-17v-1l-2-1v12l1 1h1v-11"/><path fill="#1a162c" d="M162 252v2a6518 6518 0 0 0 0 9v1-12zm1 13-2-1v-13l3 1h-1v13"/><path fill="#fff" d="m171 258-9-6v-2l10-5h2l10 5v2l-10 6h-3"/><path fill="#1a162c" d="M173 245h-1l-10 6v1l10 6h2l10-6v-1l-10-6h-1zm0 14-2-1-10-5v-3l10-6h4l9 6 1 1-1 2-10 5-1 1"/><path fill="#5d97e5" d="m172 242 1 9 1 2h2l2-2 1-9h-7"/><path fill="#1a162c" d="m172 242 1 9 1 1h2l1-1 1-9zm3 11h-1l-2-2-1-9a1 1 0 0 1 1-1h6a1 1 0 0 1 1 1l-1 9-2 2h-1"/><path fill="#5d97e5" d="M178 241v2h-5v-2h5"/><path fill="#1a162c" d="m175 240-2 1-1 1 1 1h4l1-1-1-1-2-1zm0 4h-2l-2-2 2-2h5l1 2-1 2h-3"/><path fill="#1a162c" d="m176 244-1-1 5-8h1l-5 9"/><path fill="#1a162c" d="M175 244h-1l1-7h1l-1 7"/><path fill="#5d97e5" d="M374 264v-52l-13 2-1-8-13 7h-2v52l13 7h3l13-7v-1"/><path fill="#1a162c" d="M345 213a50938 50938 0 0 0 1 51l12 8h3l12-8h1v-51l-13 1h-1l-1-7-12 7zm14 60-2-1-12-7-1-1v-51a1 1 0 0 1 1-1l2 1 12-7h1l1 7 13-1h1v52l-1 1-13 7-2 1"/><path fill="#1a162c" d="m374 212-13 2-2 4v54h2l13-7v-53"/><path fill="#1a162c" d="M360 218v54h1l12-8h1v-51l-13 1zm-1 55v-55l2-5 13-1h1a640160 640160 0 0 1-1 53l-13 7-2 1m-12-59v-1l-2-1v53l2 1v-52"/><path fill="#1a162c" d="M345 213a50947 50947 0 0 0 1 51v1-52zm2 53-2-1-1-1v-52h1l3 1h-1v53"/><path fill="#fff" d="m358 221-13-7v-3l13-7h3l13 7v3l-13 7h-3"/><path fill="#1a162c" d="M360 204h-2l-12 8h-1l1 1 12 7h3l12-7 1-1h-1l-12-8h-1zm-1 18-2-1-12-7-1-2 1-1 13-7h3l13 7 1 1-1 2-13 7-2 1"/><path fill="#5d97e5" d="m370 246-6 4-1 2v2h1l5-3 2-3v-1l-1-1zm-7 9-1-2v-1l2-3 5-3h2l1 1v1l-2 3-6 4h-1m7-30-6 3-1 3v13h1l5-3 2-3v-13h-1zm-7 20-1-2v-12l2-4 5-3h2l1 1v13l-2 4-6 3h-1"/><path fill="#5d97e5" d="m368 226-4 2-1 3v11l4-3 1-2zm-6 17v-12l2-4 5-3v13l-2 3-5 3"/><path fill="#5d97e5" d="m367 230-1 1v4a1 1 0 0 0 2 0v-4l-1-1zm0 7c-1 0-2 0-2-2v-4a2 2 0 0 1 4 0v4c0 2-1 2-2 2m-3 21v-1l6-3v1l-6 3"/><path fill="#1a162c" d="M352 195v16l2 3h11l2-3v-16h-15"/><path fill="#1a162c" d="M353 196v15c0 1 0 2 2 2 2 2 7 2 9 0 2 0 2-1 2-2v-15zm6 19-5-1-2-3v-16h15v16l-2 3-6 1m10-46c5 3 5 8 0 11s-14 3-19 0-5-8 0-11c5-2 14-2 19 0"/><path fill="#1a162c" d="M359 168c-3 0-6 0-8 2-3 1-4 3-4 5 0 1 1 3 4 4 5 3 12 3 17 0 3-1 4-3 4-4 0-2-1-4-4-5-2-2-5-2-9-2zm0 15-9-3c-2-1-4-3-4-5 0-3 2-5 4-6 5-3 14-3 19 0 2 1 4 3 4 6 0 2-2 4-4 5-3 2-6 3-10 3"/><path fill="#1a162c" d="M347 176v27l3 6c5 2 14 2 19 0l3-6v-27h-25"/><path fill="#1a162c" d="M347 177v26c0 2 1 4 4 5 5 3 12 3 17 0 3-1 4-3 4-5v-26zm12 34-9-2c-2-1-4-3-4-6v-27h27v27c0 3-2 5-4 6l-10 2"/><path fill="#5d97e5" d="M347 175v27c0 2 1 4 3 5 5 3 14 3 19 0 2-1 3-3 3-5v-27h-25"/><path fill="#1a162c" d="M347 176v26c0 2 1 4 4 5 5 3 12 3 17 0 3-1 4-3 4-5v-26zm12 34-9-2c-2-2-4-4-4-6v-27h27v27c0 2-2 4-4 6l-10 2"/><path fill="#fff" d="M351 185v16c0 1 1 3 5 4h7c4-1 5-3 5-4v-16c-5 2-12 2-17 0"/><path fill="#1a162c" d="M351 185v16c0 1 2 3 5 4h7c3-1 5-3 5-4v-16c-5 3-12 3-17 0zm8 21h-3c-4-1-6-3-6-5v-16h1l1-1c4 3 11 3 15 0l1 1h1v16c0 2-2 4-6 5h-4"/><path fill="#5d97e5" d="M369 170c5 3 5 7 0 10s-14 3-19 0-5-7 0-10 14-3 19 0"/><path fill="#1a162c" d="m359 168-8 2c-3 2-4 3-4 5s1 4 4 5c5 3 12 3 17 0 3-1 4-3 4-5s-1-3-4-5l-9-2zm0 15-9-2c-2-2-4-4-4-6s2-4 4-6c5-2 14-2 19 0 2 2 4 4 4 6s-2 4-4 6l-10 2"/><path fill="#1a162c" d="M365 172c3 2 3 4 0 6s-8 2-11 0-3-4 0-6h11"/><path fill="#1a162c" d="m359 172-5 1-2 2 2 3h11l2-3-2-2-6-1zm0 8-5-2c-2 0-3-2-3-3l3-3c3-2 8-2 11 0l3 3c0 1-1 3-3 3l-6 2"/><path fill="#5d97e5" d="M365 174h-11l-2 2 2 2c3 2 8 2 11 0l2-2-2-2"/><path fill="#1a162c" d="m352 176 2 2h11l2-2-2-1c-3-2-8-2-11 0l-2 1zm7 4-5-2-3-2 3-2c3-2 8-2 11 0l3 2-3 2-6 2"/><path fill="#fff" d="M365 196a2 2 0 1 1-4 0 2 2 0 0 1 4 0"/><path fill="#1a162c" d="M363 194a1 1 0 1 0 0 3 1 1 0 0 0 0-3zm0 4a2 2 0 1 1 0-5 2 2 0 0 1 0 5"/><path fill="#fff" d="M357 188a1 1 0 1 1-3 0 1 1 0 0 1 3 0"/><path fill="#1a162c" d="M356 187a1 1 0 1 0 0 1 1 1 0 0 0 0-1zm0 2a2 2 0 1 1 0-3 2 2 0 0 1 0 3"/><path fill="#fff" d="M367 203a1 1 0 1 1-3 0 1 1 0 0 1 3 0"/><path fill="#1a162c" d="M366 203a1 1 0 1 0 0 1 1 1 0 0 0 0-1zm0 2a2 2 0 1 1 0-3 2 2 0 0 1 0 3"/><path fill="#fff" d="M358 195a1 1 0 1 1-2 0 1 1 0 0 1 2 0"/><path fill="#1a162c" d="M357 195a1 1 0 1 0 0 1 1 1 0 0 0 0-1zm0 2a2 2 0 1 1 0-3 2 2 0 0 1 0 3"/><path fill="#fff" d="M370 190a1 1 0 1 1-3 0 1 1 0 0 1 3 0"/><path fill="#1a162c" d="M369 190a1 1 0 1 0 0 1 1 1 0 0 0 0-1zm0 2a2 2 0 1 1 0-3 2 2 0 0 1 0 3"/><path fill="#fff" d="M352 180a1 1 0 1 1-2 0 1 1 0 0 1 2 0"/><path fill="#1a162c" d="M351 180a1 1 0 1 0 0 1 1 1 0 0 0 0-1zm0 2a2 2 0 1 1 0-3 2 2 0 0 1 0 3"/><path fill="#fff" d="M362 174a1 1 0 1 1-3 0 1 1 0 0 1 3 0"/><path fill="#1a162c" d="M360 173a1 1 0 1 0 0 2 1 1 0 0 0 0-2zm0 3a2 2 0 1 1 0-4 2 2 0 0 1 0 4"/><path fill="#fff" d="M356 205a1 1 0 1 1-3 0 1 1 0 0 1 3 0"/><path fill="#1a162c" d="M355 204a1 1 0 1 0 0 1 1 1 0 0 0 0-1zm0 2a2 2 0 1 1 0-3 2 2 0 0 1 0 3"/><path fill="#5d97e5" d="M361 194a2 2 0 1 1-3 0 2 2 0 0 1 3 0"/><path fill="#1a162c" d="M359 192a1 1 0 1 0 0 3 1 1 0 0 0 0-3zm0 4a2 2 0 1 1 0-5 2 2 0 0 1 0 5"/><path fill="#fff" d="M366 187a2 2 0 1 1-4 0 2 2 0 0 1 4 0"/><path fill="#1a162c" d="M364 185a1 1 0 1 0 0 3 1 1 0 0 0 0-3zm0 4a2 2 0 1 1 0-5 2 2 0 0 1 0 5"/><path fill="#fff" d="M353 201a2 2 0 1 1-4 0 2 2 0 0 1 4 0"/><path fill="#1a162c" d="M351 199a1 1 0 1 0 0 3 1 1 0 0 0 0-3zm0 4a2 2 0 1 1 0-5 2 2 0 0 1 0 5"/><path fill="#fff" d="M363 214h-1v-3h1v3"/><path fill="#5d97e5" d="m351 224 2 3c1 1 2 0 2-1l-2-3-2 1"/><path fill="#1a162c" d="M352 223v1l1 3h1v-1l-1-2-1-1zm2 5-1-1-2-3 1-1h1l2 3-1 2m-28 28s2-3 6-3h1l19 11 2 4v15l-5 3c-2 1-6-5-10-11l-6-4-2-2v-7l-3-4-2-2"/><path fill="#1a162c" d="m327 256 5 6v7l1 2 6 4c7 11 9 11 10 11l5-3v-15l-2-4-19-11h-1l-5 3zm22 31c-2 0-4-2-10-11l-7-4-1-3v-7l-5-6s1-3 6-4h2l18 11c2 1 3 3 3 5v14l-1 1a10 10 0 0 1-5 4"/><path fill="#fff" d="M348 268c-3 1-13-4-13-4l-4-2-3-4-2-2s1-3 6-3h1l19 11 2 2-6 2"/><path fill="#1a162c" d="m348 268 5-3-1-1-19-11h-1c-3 0-5 2-5 3l5 6 3 2 13 4zm-1 1c-3 0-11-4-12-5l-4-1v-1l-5-6s1-3 6-4h2l18 11 2 2v1a19 19 0 0 1-7 3"/><path fill="#5d97e5" d="m328 256 19 11 2 4v14c0 1 0 2-1 1l-21-12-1-2v-15c0-1 1-2 2-1"/><path fill="#1a162c" d="m327 256-1 1v15l2 2 20 12 1-1v-14l-2-4-19-11h-1zm21 31-21-12-1-3v-15l1-2h1l19 11c2 1 3 3 3 5v14l-1 2h-1"/><path fill="#1a162c" d="m348 277-1-1-20-11-1-3h1l1 2 20 12 1-1v2h-1"/><path fill="#fff" d="m336 273 2 2 1-1v-5l-1-1-2-1v6"/><path fill="#1a162c" d="m336 273 2 1v-5l-2-2v6zm3 2h-1l-2-1-1-2v-6h1l3 2v7m-2-5v-1 1"/><path fill="#1a162c" d="m337 271-1-1v-1h1l1 1v1h-1"/><path fill="#5d97e5" d="m332 255 2 2 1-2h2l5 3 1 1 1 3 2 1h1l1-1-2-1-1-3-1-1-5-3h-1l-2 1-2-1-2 1"/><path fill="#1a162c" d="m333 255 1 1 1-1-1-1zm11 7 2 1 1-1-1-1-1-3-1-1-5-3h-1l-1 1 5 3 1 1zm2 2h-1l-1-1-2-3-1-1-5-3-2 1-2-1-1-1h1l1-1h3l1-1h2l5 3 2 2 1 3h1l1 1-1 1-1 1h-1"/><path fill="#1a162c" d="M344 263v-1l2-2v1l-2 2m-1-4-1-1 2-1h1l-2 2"/><path fill="#fff" d="m350 271-1-1 5-2v1l-4 2m0 12h-1l5-3v1l-4 2"/><path fill="#5d97e5" d="m172 273-10 42v1h2l11-40-3-3"/><path fill="#1a162c" d="m172 274-10 41v1a1 1 0 0 0 1-1l12-39zm-9 43a2 2 0 0 1-2-2l10-42 5 3-12 40a2 2 0 0 1-1 1"/><path fill="#5d97e5" d="m221 299-2 49-1 1v-1l-2-52 5 3"/><path fill="#1a162c" d="m216 297 2 51v1h1v-1l1-49zm3 53a1 1 0 0 1-2-2l-2-53 6 4-1 49-1 1v1"/><path fill="#5d97e5" d="m263 270 7 50c0 1-1 2-2 1l-9-54 4 3"/><path fill="#1a162c" d="m259 268 9 53h1v-1l-6-50zm10 54h-1l-1-1-9-55 6 3v1l6 50a1 1 0 0 1-1 2"/><path fill="#5d97e5" d="M274 274v-3h-3l-51-29h-5l-51 29h-4v3l2 2 52 30h6l53-31 1-1"/><path fill="#1a162c" d="M161 271v3l1 1 53 31h5l53-31 1-1v-2h-3l-51-30h-5l-50 29h-1zm57 36-4-1-52-30-2-2v-3h1l3-1 51-29h6l50 30h4v3l-1 2-54 31h-2"/><path fill="#1a162c" d="M217 307h1l2-1 53-31 1-1v-3h-3l-22-12v-1h-31l-1 1v48"/><path fill="#1a162c" d="M218 259v47h2l53-31 1-1v-2h-3l-22-13zm0 48h-1v-48l1-1h32l21 13h4v3l-1 2-54 31h-2m-53-37-1 1h-4v3l2 2 3 2v-8"/><path fill="#1a162c" d="M161 271v3l1 1 3 2v-6h-1zm5 8-4-3-2-2v-3h1l3-1 2-1v10"/><path fill="#5d97e5" d="m273 272-53 31h-6l-52-30c-2-1-2-3-1-3l54-31h5l53 30c2 1 2 3 0 3"/><path fill="#1a162c" d="M217 239h-2l-53 31-1 1 1 1 53 31h5l53-31 1-1-1-1-53-31h-3zm1 65h-4l-52-31-2-2 1-2 54-31h6l52 31 2 2-1 2-54 31h-2"/><path fill="#1a162c" d="M169 279h-1v-3h1v3m45 26h-1v-3h1v3"/><path fill="#fff" d="M272 276h-1v-2h1v2"/><path fill="#5d97e5" d="M221 305h-1v-2h1v2"/><path fill="#fff" d="m166 305-2-2h1l1 1 1-1 1 1-2 1m101 5h-1v-1l2-1h1l-2 2m-49 27-1-1 1-1-1 1 1-1h2v1l-2 1m36-61-10 6-7-4 10-6 7 4"/><path fill="#1a162c" d="m238 278 6 4 9-6-6-3zm6 5-8-5 11-6 8 4-11 7"/><path fill="#fff" d="m243 277-5 3-3-2 5-3 3 2"/><path fill="#1a162c" d="m236 278 2 1 4-2-2-1zm2 2-4-2 6-3 4 2-6 3"/><path fill="#fff" d="M244 269v5l2 1h2l1-1 1-5h-6"/><path fill="#1a162c" d="m244 269 1 5h4v-1l1-4zm3 6h-1l-2-1-1-5 1-1h6v1h1l-1 5-2 1h-1"/><path fill="#5d97e5" d="M249 268v2h-4c-2 0-2-2 0-2h4"/><path fill="#1a162c" d="M247 268h-2l-1 1 1 1h4l1-1-1-1h-2zm0 3h-3l-1-2 1-2h5l2 2-2 2h-2"/><path fill="#fff" d="m240 257-4-3h-1l-6 4 6 6v2l3-1-3 2 6-4v-5l-1-1"/><path fill="#1a162c" d="m230 258 5 6v1h3l3-2v-5l-1-1-5-3zm5 9h-1l1-1h-1v-2l-5-6v-1l6-3h1l5 2 1 2v5l-1 1-6 3"/><path fill="#1a162c" d="m231 263 4 4 6-4v-5l-6 4-4 1"/><path fill="#1a162c" d="m232 263 3 3 6-3v-4l-5 3zm3 4h-1l-4-4 5-2 6-3a1 1 0 0 1 1 0v5l-1 1-5 3h-1"/><path fill="#5d97e5" d="m235 267-5-3-1-1v-5h1l5 2v7"/><path fill="#1a162c" d="M235 267v-5l-1-1-4-3v6zm0 1-1-1-4-2-1-2v-6h1l5 3 1 2v4l-1 1v1"/><path fill="#fff" d="M236 265v-1l5-3v1l-5 3m-5-19 1 9 2 2h1l2-2 1-9h-7"/><path fill="#1a162c" d="m232 247 1 8 1 1h1l1-1 1-8zm3 10h-1c-2 0-2-1-2-2l-1-8a1 1 0 0 1 0-1h7a1 1 0 0 1 0 1l-1 8-1 2h-1"/><path fill="#5d97e5" d="M237 245v3h-5v-3h5"/><path fill="#1a162c" d="M235 245h-3v2h5v-2h-2zm0 4-3-1-1-2 1-2h5l1 2-1 2-2 1"/><path fill="#1a162c" d="M235 248h-1l5-9h1l-5 9m-1 0h-1l2-7 1 1-2 6"/><path fill="#fff" d="m223 282 1 4 2 2h1l2-2 1-4h-7"/><path fill="#1a162c" d="m224 282 1 4 1 1h1l1-1 1-4zm2 6h-1l-1-2-1-4v-1h6a1 1 0 0 1 1 1l-1 4c0 1 0 2-2 2h-1"/><path fill="#5d97e5" d="M229 280v3h-5v-3h5"/><path fill="#1a162c" d="m226 280-2 1v2h4l1-1-1-1-2-1zm0 4-2-1-1-1 1-2h5l1 2-1 1-3 1"/><path fill="#fff" d="m177 306-1 3c0 2 1 4 3 3l3-2-1-5c0-2-2-2-2-2l-2 3"/><path fill="#1a162c" d="M177 306v5h2l3-1-1-5-1-1zm1 7-2-1v-7l3-2h2l1 2 1 5-4 2-1 1"/><path fill="#fff" d="M195 318v3c-1 2 0 4 3 3l2-2v-4c0-3-2-2-2-2l-3 2"/><path fill="#1a162c" d="m196 318-1 3 1 2 2 1 2-2-1-4v-2h-1zm1 7-2-1v-6l2-3h1l1 1 1 2 1 4-3 2-1 1"/><path fill="#5d97e5" d="m177 308-1 1-4 5c-3 2-2 3 0 4l3-1 3-2 2-1 3-1 1-1-1-4-2 1-2 1-2-2"/><path fill="#1a162c" d="M177 309h-1l-4 5-2 2 2 1 3-1 3-1 2-1a10 10 0 0 0 3-2l-1-4v1l-2 2-1-1-2-1zm-5 9-3-2 2-2 5-5 1-1 2 2h1l1-1 1-2 1 1 1 4v1l-4 2-2 1-2 1-4 1"/><path fill="#1a162c" d="m181 309-1 4-3 1-5 2h-2l2 2 3-1 3-2 2-1 3-1 1-1-1-4-2 1"/><path fill="#1a162c" d="M171 317h1l3-1 3-1 2-1a10 10 0 0 0 3-2l-1-4v2l-1 3h-1l-3 1-5 3h-1zm1 1-2-1v-2h1l1 1s2 0 5-3l3-1 1-2v-1l1-2 1 1 1 4v1l-4 2-2 1-2 1-4 1"/><path fill="#1a162c" d="m177 312-2-1v-1l3 1-1 1m-1 1-2-1v-1l3 1-1 1"/><path fill="#f9a70d" d="M183 313h-1v-4h1v4"/><path fill="#5d97e5" d="m197 321 1 2h1l1-2v-1h1l1 4-3 3-4 4c-1 1-6 1-4-2l2-5 2-4v1h2"/><path fill="#1a162c" d="m195 321-1 3-1 2-2 3 1 2h3l2-3 1-2h1l2-2v-4h-1l1 1-2 2-1 1-1-1-1-2-1 1zm-2 11h-2v-4a63 63 0 0 1 2-4l2-5h1v1h1l1 3h1l1-2-1-1v-1h1l2 1v4l-2 3h-1l-2 2-2 2-2 1"/><path fill="#1a162c" d="M200 320v2l-1 3-4 5c-2 2-4 1-4 1h4l4-4 3-3-1-4h-1"/><path fill="#1a162c" d="M201 321a3 3 0 0 1 0 1l-2 4-4 4-1 1h1l2-3 1-2h1l2-2v-4h-1l1 1zm-8 11h-2v-2c0 1 2 1 3-1l4-4 2-3v-1l-1-1v-1h1l2 1v4l-2 3h-1l-2 2-2 2-2 1"/><path fill="#1a162c" d="m197 325-4-1v-1l4 1v1m-1 1-3-1v-1l3 2m-1-3-1-1 1-1v2"/><path fill="#f9a70d" d="m201 325-1-1v-3h1v4"/><path fill="#1a162c" d="M194 318v-24l1-5 5-7c-1 1-7 3-13 3h-5v1c1 0 2 2 1 6l-1 13s-3 3-6 0v-19c0-5 0-6 4-9 4-2 14-3 18-3 5-1 12 2 12 2l4 2s2 7-6 12l-7 5 1 7-2 14v2h-6"/><path fill="#1a162c" d="M195 317c3 2 4 1 5 0v-1l1-6 1-8-1-6v-1l7-5c7-5 5-10 5-11l-3-2-12-3c-4 0-13 1-18 4-3 2-4 3-3 8v19h4l1-9 1-4-1-6a1 1 0 0 1 0-1l5-1c6 1 11-2 13-2h1v1l-5 7-2 4 1 8v15zm2 2-3-1v-16l-1-8 2-5 4-6c-2 1-7 3-12 2l-4 1 1 6-1 4-1 9c0 1-3 3-6 0v-19c-1-5 0-7 4-9 4-3 13-4 18-4s12 3 13 3l3 2s3 7-6 12l-6 5 1 7-1 8-1 6v2l-4 1"/><path fill="#fff" d="m182 286-2-2 1-1 2 2-1 1m19 9-2-1 2 1m-22 10-2-1h4l-2 1m31-17c-4-2-2-6-2-6 0 1-1 3 2 5v1m-12 29h-3v-1h5v1h-2m2-64-2 10v1l-4 2-6 5 5 3 12-6 2-8-3-5-3-3-1 1"/><path fill="#1a162c" d="m189 271 4 2 11-6 2-7-3-5-2-2h-1v1l-2 9v2l-4 2-5 4zm4 3-6-3h1l6-5 3-2v-1l2-10 1-1h1l3 3 3 5-2 8-12 6"/><path fill="#fff" d="m203 255-4-3s3-8 7-8 1 4 1 4l-4 7"/><path fill="#1a162c" d="m200 252 3 2 4-6 1-3-2-1c-3 1-5 6-6 8zm3 3-4-2v-1s3-8 7-8h2v4l-5 7"/><path fill="#33537e" d="M206 244s-3 1-3 7l-6 21s-2 2 2 3c4 2 7 2 10 5 4 3 6 4 7 0l5-16 2-15s-2-3-7-5h-10"/><path fill="#1a162c" d="M207 245c-1 0-3 1-4 6 0 5-3 17-6 21v1l2 2 3 1c2 0 5 1 8 4 2 1 3 3 4 2l1-2 5-16c2-3 3-13 3-15l-7-5c-4-1-9 1-9 1zm7 38-5-3c-3-2-5-3-8-3l-2-1-3-2v-2c3-4 6-16 6-21 1-6 4-7 4-7 1 0 6-2 10 0l8 5c0 1-1 12-3 16l-5 16-1 2h-1"/><path fill="#fff" d="m212 244-5 1-1-1c-4-6-2-11-2-11l9-1 1 3 1 2 1 4c3 5 1 7-3 10-2 2-7 0-4-6l3-1"/><path fill="#1a162c" d="M209 245v5h4c4-3 5-4 2-9l-1-4v-2l-2-3-7 1c-1 1-2 6 1 11h1c1 1 3 0 5-1v1l-3 1zm2 7-2-1c-1 0-2-2-1-6h-1l-2-1c-3-6-1-11-1-11v-1l9-1 2 3v3l1 4c3 6 1 7-2 10l-3 1"/><path fill="#1a162c" d="M216 229c-4-3-9 0-10-1v-2c-1 0-4 0-5 4 0 4 3 5 3 5l4 1h2l1 1 1 1h3v2s3-2 3-6l-2-5"/><path fill="#1a162c" d="M214 237h1v2c1-1 2-2 2-5 0-2 0-3-2-5s-5-1-7-1h-2l-1-2c-1 1-3 1-3 4-1 3 2 4 2 5h4l2 1 1 1 1 1 1-1zm0 4v-3h-4l-1-2h-1l-4-1s-4-1-3-5c0-4 4-5 4-5a1 1 0 0 1 1 1v1h2c2 0 5-1 8 2 2 1 2 3 2 5 0 4-3 6-3 6l-1 1"/><path fill="#fff" d="M208 235h-1c0-1 3-3 7-1-3-1-6 1-6 1m7 2-1-2 1-1v3m0-3c-1-3-4-2-4-2v-1s4 0 5 2l-1 1m-7-2 2-1v1h-2m5 9 1-1 1-2h-2v3"/><path fill="#1a162c" d="M213 241v-1l1-1v-1h-1v1l-1-1 1-1h1l1 1v2l-2 1m-7 1v-3 2h2l-2 1m2-3v1l-1-1 1-1v1m-3 0v1l-1-1v-1l1 1m2 4 1-1v1h-1"/><path fill="#fff" d="M203 229h-1s1-2 3-2v1l-2 1m9 22 1 2c0 1 0 1 0 0l5-3c1-3 2-6-1-8l-1 5-4 4"/><path fill="#1a162c" d="m212 252 1 1 4-4c1-1 2-3 1-4l-1-2-1 4-4 5zm1 2h-1l-1-3 4-4 1-5v-1l1 1 2 3c1 1 0 3-1 5l-5 4"/><path fill="#fff" d="m207 251 1-1 1-5h-2l-1 5 1 1"/><path fill="#1a162c" d="M207 246v4h1v-5l-1 1zm0 5h-1c-1-4 1-6 1-6l2-1h2l-1 1c-2 2-1 5-1 5l-2 1"/><path fill="#1a162c" d="M208 257h-1l1-7 1 1-1 6m2-3a1 1 0 1 1-1 0 1 1 0 0 1 1 0"/><path fill="#1a162c" d="M210 256a1 1 0 1 1-1 0 1 1 0 0 1 1 0"/><path fill="#fff" d="m185 274 17 10c0 1 0 1 0 0l12-7-17-10-12 7"/><path fill="#1a162c" d="m186 274 16 10 11-7-16-9zm16 11-18-10v-1l13-7c0-1 0-1 0 0l17 10a1 1 0 0 1 0 1l-11 7h-1"/><path fill="#1a162c" d="m203 281 6-4-4-2 1-1 4 3v1l-7 3"/><path fill="#fff" d="m218 261-1 6v5l-7 1h-8s-2-2-3-1l-1 1s-4 1-3 3h7a98 98 0 0 0 19 0c0-1 3-6 4-14 0-11-7-2-7-2v1"/><path fill="#1a162c" d="M202 276h18c3-5 4-11 4-15l-1-4-4 3v1l-1 6-1 5h2l-2 1h-7l-8 1-3-2v1c-2 0-3 1-3 2 0 0-1 0 0 0l6 1zm12 1h-12c-1 0-5 1-7-1v-1l3-3 1-1 3 2 8-1h6a49 49 0 0 1 2-11v-2s4-4 6-3l1 6c0 5-2 10-4 14l-1 1h-6"/><path fill="#fff" d="m218 261-1-2c0-2 1-10 4-11 4-2 5 9 5 12-1 3-7 2-8 1"/><path fill="#1a162c" d="M218 261h7v-1c0-2-1-10-3-11h-1c-2 1-3 6-3 10v2zm4 1h-4l-1-1v-2c0-3 0-10 4-11h2c2 2 3 10 3 12l-1 2h-3m-3 14-1-1 1-1h1l-1 1v1"/><path fill="#1a162c" d="M222 260h-2v-1s3 1 5-1l1 1-4 1"/><path fill="#5d97e5" d="m202 284-6-13-18-11 7 14 17 10"/><path fill="#1a162c" d="m185 274 16 9-5-12-17-10zm17 11-18-10-6-15h1l18 10v1l6 14h-1"/><path fill="#fff" d="m189 273 2 1v-2l-2-1v2"/><path fill="#1a162c" d="m189 271 1 2 1 1-1-2-1-1zm2 4-2-1-1-3c1-1 2 0 3 1l1 3h-1"/><path fill="#f9a70d" d="m191 160-10 42 1 1 1-1 12-39-4-3"/><path fill="#1a162c" d="m192 161-10 41a1 1 0 0 0 1 1v-1l11-39zm-10 43a2 2 0 0 1-1-2l10-43 4 4-11 39a2 2 0 0 1-2 2"/><path fill="#5d97e5" d="m240 186-1 49-1 1-1-1-2-52 5 3"/><path fill="#1a162c" d="m236 184 2 51h1l1-49zm2 52a1 1 0 0 1-1-1l-2-53 6 3v1l-2 49v1h-1"/><path fill="#5d97e5" d="m283 156 6 51-1 1-1-1-9-53 5 2"/><path fill="#1a162c" d="m279 154 9 53v1h1v-1l-6-50zm9 55a1 1 0 0 1-1-2l-10-54 6 3h1l6 51a1 1 0 0 1-2 2"/><path fill="#5d97e5" d="M294 161v-3h-3l-51-29-6-1-50 29v1h-4v2l1 2 53 31h6l53-31 1-1"/><path fill="#1a162c" d="M180 158v2l2 2 52 30 5 1 54-31v-4h-2l-51-29h-5l-51 29zm57 36-3-1-53-30c-1-1-2-2-1-3v-3h4l50-29h6l51 30 3-1a1 1 0 0 1 0 1v3l-1 2-53 30-3 1"/><path fill="#1a162c" d="M237 193v1l3-1 53-31 1-1v-3h-3l-22-13h-32v48"/><path fill="#1a162c" d="M237 146v47h2l54-31v-4h-2l-22-12zm0 48v-49h32l22 13 3-1v4l-1 2-53 30-3 1m-52-37h-1v1h-4v2l1 2 4 3v-8"/><path fill="#1a162c" d="M180 158v2l2 2 3 2v-6h-1zm5 7-4-2c-1-1-2-2-1-3v-3h4l1-1v9"/><path fill="#5d97e5" d="m293 159-53 31h-6l-53-31v-3l53-31 6 1 53 30v3"/><path fill="#1a162c" d="m237 125-2 1-54 31-1 1 2 1 52 30 5 1 54-31v-1l-1-2-52-30-3-1zm0 66-3-1-53-30-1-2 1-2 53-31h6l53 31 1 2-1 2-53 31h-3"/><path fill="#1a162c" d="M188 166h-1v-3h1v3m45 26h-1v-3h1v3"/><path fill="#fff" d="M291 163h-1v-2h1v2m-50 29h-1v-2h1v2m-55-1h-1l-1-1h1-1 3v1h-1m100 5h-1l1-1h2l-2 1m-48 27h-2l1-1v1-1h2l1 1h-2"/><path fill="#5d97e5" d="M253 171v-5l-10 1-1-6-10 6-1-1h-1v5l1 1 9 5h3l9-5 1-1"/><path fill="#1a162c" d="M231 167v5l9 5h3l9-6v-4l-9 1-1-1-1-5-9 5zm11 11h-2l-9-6-1-1v-5h2l9-5h1l1 6 10-1v5l-1 1-9 6h-1"/><path fill="#1a162c" d="m253 166-10 1-2 3v8l2-1 9-5 1-1v-5"/><path fill="#1a162c" d="M242 171v6h1l9-6v-4l-9 1zm0 7h-1v-8l1-4 1 1 10-1a5918 5918 0 0 1-1 6l-9 6h-1m-10-10v-1l-1-1h-1v5l1 1h1v-4"/><path fill="#1a162c" d="M231 167v5-5h1zm1 6-1-1-1-1v-5h3v1l-1 1v5"/><path fill="#fff" d="m240 173-9-6v-2l9-5h3l9 5v2l-9 6h-3"/><path fill="#1a162c" d="M242 160h-1l-10 6v1l10 5h2l9-5v-1l-9-6h-1zm0 13h-2l-9-5-1-2 1-1 9-6h3l10 6v2l-10 6h-1"/><path fill="#fff" d="m239 163 6 4 6-4-6-3-6 3"/><path fill="#1a162c" d="m240 163 5 3 5-3-5-3zm5 4-7-4 7-4 7 4-7 4"/><path fill="#fff" d="m234 154-16 9-12-7 17-9 11 7"/><path fill="#1a162c" d="m207 156 11 7 15-9-10-6zm11 8-12-8 17-9 12 7-17 10"/><path fill="#fff" d="m274 159-12 6-8-4 11-7 9 5"/><path fill="#1a162c" d="m255 161 7 4 11-6-8-4zm7 5-9-5 12-7 10 5-13 7"/><path fill="#fff" d="m216 155-7 4-5-3 7-4 5 3"/><path fill="#1a162c" d="m205 156 4 3 6-4-4-2zm4 4-6-4 8-5 6 4-8 5"/><path fill="#fff" d="m213 146-1 1 1 9 2 1h1l2-1 1-9v-1h-6"/><path fill="#1a162c" d="m213 147 1 8 1 1h3v-9zm3 10h-1l-2-1-1-9a1 1 0 0 1 1-1h6a1 1 0 0 1 0 1v9l-2 1h-1"/><path fill="#fff" d="M218 145v3h-5v-3h5"/><path fill="#1a162c" d="M216 145h-3v2h5v-2h-2zm0 4-3-1-1-2 1-2h5l1 2-1 2-2 1"/><path fill="#1a162c" d="M216 148h-1l5-9 1 1-5 8m-1 0 1-7 1 1-2 6"/><path fill="#fff" d="m236 148-4-2h-1l-6 3 6 6v2h3l-3 1v1l6-4v-5l-1-2"/><path fill="#1a162c" d="m226 149 5 6v2h1l2-1 3-1v-5l-1-1-5-3zm5 10h-1v-1h1l-1-1v-1l-5-6v-1l6-4h1l5 3 1 2v4l-1 1-6 4"/><path fill="#1a162c" d="m227 155 4 3s0 1 0 0l6-3v-5l-6 4-4 1"/><path fill="#1a162c" d="m227 155 4 3 6-3v-4l-5 3zm4 4h-1l-4-4v-1l5-1 6-3a1 1 0 0 1 1 0v4l-1 1-5 4h-1"/><path fill="#5d97e5" d="m230 159-4-3-1-2v-4l1-1 4 3 1 2v4l-1 1"/><path fill="#1a162c" d="M231 158v-4l-1-2-5-2v4l1 1zm0 1h-1l-5-3-1-2v-4l1-1h1l5 3 1 2v4l-1 1"/><path fill="#5b5868" d="m232 156-1-1 5-3 1 1-5 3"/><path fill="#fff" d="M260 154s-1 0 0 0v4l2 1h2l1-1 1-4h-6"/><path fill="#1a162c" d="m260 154 1 4 1 1h1l2-1v-4zm3 6h-1l-2-2-1-4v-1h7a1 1 0 0 1 0 1v4l-2 2h-1"/><path fill="#5d97e5" d="M265 152v3h-5v-3h5"/><path fill="#1a162c" d="m263 152-2 1-1 1h6l-1-1-2-1zm0 4-3-1-1-1 1-2h5l1 2-1 1-2 1"/><path fill="#5d97e5" d="M237 119s-1-2-4-2l-8 4-1 3v10l3 2 6-8 1-1v-4l2-3 1-1"/><path fill="#1a162c" d="m233 117-8 5-1 2v10l3 2 5-6-2 1 3-3v-5l3-4-3-2zm-6 19c-2 0-3-1-3-2l-1-1v-9l2-3 7-4 1-1 4 3-3 4v4l-1 2-6 7"/><path fill="#fff" d="m228 124 6-1 2-3 1-1s-1-2-4-2l-8 4-1 1 4 2"/><path fill="#1a162c" d="m225 122 3 2 5-1 3-4-3-2-8 5zm3 3-4-2v-1l1-1 7-4 1-1 4 3-3 4h1l-1 1-6 1"/><path fill="#1a162c" d="m236 119-8 4-1 3v9l1 1 8-5 1-1v-10l-1-1"/><path fill="#1a162c" d="m236 119-7 4-2 3v10-1l9-4v-1l1-10-1-1zm-9 17-1-1v-9c0-2 1-3 2-3l7-5h2v12l-1 2-8 4h-1"/><path fill="#fff" d="M228 131h-1v-1h1l8-4v-1h1l-1 1-8 5"/><path fill="#1a162c" d="m233 130-1 1h-1v-3l1-1 1-1v4"/><path fill="#fff" d="M233 127h-1v3h1zm-2 5v-5l2-1h1v4l-1 1-1 1h-1m-2-7-1-1 8-4v1l-7 4"/><path fill="#5d97e5" d="M271 140a899 899 0 0 0 0-3l-19 5 6-10h-1l-17 10-2-1v4l12 6h3l17-10 1-1"/><path fill="#1a162c" d="M238 142v2h1l11 7h2l18-10v-3l-18 4 4-9-16 9zm13 10-2-1-11-6-1-1v-3h3l17-10h1v1l-5 9 18-4v3l-1 1-17 10-2 1"/><path fill="#1a162c" d="m271 137-19 5-1 4v5h2l17-10 1-1a898 898 0 0 0 0-3"/><path fill="#1a162c" d="M251 146v5h1l18-10v-3l-17 4zm0 6h-1v-6l2-5 19-4v3l-1 1-17 10-2 1m-11-9v-1l-2-1v4h2v-2"/><path fill="#1a162c" d="M238 142v2h1v-2zm2 4-2-1-1-1v-3h4l-1 1v4"/><path fill="#fff" d="m250 148-12-6v-2l18-10h3l11 6v2l-18 10h-2"/><path fill="#1a162c" d="M257 130h-1l-17 10-1 1 1 1 11 6h2l18-10v-1l-11-7h-2zm-6 19h-2l-11-7-1-1 1-1 18-11h3l11 7 1 1-1 2-17 10h-2"/><path fill="#fff" d="m239 137 11 6 11-6-11-7-11 7"/><path fill="#1a162c" d="m240 137 10 5 10-5-10-6zm10 7-12-7 12-7 12 7-12 7"/><path fill="#fff" d="m251 137 6 3 7-3-7-4-6 4"/><path fill="#1a162c" d="m252 137 5 3 6-3-6-3zm5 4-7-4 7-5 8 5-8 4"/><path fill="#f9a70d" d="m154 222-3 7c-1 3-6 3-5-4l2-7c1-2 3-3 5-3l1 4v3"/><path fill="#1a162c" d="m152 216-4 2-1 7c-1 3 0 5 1 5l3-1 2-7v-6h-1zm-3 15h-1c-1 0-3-1-2-6l1-7c1-2 4-4 6-3l1 4v3l-2 7-3 2"/><path fill="#1a162c" d="M148 218c1-2 3-3 5-3l1 3-7 3 1-3"/><path fill="#1a162c" d="m152 216-4 2v2c2-2 4-2 5-2v-2h-1zm-5 5a1 1 0 0 1 0-1l1-2c0-2 3-3 5-3h1v4c-1 0-4 0-6 2h-1"/><path fill="#fff" d="m151 218 1-2 6-5c3-3 5-8 11-9l1-5 3-4 6 1-1 10c-2 4-5 5-5 5s-15 6-18 10c-3 5-3 8-5 7-3-1 0-6 1-8"/><path fill="#1a162c" d="m170 197-1 5v1c-4 0-6 3-8 6a36 36 0 0 1-9 8l-1 1c-2 3-2 6-2 7h1c1 1 2 0 3-2l2-4c3-4 17-10 17-10s3-1 5-5c2-3 2-8 2-9l-6-1zm-20 29h-1l-1-1 2-7 1-2a55 55 0 0 0 9-8c2-3 4-6 9-6v-5l4-4 7 1s0 6-2 10-5 6-5 6-15 5-17 10l-2 3c-1 2-2 3-4 3"/><path fill="#5d97e5" d="m190 231 7 7c1 3-2 4-6 1-3-2-5-2-6-4-2-2 1-6 1-6l4 2"/><path fill="#1a162c" d="M186 229c-1 2-2 4-1 6l3 2 4 2 4 1v-2c-1-3-5-6-6-7zm9 12-4-2-4-1-3-3c-1-2 1-7 1-7l6 3s5 3 6 7v3h-2"/><path fill="#1a162c" d="m187 237-2-2c-2-2 0-6 1-6h1v4s-2 3 0 4"/><path fill="#1a162c" d="M186 229c-1 1-2 4-1 6l1 1v-3l1-2-1-2zm1 9v-1c-1 0-2 0-3-2s1-6 1-7h1l1 1 1 3-1 1v4h1l-1 1"/><path fill="#fff" d="m191 203-1 12v13l1 5 2 3-6-3-2-1v-3c0-2 0-8-2-14-2-7-1-12 0-14 2-3 8 2 8 2"/><path fill="#1a162c" d="M185 200h-1v1c-2 2-2 8 0 14 1 6 2 12 1 14l1 2 1 2c2 2 5 2 5 2l-1-2-2-5 1-13 1-12-6-3zm7 36-6-2-1-2v-3l-2-13c-2-7-2-13 0-16l1-1c3 0 7 3 8 4a1289 1289 0 0 0 0 29l1 4h-1"/><path fill="#33537e" d="M167 199h-4s-4-3-3-8c2-6 9 3 9 3l-2 5"/><path fill="#1a162c" d="M163 198h4l2-4c-2-2-6-5-7-4l-1 1c-1 4 1 7 2 7zm4 1h-5s-3-3-2-8c0-2 1-2 2-2 2-1 7 4 7 5h1l-3 5"/><path fill="#33537e" d="m199 195 1 6s-21 12-38-7l18-6 14 2 5 5"/><path fill="#1a162c" d="M163 194c15 17 34 9 37 7l-1-5-6-5-13-2zm22 11c-7 0-16-2-23-11h-1l19-6 14 2 5 5 2 7c-1 0-7 3-16 3"/><path fill="#fff" d="M165 195s4 3 10 0c7-2-7-6-7-6l-5 1v4l2 1"/><path fill="#1a162c" d="M165 195s4 2 10 0l2-1-9-4h-5v3zm5 2-5-1-3-2v-4l6-1c2 0 10 2 10 5l-2 2-6 1"/><path fill="#fff" d="M191 157a57 57 0 0 0 2 9c1 0 4-1 8 1h7l3-2v3l3-1 1 1v1c-1 1-3 3-6 2h-19l-1-1-3-10c-2-6 3-5 3-5l2 2"/><path fill="#1a162c" d="M188 156h-2v3a212 212 0 0 0 4 11l2 1 15-1 2 1 6-2v-1h-5v-1l1-1-2 2h-1l-8-1h-7l-1-1-1-9-2-1h-1zm4 16-2-1-2-1-3-10 1-4c1-2 3-1 3-1l3 2 1 9h8l7 1 3-2h1l-1 2h3l2 1-1 2c-1 0-3 3-6 1h-2l-15 1"/><path fill="#5d97e5" d="M189 140c0 1 0 4 2 5 2 2 4 6 2 11s-5-5-5-5l-3-8 4-3"/><path fill="#1a162c" d="m186 143 2 8 3 6 2-1c2-6-1-9-3-11l-1-5zm5 15c-2 0-3-6-3-7l-3-9 3-3a1 1 0 0 1 2 1c-1 1-1 4 1 5s5 5 2 11l-2 2"/><path fill="#1a162c" d="M190 152s4 3 1 7h-1s-2 14 2 19c6 7 9 16 9 16s-7 14-28 5c0 0-4-2-4-5s-5-4-5-1l1 2s-4 0-5-4c-1-5 13-8 15-13s-3-15-3-15l-4-10 4-5 9-2 6 1 3 5"/><path fill="#1a162c" d="M166 191c2 0 3 1 4 3 0 3 3 5 3 5 19 7 27-3 28-5l-9-16c-4-5-3-18-3-19h2c2-4-1-7-1-7l-3-5-6-1-8 2-4 5 3 10c1 0 5 10 3 15-1 3-4 5-7 6-4 2-8 5-7 7 0 2 2 3 3 4v-2c0-2 1-2 2-2zm19 12-12-3s-4-2-4-6l-3-2-1 1 1 3h-1s-4-1-5-5c-1-3 3-5 7-7l7-6c2-5-2-14-2-15l-4-10 4-5 9-3 6 2 4 4c0 1 3 4 1 8l-2 1c0 2-1 13 2 17 6 8 10 17 10 17v1s-5 8-17 8"/><path fill="#fff" d="M190 159h-1v-5l1 5m-25 32h-1s1-3 7-5c6-3 6-6 6-6h1s-1 4-7 6c-6 3-6 5-6 5m10 8v-3c0-1 0-4 4-8 4-3 3-7 3-7h1s1 4-4 8c-3 3-4 6-4 8l1 2h-1m-14-7v-3l4-3 1 1-4 3v1l-1 1m21-20s-4 0-7-2l1-1c2 2 6 2 6 2v1m8 29v-1c4-1 9-5 9-6l-1-5 2 5v1s-5 5-10 6"/><path fill="#1a162c" d="m193 168-1-1 1-1h1l-1 2m-24 36h-1l1-2v2"/><path fill="#fff" d="M182 159a1 1 0 1 0 1 0 1 1 0 0 0-1 0m-3-1a1 1 0 1 0 2 0 1 1 0 0 0-2 0"/><path fill="#5d97e5" d="M190 179a7505 7505 0 0 1-1-5l11-1v-6l11 3 2-1 1 5v1l-9 8-3 1-11-4-1-1"/><path fill="#1a162c" d="M191 179v1l11 3h3l8-8v-4l-1-1-1 1-11-4 1 6h-1l-10 1 1 5zm12 5h-1l-11-4-1-1-1-5 11-2-1-6h1l11 4 1-1h1l1 2a248 248 0 0 1 0 5l-9 7-2 1"/><path fill="#1a162c" d="m189 174 11-1 2 3 2 8h-2l-11-4-1-1-1-5"/><path fill="#1a162c" d="M190 174a23948 23948 0 0 0 1 6l11 3h1l-1-7-2-3zm13 10h-1l-11-4-1-1a2714 2714 0 0 1-1-5l11-2 3 4 1 8h-1m9-13-1-1 2-1 1 5v1l-1 1-1-3v-2"/><path fill="#1a162c" d="M212 170v1l1 4v-4l-1-1zm0 7-1-6v-1h-1l2-1a1 1 0 0 1 1 0l1 1v6l-2 1"/><path fill="#fff" d="m204 178 8-8v-2l-11-3h-3l-8 8v2l11 4 3-1"/><path fill="#1a162c" d="m200 165-1 1-9 7v1l11 4h2l9-8v-1l-11-4h-1zm2 14h-1l-11-4-1-1v-1l9-8 3-1 11 4 1 1v2l-9 7-2 1"/><path fill="#fff" d="m213 165-6 5-7-2 6-5 7 2"/><path fill="#1a162c" d="m201 168 6 2 5-5-6-2zm6 3-8-3 6-6 9 3-7 6"/><path fill="#fff" d="m181 147 4 2c4-5 2-11 2-11s-6-3-9 1l-3 2s3 6 0 8c-3 3 8 8 9 8s2-4 0-8l-3-2"/><path fill="#1a162c" d="M175 141c1 2 3 7 1 9l-1 1c1 2 8 5 9 5 0 0 1-3-1-7l-3-1 1-1 4 1c3-4 2-9 1-10-1 0-5-2-8 1zm9 16c-1 0-9-3-10-6l1-2c2-1 0-6-1-8l4-3c3-3 9-1 9-1v1s3 6-2 11h-1c2 3 2 7 1 8h-1"/><path fill="#fff" d="m172 160-1 10s4 0 7 2c2 2 9 4 9 4l2-1v2l3 1 1 1-1 1c-1 1-4 2-6 0l-1-1-17-5-2-1-1-1 1-11c0-5 4-3 4-3l2 2"/><path fill="#1a162c" d="m168 158-2 3a212 212 0 0 0 0 12l2 1 17 5 1 1h6v-2h-3l-1-1h1v-1h-2v1h-1l-9-4-6-3a1 1 0 0 1-1-1l1-9-1-1-2-1zm21 23-3-1h-2a769 769 0 0 1-19-8v-11c0-2 1-3 2-3h4l1 2-1 9 7 3c2 2 8 3 9 4l2-1 1 1v1l2 1 1 1v2h-4"/><path fill="#1a162c" d="m173 156-1 6v1c-2 0-6 0-6-2-1-2 1-8 3-8 4-1 4 3 4 3"/><path fill="#1a162c" d="M170 153h-1l-1 1-2 7 6 1v-6l-1-2-1-1zm1 10c-3 0-5 0-6-2 0-1 1-6 3-8l1-1 3 1 1 3v6l-1 1h-1"/><path fill="#fff" d="m173 162-1-1v-7l-1-1v-1l1 2c2 3 1 7 1 8"/><path fill="#5d97e5" d="m186 147 1 4 2 3h1c0-2 1-5-1-7-2-3 0-6 0-6 2-7-4-8-4-8s-4-4-8 1c-5 4-8 6-11 5-4-2-8 1-7 5 1 2 4 1 4 0l-2-1c0-1 3-2 4 0 2 2-1 5-3 5-2 1-3 0-4-1 0 2 0 4 3 4 5 0 7-4 7-4s1 2-1 4c-2 3 1 6 4 4 0 0-3-1-1-4 2-2 3 1 3 1s3 0 3-4c0 0 3-1 2-3-1-3 1-3 1-3l2 1s2-1 2-3l4-1v5l-1 3"/><path fill="#1a162c" d="m187 147 1 3 1 3v-6l-1-3-1 3zm-19-1v1s2 2 0 5v3h2l-1-1 1-3 2-1 2 2s2-1 2-4c0 0 2-1 2-3v-2l1-1h1l3-2 3-2a1 1 0 0 1 2 1v2-5c-1-2-3-2-3-2v-1s-4-3-8 1c-5 4-8 6-11 5l-5 1c-1 1-2 2-1 4l1 1 2-1-2-1v-1l2-1 3 2v3l-4 3-4-1 3 3c4 0 6-4 7-4zm1 10-2-1v-4l1-3c-1 2-3 4-7 4-2-1-4-2-4-5l1-1 1 1 3 1 3-2v-3l-2-1-1 1h1l1 1-2 2c-1 0-3 0-3-2-1-2 0-3 1-5 2-1 4-2 6-1 3 1 6-1 10-5 5-4 9-1 9 0 1 0 3 0 4 2v6s-1 3 1 6v7h-1l-2-3c-2-1-1-4-1-4l1-3v-5l-3 1-3 3a2 2 0 0 1-2 0v1c0 3-1 4-2 5 0 3-3 4-3 4h-1l-1-2-1 1-1 2 1 1-2 1"/><path fill="#1a162c" d="M175 148s-3-2-2-6c0-4 4-5 4-5v1s-3 0-3 4c-1 3 2 5 2 5l-1 1m-4 2-1-1c2-2 1-5 1-5l1-1s1 5-1 7m13-13h-1s1-2-1-3c-1-1-3-2-4-1v-1c1-1 3 0 5 1s1 4 1 4m-14 34h-1l1-2 1 1-1 1m10-31c0-1 0-2-2-2v-1l3 2-1 1v-1 1m7-1h-1l-1-3h1l1 3m-2 7h-1v-1h1v-1h1l-1 2m0 1h-2l1-1h1v1m-1-4v1l-1-1 1-1v1m3 0v1l-1-1h1"/><path fill="#fff" d="m196 181-2-1 3 1h-1"/><path fill="#1a162c" d="M96 211h-3v-9l3-4 9-8 3-1 2 3v7h-2v-7l-1-1-10 8-1 3v9m38 56-1-2 14-8 2-4v-35h3v35c0 2-2 5-4 6l-14 8"/><path fill="#1a162c" d="m93 246-1-2 17-10 2-3v-36h3v36c0 2-2 4-4 5l-17 10"/><path fill="#5d97e5" d="M154 233v-3l-7-2-17-9-5 3h-3v2l1 1 21 13h3l6-4 1-1"/><path fill="#1a162c" d="M123 222v3l21 12h3l6-3v-1h1-1v-2l-6-2-17-10-5 4h-1zm23 16h-2l-21-12-1-2v-3h1l1 1 6-4h1l16 10 7 2v3l-1 2-6 3h-1"/><path fill="#1a162c" d="m154 230-7-2h-1v10h1l6-4 1-1v-3"/><path fill="#1a162c" d="M146 228v9h1l6-3v-3l-6-2zm0 10h-1v-11l2 1 7 2v1a490 490 0 0 1-1 4l-6 3h-1"/><path fill="#fff" d="m144 235-21-13v-2l6-3h3l21 12v2l-6 4h-3"/><path fill="#1a162c" d="M130 217h-1l-6 4v1l21 12h3l6-3v-1l-21-13h-2zm16 19-2-1-21-12-1-2 1-1 6-3h3l21 12 1 1-1 2-6 3-1 1"/><path fill="#5d97e5" d="M157 212h-3l-37-21-26 21h-2v3l1 2 38 22 3-1 26-21v-5"/><path fill="#1a162c" d="M90 215v2l38 21h3l25-21 1-1v-3h-4l-36-21-26 21h-2zm39 24h-1l-38-22-1-2-1-3h3l26-22 37 22h4v4l-1 2-26 21h-2"/><path fill="#1a162c" d="m131 238 26-21v-5h-3l-2-1-19 13-4 7v8l2-1"/><path fill="#1a162c" d="M130 232v6h1l25-21 1-1v-3h-3l-2-1-19 12zm-1 7v-8l4-7 19-13 2 1h4v4l-1 2-26 21h-2m-38-27h-2v3l1 2 5 2-4-7"/><path fill="#1a162c" d="m94 220-3-3v1l-1-1-1-2-1-3h3v-1l1 1-1 1h-2l1 2v1l5 3-1 1"/><path fill="#5d97e5" d="m128 236-38-22c-1-1-2-3 0-4l25-21h3l38 22c2 1 2 2 1 3l-26 21-3 1"/><path fill="#1a162c" d="M128 235h3l25-21 1-1-1-2-38-22-3 1-25 20-1 2 1 1zm1 1h-2l-37-22a3 3 0 0 1-1-4l26-21 3-1 39 23a2 2 0 0 1 0 4l-26 21h-2"/><path fill="#fff" d="m128 233-36-21v-1l24-20h2l36 21v1l-25 20h-1"/><path fill="#1a162c" d="M128 233h1l24-21-36-20-24 20h-1 1zm1 1-1-1-36-20a1 1 0 0 1 0-2l24-20h2l36 21v1l-24 20-1 1"/><path fill="#5d97e5" d="M155 206v-3h-1l-6-2-17-9-6 3-2-1v3l1 1 21 12h3l6-3 1-1"/><path fill="#1a162c" d="M123 195v2l1 1 21 12h3l6-3v-1h1-1v-2l-7-2-16-10-5 3-1 1zm23 16h-1l-22-13v-1a80 80 0 0 1 0-3l2 1 6-4 17 10 7 2v3l-1 1-6 4h-2"/><path fill="#1a162c" d="m154 203-6-2h-2v10l2-1 6-3 1-1v-3h-1"/><path fill="#1a162c" d="M147 201v9h1l6-3v-3l-7-2zm-1 10v-11l2 1 7 2v1a490 490 0 0 1-1 3l-6 4h-2m-21-15v-1l-2-1v3l1 1 1 1v-3"/><path fill="#1a162c" d="M123 195v2l1 1v-3zm2 5-2-2v-1a80 80 0 0 1 0-3l3 1-1 1v4"/><path fill="#fff" d="m145 208-21-13v-2l6-3h3l21 12v2l-6 4h-3"/><path fill="#1a162c" d="M145 207h3l6-3v-1l-22-13h-2l-6 4h-1l1 1zm1 2-1-1-22-12v-3l6-4h4l21 13 1 1-1 2-6 3-2 1"/><path fill="#5d97e5" d="m104 212 19 10 12-10-19-11-12 11"/><path fill="#1a162c" d="m105 211 18 11 11-10-18-10zm18 12-20-11 13-11 20 11-13 11"/><path fill="#fff" d="m99 211 19 11 12-10-19-11-12 10"/><path fill="#1a162c" d="m100 211 18 10 11-9-17-10zm18 11-20-11 13-11 20 12-13 10"/><path fill="#f9a70d" d="m108 204 3 2h2l6-6v-1l-3-2h-2l-6 5v2"/><path fill="#1a162c" d="m115 197-1 1-6 5 4 2h1l6-5-4-2v-1zm-3 9h-1l-3-2a1 1 0 0 1 0-2l6-5h2l3 2 1 1-1 1-6 5h-1"/><path fill="#5d97e5" d="m108 203 3 2h2l6-5v-2l-3-2h-2l-6 5v2"/><path fill="#1a162c" d="m108 202 4 2h1l6-5-4-2h-1l-6 5zm4 3h-1l-3-2a1 1 0 0 1 0-2l6-5h2l3 2 1 1-1 1-6 5h-1"/><path fill="#f9a70d" d="m124 227 3 2h2l1-1v-1l-3-2h-2l-1 1v1"/><path fill="#1a162c" d="m126 225-2 1v1l4 2h1l1-1v-1l-3-2h-1zm2 5h-1l-3-2a1 1 0 0 1 0-3h1l2-1 3 2 1 1v1l-2 1-1 1"/><path fill="#5d97e5" d="m124 226 3 2h2l1-1v-1l-3-2h-2l-1 1v1"/><path fill="#1a162c" d="m126 224-2 1v1l4 2h1l1-1v-1l-3-2h-1zm2 5h-1l-3-2a1 1 0 0 1 0-2l1-1 2-1 3 2 1 1v2h-2l-1 1"/><path fill="#f9a70d" d="m122 208 3 2h2l1-1v-1l-3-2h-2l-1 1v1"/><path fill="#1a162c" d="m122 208 3 2h1l2-1v-1l-4-2h-1l-1 1v1zm4 3h-1l-4-2a1 1 0 0 1 0-3l2-1h2l3 2 1 1-1 1-1 1-1 1"/><path fill="#5d97e5" d="m122 207 3 2h2l1-1v-1l-3-2h-2l-1 1v1"/><path fill="#1a162c" d="M124 205h-1l-1 1v1l3 2h1l2-1v-1l-4-2zm2 5h-1l-4-2a1 1 0 0 1 0-2l2-1 2-1 3 2 1 1-1 2h-1l-1 1m5 10v-1l9-4v1l-9 4m7 1-1-1 6-7 1 1-6 7"/><path fill="#5d97e5" d="M148 226h-1l1 5 2 1h1l2-1 1-5h-6"/><path fill="#1a162c" d="m148 227 1 4 1 1h1l1-1 1-4zm3 6h-1l-2-2-1-4v-1h6a1 1 0 0 1 1 1l-1 4-2 2"/><path fill="#5d97e5" d="M153 225v2h-5v-2h5"/><path fill="#1a162c" d="M151 225h-3v2h5v-2h-2zm0 4-3-1-1-2 1-2h5l1 2-1 2-2 1"/><path fill="#fff" d="M97 261v4h5l3 1 5-1s2-2 0-3l-6-2-2-1-4 1-1 1"/><path fill="#1a162c" d="M98 265h12v-2l-6-3-2-1-4 1v5zm2 1h-3v-5l1-1 4-2 2 1 6 3c1 0 2 1 1 2l-1 2v-1l-3 1h-7"/><path fill="#fff" d="M98 257v2s1 2 3 2c2-1 1-5 1-5l-4 1"/><path fill="#1a162c" d="m99 259 2 1v-4l-3 1zm1 2-2-1-1-4 5-1v5l-1 1h-1"/><path fill="#1a162c" d="m107 235-10 4v18s2 2 5 0c0 0 2-16 4-21l1-1"/><path fill="#1a162c" d="M97 257h5l4-21-8 3-1 4v14zm3 2c-2 0-3-2-3-2h-1 1l-1-14 1-4v-1l10-3v1c-2 5-4 21-4 21v1l-3 1m8 4-1-1v-1h1v2m-2-1h-1v-2l1 1v1m-2-1h-1l1-1h1l-1 1"/><path fill="#5d97e5" d="m110 265 1-2-14 1v1h5l3 1 5-1"/><path fill="#1a162c" d="M98 265h12v-1H97l1 1zm2 1h-3v-3h14v-1 4l-1-1-3 1h-7"/><path fill="#1a162c" d="m86 282-1-1 13-8 2-5-2-12h2l2 12c0 3-1 5-3 7l-13 7m-18-10-1-2 13-8c2-1 3-2 3-4v-12h2v12c0 2-2 5-4 6l-13 8"/><path fill="#5d97e5" d="M106 252v-3l-6-1-15-9-14 8h-2v3l20 11h2l15-8v-1"/><path fill="#1a162c" d="M69 247a251 251 0 0 0 1 2l19 12h2l14-9h1v-2l-6-2-15-8-14 8zm21 15-2-1-19-11-1-1a155 155 0 0 1 1-3l2 1 14-8h1l14 8 6 2h1v3l-1 1-15 8-1 1"/><path fill="#1a162c" d="M70 247h-1v3h1v-3"/><path fill="#1a162c" d="M69 247a250 250 0 0 0 1 2v1-3zm2 4-2-1-1-1v-2l1-1 2 1v4m35-2-6-1-10 7v6h1l15-8v-4"/><path fill="#1a162c" d="M90 255v6h1l14-9h1v-2l-6-2zm0 7h-1v-7l11-8 6 2h1v1a394 394 0 0 1-1 3l-15 8-1 1"/><path fill="#fff" d="m89 259-20-12v-1l15-9h3l19 11v2l-15 9h-2"/><path fill="#1a162c" d="m85 237-1 1-14 8-1 1h1l19 11h2l14-8 1-1h-1l-19-11-1-1zm5 22h-2l-19-11-1-1 1-2 15-8h3l19 11 1 1-1 2-15 8h-1"/><path fill="#fff" d="m99 211 2-1 3-1 3 1v1l-2 1h1s-1 3-5 2c-4 0-2-3-2-3"/><path fill="#1a162c" d="M99 211v2l2 1 4-1-1-1v-1h3l-3-2-3 1zm3 4h-2l-2-2v-2h1l2-2 3-1 4 2v1l-2 1v1s-1 2-4 2"/><path fill="#1a162c" d="m97 212 1-1c1 1 2 1 2 3l-2 1-2-2 1-1"/><path fill="#1a162c" d="M98 212h-1v1l1 1h2a5 5 0 0 0-2-2zm0 3h-1l-1-2a1 1 0 0 1 0-1l2-1h1l2 2-1 2h-2"/><path fill="#5d97e5" d="M81 211c1 1 0-1 0 0l3 6 7-2a21 21 0 0 0 5-3s2 1 2 3c-1 1-10 8-16 9 0 0-4-3-5-9-2-5 4-6 4-4"/><path fill="#1a162c" d="M80 210h-1c-2 1-3 2-2 5l5 9c6-2 14-8 16-9l-2-2-5 2-6 3h-1v-1l-3-6-1-1zm2 15c0-1-4-4-6-9-1-4 1-6 2-7l4 1v1l3 6 6-3 5-2 3 3h-1c-1 1-9 8-16 10"/><path fill="#fff" d="M116 267v4s3 1 4-1h4l5-1s1-3-1-3l-6-2h-2l-4 2v1"/><path fill="#1a162c" d="M116 270h8l2-1 3-1v-1l-1-1-6-1h-2l-3 1-1 1v3zm2 2-2-1h-1v-4l1-2 4-2 2 1 6 1c1 1 2 1 2 3l-1 1-3 1-2 1v-1l-3 1-3 1"/><path fill="#fff" d="m115 263 1 2s1 2 3 1 0-5 0-5l-4 2"/><path fill="#1a162c" d="M116 265h3l-1-3-2 1zm2 2-3-1-1-4 5-2v1s2 3 1 4l-1 1-1 1"/><path fill="#1a162c" d="M76 242s5 7 10 9c4 1 9 1 14-2l7-5c0-1 0 0 0 0 0 1 0 5 2 8 3 3 4 8 6 11 0 0 3 2 5-2l-6-21c0-3-2-5-4-6h-4l-7 2-12 4-11 2"/><path fill="#1a162c" d="M115 263c1 0 3 1 4-2 0-2-5-15-5-21 0-3-2-4-4-5l-2-1-2 1-7 2-12 4-10 1c1 2 6 7 10 9 2 0 8 1 12-3 0 0 5-2 7-5a1 1 0 0 1 2 1c0 1 0 5 2 7l5 12zm1 1h-2l-5-12c-2-2-2-6-2-8l-7 5c-4 3-10 4-14 3-5-2-10-9-11-10l12-2 12-4 7-2h5l4 6c0 6 5 21 5 21v1c-1 2-3 2-4 2"/><path fill="#fff" d="m107 244-1-1 2-3h1c-2 1-2 4-2 4"/><path fill="#1a162c" d="M126 267h-1v-2l1 1v1m-2 0-1-1v-1h1v2m-2-1h-1l1-1h1l-1 1"/><path fill="#5d97e5" d="M129 269v-2l-13 3v1s3 1 4-1h4l5-1"/><path fill="#1a162c" d="M116 270h8l2-1 3-1-13 2zm2 2-2-1h-1v-2h1l13-3 1 1-1 2-3 1-2 1v-1l-3 1-3 1"/><path fill="#5d97e5" d="M97 234s4 8 4 13c0 0-4 7-12 6-4 0-10-4-13-7-2-2 0-7-1-9l-4-20s-2-5 1-8l1-1 5 1 9 4 4 3 4 15 2 3"/><path fill="#1a162c" d="M74 209h-2c-2 3-1 8-1 8l5 20v8c3 4 10 7 13 8 7 0 11-6 11-7l-3-12-3-3-3-15-4-3c-7-2-9-3-9-4h-4zm16 45h-1c-4-1-11-4-14-8v-9l-5-20s-1-5 2-8l1-1a21 21 0 0 1 5 0l1 1 8 3 4 4 4 15 3 3s3 8 3 13c0 0-3 7-11 7m28-36h-1l2-6 1 1-2 5"/><path fill="#fff" d="m113 220 2-3 2 1 3-1h1v3c-1 3-6 3-6 3l-2-3"/><path fill="#1a162c" d="m113 220 2 3c1-1 4-1 5-3v-3l-2 2-1-1h-2l-2 2zm2 4-3-4 3-3c1-1 2 0 2 1l3-1h1v4c-1 2-6 3-6 3"/><path fill="#1a162c" d="m111 221 2-1 2 2v1l-1 1h-1l-2-2v-1"/><path fill="#1a162c" d="m113 221-1 1 1 2 2-1a5 5 0 0 0-2-2zm0 4v-1l-2-1a1 1 0 0 1 0-2l1-1h1l3 2-1 2h-1l-1 1"/><path fill="#5d97e5" d="M89 216h2l4 4c1 4 6 9 6 9l5-4a21 21 0 0 0 5-3s2 0 3 2c-1 1-8 9-14 12h-1l-9-11c-3-5-2-7-1-9"/><path fill="#1a162c" d="M89 217v-1zm0-1v1c-1 1-1 4 1 8l9 11h1c6-3 12-11 13-12l-2-1-4 3-6 4h-1a173 173 0 0 1-9-13l-1-1-1 1zm11 21-1-1c-2-1-7-6-9-11-3-4-3-7-2-9l3-1 1 1 3 4 6 9 5-4 4-3h1c1 0 3 0 3 2v1a51 51 0 0 1-14 12"/><path fill="#1a162c" d="m101 232-1-1v-2h1v3"/><path fill="#fff" d="m90 247-3-15-2-2-17-10h-1c-2 0-3 1-3 2l2 1h1l2 12 1 2 14 6 1 1 2 6s3 0 3-2v-1"/><path fill="#1a162c" d="m67 222 2 13 2 2 13 5 2 2 1 5 2-1 1-1h-1l-2-14-2-2-18-11-2 2h1zm20 28-2-5-1-2-14-5-2-3-2-12-2-1v-1l3-2 1 1 18 10 1 2 3 15v1c0 2-1 2-3 2"/><path fill="#1a162c" d="M90 248v-1l-3-15-1-1-2 1-2 2-5 5v1l7 3 1 1 2 6s3 0 3-2"/><path fill="#1a162c" d="m78 240 6 2 2 2 1 5 3-1v-1h-1l-2-14-1-1-1 1-3 1-4 5v1zm9 10-2-5-1-2-7-3v-2l4-4 3-2 2-1v-1l1 1 1 1 2 15v1c0 2-1 2-3 2m-19-30h-1c-2 0-3 1-3 2h2l2-2"/><path fill="#1a162c" d="M65 222h1l1-2-2 2zm0 1-1-1v-1l3-2 1 1h1v1l-3 1v1h-1"/><path fill="#5d97e5" d="m88 249-3-15-2-2-17-11-2 1 3 15 1 2 19 11 1-1"/><path fill="#1a162c" d="m65 222 2 15 2 1 18 11s1 0 0 0l-2-15-2-2-18-10zm22 28h-1l-18-11-2-2-2-15v-1h2l18 10 1 3 3 14v2h-1"/><path fill="#1a162c" d="M86 261a3 3 0 0 1-3-3l-1-4-3-14c0-2-2-5-5-6v-1h-2v2l2 12 1 5v1h1l1 2h-3c-1 0-2-1-2-3v-4l-3-13 2-3 4-1 1 1c3 2 5 5 6 8l2 13 1 5v1h1l2 2h-2m-7-53 6 3s3 0 3 3c0 0-5 3-10-1s1-5 1-5"/><path fill="#1a162c" d="m79 208-2 2 2 2c4 3 7 2 8 1v-1l-2-1zm5 7c-2 0-4 0-6-2-2-1-3-2-2-4l3-2 6 3 3 1v3l-4 1"/><path fill="#fff" d="M79 204v5a5 5 0 0 0 7 2c-1-1-2-2-1-5l-3-3-3 1"/><path fill="#1a162c" d="M79 209c2 2 4 3 6 2l-1-5-2-2h-2l-1 5zm4 3-5-2v-1l1-5 3-2 4 4h-1l1 4v1l-1 1h-2"/><path fill="#fff" d="M83 207h5s3-5 1-9h-5l-5 2 2 5 2 2"/><path fill="#1a162c" d="M84 206c0 1 1 2 4 1 0-1 2-5 0-9h-4l-4 2 1 5zm2 2-3-1-3-2-1-5 5-3h5v1c2 4 0 9-1 9v1h-2"/><path fill="#5d97e5" d="M77 196s-3 2-1 6c2 3 1 4 1 4h3s1 3 3 1v-6c1 0 5 0 7-4 0 0-1-5-6-5-6 0-7 4-7 4"/><path fill="#1a162c" d="m80 206 2 1 1-1-1-5 1-1c1 0 5 0 7-3 0-1-2-5-6-5-6 0-7 4-7 4v1s-2 1 0 5l1 4h1zm2 2h-1l-1-1h-3v-1l-1-4c-2-3 0-6 0-6 1-1 2-5 8-5s7 5 7 5v1c-2 4-6 4-7 4v6l-2 1"/><path fill="#1a162c" d="m80 198-1-1h-2v-1h2l2 1-1 1"/><path fill="#f9f9f9" d="m84 215-1-3v-1c1 0 2 2 1 4m-7-4-1-1 3-1v1l-2 1"/><path fill="#5d97e5" d="M145 247s-1-2-3-2h-1l-7 4-2 3v17s1 2 4 2c1 1 3-11 6-15h-1l1-1v-4l2-3 1-1"/><path fill="#1a162c" d="m141 245-7 5-1 2v17l2 2 3-6 2-7h-1l2-2 1-1v-4l3-4-3-2h-1zm-5 27h-1l-3-2v-18l1-3 8-4 1-1 4 3-3 4v4l-1 2-3 8-3 7"/><path fill="#fff" d="m136 252 6-1 2-3 1-1s0-2-3-2h-1l-7 4-1 1s1 2 3 2"/><path fill="#1a162c" d="m136 252 6-1 3-4-3-2h-1l-7 5h-1l3 2zm1 1h-1l-4-2v-1l1-1 8-4 1-1 4 3-3 4v1l-6 1"/><path fill="#1a162c" d="m144 247-7 4-2 3v17h1l8-4 1-2v-17c0-1 0-2-1-1"/><path fill="#1a162c" d="M145 247h-1l-7 4-1 3v17l8-5 1-1v-18zm-9 25h-1v-18l1-3 8-5h1l1 2v17l-1 2-9 5"/><path fill="#fff" d="m136 259-1-1h1l8-4 1-1h1l-1 1-8 5h-1"/><path fill="#1a162c" d="m141 258-1 1v-4l1-1h1v4h-1"/><path fill="#fff" d="M141 255h-1v3h1zm-1 5-1-1v-3l1-1 1-1h1v5l-2 1m-3-7-1-1 8-4 1 1-8 4m0 17-1-1 8-4-7 5"/><path fill="#5d97e5" d="M153 198v-3l-11 1-1-6-10 6-1-1h-1v3l1 1 10 6h2l10-6 1-1"/><path fill="#1a162c" d="M130 196v3l10 5h2l10-5v-1h1-1v-2l-10 1v-1l-1-5-9 5h-1zm11 10-2-1-9-5-1-2v-3a1 1 0 0 1 1 0h1l10-5h1l1 6 10-1v5l-10 5-2 1"/><path fill="#1a162c" d="m153 195-11 1-1 4v5h1l10-6 1-1v-3"/><path fill="#1a162c" d="M141 200v5l1-1 10-5v-3l-9 1zm0 6v-6l1-5v1l11-1v5l-10 5-2 1m-10-9v-1l-1-1h-1v3l1 1 1 1v-3"/><path fill="#1a162c" d="M130 196v3-2l1-1zm1 4-1-1-1-1v-3h3v1l-1 1v3"/><path fill="#fff" d="m140 202-10-6v-2l10-5h3l9 5v2l-10 6h-2"/><path fill="#1a162c" d="M141 189h-1l-10 6v1l10 5h2l10-5v-1l-10-6h-1zm0 14-1-1-10-5-1-2 1-1 10-6h3l10 6v3l-10 5-2 1"/><path fill="#fff" d="m152 205-25-17-1-2-2-19 3-2 27 16 1 1v21l-3 2"/><path fill="#1a162c" d="m125 167 2 19 1 2 24 17 3-2v-21l-1-1-27-15-2 1zm27 39-25-18-1-2-2-19 1-2h3l26 15 1 2v21l-2 2-1 1"/><path fill="#33537e" d="m152 205-27-15-1-2v-20l1-1 27 15 1 2v20l-1 1"/><path fill="#1a162c" d="M152 205v-21l-1-1-26-16v22zm0 1-1-1-26-15-1-2v-22h1l27 16 1 2v22h-1"/><path fill="#1a1613" d="m150 202-23-14-1-1v-16l1-1 23 14v18"/><path fill="#fff" d="m148 199-3-7h-1l-3-8-3 3-2-2-4 2-1-1-3 1v-1l3-1 1 1 4-2 2 2 4-3 2 8h2l3 7-1 1m32 159 14-7-17-10-13 8 16 9"/><path fill="#1a162c" d="m164 349 16 9 13-7-16-9zm16 10-17-10 14-9 18 11-15 8"/><path fill="#fff" d="m180 356 14-8-17-10-13 8 16 10"/><path fill="#1a162c" d="m164 346 16 9 13-7-16-9zm16 10-17-10 14-8 18 10-15 8"/><path fill="#fff" d="m180 353 14-8-17-9-13 7 16 10"/><path fill="#1a162c" d="m164 343 16 9 13-7-16-9zm16 11-17-11 14-8 18 10-15 9"/><path fill="#5d97e5" d="m180 350 14-8-17-9-13 8 16 9"/><path fill="#1a162c" d="m164 341 16 9 13-8-16-9zm16 10-17-10 14-9 18 10-15 9"/><path fill="#fff" d="m179 329 1 1-1 9-2 1h-1l-2-1-1-9v-1h6"/><path fill="#1a162c" d="M174 330v9h4l1-9zm2 10h-1l-2-1v-9a1 1 0 0 1 0-1h6a1 1 0 0 1 1 1l-1 9-2 1h-1"/><path fill="#5d97e5" d="M174 328v3h5v-3h-5"/><path fill="#1a162c" d="M176 328h-2v2h5v-2h-3zm0 4-2-1-1-2 1-2h5l1 2-1 2-3 1"/><path fill="#1a162c" d="m176 331-5-8 1-1 5 9h-1"/><path fill="#1a162c" d="m176 331-1-6 1-1 2 7h-2"/><path fill="#fff" d="m181 338 6 4 7-4-7-4-6 4"/><path fill="#1a162c" d="m182 338 5 3 6-3-6-3zm5 4-7-4 7-4 8 4-8 4"/><path fill="#5d97e5" d="m322 238-1-1 2-3h3a195 195 0 0 0 6 10l-1 1c-2 1-7-4-7-4l-2-3"/><path fill="#1a162c" d="m324 240 7 5 1-1a197 197 0 0 1-6-10h-2v1l-2 1v2zm6 6-7-5-1-3h-1v-1l1-1 1-2c1-1 3-2 4-1l2 3 3 8h1l-2 2h-1"/><path fill="#1a162c" d="m321 238 2-3 2 4v2h-2l-2-3"/><path fill="#1a162c" d="M323 240h2v-1c0-2-1-3-2-3l-1 2zm3 1h-3l-3-3 3-3 3 4v2"/><path fill="#1a162c" d="m288 233 10 20s4 3 7 0l18-12v-3l-2-1a117 117 0 0 0-17 8s0-7-3-15-10-11-10-11l-3 6v8"/><path fill="#1a162c" d="M299 252c0 1 1 2 3 2l3-2a150 150 0 0 1 18-12v-1l-1-1h-1a116 116 0 0 0-17 7l-1 1v-1l-2-15c-3-7-9-9-10-10l-3 5v8l11 19zm3 3c-3 0-4-2-4-2l-11-20v-8l4-6s7 3 10 11c3 6 3 12 3 14a57 57 0 0 1 17-7c1-1 2 0 2 1l1 1a2 2 0 0 1-1 3l-18 11-3 2"/><path fill="#5d97e5" d="m282 277-5 5c-3 2-1 5 2 4l7-4c2-1 3-2 2-4l-1-2h-4l-1 1"/><path fill="#1a162c" d="M282 277c0 1-1 3-4 5-2 1-2 2-2 3h3l7-3c2-1 2-2 2-4l-1-2-4 1zm-4 9-3-1 2-4 5-4 1-1 4-1 2 3-2 5-8 3h-1"/><path fill="#1a162c" d="M282 278h4l1-1v-3h-4l-1 4"/><path fill="#1a162c" d="m282 277 4 1 1-1-1-2h-2l-2 2zm3 2-3-1h-1v-1l2-3h4l1 3-1 2h-2"/><path fill="#1a162c" d="m295 233-7 13c-3 7-2 10-3 13l-2 17h4l5-12 1-8s12-13 13-22c1-8-11-1-11-1"/><path fill="#1a162c" d="M283 276c1 0 2 1 4-1l4-11 1-8v-1s12-13 13-21v-3c-3-1-8 1-10 2l-7 14a33 33 0 0 0-2 12l-3 17zm2 1-3-1 3-17v-2c0-2 0-5 3-11 2-7 6-13 7-13v-1s7-4 10-2c1 1 2 2 1 4-1 8-11 20-13 22l-1 8-5 12-2 1"/><path fill="#fff" d="M290 258v-1l2-2 1 1-3 2m14-11h-1v-2h1v2"/><path fill="#1a162c" d="m282 281-2-1 1-1 2 1-1 1m44-38v-1 1-1l2-1h1c-1 2-3 2-3 2"/><path fill="#fff" d="m300 184 4 4 2 8 2 5c1 3-1 6-4 7l-7-15 3-9"/><path fill="#1a162c" d="m297 193 7 15c3-1 4-4 3-7l-1-5-3-7c0-2-2-3-3-4zm7 16-8-16 3-10 1 1 4 4 3 8 1 5c1 3-1 7-4 8"/><path fill="#fff" d="M287 184h-1l-2 6c-2 2-3 6 0 9l6-7v-6l-3-2"/><path fill="#1a162c" d="M287 184v1l-3 6c-1 1-2 4 0 7l6-6v-6l-3-2zm-3 16-1-1c-2-3-2-7 0-9 2-1 3-4 3-6a1 1 0 0 1 2 0l3 2v6l-7 8m-8 17-2 5c0 2 2 3 4 2v-2h2l-1-3v-2h-3"/><path fill="#1a162c" d="M276 217c0 1-2 4-1 5v1l3 1v-3h1v-2l-1-1-2-1zm1 8-2-1-1-2c-1-2 1-5 1-5h4v2l1 3a1 1 0 0 1-1 1v-1 2l-1 1h-1"/><path fill="#5d97e5" d="M292 194c-4-2-6 0-7 1l-3 5v2l-2 4-2 5-2 5v1l2 1 1-1 4-6 1-5 3 3 5-6s4-7 0-9"/><path fill="#1a162c" d="m289 194-4 2-2 5-1 1-2 4-2 5-2 5 1 1h2l4-6v-2l1-3 3 2 4-5s3-4 2-7l-1-1-3-1zm-11 24-2-1-1-1 1-1 1-4 3-5 1-5 1-1s1-4 3-5c1-1 3-3 7-1l2 2c1 3-2 7-2 7l-4 6-3-2-1 2v2l-4 7h-2"/><path fill="#33537e" d="m286 198-1 7c-2 3-1 5 0 8l1 9v9l3 3 3 1s4 2 10-1l5-3 1-2-5-12c-1-6 1-10 1-10s1-7-2-9l-2-2c-2-2-5-3-8-3l-4 1-2 4"/><path fill="#1a162c" d="m289 234 3 1s4 2 10-1l5-3v-2c-1-2-4-7-4-12v-10s2-7-2-9l-2-2c-1-2-4-3-7-2h-4l-1 4-2 7v7l2 10v9zm6 2h-3l-3-2-3-2v-10l-2-9v-9l2-6 2-5h4c3-1 6 0 8 3l2 1c4 3 2 10 2 11v9c0 5 3 10 4 12v2l-6 3c-2 2-5 2-7 2"/><path fill="#1a162c" d="m298 189-7-4h-3l-1 3 2 4v4s-2 5 2 7 7-7 7-7v-7"/><path fill="#1a162c" d="M287 186s-1 6 2 11c0 0 4 0 6-3l-8-8"/><path fill="#1a162c" d="M290 197h-1c-3-5-2-11-2-11h1s-1 6 1 10c1 0 4 0 5-2h1c-2 3-4 3-5 3"/><path fill="#fff" d="M288 185h1l4 4c3 2 4 2 5 5l1 3 5 4 2 1s-5-8-4-13c0-5-4-9-8-10-3 0-6 2-7 4v5l1-3"/><path fill="#1a162c" d="m298 194 2 2 4 4c-1-3-3-7-3-11 0-2 0-4-2-6-1-2-3-3-5-3-3-1-5 1-7 3v4l1-3h1l1 1 3 4 1 1c3 1 4 1 4 4zm7 8-1-1-5-4-2-2v-1c0-2-1-2-3-4h-1c-3-1-4-3-4-5l-1 3v2l-1-1c-2-2-2-5 0-7 1-2 4-4 7-3l6 3c2 2 2 5 2 7-1 5 4 12 4 12l-1 1"/><path fill="#1a162c" d="M286 188v-3h1v3h-1m3-3h-1c0-1 1-4 5-5v1c-3 1-4 4-4 4m-2 9c-3-2-3-5-3-5h1-1 1s0 3 3 4l-1 1m-7 23-4-2 1-1 3 2v1m16-1c-3 0-5-2-5-2v-1c1 0 2 2 5 2v1m-4-11h-3l1-1h5l1-1 2-2s1-2 3-2v1l-3 1-1 2-1 1-4 1m-9 5-2-1v-1s2 0 3 2h-1"/><path fill="#fff" d="M287 222s7 8 7 13l8-5s-2-9-6-12l-9 4"/><path fill="#1a162c" d="M288 222c1 2 6 8 7 12l7-4-6-12zm6 13c-1-5-7-13-7-13h-1l10-5c4 4 7 12 7 13l-9 5"/><path fill="#fff" d="M288 217s7 8 8 13l8-5s-3-9-7-12l-9 4"/><path fill="#1a162c" d="M289 217c1 2 6 8 7 12l7-4c0-2-2-8-6-12zm6 13c-1-5-7-13-7-13h-1l10-5h1c4 4 6 12 6 13l-9 5"/><path fill="#1a162c" d="M294 218s5 6 6 10l6-4s-2-7-5-10l-7 4"/><path fill="#1a162c" d="m294 218 6 9 5-3c0-1-2-7-4-9zm5 11v-1l-6-10 8-4c4 3 5 10 5 10h1l-8 5"/><path fill="#fff" d="M302 218s8-5 13-5l-4-8s-8 1-12 5l3 8"/><path fill="#1a162c" d="m300 210 2 8c2-1 8-5 12-5l-3-7c-2 0-8 1-11 4zm2 9-3-10c4-3 12-4 12-4h1l3 9c-4 0-13 5-13 5m-4 7h-1l-3-2 1 2c0 1-2 2-4 1-1 0-2 3 2 4 3 1 6-2 6-2l-1-3"/><path fill="#1a162c" d="M291 228v1l2 2 6-2-1-2-2-1-2-1 1 1v1s-2 2-4 1zm3 4h-1l-3-3v-2h2l2-1-1-2h1l3 2h2l1 3-1 1s-2 2-5 2"/><path fill="#5d97e5" d="M300 200s-2 2 0 6l8 10v1l-4 4c-2 3-5 4-6 5l2 4a294 294 0 0 0 15-12l-7-13c-3-4-6-8-8-5"/><path fill="#1a162c" d="M300 200s-2 2 1 6a111 111 0 0 0 8 11v1h-1l-4 4-5 4 1 3a282 282 0 0 0 15-11l-7-13-6-6-2 1zm0 31-1-1-1-4v-1l5-4 4-3 1-1-8-10c-3-5-1-7-1-7l3-2 6 7 8 13v2a292 292 0 0 1-16 11"/><path fill="#1a162c" d="m301 229-2-4h1l2 4h-1m9-11-2-1v-1l3 1-1 1"/><path fill="#5d97e5" d="M290 197s2 0 4-3l1 1c-2 2-4 2-5 2"/><path fill="#1a162c" d="m298 195-1-1c1 0 5-4 3-10l1-1c2 7-3 12-3 12"/><path fill="#5d97e5" d="M289 193v-2 2l1-1v1h-1m2-3v1l-1-1 1-1v1m-3 0v1l-1-1 1-1v1m2 5h-1l2-1v1h-1m6-2v-1h1l-1 1"/><path fill="#fff" d="M278 221v-1l1 1h-1m18 7h-1v-2l1 2m-7-21-2 2-1-2 1-1 2 1"/><path fill="#1a162c" d="M287 206v2l1-1-1-1zm0 3-1-2 1-1 2 1-2 2"/><path fill="#fff" d="m290 209-1 1-2-1 2-2 1 2"/><path fill="#1a162c" d="m289 208-1 1 1 1v-2zm0 3-2-2 2-2 1 2-1 2m14 28-2-1v-4l1 1v2l1 1h2v1h-2"/><path fill="#5d97e5" d="M323 211s11 1 15 3l2-9s-8-4-14-4l-3 10"/><path fill="#1a162c" d="M324 210c2 1 10 1 13 3l2-8-12-3zm14 5v-1c-4-2-15-3-15-3l3-10c6-1 14 3 14 3v1l-2 10"/><path fill="#1a162c" d="M322 217s7-4 11-4l-3-7s-7 1-10 4l2 7"/><path fill="#1a162c" d="m320 210 2 7 10-5-3-5-9 3zm2 8-3-8v-1l11-3 3 7c-4 0-11 5-11 5m-5-8-1-1 6-3v1l-5 3m19 0h-1l1-5 1 1-1 4m-2-1h-1l1-5 1 1-1 4"/><path fill="#1a162c" d="M331 209v-5h1l-1 5"/><path fill="#fff" d="m323 214-1-5h1l1 5h-1m3 0-2-6h1l1 5v1m-28 36h-1l5-8 1 1-5 7m-6-10h-1l2-4 1 1-2 3"/><path fill="#1a162c" d="m375 296-2 1h-1l-2-1v-1l2-1h1l2 1v1m5 3-2 1h-1l-2-1v-1l2-1h1l2 1v1m11-1-3 2-2-1-1-1 3-1 3 1m-6 4-2 1h-1l-2-1v-1l2-1h1l2 1v1m11 0-2 1h-1l-2-1v-1l2-1h1l2 1v1m-5 3-3 1-2-1-1-1 3-1 3 1v1m10-7-2 2h-1l-2-1v-1l2-1h1l2 1m6-3-3 2h-1l-2-2 3-1 2 1h1m5-3-2 2h-1l-2-2c-1 0-1 0 0 0l2-1h1l2 1m5-3-2 2h-1l-2-2 2-1h1l2 1m-16 15-2 2h-1l-2-1v-1l2-1h1l2 1m5-3-2 2h-1l-2-2 2-1h1l2 1m6-3-3 2-3-2 3-1 2 1h1m5-3-2 2-1-1-2-1s-1 0 0 0l2-1h1l2 1m-158 68-2 2-1-1-2-1 2-1h1l2 1m-5 3-3 2-2-2c-1 0-1 0 0 0l2-1h1l2 1m10 0-2 1h-1l-2-1 2-2 1 1 2 1m-5 3-2 1h-1l-2-1c-1 0-1 0 0 0l2-1h1l2 1m10 0-2 2-1-1-2-1 2-1h1l2 1c1 0 1 0 0 0m-5 3-2 2h-1l-2-2 2-1h1l2 1m11-6-3 1c0 1 0 1 0 0l-2-1c-1 0-1 0 0 0l2-2 1 1 2 1m5-3-2 1h-1l-2-1 2-2h1l2 2m-6 9-2 1h-1l-2-1 2-2h1l2 2c1 0 1 0 0 0m6-3-2 1h-1l-2-1c-1 0-1 0 0 0l2-2h1l2 2m5-3-2 1h-1l-2-1 2-2h1l2 2m5-3-2 1h-1l-2-1 2-2h1l2 1v1M92 335l-2 1h-1l-2-1v-1l2-1h1l2 1v1m5 3-2 1h-1l-2-1v-1l2-1h1l2 1v1m-5 3-2 1h-1l-2-1v-1l2-1h1l2 1v1m5 3-2 1h-1l-2-1v-1l2-1h1l2 1v1m5 3-2 1h-1l-2-1v-1l3-1 2 1v1m11-1-2 2h-1l-2-1v-1l2-1h1l2 1m-5 4-3 1h-1l-2-1v-1l3-1 2 1 1 1m10 0-2 1h-1l-2-1v-1l2-1h1l2 1v1m-5 3-2 1h-1l-2-1v-1l2-1h1l2 1v1m10-7-2 2h-1l-2-1v-1l2-1h1l2 1c1 0 1 0 0 0m6-3-2 2h-1l-2-2c-1 0-1 0 0 0l2-1h1l2 1m5-3-2 2h-1l-2-2 2-1h1l2 1m-11 12-2 2h-1l-2-2 2-1h1l2 1m5-3-2 2h-1l-2-2 3-1 2 1c1 0 1 0 0 0m6-3-2 2h-1l-2-2c-1 0-1 0 0 0l2-1h1l2 1m5-3-2 2-1-1-2-1 2-1h1l2 1m-41-23-2 1h-1l-2-1v-1l2-1h1l2 1v1m-5 3-2 1h-1l-2-1v-1l2-1h1l2 1v1m51 23-2 1h-1l-2-1 3-1c0-1 0-1 0 0l2 1c1 0 1 0 0 0m-5 3-2 2-1-1-2-1 2-1h1l2 1m11 0-3 1h-1l-2-1 3-2 2 2h1m-6 3-2 1h-1l-2-1 2-2 1 1 2 1m11 0-2 1h-1l-2-1s-1 0 0 0l2-2 1 1 2 1m-5 3-3 2v-1l-3-1 3-1c0-1 0-1 0 0l2 1h1m10 0-2 1h-1l-2-1 2-2h1l2 2m-5 3-3 1c0 1 0 1 0 0l-2-1h-1l3-2 3 2m10 0-2 1h-1l-2-1 2-2h1l2 2m-5 3-3 1-2-1h-1l3-2h1l2 2m10 0-2 1h-1l-2-1 2-2h1l2 2m-5 3-2 1h-1l-2-1 2-2h1l2 2m10 0-2 1h-1l-2-1 2-2h1l2 1v1m-5 3-2 1h-1l-2-1 2-2h1l2 2m10 0-2 1h-1l-2-1v-1l2-1h1l2 1v1m-5 3-2 1h-1l-2-1v-1l2-1h1l2 1v1m11 0-3 1-2-1c-1 0-1 0 0 0l2-2h1l2 1v1m-6 3-2 1h-1l-2-1 2-2h1l2 2c1 0 1 0 0 0m11 0-2 1h-1l-2-1v-1l2-1h1l2 1v1m-6 3-2 1h-1l-2-1v-1l2-1h1l2 1v1m11 0-2 1h-1l-2-1v-1l2-1h1l2 1v1m-6 3-2 1h-1l-2-1v-1l2-1h1l2 1v1m11 0-2 1h-1l-2-1v-1l2-1h1l2 1v1m-5 3-2 1h-1l-2-1v-1l2-1h1l2 1v1m10 0-2 1h-1l-2-1v-1l2-1h1l2 1v1m-5 3-2 1h-1l-2-1v-1l2-1h1l2 1v1m10 0-2 1h-1l-2-1v-1l2-1h1l2 1v1m-5 3-2 1h-1l-2-1v-1l2-1h1l2 1v1m10 0-2 1h-1l-2-1v-1l2-1h1l2 1v1m-5 3-2 1h-1l-2-1v-1l2-1h1l2 1v1m11-6-2 1h-1l-2-1v-1l2-1h1l2 1v1m5-3-2 1h-1l-2-1v-1l2-1h1l2 1v1m5-3-2 1h-1l-2-1v-1l2-1h1l2 1v1m6-3-3 1-2-1v-1l2-1h1l2 1v1m5-4-2 2h-1l-2-2 2-1h1l2 1m5-3-2 2h-1l-2-2 2-1h1l2 1m43-24-2 1h-1l-2-1v-1l2-1h1l2 1v1m5-3-2 1h-1l-2-1v-1l2-1h1l2 1v1m-75 49-2 1h-1l-2-1v-1l2-1h1l2 1v1M16 272l-2 1h-1l-2-1 2-1h1l2 1s1 0 0 0m5 3-2 1h-1l-2-1 2-2h1l2 2c1 0 1 0 0 0m-5 3-2 1h-1l-2-1 2-2 1 1 2 1m10 0-2 1h-1l-2-1 2-2h1l2 2c1 0 1 0 0 0m-5 3-2 1h-1l-2-1 2-2h1l2 2m11 0-2 1h-1l-2-1c-1 0-1 0 0 0l2-2h1l2 2m-6 3-2 1h-1l-2-1 2-2h1l2 2c1 0 1 0 0 0m11 0-2 1h-1l-2-1c-1 0-1 0 0 0l2-2h1l2 2m-6 3-2 1h-1l-2-1 2-2h1l2 2c1 0 1 0 0 0m11 0-2 1h-1l-2-1v-1l2-1h1l2 1v1m-6 3-2 1h-1l-2-1 2-2h1l2 1v1m11 0-2 1h-1l-2-1 2-2h1l2 2m-5 3-2 1h-1l-2-1c-1 0-1 0 0 0l2-2h1l2 2m10 0-2 1h-1l-2-1v-1l2-1h1l2 1v1m-5 3-2 1h-1l-2-1c-1 0-1 0 0 0l2-2h1l2 1v1m10 0-2 1h-1l-2-1v-1l2-1h1l2 1v1m-5 3-2 1h-1l-2-1v-1l2-1h1l2 1v1m10 0-2 1h-1l-2-1v-1l3-1 2 1v1m-5 3-2 1h-1l-2-1v-1l2-1h1l2 1v1m11 0-3 1h-1l-2-1v-1l3-1 2 1 1 1m-6 3-2 1h-1l-2-1v-1l2-1h1l2 1v1m11 0-3 1-3-1v-1l3-1 2 1 1 1m-6 3-2 1h-1l-2-1v-1l2-1h1l2 1v1m11 0-2 1h-1l-2-1v-1l2-1h1l2 1v1m-5 3-3 1-2-1-1-1 3-1 3 1v1m10 0-2 1h-1l-2-1v-1l2-1h1l2 1v1m-5 3-3 1-2-1-1-1 3-1h1l2 1v1m10 0-2 1h-1l-2-1v-1l2-1h1l2 1v1m-5 3-3 1-2-1v-1l2-1h1l2 1v1m10 0-2 1h-1l-2-1v-1l2-1h1l2 1v1m-5 3-2 1h-1l-2-1v-1l2-1h1l2 1v1m139 68-2 1h-1l-2-1v-1l2-1h1l2 1v1m5-3-2 1h-1l-2-1v-1l2-1h1l2 1v1m5-4-2 2h-1l-2-1v-1l2-1h1l2 1c1 0 1 0 0 0m6-3-2 2h-1l-2-2c-1 0-1 0 0 0l2-1h1l2 1m5-3-2 2h-1l-2-2 2-1h1l2 1m5-3-2 2-1-1-2-1 2-1h1l2 1s1 0 0 0m43-24-2 1h-1l-2-1v-1l2-1h1l2 1v1m5-3-2 1h-1l-2-1v-1l2-1h1l2 1v1m6-9-3 1-2-1-1-1 3-1 3 1v1m-6 3-2 1h-1l-2-1v-1l2-1h1l2 1v1m11-6-2 1h-1l-2-1v-1l2-1h1l2 1v1m5-3-2 1h-1l-2-1v-1l2-1h1l2 1v1m5-3-2 1h-1l-2-1v-1l3-1 2 1v1m6-4-2 2h-1l-2-2c-1 0-1 0 0 0l2-1h1l2 1m5-3-2 2h-1l-2-2 2-1h1l2 1m5-3-2 2h-1l-2-2 2-1h1l2 1c1 0 1 0 0 0m6-3-2 2-1-1-2-1c-1 0-1 0 0 0l2-1h1l2 1m5-3-2 1h-1l-2-1 2-2 1 1 2 1m5-3-2 1h-1l-2-1 2-2h1l2 2s1 0 0 0m6-3-3 1-2-1h-1l3-2h1l2 2m5-3-2 1h-1l-2-1 2-2h1l2 2m5-3-2 1h-1l-2-1v-1l2-1h1l2 1v1m-58 40-3 1-2-1-1-1 3-1h1l2 1v1m-6 3-2 1h-1l-2-1v-1l2-1h1l2 1v1m11-6-2 1h-1l-2-1v-1l2-1h1l2 1v1m5-4-2 2h-1l-2-1v-1l2-1h1l2 1m6-3-3 2h-1l-2-2 3-1 2 1h1m5-3-2 2h-1l-2-2c-1 0-1 0 0 0l2-1h1l2 1m5-3-2 2h-1l-2-2 2-1h1l2 1m5-3-2 1h-1l-2-1 2-1h1l2 1c1 0 1 0 0 0m6-3-2 1h-1l-2-1c-1 0-1 0 0 0l2-2 1 1 2 1m5-3-2 1h-1l-2-1 2-2h1l2 2m5-3-2 1h-1l-2-1 2-2h1l2 2c1 0 1 0 0 0m6-3-3 1-2-1c-1 0-1 0 0 0l2-2h1l2 1v1m5-3-2 1h-1l-2-1v-1l2-1h1l2 1v1m5-3-2 1h-1l-2-1v-1l2-1h1l2 1v1m43-31-2 2h-1l-2-2 2-1h1l2 1m5-3-2 2h-1l-2-2 2-1h1l2 1m6-3-3 2h-1l-2-2 3-1c0-1 0-1 0 0l2 1h1m5-3-2 1h-1l-2-1s-1 0 0 0l2-1h1l2 1m5-3-2 1h-1l-2-1 2-2h1l2 2m5-3-2 1h-1l-2-1 2-2h1l2 2c1 0 1 0 0 0m6-3-2 1h-1l-2-1c-1 0-1 0 0 0l2-2h1l2 2m5-3-2 1h-1l-2-1 2-2h1l2 1v1m-32 24-2 2h-1l-2-2 2-1h1l2 1m5-3-2 2-1-1-2-1 2-1h1l2 1m6-3-3 1c0 1 0 1 0 0l-3-1 3-2v1l2 1h1m5-3-2 1h-1l-2-1 2-2h1l2 2m5-3-2 1h-1l-2-1 2-2h1l2 2m5-3-2 1h-1l-2-1 3-2 2 2c1 0 1 0 0 0m6-3-2 1h-1l-2-1v-1l2-1h1l2 1v1"/></svg>
