<svg xmlns="http://www.w3.org/2000/svg" xml:space="preserve" viewBox="0 0 468 391"><path fill="#1a162c" d="m43 267-2 1-1-1 1-1 1 1c1 0 1 0 0 0m3-1h-2c-1 0-1 0 0 0l1-1h1v1m-3 5h-2v-1h2m3-1h-2c-1 0-1 0 0 0l1-1 1 1m3-2-1 1h-1l-1-1 1-1h1l1 1m1-2 2 1h-3l1-1h1m3-1-1 1-1-1h2m-11 10h-2v-1h2v1m3-2-1 1h-1l-1-1 1-1h1l1 1m3-2-1 1h-1l-1-1 1-1h1l1 1m2-1h-2l1-1h1v1m3-2-1 1-1-1c-1 0-1 0 0 0l1-1 1 1m3-1h-3v-1h3v1m3-2-2 1-1-1h3m-14 11-1 1h-1l-1-1 1-1h1l1 1m3-1h-3v-1h3m2-1-1 1-1-1 1-1 1 1m3-2-1 1-1-1c-1 0-1 0 0 0l1-1 1 1m3-1h-3l1-1h2v1m3-2-1 1h-1l-1-1 1-1 1 1h1m2-1h-2v-1h2v1m3-2-1 1h-1l-1-1h3m-16 13h-3v-1h3v1m2-2-1 1-1-1c-1 0-1 0 0 0l1-1 1 1m3-2-1 1h-1l-1-1h3m3-1h-3l1-1h1l1 1m2-2-1 1-1-1 1-1 1 1c1 0 1 0 0 0m3-1h-2v-1h2v1m3-2-1 1h-1l-1-1 1-1h1l1 1m3-1h-3v-1h3v1m2-2-1 1-1-1h2m-19 14-1 1-1-1h-1l2-1 1 1m3-1h-3v-1h3v1m3-2-2 1-1-1 1-1h1l1 1m2-2-1 1-1-1 1-1 1 1m3-1h-2c-1 0-1 0 0 0l1-1h1v1m3-2-1 1h-1l-1-1 1-1h1l1 1m3-1h-3v-1h3v1m2-2-1 1-1-1 1-1 1 1m2-2h1l-1 1-1-1h-1 2m-18 15h-3v-1h3v1m3-2-1 1h-1l-1-1 1-1 1 1h1m2-1h-2v-1h2v1m3-2-1 1h-1l-1-1 1-1h1l1 1m3-2-1 1h-1l-1-1 1-1h1l1 1m3-1h-3l1-1h1l1 1m2-2-1 1-1-1 1-1 1 1m3-1h-2v-1h2v1m3-2-1 1h-1l-1-1 1-1h1l1 1m2-2v1h-1l-1-1h3m-22 16-2 1-1-1 1-1 1 1c1 0 1 0 0 0m3-1h-2v-1h2v1m3-2-1 1h-1l-1-1 1-1h1l1 1m3-2-1 1h-1l-1-1h3m2-1h-2l1-1 1 1c1 0 1 0 0 0m3-2-1 1-1-1c-1 0-1 0 0 0l1-1 1 1m3-1h-3v-1h3v1m3-2-1 1h-1l-1-1 1-1h1l1 1m2-1h-2v-1h2v1m3-2-1 1-1-1h-1l2-1 1 1m-22 16h-2v-1h1l1 1m3-2-1 1h-1l-1-1 1-1h1l1 1m3-1h-3v-1h3v1m2-2-1 1-1-1 1-1 1 1m3-2-1 1-1-1h-1l2-1 1 1m3-1h-3l1-1h1l1 1m3-2-2 1-1-1 1-1 1 1h1m2-1h-2v-1h2v1m3-2-1 1h-1l-1-1 1-1h1l1 1m3-2-1 1h-1l-1-1h3m-19 15h-3v-1h2l1 1m2-2-1 1-1-1 1-1 1 1m3-1h-3v-1h3v1m3-2-1 1h-1l-1-1 1-1h1l1 1m2-2-1 1-1-1 1-1 2 1m2-1h-2l1-1 1 1m3-2-1 1h-1l-1-1 1-1h1l1 1m3-1h-3v-1h3v1m3-2-2 1-1-1 1-1 1 1c1 0 1 0 0 0m-19 14-1 1-1-1c-1 0-1 0 0 0l1-1 1 1m3-1h-3v-1h3v1m3-2-1 1h-1l-1-1 1-1h1l1 1m2-2-1 1-1-1h2m3-1h-3l2-1 1 1m3-2-1 1h-1l-1-1 1-1h1l1 1m3-1h-3v-1h3v1m2-2-1 1-1-1 1-1 1 1m-11 10h-2v-1h2v1m3-2-1 1h-1l-1-1 1-1h1l1 1m3-2-1 1h-1l-1-1 1-1h1l1 1m3-1-2 1-1-1 1-1 1 1c1 0 1 0 0 0m3-2-1 1-1-1s-1 0 0 0l1-1 1 1"/><path fill="#87bfd1" d="M82 267v-7l-11-3v-6l-8 2-10 2-4-1-2 1v7h-3v7l1 3 1 1 4-1a16 16 0 0 0 4 3v2l1 1 6 1 1-1 1-2a24 24 0 0 0 7-1l2 2h2l4-3h1v-6l2-1h1"/><path fill="#1a162c" d="m50 272 2 1 2 1h1v3l6 1h1l1-2a25 25 0 0 0 7-1l3 1h1l4-2v-7h3v-7l-10-3v-5l-8 2-10 2-4-1h-2v8l-3-1v7l2 3zm11 7h-6l-2-2v-2a16 16 0 0 1-3-2h-5l-2-4v-8h1l2 1v-8h4l3 1 9-2 9-2h1v5l10 4v7c1 0 1 0 0 0l-1 1h-2v7l-5 2h-2l-2-1-7 1v2h-2"/><path fill="#1a162c" d="M47 262h-1v11l4-1v-10h-3"/><path fill="#1a162c" d="M46 263v9h3v-9h-2zm0 10h-1v-11h5v11h-4"/><path fill="#1a162c" d="M48 255h-1v11h3v-11h-2"/><path fill="#1a162c" d="M47 256v9h3v-9h-2zm0 11h-1v-12h5v11l-3 1h-1m35 0v-7l-11-3v-6l-4 1-1 1-5 17v9l1-1 1-2a24 24 0 0 0 7-1l2 2h2l4-3h1v-6l2-1h1"/><path fill="#1a162c" d="M62 271v7l1-2 7-1 3 1h1l4-2v-7h3v-7l-10-3v-5l-4 1h-1zm-1 9v-10l4-17 1-1 5-1h1v5l10 4v7l-1 1h-2v7l-5 2h-2l-2-1-7 1v2h-2v1"/><path fill="#fff" d="M79 256h-3l-3-1a17 17 0 0 0-3-2l1-2-6-1h-2l-1 2-7 1-2-1h-2l-4 2v1l2 2a6 6 0 0 0-1 4h-4l-1 1 2 3 1 1 4-1 2 2 3 1-1 2 1 1 6 1h1l1-2 7-1 2 1h2l4-3v-1l-2-1a6 6 0 0 0 2-4l3-1h1l-2-4h-1"/><path fill="#1a162c" d="m55 270 6 1 1-2h1l7-1 3 1h1l4-2-3-2h1l1-4 4-1-1-4h-1l-4 1a8 8 0 0 0-2-2l-3-1 1-3h-1l-5-1-1 1-1 2h-1l-6 1h-1l-2-2h-1l-5 3 3 1v1a6 6 0 0 0-2 4l-4 1 2 3h4a16 16 0 0 0 5 3h1zm6 2h-6l-1-1a1 1 0 0 1 0-1v-1a17 17 0 0 1-4-3h-5l-2-4a1 1 0 0 1 0-1h1l3-1 2-3-2-1-1-1 1-1 4-3h2l2 2 7-1 1-2 2-1 6 1 1 1v1l-1 1a17 17 0 0 1 5 3l3-1 2 1 1 3v1a2 2 0 0 1-1 1l-3 1a7 7 0 0 1-1 3l2 1v2l-5 2h-2l-2-1-7 1v2h-2"/><path fill="#87bfd1" d="M69 257c4 2 4 6 0 8-3 2-9 2-13 0-3-2-3-6 0-8 4-2 10-2 13 0"/><path fill="#1a162c" d="m63 256-6 2-3 3 3 3c3 2 9 2 12 0l2-3-2-3-6-2zm0 11-7-2-3-4c0-2 1-3 3-5a15 15 0 0 1 14 1c1 1 3 2 3 4l-3 4a14 14 0 0 1-7 2"/><path fill="#1a162c" d="m63 256-7 1c-3 2-3 6 0 8a13 13 0 0 0 6 1h1v-10"/><path fill="#1a162c" d="m62 256-5 2-3 3 3 3 5 2zm1 11h-1l-6-2-3-4c0-2 1-3 3-4 2-2 4-2 7-2v12"/><path fill="#87bfd1" d="M56 264v1c4 2 9 2 13 0v-1H56"/><path fill="#1a162c" d="M58 265h10c-3-2-7-2-10 0zm5 2-7-2v-1c4-2 10-2 13 0h1v1h-1a14 14 0 0 1-6 2"/><path fill="#87bfd1" d="M60 263h-2v-7h2v7"/><path fill="#1a162c" d="M55 278h-2v-7h1v7"/><path fill="#87bfd1" d="M74 277h-1v-7h1v7m-10-1h-1v-6h1v6"/><path fill="#1a162c" d="M345 202h-1l-1-1c0 1 0 0 0 0h2v1m3-2-1 1h-1l-1-1 1-1h1l1 1m-3 5h-2v-1h2v1m3-2-1 1h-1l-1-1 1-1h1l1 1m3-2-1 1h-1l-1-1h3m1-2 1 1-1 1-1-1 1-1m4-1-1 1-1-1h2m-11 10h-3v-1h3v1m3-2-1 1h-1l-1-1 1-1h1l1 1m2-1h-2v-1h2v1m3-2-1 1-1-1c-1 0-1 0 0 0l1-1 1 1m3-2-1 1h-1l-1-1 1-1h1l1 1m3-1h-3l1-1h1l1 1m2-2c1 0 1 0 0 0l-1 1-1-1h2m-13 11-1 1h-1l-1-1 1-1h1l1 1m3-1h-3v-1h2v1m3-2-1 1-1-1s-1 0 0 0l1-1 1 1m3-1h-3v-1h3v1m3-2-1 1h-1l-1-1 1-1h1l1 1m2-2-1 1-1-1h2c1 0 1 0 0 0m3-1h-2c-1 0-1 0 0 0l1-1 1 1m3-2-1 1h-1l-1-1h3m-17 13h-2l1-1 1 1m3-2-1 1-1-1c-1 0-1 0 0 0l1-1 1 1m3-1h-3v-1h3v1m3-2-1 1h-1l-1-1 1-1h1l1 1m2-2-1 1-1-1h2m3-1-1 1-2-1 1-1h1l1 1m3-2-1 1h-1l-1-1 1-1h1l1 1m3-1h-3v-1h2v1m3-2-1 1-1-1h2m-19 14-1 1h-1l-1-1 1-1h1l1 1m3-1h-3v-1h3v1m2-2-1 1-1-1 1-1 1 1c1 0 1 0 0 0m3-2-1 1-1-1c-1 0-1 0 0 0h2m3-1-1 1h-1l-1-1 1-1h1l1 1m3-2-1 1h-1l-1-1 1-1h1l1 1m2-1h-2v-1h2v1m3-2-1 1-1-1c-1 0-1 0 0 0l1-1 1 1m2-2h1v1h-3v-1h2m-18 15-1 1h-1l-1-1 1-1h1l1 1m2-2-1 1-1-1 1-1 1 1c1 0 1 0 0 0m3-1h-2v-1h2v1m3-2-1 1h-1l-1-1 1-1h1l1 1m3-2-1 1h-1l-1-1c0 1 0 0 0 0h3v1m2-2-1 1-1-1 1-1 1 1c1 0 1 0 0 0m3-2-1 1-1-1c-1 0-1 0 0 0h2m3-1h-3l1-1h1l1 1m3-2-1 1h-1l-1-1 1-1h1l1 1m2-1h-2 2m-22 15-1 1-1-1 1-1 1 1m3-1h-3v-1h3v1m3-2-1 1h-1l-1-1 1-1h1l1 1m3-1h-3v-1h2v1m3-2-1 1-1-1 1-1 1 1m3-2-1 1h-1l-1-1h3m3-1-1 1h-1l-1-1 1-1h1l1 1m2-2-1 1-1-1 1-1 1 1c1 0 1 0 0 0m3-1h-2v-1h2v1m3-2-1 1h-1l-1-1 1-1h1l1 1m-22 16-1 1h-1l-1-1 1-1h1l1 1m3-2-1 1h-1l-1-1 1-1h1l1 1m2-1h-2v-1h2v1m3-2-1 1-1-1c-1 0-1 0 0 0l1-1 1 1m3-1h-3v-1h3v1m3-2-2 1-1-1 1-1h1l1 1m2-2-1 1-1-1h2m3-1h-3l2-1 1 1m3-2-1 1h-1l-1-1 1-1h1l1 1m3-1h-3v-1h2l1 1m-20 14-1 1-1-1 1-1 1 1c1 0 1 0 0 0m3-2-1 1-1-1c-1 0-1 0 0 0l1-1 1 1m3-1h-3v-1h3v1m3-2-1 1h-1l-1-1 1-1h1l1 1m2-1h-2v-1h2v1m3-2-1 1-1-1h-1l2-1 1 1m3-2-1 1h-1l-1-1h3m3-1h-3l1-1 2 1m2-2-1 1-1-1 1-1 1 1m-19 14-1 1h-1l-1-1 1-1h1l1 1m3-1h-3v-1h3v1m2-2-1 1-1-1 1-1 1 1c1 0 1 0 0 0m3-1h-2v-1h2v1m3-2-1 1h-1l-1-1 1-1h1l1 1m3-2-1 1h-2v-1h3m2-1-1 1-1-1 1-1 1 1c1 0 1 0 0 0m3-2-1 1-1-1c-1 0-1 0 0 0l1-1 1 1m-11 10h-2l-1-1h3v1m3-2-1 1h-1l-1-1 1-1h1l1 1m3-1h-3v-1h2l1 1m2-2-1 1-1-1 1-1 1 1m3-2-1 1h-1l-1-1h3"/><path fill="#87bfd1" d="M385 201v-7l-11-4v-5l-9 2-9 2-4-1h-3v8l-3-1v8l2 3 1 1 3-1 2 2a16 16 0 0 0 2 1v2l1 1 6 1 2-1v-2a24 24 0 0 0 7-1l3 2h2l4-3v-6l3-1"/><path fill="#1a162c" d="M357 211h1l5 1h1l1-2h1l6-1h1l2 1h1l5-2v-7h3v-7l-11-3v-5l-8 2-9 2-4-1h-2v7l-1 1-3-1v7l2 3h5l2 1 2 1v1zm7 2h-1l-6-1-1-1v-2a16 16 0 0 1-4-2h-3l-2-1-1-3a1 1 0 0 1 0-1l-1-7h4v-7h7l9-1 9-3v6l11 3v8l-1 1h-2v6l-1 1-4 2h-2l-3-1-6 1-1 1-2 1"/><path fill="#1a162c" d="M349 196h-1v11h1l3-1v-10h-3"/><path fill="#1a162c" d="M349 197v9h3v-10h-2l-1 1zm0 10h-1v-12h5v12h-4"/><path fill="#1a162c" d="M350 189h-1v11h1l3-1v-10h-3"/><path fill="#1a162c" d="M350 190v9h3v-9h-3zm0 10h-1v-11h5v11h-4m35 1v-7l-11-4v-5l-5 1-1 1-4 17v9l1-1v-2a24 24 0 0 0 7-1l3 2h2l4-3v-6l3-1"/><path fill="#1a162c" d="M364 205v7l1-2h1l6-1h1l2 1h1l5-2v-7h3v-7l-11-3v-5l-4 1zm-1 8v-9l5-17 1-1 5-1v5l11 3v8l-1 1h-2v6l-1 1-4 2a3 3 0 0 1-2 0l-3-1-6 1-1 2h-2"/><path fill="#fff" d="M382 190h-4a17 17 0 0 0-5-3l1-2-1-1h-7l-1 2-7 1-2-1h-2l-4 2v1l2 1a6 6 0 0 0-2 4l-3 1-1 1 2 3 1 1 3-1 3 2 3 1-1 2v1l6 1 2-1 1-2 7-1 2 2h2l4-3v-1l-3-1a6 6 0 0 0 2-4l4-1s1 0 0 0l-1-4h-2"/><path fill="#1a162c" d="m357 204 6 1h1l1-2 7-1h1l2 1h1l4-2-3-2h1l2-4v-1h4l-2-4h-1l-3 1a16 16 0 0 0-5-3h-1l1-3-6-1h-1l-1 3-7 1-3-2h-1l-4 3 3 1-1 1a6 6 0 0 0-1 4l-4 1h-1l2 3h5a12 12 0 0 0 5 3zm7 2h-7l-1-1a1 1 0 0 1 0-1l1-1a17 17 0 0 1-5-3h-5l-2-4a1 1 0 0 1 0-1l2-1h3l1-3-2-1v-2l5-3h2l2 1 7-1v-1l2-1 6 1 1 1v2a17 17 0 0 1 4 3l3-1 2 1 2 3v1l-1 1h-3a7 7 0 0 1-2 4l2 1 1 1-1 1-4 2h-2l-3-1-6 1-1 2h-2"/><path fill="#87bfd1" d="M372 191c3 2 3 5 0 8-4 2-10 2-13 0-4-2-4-6 0-8 3-2 9-2 13 0"/><path fill="#1a162c" d="m365 190-6 2c-2 0-2 2-2 3s0 2 2 3c3 2 9 2 12 0l3-3c0-1-1-3-3-3l-6-2zm0 11-7-2-3-4c0-2 1-3 3-5a15 15 0 0 1 14 0c2 2 3 3 3 5l-3 4a14 14 0 0 1-7 2"/><path fill="#1a162c" d="m365 190-6 1c-4 2-4 5 0 8a13 13 0 0 0 6 1v-10"/><path fill="#1a162c" d="m365 190-6 2-2 3 2 3 6 1zm1 11h-1a15 15 0 0 1-7-2l-3-4c0-2 1-3 3-5l7-1h1v12"/><path fill="#87bfd1" d="M359 198c3 3 9 3 13 0-4-2-10-2-13 0"/><path fill="#1a162c" d="M360 199h10c-3-2-7-2-10 0zm5 2a14 14 0 0 1-7-2v-1a15 15 0 0 1 14 0v1a14 14 0 0 1-7 2"/><path fill="#87bfd1" d="M362 197h-1v-7h1v7"/><path fill="#1a162c" d="M357 211h-1v-6h1v7"/><path fill="#87bfd1" d="M376 211h-1v-7h1v7m-10-1h-1v-6h1v6"/><path fill="#1a162c" d="m35 225-1 1-1-1c-1 0-1 0 0 0l1-1 1 1m3-2-1 1h-1l-1-1 1-1h1l1 1m2-1h-2l1-1h2v1m2-2-1 1-1-1c-1 0-1 0 0 0l1-1 1 1m3-1h-3v-1h3v1m3-2-1 1h-1l-1-1 1-1h1l1 1m1-2h1c1 0 1 0 0 0l-1 1-1-1h1m3-2 1 1h-2l1-1m4-1-1 1h-1l-1-1h3m-22 16-1 1-1-1c-1 0-1 0 0 0l1-1 1 1m3-2-1 1h-1l-1-1h3m3-1h-3l1-1h1l1 1m2-2-1 1-1-1c-1 0-1 0 0 0l1-1 1 1m3-1h-3v-1h3v1m3-2-1 1h-1l-1-1 1-1h1l1 1m2-1h-2v-1h2v1m3-2-1 1-1-1c-1 0-1 0 0 0l1-1 1 1m3-2-1 1h-1l-1-1 1-1h1l1 1m3-1h-3l1-1h1l1 1m2-2-1 1-1-1 1-1h1l1 1m-28 19-1 1h-1l-1-1 1-1h1l1 1m3-1h-3v-1h3v1m2-2-1 1-1-1 1-1 1 1m3-2-1 1-1-1h-1l2-1 1 1m3-1h-3l1-1h1l1 1m3-2-1 1h-1l-1-1 1-1 1 1m3-1h-2v-1h2v1m3-2-1 1h-1l-1-1 1-1h1l1 1m3-1h-3v-1h3v1m3-2-2 1-1-1 1-1h1l1 1m2-2-1 1-1-1 1-1 1 1m3-1h-2c-1 0-1 0 0 0l1-1 1 1m-27 19h-3v-1h2v1m3-2-1 1-1-1c-1 0-1 0 0 0l1-1 1 1m3-2-1 1h-2v-1h3m3-1-1 1h-1l-1-1 1-1h1l1 1m2-2-1 1-1-1 1-1 1 1c1 0 1 0 0 0m3-1h-2c-1 0-1 0 0 0l1-1h1v1m3-2-1 1h-1l-1-1 1-1h1l1 1m3-1h-3v-1h3v1m2-2-1 1-1-1 1-1 1 1s1 0 0 0m3-2-1 1-1-1c-1 0-1 0 0 0h2m3-1h-3l1-1h1l1 1m3-2-2 1-1-1 1-1h1l1 1m-28 19-1 1-1-1c-1 0-1 0 0 0l1-1 1 1m3-1h-3v-1h3v1m3-2-1 1h-1l-1-1 1-1h1l1 1m2-2-1 1h-1v-1h2c1 0 1 0 0 0m3-1-1 1-1-1c-1 0-1 0 0 0l1-1 1 1m3-2-1 1h-1l-1-1 1-1h1l1 1m3-1h-3l1-1h2v1m2-2-1 1-1-1 1-1h1l1 1m2-1h-2v-1h2v1m3-2-1 1h-1l-1-1 1-1h1l1 1m3-2-1 1h-1l-1-1 1-1h1l1 1m2-1h-2l1-1 1 1c1 0 1 0 0 0m-27 19h-3l1-1h2v1m3-2-1 1h-1l-1-1 1-1 1 1c1 0 1 0 0 0m3-1h-2v-1h2v1m3-2-1 1h-1l-1-1 1-1h1l1 1m3-2-1 1h-1l-1-1h3m3-1h-3l1-1h1l1 1m2-2-1 1-1-1 1-1 1 1m3-1h-2v-1h2v1m3-2-1 1h-1l-1-1 1-1h1l1 1m2-1h-2v-1h3v1m2-2-1 1-1-1 1-1 1 1m3-2-1 1h-1l-1-1 1-1h1l1 1m-27 19-2 1-1-1 1-1 1 1c1 0 1 0 0 0m3-1h-2v-1h2v1m3-2-1 1h-1l-1-1 1-1h1l1 1m3-1h-2l-1-1h3m2-1-1 1-1-1 1-1 1 1s1 0 0 0m3-2-1 1-1-1c-1 0-1 0 0 0l1-1 1 1m3-1h-3l1-1h2v1m3-2-2 1-1-1 1-1h1l1 1m2-1h-2v-1h2v1m3-2-1 1-1-1h-1l2-1 1 1m3-2-1 1h-1l-1-1h3m3-1h-3l1-1h1l1 1m-28 19h-2c-1 0-1 0 0 0l1-1 1 1m3-2-1 1h-1l-1-1 1-1h1l1 1m3-1h-3v-1h3v1m3-2-2 1-1-1 1-1h1l1 1m2-1h-2v-1h2v1m3-2-1 1h-1l-1-1 1-1h1l1 1m3-2-1 1h-1l-1-1 1-1h1l1 1m2-1h-2l1-1 1 1m3-2-1 1-1-1h-1l2-1 1 1m3-1h-3v-1h3v1m3-2-2 1-1-1 1-1h1l1 1m2-2-1 1-1-1h2m-24 18h-3l1-1h2v1m2-2-1 1-1-1s-1 0 0 0l1-1 1 1m3-1h-2l-1-1h3v1m3-2-1 1h-1l-1-1 1-1h1l1 1m2-2v1h-1l-1-1h3m2-1h-1c0 1 0 1 0 0h-1c-1 0-1 0 0 0l1-1 1 1m3-2-1 1h-1l-1-1 1-1h1l1 1m3-1h-3v-1h3v1m2-2-1 1-1-1 1-1 1 1c1 0 1 0 0 0m3-1h-2v-1h2v1m3-2-1 1h-1l-1-1 1-1h1l1 1m-25 17-1 1-1-1c-1 0-1 0 0 0l1-1 1 1m3-1h-3v-1h3v1m3-2-1 1h-1l-1-1 1-1h1l1 1m2-1h-2v-1h2v1m3-2-1 1-1-1c-1 0-1 0 0 0l1-1 1 1m3-2-1 1h-1l-1-1 1-1h1l1 1m3-1h-3l1-1h1l1 1m2-2-1 1-1-1 1-1 1 1m3-1h-2v-1h2v1m3-2-1 1h-1l-1-1 1-1h1l1 1m3-2-2 1-1-1h2c1 0 1 0 0 0m-21 16-2 1-1-1 1-1h1l1 1m2-1h-2v-1h2v1m3-2-1 1-1-1h-1l2-1 1 1m3-1h-3v-1h3v1m3-2-2 1-1-1 1-1h1l1 1m2-2-1 1-1-1 1-1 1 1m3-1h-3l1-1h1l1 1m3-2-1 1h-1l-1-1 1-1h1l1 1m3-1h-3v-1h3v1m2-2-1 1-1-1 1-1 1 1m-19 14-1 1h-1l-1-1 1-1h1l1 1m3-2-1 1h-2v-1h3m3-1-2 1-1-1 1-1 1 1c1 0 1 0 0 0m3-2-1 1-1-1 1-1 1 1m3-1h-3l1-1h1l1 1m3-2-1 1h-1l-1-1 1-1h1l1 1m2-1h-2v-1h2v1m3-2-1 1-1-1c-1 0-1 0 0 0l1-1 1 1m3-2-1 1h-1l-1-1c0 1 0 0 0 0h3m-14 12h-1l-1-1c-1 1-1 0 0 0h2m3-1-1 1h-1l-1-1 1-1h1l1 1m3-2-2 1-1-1 1-1 1 1c1 0 1 0 0 0m3-1h-2c-1 0-1 0 0 0l1-1 1 1m3-2-1 1h-1l-1-1 1-1h1l1 1m3-1h-3v-1h3v1m-8 8h-3v-1h3v1m2-2-1 1-1-1 1-1 1 1m3-2-1 1-1-1h-1l2-1 1 1m3-1h-3l1-1h1l1 1m-22-26 1 1-1 1h-1l-1-1 2-1m-2 3h-2v-1h2v1m6 0h-3v-1h2l1 1m-3 1-1 1h-1l-1-1 1-1h1l1 1m4-4 1 1-1 1-1-1 1-1m1 4-1 1-1-1c-1 0-1 0 0 0l1-1 1 1m-3 2h-2v-1h2v1m6-4-1 1h-1l-1-1c0 1 0 0 0 0h3m1-2 2 1-2 1-1-1 1-1h1m-2 6h-3v-1h3v1m-3 1-1 1-1-1c-1 0-1 0 0 0l1-1 1 1m6-3-1 1h-1l-1-1 1-1h1l1 1m2-2-1 1-1-1c0 1 0 0 0 0h2m3-1-1 1h-1l-1-1 1-1 2 1m-6 6-1 1-1-1 1-1 1 1c1 0 1 0 0 0m-2 2h-3v-1h2l1 1m5-3h-2v-1h2v1m3-2-1 1h-1l-1-1 1-1h1l1 1m3-2-1 1h-1l-1-1h3m-6 7h-2v-1h2v1m-3 1-1 1-1-1 1-1 1 1m6-3-1 1h-1l-1-1 1-1h1l1 1m3-2-2 1-1-1c0 1 0 0 0 0h3m-3 5-1 1h-1l-1-1 1-1h1l1 1m-3 2h-2c-1 0-1 0 0 0l1-1 1 1m6-3h-3v-1h3v1m-1 3h-2v-1h2v1m-2 1-1 1h-1l-1-1 1-1h1l1 1m5 0-1 1-1-1h-1l1-1h1l1 1m-3 2h-2l1-1 1 1m3 1-1 1-1-1h-1l2-1 1 1"/><path fill="#87bfd1" d="M87 219v-4l-15-5v-7l-12 3-12 2-6-1h-3v7l5 3-5 1h-1l-4-1v5l2 5 2 1 5-1 3 2 2 2v3l2 1 8 1 2-1 1-2 10-2 3 2h2l6-3v-9l4-1h1v-1"/><path fill="#1a162c" d="M43 226v1a22 22 0 0 0 6 3v4h1l8 1h1l2-3a32 32 0 0 0 9-1h1l3 2a2 2 0 0 0 2 0l6-4v-9h4v-5l-14-4v-8l-12 3-12 3-6-1h-3v6l6 3-6 2h-1l-3-1v4l2 5h1zm15 11-8-2-2-1v-3a22 22 0 0 1-6-3h-4l-2-1-3-4a1 1 0 0 1 0-1v-5h6v1l3-1-3-2-1-2v-6h10l12-2 12-3h1v8l14 4v6l-1 1h-3v8l-1 1-6 4a3 3 0 0 1-3 0l-3-2-9 1-1 3-2 1"/><path fill="#1a162c" d="M39 218h-2v10h1l4-1v-9h-4"/><path fill="#1a162c" d="M38 218v9h4v-9h-3v1zm0 10h-1v-11h6v10l-5 1m49-8v-5l-15-5v-7l-6 1-1 1-7 24v7l2-1 1-2 10-2 3 2h2l6-3v-9h4l1-1"/><path fill="#1a162c" d="M59 229v6l2-3 9-1 4 2a2 2 0 0 0 2 0l6-4v-9h4v-5l-14-4v-8l-6 2-1 1zm-1 8v-8l6-24 2-1 6-2 1 1v7l14 4v6l-1 1h-3v8l-1 1-6 4a3 3 0 0 1-3 0l-2-2-10 1-1 3-2 1"/><path fill="#fff" d="m83 209-5 1a19 19 0 0 0-7-4l1-3-1-1-8-1h-2l-1 3-10 2-3-2h-2l-6 3v1l3 2a9 9 0 0 0-2 6l-5 1-1 1 2 4 2 1 5-1a19 19 0 0 0 7 4l-1 3 1 1 8 1h2l1-3a33 33 0 0 0 9-2l4 2h2l6-3v-1l-3-2a8 8 0 0 0 2-6l5-1 1-1-2-4-2-1"/><path fill="#1a162c" d="M43 222a18 18 0 0 0 7 4h1l-2 3h1l8 2 1-1 2-3 9-1 4 2a2 2 0 0 0 2 0l6-4-4-2v-1a8 8 0 0 0 3-5l5-1-2-5h-6a23 23 0 0 0-7-4h-1l2-3h-1l-8-2-1 1-2 3-9 1h-1l-3-2h-2l-6 4 4 2v1a8 8 0 0 0-3 5l-5 1h-1l3 5h1zm15 10-8-1-2-1v-1l1-2a23 23 0 0 1-7-4h-4c-1 1-2 0-2-1l-2-4v-1l1-1 4-1a9 9 0 0 1 2-5l-2-1-1-1 1-1 6-4a3 3 0 0 1 2 0l3 2 10-1 1-3 2-1 8 1 2 1v1l-1 2a23 23 0 0 1 6 4h5c1-1 2 0 2 1l2 4v1l-1 1-4 1a9 9 0 0 1-3 5l3 1 1 1-1 2-6 3a3 3 0 0 1-3 0l-3-2-9 1-1 3-2 1"/><path fill="#1a162c" d="M49 234h-1v-4h1v4"/><path fill="#87bfd1" d="M76 233h-2v-4h2v4m-14 0h-1v-5h1v5m32-38-4-1v-6H80v-4l-7 2h-9l-3-2v3l-4 2-3-1h-2v4l-3 1-2 2v16l1 3h4v4l3 2h2l2-1 2 1v1l1 1 5 1 1-1 1-1h4v1l2 1 4-1 1-1v-1l2-1 2 1h2l3-2 1-4h3l1-3v-16"/><path fill="#1a162c" d="m73 220 1 2 5-1v-2h1l2-1h1l2 1h1l3-2v-4l3 1h1l1-3v-16l-5-1v-5l-10-1v-3l-6 2-9-1-2-1v3h-1l-4 1h-5v4l-3 1-2 1v16l1 3h1l3-1v1a24 24 0 0 0 0 3l4 2 3-1 2 1h1v2l5 1 1-2h4zm-6 3h-5l-1-1a34 34 0 0 1 0-2 27 27 0 0 1-2-1l-2 1a2 2 0 0 1-2 0l-4-2v-3h-2l-2-1-1-3v-17l3-1 2-1v-4h5l5-1v-4l1 1 2 1 9 1 7-3v4l10 1v5l5 1v17l-1 3-2 1h-2v3l-4 2a2 2 0 0 1-2 0l-2-1-2 1v2l-1 1h-4l-2-1-1-1h-3l-1 1-1 1"/><path fill="#1a162c" d="m58 204-2 2v14h1l2-1v-12l-1-3"/><path fill="#1a162c" d="M56 206v13l2-1v-13zm0 15h-1v-15l4-3v16l-2 1a2 2 0 0 1-1 1m-7-19v12h3v-9l4-1-2-4-4-1-1 3"/><path fill="#1a162c" d="M50 202v12l1-1v-8l4-1-2-4h-2zm-1 13a1 1 0 0 1 0-1v-12l1-3h4l2 5v1l-4 1v9h-3m19 7 1-1h4v1l2 1 4-1 1-1v-1l2-1 2 1h2l3-2 1-4h3l1-3a1884 1884 0 0 0 0-16l-5-1v-6h-9v-4l-5 1-8 21v17l1-1"/><path fill="#1a162c" d="m73 220 1 2 5-1v-2h1l2-1h1l2 1h1l3-2v-4l3 1h1l1-3v-16l-5-1v-5l-9-1h-1v-3l-3 1-9 20v16l1-2h4zm1 3-1-1-1-1h-3v1l-2 1h-1v-17l9-21 5-2 1 1v3l9 1v5l5 1v17l-1 3-2 1h-2v3l-4 2a2 2 0 0 1-2 0l-1-1-2 1v1l-1 1h-1l-4 1h-1"/><path fill="#fff" d="m84 186-2 1-3-1 1-2h-1l-5-1h-1v2h-4l-1-2h-1l-5 1h-1l1 2-3 1-2-1h-2l-3 2v1l2 1-2 2-3-1-1 1-1 2v1h3a7 7 0 0 0 0 3h-3v1l1 3h4l2 2-2 1c-1 0-1 0 0 0l3 3h2l2-2 3 1-1 2 1 1h6l1-1h4v1h6l1-1-1-1a27 27 0 0 0 4-2l1 1h2l3-2c1 0 1 0 0 0l-2-1 2-2h4l1-3v-1h-3a7 7 0 0 0 0-3h3v-1l-1-2-1-1-3 1-2-2 2-1v-1l-3-2h-2"/><path fill="#1a162c" d="m73 208 1 2 5-1-1-2h1l3-1 3 1h1l3-2-3-1 1-1a12 12 0 0 0 2-2h4l1-2-3-1v-3h3v-1l-1-2h-4l-2-2h-1l3-2-3-2h-1l-2 1h-1a17 17 0 0 0-3-1h-1l1-2-5-1-1 2h-5v-2h-1l-5 1 1 2h-1l-3 1-2-1h-1l-4 2 3 2h-1a12 12 0 0 0-2 2h-4l-1 2h1l3 1v3l-3 1h-1l1 2h4a12 12 0 0 0 2 2l1 1-3 1 4 2h1l2-1 3 1h1l-1 2 5 1h1v-2h4zm-6 3-5-1-1-1v-1l-2-1-2 1h-2l-4-2v-2l2-1a13 13 0 0 1-2-1l-2 1-2-1-1-3a1 1 0 0 1 0-1h1l2-1v-1h-2l-1-1a1 1 0 0 1 0-1l1-3h4l2-1-2-1v-2l4-2h2l2 1 2-1a1 1 0 0 1 0-1 2 2 0 0 1 1-1l5-1 1 1 1 1h3l1-1 2-1 4 1 1 1v1l2 1 2-1h2l3 2 1 1-1 1-1 1 1 1h5l1 3v1l-1 1h-2v1l2 1h1v1l-1 3-2 1-3-1-1 1 1 1 1 1-1 1-3 2h-2l-2-1-2 1v2h-1l-5 1-1-1-1-1h-3v1l-2 1"/><path fill="#1a162c" d="M62 221h-1v-12h1v12"/><path fill="#87bfd1" d="M74 222h-1v-11h1v11m11-3h-1v-11h1v12m8-6h-1v-11h1v11m3-12h-1v-7h1v7"/><path fill="#87bfd1" d="M80 222h-1v-3l3-1 3 1h1v1h-2l-2-1-2 1v2m-24-33v7c0 2 1 4 4 6a22 22 0 0 0 20 0c3-2 5-4 5-6v-7h-1l-18-3-10 2v1"/><path fill="#1a162c" d="M57 189v7c0 2 1 4 4 5a21 21 0 0 0 19 0c3-1 4-3 4-5v-6l-18-3zm14 16c-4 0-8-1-11-3-3-1-5-4-5-6v-7l1-1 9-3h1l19 4v7c0 2-1 5-4 7a21 21 0 0 1-10 2"/><path fill="#1a162c" d="M59 188h-3v7c0 2 1 4 3 5v-13m25 2-12-2v17l8-2c3-2 5-4 5-6v-7h-1"/><path fill="#fff" d="M60 183c6-3 15-3 20 0 6 3 6 9 0 12-5 3-14 3-20-1-5-3-5-8 0-11"/><path fill="#1a162c" d="m70 181-9 2c-3 2-4 4-4 6s1 3 3 5a22 22 0 0 0 20 0c3-1 4-3 4-5s-1-4-4-5a20 20 0 0 0-10-3zm0 17a22 22 0 0 1-10-3c-3-2-5-4-5-6 0-3 2-5 5-7a23 23 0 0 1 21 0c3 2 4 4 4 7 0 2-1 4-4 6a21 21 0 0 1-10 3"/><path fill="#87bfd1" d="M63 183v4c0 1 0 3 2 3 3 2 8 2 11 1 2-1 3-3 2-4v-4l-10-1-5 1"/><path fill="#1a162c" d="M63 184v3l2 3c3 2 8 2 11 0l2-3v-3l-10-2zm8 9-6-2c-2-1-3-2-3-4v-4l1-1 5-1 11 2v4c0 2-1 3-3 4a12 12 0 0 1-5 1"/><path fill="#1a162c" d="M64 183h-1v4l1 3v-7m14 0-6-1v10l4-1c2-1 3-3 2-4v-3"/><path fill="#fff" d="M65 180c3-2 8-2 11 0s3 5 0 6a12 12 0 0 1-11 0c-3-1-3-4 0-6"/><path fill="#1a162c" d="m71 179-6 1-2 3 2 3h11l2-3-2-3-6-1zm0 9-6-1-3-4 3-4a13 13 0 0 1 12 0l2 4c0 2-1 3-3 4a12 12 0 0 1-5 1"/><path fill="#fff" d="m47 188-1-1 1-1 6-3 1-1 1 1-2 1c-2 0-3 2-5 3l-1 1"/><path fill="#1a162c" d="m377 317-1 1h-1l-1-1 1-1 1 1c1 0 1 0 0 0m3-1h-2v-1h2v1m3-2-1 1h-1l-1-1 1-1h1l1 1m3-2-1 1h-1l-1-1h3m3-1-2 1-1-1 1-1 1 1c1 0 1 0 0 0m2-3v1h1l-1 1-1-1 1-1m2-1h2v1h-3v-1h1m4-2 1 1-1 1h-1l-1-1 2-1m2-1h1v1h-2l1-1m3-2 1 1-1 1-1-1c-1 0-1 0 0 0l1-1m2-2h1l1 1-1 1h-1l-1-1 1-1m4-1 1 1h-3l2-1m2-2 1 1c1 0 1 0 0 0l-1 1-1-1 1-1m-32 23-1 1-1-1 1-1 1 1c1 0 1 0 0 0m3-1h-2v-1h2v1m3-2-1 1h-1l-1-1 1-1h1l1 1m3-1h-3v-1h3v1m2-2-1 1-1-1 1-1 1 1s1 0 0 0m3-2-1 1-1-1c-1 0-1 0 0 0l1-1 1 1m3-1h-3l1-1h1l1 1m3-2-2 1-1-1 1-1h1l1 1m2-1h-2v-1h2v1m3-2-1 1-1-1h-1l2-1 1 1m3-2-1 1h-1l-1-1h3m3-1-2 1-1-1 1-1 1 1h1m2-2-1 1-1-1 1-1 1 1m3-1h-3v-1h3v1m2-3 1 1-1 1h-1l-1-1 1-1h1m-38 26-1 1-1-1 1-1 1 1m3-1h-3l1-1h1l1 1m3-2-1 1h-1l-1-1 1-1h1l1 1m3-1h-3v-1h2v1m3-2-1 1-1-1s-1 0 0 0l1-1 1 1m3-2-1 1h-1l-1-1h3m3-1-1 1h-1l-1-1 1-1h1l1 1m2-2-1 1-1-1 1-1 1 1c1 0 1 0 0 0m3-1h-2v-1h2v1m3-2-1 1h-1l-1-1 1-1h1l1 1m3-1h-3v-1h3v1m2-2-1 1-1-1 1-1 1 1c1 0 1 0 0 0m3-2-1 1-1-1c-1 0-1 0 0 0l1-1 1 1m3-1h-3l1-1h1l1 1m3-2-1 1h-1l-1-1 1-1h1l1 1m2-1h-2v-1h2v1m-38 25-1 1h-1l-1-1 1-1h1l1 1m3-2-1 1h-1l-1-1h3m2-1-1 1-1-1 1-1 1 1c1 0 1 0 0 0m3-2-1 1-1-1c-1 0-1 0 0 0l1-1 1 1m3-1h-3v-1h3v1m3-2-1 1h-1l-1-1 1-1h1l1 1m2-2-1 1-1-1h2c1 0 1 0 0 0m3-1-1 1-1-1c-1 0-1 0 0 0l1-1 1 1m3-2-1 1h-1l-1-1 1-1h1l1 1m3-1h-3v-1h3v1m2-2-1 1-1-1 1-1 1 1c1 0 1 0 0 0m3-1h-2v-1h2v1m3-2-1 1h-1l-1-1 1-1h1l1 1m3-2-1 1h-1l-1-1h3m2-1h-2l1-1 1 1s1 0 0 0m3-2-1 1-1-1c-1 0-1 0 0 0l1-1 1 1m-38 25-1 1h-1l-1-1h3m2-1-1 1-1-1 1-1 1 1m3-2-1 1-1-1c-1 0-1 0 0 0l1-1 1 1m3-1h-3v-1h3v1m3-2-2 1-1-1 1-1h1l1 1m2-1h-2v-1h2v1m3-2-1 1-1-1h-1l2-1 1 1m3-2-1 1h-1l-1-1 1-1h1l1 1m3-1h-3l1-1 1 1h1m2-2-1 1-1-1 1-1 1 1m3-1h-3v-1h3v1m3-2-1 1h-1l-1-1 1-1h1l1 1m3-2-2 1-1-1h2c1 0 1 0 0 0m3-1-1 1-1-1c-1 0-1 0 0 0l1-1 1 1m3-2-1 1h-1l-1-1 1-1h1l1 1m1-2h2v1h-1l-1-1"/><path fill="#1a162c" d="M422 303h-2v-1h1l1 1m-38 25-1 1-1-1c-1 0-1 0 0 0l1-1 1 1m3-2-1 1h-1l-1-1h3m3-1-1 1h-1l-1-1 1-1h1l1 1m2-2-1 1-1-1 1-1 1 1c1 0 1 0 0 0m3-1h-2v-1h2v1m3-2-1 1h-1l-1-1 1-1h1l1 1m3-2-1 1h-1l-1-1h3m2-1-1 1-1-1 1-1 1 1c1 0 1 0 0 0m3-2-1 1-1-1c-1 0-1 0 0 0l1-1 1 1m3-1h-3v-1h3v1m3-2-1 1h-1l-1-1 1-1h1l1 1m2-1h-2v-1h2v1m3-2-1 1-1-1c-1 0-1 0 0 0l1-1 1 1m3-2-1 1h-1l-1-1h3m3-1h-3l1-1h1l1 1m2-2-1 1-1-1 1-1 1 1m-38 26h-3v-1h3v1m3-2-1 1h-1l-1-1 1-1h1l1 1m2-2-1 1-1-1h2c1 0 1 0 0 0m3-1-1 1-1-1c-1 0-1 0 0 0l1-1 1 1m3-2-1 1h-1l-1-1 1-1h1l1 1m3-1h-3v-1h3v1m2-2-1 1-1-1 1-1 1 1c1 0 1 0 0 0m3-2-1 1-1-1c-1 0-1 0 0 0h2m3-1-1 1h-1l-1-1 1-1h1l1 1m3-2-1 1h-1l-1-1 1-1h1l1 1m2-1h-2v-1h2v1m3-2-1 1-1-1c-1 0-1 0 0 0l1-1 1 1m3-1h-3v-1h3v1m3-2-1 1h-1l-1-1 1-1h1l1 1m2-2-1 1-1-1h2m3-1h-3l1-1h1l1 1m-36 23-1 1-1-1h2m3-1-1 1-1-1h-1l1-1h1l1 1m3-2-1 1h-1l-1-1 1-1h1l1 1m3-1h-3v-1h2l1 1m2-2-1 1-1-1 1-1 1 1m3-1h-3v-1h3v1m3-2-1 1h-1l-1-1 1-1h1l1 1m3-2-2 1-1-1h2c1 0 1 0 0 0m3-1h-2c-1 0-1 0 0 0l1-1 1 1m3-2-1 1h-1l-1-1 1-1h1l1 1m3-1h-3v-1h3v1m2-2-1 1-1-1 1-1 1 1c1 0 1 0 0 0m3-2-1 1-1-1c-1 0-1 0 0 0h2m3-1-1 1h-1l-1-1 1-1h1l1 1m3-2-1 1h-1l-1-1 1-1h1l1 1m-31 21h-2l1-1 1 1c1 0 1 0 0 0m3-2-1 1-1-1c-1 0-1 0 0 0l1-1 1 1m3-1h-3v-1h3v1m3-2-1 1h-1l-1-1 1-1h1l1 1m2-2-1 1-1-1h2m3-1-1 1-1-1h-1l2-1 1 1m3-2-1 1h-1l-1-1 1-1h1l1 1m3-1h-3v-1h3v1m2-2-1 1-1-1 1-1 1 1m3-1h-3v-1h3v1m3-2-1 1h-1l-1-1 1-1h1l1 1m3-2-2 1-1-1h2c1 0 1 0 0 0m-24 18h-3l1-1h1l1 1m3-2-1 1h-1l-1-1 1-1h1l1 1m2-1h-2v-1h2v1m3-2-1 1-1-1c-1 0-1 0 0 0l1-1 1 1m3-2-1 1h-1l-1-1h3m3-1-1 1h-1l-1-1 1-1h1l1 1m2-2-1 1-1-1 1-1 1 1m3-1h-3v-1h3v1m3-2-1 1h-1l-1-1 1-1h1l1 1m-6-15h-2v-1l2 1m-37-50v59l2 2a7 7 0 0 0 6 0l2-2v-59l-7-1-3 1"/><path fill="#1a162c" d="M386 250v59l1 1h6l1-1v-59l-6-1zm4 62-4-1-2-2v-60h1l3-1 7 1v60c0 1 0 2-2 3a7 7 0 0 1-3 0"/><path fill="#87bfd1" d="M415 250v-9l-14-5v-6l-12 2-12 2h-8v10l-4-1v9l2 5h6a15 15 0 0 0 5 3v3l1 1 8 1h2l1-3a31 31 0 0 0 9-1l3 2h2l6-4v-8l3-1h1"/><path fill="#1a162c" d="M414 250h1-1zm-41 6a12 12 0 0 0 3 2l2 2h1v3l1 1 7 1 1-1 2-2 9-2 3 2h2l6-3v-9h4v-9l-14-4v-7l-11 3-12 2-5-1h-3v10h-4v8l2 5h1zm14 10-8-1-1-2v-2a21 21 0 0 1-5-4l-4 1-3-1-2-4a1 1 0 0 1 0-1v-9h4v-10h4l5 1 12-2 12-3v7l14 4v10l-1 1h-3v8l-1 1-5 3a3 3 0 0 1-3 0l-3-2a32 32 0 0 1-9 2l-1 2-2 1"/><path fill="#1a162c" d="M369 244h-1v13h4v-14h-3v1"/><path fill="#1a162c" d="M368 244v13l4-1v-12h-3zm0 14h-1v-15h6v14l-4 1a3 3 0 0 1-1 0m47-8v-9l-14-5v-7l-6 2-1 1-6 22v11a2 2 0 0 0 1 0l1-3a31 31 0 0 0 9-1l3 2h2l6-4v-8h3l2-1"/><path fill="#1a162c" d="M388 255v10l1-3h1l9-2 3 2h2l6-3v-9h4v-9l-14-4v-7l-5 1-1 1zm-1 11v-12l6-22 1-1 7-2v7l14 5v9l-1 1h-3v8l-1 1-5 3a3 3 0 0 1-3 0l-3-2a32 32 0 0 1-9 2l-1 2-1 1h-1"/><path fill="#fff" d="M411 236h-5a22 22 0 0 0-6-4l1-2-1-1-8-1h-2l-1 3-9 1-3-2a2 2 0 0 0-2 0l-6 3v2l3 1a8 8 0 0 0-2 6h-4l-1 1 2 5h6l3 2 3 2-1 2 1 1 8 1h2l1-3 9-1 3 2h2l6-3v-2l-3-2a8 8 0 0 0 2-5h4l1-1-2-5h-1"/><path fill="#1a162c" d="M373 247a21 21 0 0 0 7 4l-1 3v1l8 1 1-1 2-2 9-2 3 2h2l6-3-4-2v-1a8 8 0 0 0 3-5l4-1h1l-2-5h-1l-5 1v-1a21 21 0 0 0-7-3l1-3v-1l-8-1h-1l-1 3h-1a31 31 0 0 0-9 2l-3-2a2 2 0 0 0-2 0l-5 3h-1 1l3 2v1a8 8 0 0 0-2 5l-5 1h-1l2 5h1zm14 10-8-1-1-1a1 1 0 0 1 0-1l1-2a22 22 0 0 1-6-4l-4 1-3-1-2-4a1 1 0 0 1 0-1l2-1 3-1a9 9 0 0 1 2-4l-2-2-1-1 1-1 6-3h2l3 1a32 32 0 0 1 9-1l1-2 2-1 8 1 1 1v1l-1 2a22 22 0 0 1 7 3h4l2 1 2 4v1l-1 1-4 1a9 9 0 0 1-2 4l2 2 1 1-1 1-5 3h-3l-3-2a32 32 0 0 1-9 2l-1 2-2 1"/><path fill="#1a162c" d="M379 264h-1v-9h1v9"/><path fill="#87bfd1" d="M404 263h-1v-9h1v9m-13-1h-1v-8h1v8"/><path fill="#87bfd1" d="M390 263v-1a25 25 0 0 0 4-1v1l-4 1m-2 13h-2v-8h1v8m-8-41v6l3 4a17 17 0 0 0 15 1c3-2 4-3 4-5v-5h-1l-14-3-7 2"/><path fill="#1a162c" d="M379 236v5l3 4c4 2 11 2 15 0l3-4v-5l-14-2zm11 12-9-2c-2-1-3-3-3-5v-6l1-1 7-1 15 2v6c0 2-1 4-3 5l-8 2"/><path fill="#1a162c" d="m381 234-2 1v5a5 5 0 0 0 2 4v-10m19 2-9-2v13a15 15 0 0 0 6-1c3-2 4-3 4-5v-5h-1"/><path fill="#fff" d="M382 231a17 17 0 0 1 15 0c5 2 5 6 0 9a17 17 0 0 1-15 0c-5-3-5-7 0-9"/><path fill="#1a162c" d="M389 230a16 16 0 0 0-7 1l-3 4c0 2 1 3 3 4 4 3 11 3 15 0 2-1 3-2 3-4l-3-4-8-1zm1 12c-3 0-6 0-9-2-2-1-3-3-3-5s1-4 3-5a18 18 0 0 1 17 0c2 2 3 3 3 5s-1 4-3 5c-3 2-5 2-8 2"/><path fill="#87bfd1" d="M384 230v3l1 3a10 10 0 0 0 9 0l2-3v-2l-8-2-4 1"/><path fill="#1a162c" d="M384 231v2l2 3a9 9 0 0 0 8 0l1-2v-3l-7-1zm6 7-5-1-2-4v-3h1l4-1 8 1v4c1 1 0 2-2 3l-4 1"/><path fill="#1a162c" d="M385 230h-1v3l1 2v-5m11 1-5-1v7l3-1 2-2v-3"/><path fill="#fff" d="M385 228a10 10 0 0 1 9 0c2 1 2 4 0 5a10 10 0 0 1-9 0c-2-1-2-4 0-5"/><path fill="#1a162c" d="m386 229-2 1 2 2a9 9 0 0 0 8 0l1-1-1-2a9 9 0 0 0-8 0zm4 6-5-2c-1 0-2-1-2-3s1-2 2-3h9c2 1 2 2 2 4 0 1 0 2-2 3a9 9 0 0 1-4 1"/><path fill="#fff" d="m378 319 6 4 3-3 10-5 6 3v-4l9-18 7-16c1 0 0 0 0 0l-7-5 2-3-6-4h-1l-7-1c-1 0-3 1-3 3l-2 3a21 21 0 0 0-3 2l-3-2-3 1-7 9-1 4 1 2-2 6-3 1a5 5 0 0 0-2 4v9l1 2 5 3-1 2 1 3"/><path fill="#1a162c" d="m373 311 6 3-1 2v3l6 3 3-2 10-6h1l4 3 1-3 9-18 7-16-7-4a1 1 0 0 1 0-1l2-3-7-4h-7l-3 2-1 3a20 20 0 0 0-4 2l-3-1-2 1-7 8c-1 2-2 3-1 4l1 2a38 38 0 0 0-2 6l-3 2a5 5 0 0 0-2 3l-1 10 1 1zm11 12-6-3a2 2 0 0 1-1-1 4 4 0 0 1 0-3v-1l-5-3-1-3v-9a6 6 0 0 1 3-4l3-2a39 39 0 0 1 2-5l-1-1c-1-2-1-4 1-5l7-9c1-1 2-2 3-1l3 1a22 22 0 0 1 3-1l1-3 4-4 7 1h1l7 5a1 1 0 0 1 0 1l-2 2 7 4v1l-7 16-9 18-1 4a1 1 0 0 1-1 0l-5-3-10 6-2 2h-1"/><path fill="#87bfd1" d="m399 268-2 2-1 3 11 7 3-5-11-7"/><path fill="#1a162c" d="m396 273 11 6 2-4-10-7-2 2zm11 8-13-8 1-1 1-2a6 6 0 0 1 2-3l13 7-4 7"/><path fill="#87bfd1" d="m378 287 1 2-2 6-2 1a5 5 0 0 0-3 4v9l1 2 5 4v4l6 4 3-3h1v-7l-2-11 4-12-4-3-7-4-1 4"/><path fill="#1a162c" d="m373 311 6 3-1 2v3l6 3 3-2 1-7-2-11 3-12-10-6v3l1 2a38 38 0 0 0-2 6l-3 2a5 5 0 0 0-2 3l-1 10 1 1zm11 12-6-3a2 2 0 0 1-1-1 4 4 0 0 1 0-3v-1l-5-3-1-3v-9a6 6 0 0 1 3-4l3-2a39 39 0 0 1 2-5l-1-1c-1-2-1-4 1-5v-1l12 7-4 13 2 11-1 7-1 1-2 2h-1"/><path fill="#fff" d="m395 321 2-3a20 20 0 0 0 4-2l1 1h4l7-9c1-1 2-3 1-4l-1-2 2-6 3-1a5 5 0 0 0 2-4v-9c0-2-1-3-2-2l-2 1a10 10 0 0 0-3-3l2-3-1-3-7-1c-1 0-3 1-3 3l-2 3a20 20 0 0 0-4 2l-2-1h-3l-7 9c-1 1-2 3-1 4l1 2-2 6-3 1a5 5 0 0 0-2 4l-1 10c0 1 1 2 3 1l2-1a10 10 0 0 0 3 3l-2 3c-1 2 0 3 1 3l7 1c1 0 3-1 3-3"/><path fill="#1a162c" d="M384 313a9 9 0 0 0 2 3v1l-1 3v3l7 1 3-3 1-3a20 20 0 0 0 5-3l2 2 2-1 7-8c1-2 2-3 1-4l-1-2a38 38 0 0 0 2-6h1l2-2a5 5 0 0 0 2-3l1-9-1-2-1 1-3 1a9 9 0 0 0-2-3v-1l1-3v-2a1 1 0 0 0 0-1l-7-1-3 3-1 3h-1a20 20 0 0 0-4 3h-1l-1-2a1 1 0 0 0-1 0l-1 1-8 8-1 4 2 2a38 38 0 0 0-3 6l-2 2a5 5 0 0 0-3 3v11l2-1zm8 12-7-1-1-1v-3l1-3a8 8 0 0 1-2-3l-2 1-2 1-1-3v-9a6 6 0 0 1 3-4l2-2a39 39 0 0 1 2-5l-1-2 1-5 8-8 2-1h2l1 2a25 25 0 0 1 4-2l1-3c1-2 2-4 4-4l7 1 1 1v3l-1 3 2 3 2-1 2-1 1 3v9a6 6 0 0 1-3 5l-3 1a27 27 0 0 1-2 5l1 2c1 1 1 3-1 5l-7 8-3 2-1-1-1-2a24 24 0 0 1-4 3l-1 3-4 3"/><path fill="#87bfd1" d="M399 306c-4 2-7 0-7-5 0-4 4-9 8-12 4-2 7 0 7 5-1 4-4 10-8 12"/><path fill="#1a162c" d="M403 289a6 6 0 0 0-3 1c-4 2-7 7-7 12l1 4 5-1c4-2 7-7 7-11 0-2 0-4-2-4l-1-1zm-7 18a4 4 0 0 1-2 0c-2-1-2-3-2-6 0-4 3-10 7-12l6-1 2 6a16 16 0 0 1-8 12l-3 1"/><path fill="#1a162c" d="m404 301 3-7c0-5-3-7-7-5l-5 5v1l9 6"/><path fill="#1a162c" d="m395 294 9 6 2-6c0-2 0-4-2-4h-4l-5 4zm9 7-10-6v-1l5-5 6-1 2 6a15 15 0 0 1-2 7"/><path fill="#87bfd1" d="M400 289c-4 2-8 8-8 12 4-2 8-7 8-12"/><path fill="#1a162c" d="M399 290a16 16 0 0 0-6 10c3-2 6-6 6-10zm-7 12v-1c0-4 3-10 7-12h1c0 5-3 11-7 13h-1m3-24-6-4 1-1 6 4-1 1"/><path fill="#87bfd1" d="m405 297-6-3 1-1 6 3-1 1"/><path fill="#1a162c" d="m385 293-5-3v-1l6 3-1 1m-7 9-5-3 1-1 5 3-1 1"/><path fill="#fff" d="m393 316 6 4 2-2 7-3h1l3 2 1-3 7-12 5-11-5-3 2-2-7-5-5-1-2 2-1 2a14 14 0 0 0-3 1l-2-1-2 1-5 5-1 3 1 2-2 4h-2l-2 3v8l4 2-1 1 1 3"/><path fill="#1a162c" d="m390 310 4 2-1 2v1l6 4 2-1 7-4h1l3 2v-2l7-12 6-10-5-4a1 1 0 0 1 0-1l1-1-6-5h-5l-2 1-1 2a14 14 0 0 0-3 2l-2-2-2 1-5 6-1 2 1 2-2 4-2 1-1 2-1 7zm9 11-7-5v-3l-3-3-1-1 1-7a4 4 0 0 1 2-3l1-1 2-3-1-1 1-4 6-6 2-1 2 2a16 16 0 0 1 2-1l1-2c1-2 2-3 3-2h5l1 1 6 4a1 1 0 0 1 0 1l-1 2 5 3v1l-6 11-7 12v2a1 1 0 0 1-1 1l-4-3-7 4-2 1v1"/><path fill="#87bfd1" d="m409 280-1 2-1 2 9 7 3-4-10-7"/><path fill="#1a162c" d="m407 284 9 6 2-3-9-6-1 1zm9 8-11-8h1l1-2 1-2h1l10 7-3 5"/><path fill="#87bfd1" d="m394 293 1 2-2 4h-2l-2 3v8l4 2-1 1 1 3 6 4 2-2h1v-5l-1-8 3-8-2-2-7-5-1 3"/><path fill="#1a162c" d="m390 310 4 2-1 2v1l6 4 2-1 1-4-1-9 3-8-9-6-1 2 1 2-2 4-2 1-1 2-1 7h1zm9 11-7-5v-3l-3-3-1-1 1-7a4 4 0 0 1 2-3l1-1 2-3-1-1 1-4h1l10 7-3 8 1 8-1 5-1 1-2 1v1"/><path fill="#fff" d="m407 319 1-2a15 15 0 0 0 3-1l1 1 2-1 5-5 1-3v-1a27 27 0 0 0 2-4l1-1 2-3 1-6c0-2-1-2-2-2l-2 1a8 8 0 0 0-1-2l1-2-1-3h-4c-1 0-2 0-3 2l-1 2a14 14 0 0 0-3 1l-1-1h-2l-6 6v4a27 27 0 0 0-2 4l-1 1-2 3-1 6c0 1 1 2 2 1h2l1 2-1 2 1 2 4 1 3-2"/><path fill="#1a162c" d="m399 313 1 3h1l-1 2-1 2h1l4 1 2-2 1-2h1a14 14 0 0 0 3-2l1 2 2-1 5-6 1-2-1-1v-1l2-4 2-1 2-2v-7h-1l-2 1v-1l-2-2 1-2 1-2h-1l-4-1-2 2-1 2h-1a14 14 0 0 0-3 2l-1-2h-1l-1 1-5 5-1 3 1 1-2 4v1l-2 1-2 2v7h1zm6 9h-1l-5-1-1-1v-2l1-2-1-2-1 1h-2v-8a4 4 0 0 1 2-3l2-1 2-4-1-1 1-3 5-6 3-1 1 1a18 18 0 0 1 3-1l1-2 3-2 5 1 1 1-1 2v2l1 1h3v8c0 1-1 3-3 3l-1 1-2 4 1 1-1 3-5 6-3 1-1-1v-1a17 17 0 0 1-3 2l-1 2-3 2"/><path fill="#fff" d="M410 311c-4 2-7 0-7-4 0-5 4-10 8-12s7 0 7 4c0 5-4 10-8 12"/><path fill="#1a162c" d="M414 295h-3a15 15 0 0 0-7 11c-1 3 0 4 1 5h5c4-2 7-7 7-12l-1-4h-2zm-7 18-3-1-2-6c1-4 5-10 9-12h5c2 1 3 3 3 5a17 17 0 0 1-9 13 8 8 0 0 1-3 0"/><path fill="#87bfd1" d="M415 306c2-2 3-4 3-7 0-4-3-6-7-4l-5 4v1l9 6"/><path fill="#1a162c" d="m406 299 9 6 2-6-1-4h-5l-5 4zm9 8-10-7v-1a15 15 0 0 1 6-5h5c2 1 3 3 3 5a16 16 0 0 1-3 7l-1 1"/><path fill="#87bfd1" d="M411 295c-4 2-8 7-8 11 4-1 8-7 8-11"/><path fill="#1a162c" d="M411 296a16 16 0 0 0-7 10 16 16 0 0 0 6-10zm-8 11c0-5 4-11 8-13h1v1c-1 4-4 10-9 12m5-18-6-4v-1l7 4-1 1"/><path fill="#1a162c" d="m416 303-5-4v-1l6 4-1 1m-15-3-6-4v-1l6 4-1 1m-5 6-5-4v-1l6 4-1 1m0 9-3-3v-1l4 3-1 1"/><path fill="#87bfd1" d="m421 297-5-3h-5c-5 3-8 9-8 14 0 2 0 4 2 5l4 2 10-11 2-7"/><path fill="#1a162c" d="m414 294-3 1a16 16 0 0 0-8 13l2 4 4 3 9-11 2-7-4-2-2-1zm-5 22-4-3c-2-1-3-3-3-5a18 18 0 0 1 8-14c3-1 5-2 7 0l4 2 1 1-2 7-1 1-9 11h-1"/><path fill="#1a162c" d="M421 299v-2l-5-3h-4l9 5m-12 16 6-7-11-6a15 15 0 0 0-2 6c0 2 1 4 3 5l4 2"/><path fill="#fff" d="M423 302a17 17 0 0 1-8 13c-4 2-8 0-8-5 0-4 4-10 8-13 5-2 8 0 8 5"/><path fill="#1a162c" d="m419 297-3 1a16 16 0 0 0-8 12c0 3 1 4 2 5h5c4-3 7-8 7-13 1-2 0-4-1-4l-2-1zm-7 20a4 4 0 0 1-3-1l-2-5a18 18 0 0 1 8-14c3-1 5-2 6-1 2 1 3 3 3 6 0 5-4 11-9 14l-3 1"/><path fill="#87bfd1" d="m421 304-2-2h-4a10 10 0 0 0-4 8l1 3 3 1 5-6 1-4"/><path fill="#1a162c" d="M417 303h-1a9 9 0 0 0-4 7l1 2 2 1 5-5 1-4-3-1h-1zm-2 12h-1l-2-2-2-3c0-3 3-7 5-8h4l3 2-1 4-6 7"/><path fill="#1a162c" d="M421 305v-1l-2-2h-3l5 3m-6 9 3-4-6-4a9 9 0 0 0-1 4l1 3 3 1"/><path fill="#fff" d="M422 307c0 2-2 6-4 7-3 1-4 0-4-3 0-2 2-6 4-7 3-1 4 0 4 3"/><path fill="#1a162c" d="M420 304a3 3 0 0 0-1 1 9 9 0 0 0-5 6l1 3 3-1a9 9 0 0 0 4-6l-1-3h-1zm-4 11a3 3 0 0 1-1 0l-2-4c0-3 2-6 5-7l4-1 1 4c0 3-2 6-5 7l-2 1"/><path fill="#fff" d="M430 298h-1v-3a19 19 0 0 0-1-7v-2h1v2l1 8v2m-6-16h-1l-1-4 1-1c0 1 2 4 1 5"/><path fill="#1a162c" d="m98 290-1 1h-1l-1-1 1-1h1l1 1m2 2h-2l1-1h1l1 1m-3 1-1 1h-1l-1-1 1-1h1l1 1m5 0-1 1-1-1 1-1 1 1m-2 2-1 1h-1l-1-1 1-1 2 1m5-3h-3v-1h3v1m3-2-1 1h-1l-1-1 1-1h1l1 1m-3 5h-3l1-1h1l1 1m3-2-1 1h-1l-1-1 1-1h1l1 1"/><path fill="#fff" d="m106 282-5-3h-1l-4 3 4 5v1l1 1 1-1v2l5-3v-4l-1-1"/><path fill="#1a162c" d="M102 287h1v2l3-2v-4l-5-4-4 3 4 4v2zm0 4a1 1 0 0 1 0-1h-1v-1 1a2 2 0 0 1-1-2v-1l-5-5a1 1 0 0 1 1-1l4-2a1 1 0 0 1 1 0l6 3v6l-4 3h-1"/><path fill="#1a162c" d="m99 287 3 3h1l4-3v-3s0-1 0 0l-5 2-3 1"/><path fill="#1a162c" d="m100 287 2 2 4-2v-3l-3 3zm2 4a1 1 0 0 1 0-1l-4-3v-1h4l5-3a1 1 0 0 1 1 1v3l-1 1-4 2-1 1"/><path fill="#87bfd1" d="m102 290-6-3v-5l6 3v5"/><path fill="#1a162c" d="M96 283v3h1l5 4v-4h-1zm6 7zm0 1-6-4a2 2 0 0 1-1-1v-4l1-1a1 1 0 0 1 1 0l5 4 1 1v4l-1 1"/><path fill="#1a162c" d="M99 284v-1l4-3 1 1-5 3"/><path fill="#87bfd1" d="M103 289v-1l4-2-4 3"/><path fill="#1a162c" d="M58 157h-2v-1h2v1m3 1-1 1h-1l-1-1 1-1h1l1 1m-3 2h-3l1-1h1l1 1m5 0h-2v-1h2v1m-2 1-1 1h-1l-1-1 1-1h1l1 1m5 0-1 1-1-1h-1l1-1h1l1 1m-3 2h-2s-1 0 0 0l1-1 1 1m6 0h-3l1-1h1l1 1m-3 1-1 1-1-1h-1l1-1h1l1 1m5 0-1 1-1-1 1-1 1 1c1 0 1 0 0 0m-2 2-1 1h-1l-1-1 1-1h1l1 1m5 0h-3l1-1h1l1 1m-3 1-1 1-1-1 1-1 1 1m6 0-1 1h-1l-1-1 1-1h1l1 1m-3 2-1 1h-1l-1-1 1-1h1l1 1m6-3-2 1-1-1 1-1 1 1c1 0 1 0 0 0m3-2-1 1-1-1 1-1 1 1m-3 5-1 1-1-1 1-1 1 1m3-2-1 1-1-1c-1 0-1 0 0 0l1-1 1 1"/><path fill="#fff" d="m80 156-17-9-5 2v1l4 4v2l1 1 2-2 11 9 4-3v-5"/><path fill="#1a162c" d="m65 155 11 8 4-2v-4l-17-10-4 3 4 4v2l2-2v1zm11 10a1 1 0 0 1-1-1l-10-8-2 2v-1a2 2 0 0 1-1-1v-2l-4-4a1 1 0 0 1 0-1l4-3a1 1 0 0 1 1 0l17 10 1 1v5l-5 3"/><path fill="#1a162c" d="m66 157 6 4 4 3 4-3h1v-3h-1l-4 2-6-3h-4"/><path fill="#1a162c" d="m73 161 3 3 4-3v-3l-4 3-1-1-5-3-2 1 5 3zm3 4a1 1 0 0 1-1-1l-3-2-6-4-1-1 5-1 6 3v1l4-3h1v5l-5 3"/><path fill="#87bfd1" d="m75 164-16-10-1-1v-3l1-1 16 10 1 1v4h-1"/><path fill="#1a162c" d="M59 150v4l16 10v-4zm17 14h-1 1zm0 1a1 1 0 0 1-1 0l-17-10a2 2 0 0 1-1-2v-3l1-1a1 1 0 0 1 1 0l17 10 1 1v4l-1 1"/><path fill="#1a162c" d="M61 151v-1l4-3 1 1-5 3"/><path fill="#87bfd1" d="m77 163-1-1 4-2-3 3"/><path fill="#1a162c" d="m211 252-1 1h-1l-1-1 1-1h1l1 1m3 2h-3v-1h3v1m-3 1-1 1h-1l-1-1 1-1h1l1 1m5 0-1 1-1-1 1-1 1 1m-2 2h-3l1-1h1l1 1m5 0h-3v-1h3v1m-3 1-1 1-1-1c-1 0-1 0 0 0l1-1 1 1m6 0-2 1-1-1 1-1 1 1h1m-3 2h-3l1-1h1l1 1m5 0h-2l1-1 1 1m-2 1-1 1h-1l-1-1 1-1 1 1h1m5 0-1 1h-1l-1-1 1-1h1l1 1m-3 2-1 1-1-1c-1 0-1 0 0 0l1-1 1 1m6 0h-2c0 1 0 1 0 0h-1l1-1h1l1 1m-3 1-1 1h-1l-1-1h3m5 0-1 1-1-1c-1 0-1 0 0 0l1-1 1 1m-3 2-1 1-1-1 1-1 1 1c1 0 1 0 0 0m6 0-1 1h-1l-1-1 1-1h1l1 1m-3 2h-2v-1h2v1m6-1-2 1-1-1h3m-3 2-1 1h-1l-1-1 1-1h1l1 1m5 0-1 1-1-1c-1 0-1 0 0 0l1-1 1 1m-3 2h-2v-1h2v1m6 0h-3v-1h3v1m-3 1-1 1-1-1 1-1 1 1m6 0-2 1-1-1 1-1 1 1c1 0 1 0 0 0m-2 2h-3v-1h3v1m5 0h-2v-1h2v1m-3 1-1 1-1-1 1-1 1 1m6 0-1 1h-1l-1-1 1-1h1l1 1m-3 2h-2v-1h2v1m5 0h-2v-1h2v1m-2 1-1 1h-1l-1-1 1-1h1l1 1m5 0-1 1h-1l-1-1 1-1h1l1 1m-3 2h-2v-1h2v1m6 0h-3v-1h3v1m-3 1-1 1-2-1 1-1h1l1 1m5 0-1 1-1-1 1-1 1 1c1 0 1 0 0 0m-2 2h-3l1-1h1l1 1m5 0h-3v-1h3v1m-3 1-1 1-1-1 1-1 1 1m6 0-1 1h-1l-1-1 1-1h1l1 1m-3 2-1 1h-1l-1-1 1-1h1l1 1m5 0-1 1-1-1s-1 0 0 0l1-1 1 1m-2 1-2 1-1-1 1-1 1 1c1 0 1 0 0 0m6 0-1 1h-1l-1-1 1-1h1l1 1m-3 2-1 1-1-1c-1 0-1 0 0 0l1-1 1 1m6 0-2 1-1-1 1-1h1l1 1m-3 1-1 1h-1l-1-1h3m5 0-1 1-1-1h2m-2 2-2 1-1-1 1-1 1 1h1m5 0-1 1h-1l-1-1 1-1h1l1 1m-3 1-1 1-1-1c-1 0-1 0 0 0h2m6 0-1 1h-1l-1-1h3m-3 2-1 1h-1l-1-1 1-1h1l1 1m5 0-1 1-1-1s-1 0 0 0l1-1 1 1m-2 2h-3v-1h2v1m6 0h-2l-1-1c0 1 0 0 0 0h3v1m-3 1-1 1-1-1c-1 0-1 0 0 0l1-1 1 1m6 0-2 1-1-1 1-1h1l1 1m-3 2h-3l1-1h2v1m5-3h-2v-1h2v1m3-2-1 1-1-1h-1l2-1 1 1m3-2-1 1h-1l-1-1h3m3-1h-3l1-1 1 1h1m2-2-1 1-1-1 1-1 1 1m3-1h-3v-1h3v1m-14 11h-2v-1h2v1m3-2-1 1h-1l-1-1 1-1h1l1 1m3-1h-3v-1h3m2-1h-2l1-1 1 1c1 0 1 0 0 0m3-2-1 1-1-1c-1 0-1 0 0 0l1-1 1 1m3-1h-3v-1h2l1 1"/><path fill="#87bfd1" d="M351 126 170 22l-4-1a58 58 0 0 0-12 7l9 8v130c0 5 3 11 7 13l176 102-6 3 4 7s6-2 12-7l2-5V139c0-5-3-11-7-13"/><path fill="#1a162c" d="m341 284 3 6a36 36 0 0 0 11-6c2-1 2-3 2-5V139a16 16 0 0 0-6-12L169 22h-3a60 60 0 0 0-11 6l9 8v130c0 5 3 11 6 13l177 102zm3 8-5-8 6-3-175-101c-4-2-8-9-8-14V36l-9-8 1-1 11-6h1-1 5l181 105c4 2 7 8 7 13v140c0 2 0 5-2 6a34 34 0 0 1-12 7"/><path fill="#1a162c" d="M163 49v48l112 65 69-40-154-89-27 16"/><path fill="#1a162c" d="m164 97 111 65 68-40-153-88-26 15zm111 66h-1L162 97V48l28-16v1l155 89-70 41M161 34l2 2v4l19-11-9-6-11 7-1 4"/><path fill="#1a162c" d="m161 34 3 2v3l17-10-8-5-11 6zm1 7v-4l-2-3 1-5 12-6 10 6-21 13"/><path fill="#87bfd1" d="M304 283a6 6 0 0 0-3-4l-7-4a29 29 0 0 1-13-23v-46l-7-4h-1l1 5v34l-1 5-1-5v-1l-15 2a24 24 0 0 1-5-14v-34l1-4-7-4h-1v46c0 8-5 12-13 8l-7-5h-2l-14 8v1l6 5 68 37 6 8c1 0 10-3 14-8l1-3"/><path fill="#1a162c" d="m215 248 68 38 7 7a44 44 0 0 0 13-8v-2a6 6 0 0 0-2-3l-7-4a30 30 0 0 1-14-23v-47l-6-3 1 4v34l-1 5-1 2-1-7-14 2-1-1a25 25 0 0 1-6-14v-34l1-4-6-4v46c0 4-1 7-4 9s-6 1-10-1l-7-4h-2l-13 7zm74 47a1 1 0 0 1 0-1l-7-7-68-38-5-5a1 1 0 0 1 0-1c7-6 14-8 14-8v-1l2 1 8 4c3 2 6 2 8 1 3-1 4-4 4-8v-46a1 1 0 0 1 1-1l7 4 1 1a10 10 0 0 0-1 4v34c0 4 2 9 5 14l14-2 1 1v3l1-3v-34l-1-5a1 1 0 0 1 1-1l7 4v48c0 8 6 18 13 22l7 4 4 4-1 3a46 46 0 0 1-15 9"/><path fill="#1b172d" d="m304 283-1-1c-6 5-14 7-14 7l-3 1 3 4c2 0 10-3 15-8v-3"/><path fill="#1a162c" d="m287 291 3 2a44 44 0 0 0 13-8v-2a43 43 0 0 1-13 7h-1zm2 4a1 1 0 0 1 0-1l-4-4 4-1c1 0 8-3 14-8h1l1 2-1 3a46 46 0 0 1-15 9"/><path fill="#fff" d="m282 286 2 2 16-9-6-4-3-2a1059 1059 0 0 1-16 9l7 4"/><path fill="#1a162c" d="m276 282 7 3 1 2 15-8-6-3-3-2a1052 1052 0 0 1-14 8zm8 7-2-3-9-4 1-1 16-9h1l3 2 8 5-18 10"/><path fill="#fff" d="m232 240-7-5h-2l-14 8 6 5 1 1 16-9"/><path fill="#1a162c" d="m215 248 1 1 15-9-6-4h-2l-13 7zm0 2-1-1-5-5a1 1 0 0 1 0-1 67 67 0 0 1 14-8h2l9 5-19 10m66 3v-19l-6-1h-1v8l-1 5-1-5v-1l-14 2h-1l-2-3 1 32 8 5 7 3 1-1 15-9a29 29 0 0 1-6-16"/><path fill="#1a162c" d="m265 275 5 3h1l15-9c-4-5-6-11-6-17v-17a80 80 0 0 0-5-2v8l-1 5-1 2-1-7-14 2-1-1-2-2 2 30 7 5zm6 5-7-4-8-5-2-32 2-1v1l2 2 14-1 1 1v3l1-3v-9a5 5 0 0 1 1 0l6 2v19a28 28 0 0 0 7 16l-1 1a397 397 0 0 1-15 9l-1 1"/><path fill="#87bfd1" d="m288 288-8-5a29 29 0 0 1-13-22v-47l-7-5 1 6v34c0 7-5 10-12 6a25 25 0 0 1-11-19v-34l1-4-7-5v47c0 8-6 12-13 8l-8-5c-1-1-2 0-2 2a6 6 0 0 0 2 5l77 44c1 1 2 0 2-2a6 6 0 0 0-2-5"/><path fill="#1a162c" d="m210 244-1 1 2 4 77 44h1l1-1-3-4-7-4a29 29 0 0 1-14-23v-47l-5-3v38c0 4-1 6-3 8-3 1-6 1-9-1a25 25 0 0 1-11-20v-38l-6-4v46c0 4-1 8-4 9-2 2-6 1-10-1l-7-4a2 2 0 0 0-1-1zm79 51-2-1-76-44c-2-1-3-3-3-5l1-2h3l7 4c3 2 6 2 9 1 2-1 3-4 3-8v-48l9 5v1l-1 4v34a24 24 0 0 0 11 19c3 1 5 2 7 1s3-4 3-7v-34l-1-5-1-2 10 5v48a28 28 0 0 0 12 22l8 4c2 1 3 3 3 5l-1 3a2 2 0 0 1-1 0"/><path fill="#fff" d="M238 203v33a25 25 0 0 0 11 20c7 3 12 0 12-7v-34l-1-5 4 2v-13h-25l-1 4"/><path fill="#1a162c" d="M239 199v37c0 7 5 16 11 19 3 2 5 2 7 1s3-4 3-7v-34l-1-5-1-2 5 3v-12zm15 59-5-2a25 25 0 0 1-11-20v-38h26v15l-3-2v38c0 4-1 7-3 8l-4 1"/><path fill="#1a162c" d="M255 199h-16l-1 4v33a25 25 0 0 0 7 16c4 0 7-3 7-8v-34l-1-6 4 3v-8"/><path fill="#1a162c" d="M245 251a5 5 0 0 0 4-1l2-6v-34l-1-5-1-2 5 3v-6h-15v36a24 24 0 0 0 6 15zm0 2-1-1a25 25 0 0 1-6-16v-38h17v10l-3-2v38l-2 7a6 6 0 0 1-5 2"/><path fill="#87bfd1" d="M242 201v33c0 8 5 16 11 20l6 1a9 9 0 0 0 2-6v-34l-1-5 4 2v-4h-1v-9h-21v2"/><path fill="#1a162c" d="M243 199v36c0 6 4 15 10 18l5 2 2-6v-34a17 17 0 0 0-1-5l-1-2 5 3v-3l-1-2 1 1v-8zm15 57-5-2a25 25 0 0 1-12-19v-36l1-1h22v15l-3-2v38l-2 7h-1m49-99-2 101 40 23 13-8V140c0-4-1-7-3-10l-23 13-25 14"/><path fill="#1a162c" d="m306 258 39 22 12-7V140l-2-9-22 13-25 14Zm39 24-41-24 2-101 26-14 23-14v1c2 3 3 6 3 10v134l-13 8"/><path fill="#fff" d="M340 290 159 186c-4-2-7-8-7-13V33c0-5 3-7 7-5l181 105c4 2 7 8 7 13v139c0 5-3 8-7 5"/><path fill="#1a162c" d="M340 290h4c1-1 2-2 2-5V146c0-5-3-11-6-13L158 29l-3-1c-2 1-2 3-2 5v140c0 5 3 10 6 12zm3 2-3-1-182-105c-3-2-7-8-7-13V33c0-3 1-5 3-6h5l181 105c4 2 7 8 7 14v139l-2 6-2 1"/><path fill="#5d97e5" d="M339 276 159 172l-2-4V36c0-1 1-2 2-1l180 104a5 5 0 0 1 2 3v132l-2 2"/><path fill="#191334" d="M159 35h-1v133l2 3 180 104 1-1V142l-2-3L159 35zm181 242-1-1-180-104a5 5 0 0 1-2-4V36l1-2h2l180 104 2 4v132l-1 2-1 1"/><path fill="#1a162c" d="M341 275 161 171l-2-4V34l-1 2v132l1 4 180 104 2-1"/><path fill="#1a162c" d="m159 35-1 1v132l2 3 180 104-179-104a5 5 0 0 1-3-4zm181 242-1-1-180-104a5 5 0 0 1-2-4V36l1-2h2v133l1 3 180 104h1v1l-1 1-1 1m-84-41-13-8-1-2h1l13 7 1 2-1 1"/><path fill="#1a162c" d="M256 235v-1l-13-8v2zm0 2v-1l-13-7a3 3 0 0 1-2-3l1-1h1l13 7 2 3-1 1-1 1"/><path fill="#87bfd1" d="m349 142-1-1 8-4 1 1-8 4m0 131-1-1 8-4 1 1-8 4m-78-2v-1l11-7 1 1-12 7m-29-23v-1l2-1 1 1-3 1"/><path fill="#fff" d="m198 80-21-12-1-3c0-1 0-2 1-1l21 12 1 2-1 1"/><path fill="#fff" d="M198 79h1v-1l-1-2-21-12h-1v1l1 2zm0 1-21-12a4 4 0 0 1-2-3l1-2h1l21 12 2 3-1 2h-1m11 6-6-4a4 4 0 0 1-2-3l2-1 6 4 1 3-1 1"/><path fill="#fff" d="M209 86h1v-1l-1-3-7-3s0-1 0 0h-1l2 3zm0 1v-1l-7-3a4 4 0 0 1-1-4v-1h2l6 3a4 4 0 0 1 2 4 2 2 0 0 1-1 1h-1"/><path fill="#87bfd1" d="m226 96-12-7-2-3c0-1 1-2 2-1l12 7 1 3-1 1"/><path fill="#fff" d="M226 95h1l-1-3-12-7h-1v1l1 2zm0 1-12-7a4 4 0 0 1-2-3l1-2h1l12 7a4 4 0 0 1 2 4l-1 1h-1"/><path fill="#87bfd1" d="m260 116-21-12-1-3c0-1 0-2 1-1l21 12 1 2-1 2"/><path fill="#fff" d="M239 100h-1v1l1 2 21 12h1v-1l-1-2-21-12zm21 16-21-12a4 4 0 0 1-2-3l1-2h2l20 12a4 4 0 0 1 2 3l-1 2h-1m-52-23v-1a4 4 0 0 1-2-3l2-1 2 3c0 1-1 2-2 1"/><path fill="#fff" d="M209 92v-1c1-1 0-2-1-2h-1l1 3zm0 1h-1l-2-4 1-1h2a4 4 0 0 1 1 3v2h-1m10 6-6-4a4 4 0 0 1-1-3l1-1 6 4 2 3c0 1-1 2-2 1"/><path fill="#fff" d="m220 99 1-1-2-3-6-3h-1l1 3zm0 1-1-1-6-3a4 4 0 0 1-2-4l1-1h1l7 4a4 4 0 0 1 1 3v1l-1 1m16 9-12-7a3 3 0 0 1-1-3l1-1 12 7 2 3-2 1"/><path fill="#fff" d="m237 109 1-1-2-3-12-7-1 1 2 3zm0 1-1-1-12-7a4 4 0 0 1-2-3l1-2h2l12 7a4 4 0 0 1 1 4v1h-1m-35-20-6-4a3 3 0 0 1-1-3l1-1 6 4 2 3c0 1-1 2-2 1"/><path fill="#fff" d="M203 89v-1l-1-3-6-3h-1l1 3zm0 1-1-1-6-3a4 4 0 0 1-2-4l1-1h1l7 4a4 4 0 0 1 1 3v1l-1 1"/><path fill="#87bfd1" d="m262 124-20-12a4 4 0 0 1-2-3c0-1 1-2 2-1l20 12c1 0 2 1 2 3l-2 1"/><path fill="#fff" d="M262 123h1l-1-3-21-12v1l1 2zm1 1h-1l-21-12a4 4 0 0 1-1-3v-2h2l20 12a4 4 0 0 1 2 4l-1 1"/><path fill="#87bfd1" d="m277 125-7-3-1-3c0-1 0-2 1-1l7 3 1 3-1 1"/><path fill="#fff" d="m277 125 1-1-2-2-6-4-1 1 1 2zm0 1h-1l-6-4a4 4 0 0 1-2-3l1-2h2l6 4a4 4 0 0 1 2 3l-1 2h-1m-4 4-6-3-1-3c0-1 0-2 1-1l7 3 1 3c0 1-1 2-2 1"/><path fill="#fff" d="M267 123h-1v1l1 2 7 4 1-1-2-2-6-4zm7 8h-1l-6-4a4 4 0 0 1-2-3l1-2h1l7 4a4 4 0 0 1 1 3v2h-1"/><path fill="#87bfd1" d="m291 140-12-7-2-3 2-1 12 7 1 3-1 1"/><path fill="#fff" d="M278 130h-1l2 3 12 7 1-1-2-2-12-7v-1zm13 11h-1l-12-7-2-4 1-1h2l12 7a4 4 0 0 1 1 3v2h-1m-82-41-4-2a4 4 0 0 1-1-3c0-1 0-2 1-1l4 2 1 3-1 1"/><path fill="#fff" d="M205 94h-1v1l1 2 4 2h1l-2-3-3-2zm4 6h-1l-3-2a4 4 0 0 1-2-3l1-2h1l4 2a4 4 0 0 1 2 4 2 2 0 0 1-1 1h-1m25 15-20-12-2-3c0-1 1-2 2-1l20 12 2 2c0 2-1 2-2 2"/><path fill="#fff" d="M235 114v-1l-1-2-20-12h-1v1l1 2zm0 1h-1l-20-12a4 4 0 0 1-2-3l1-2h1l21 12a4 4 0 0 1 1 4 2 2 0 0 1 0 1h-1m16 9-6-3a4 4 0 0 1-2-3c0-1 1-2 2-1l6 3 2 3c0 1-1 2-2 1"/><path fill="#fff" d="M251 124h1v-1l-1-2-6-4h-1v1l1 2zm1 1h-1l-6-4-2-3 1-2h1l6 4a4 4 0 0 1 2 3l-1 2"/><path fill="#87bfd1" d="m268 134-12-7a4 4 0 0 1-1-3l1-1 12 7 2 3c0 1-1 2-2 1"/><path fill="#fff" d="M268 134h1v-1l-1-2-12-7h-1l1 3zm1 1h-1l-12-7a4 4 0 0 1-2-4l1-1h1l12 7a4 4 0 0 1 2 3l-1 2m-80-40-12-7a4 4 0 0 1-1-3l1-1 12 7 2 3c0 1-1 2-2 1"/><path fill="#fff" d="M177 85h-1l2 3 12 7 1-1-2-2-12-7zm13 11h-1l-12-7a4 4 0 0 1-2-4l1-1h2l12 7 1 3v2h-1"/><path fill="#87bfd1" d="m198 100-4-2-1-3 1-1 4 2 1 3c0 1 0 2-1 1"/><path fill="#fff" d="m194 94-1 1 2 3 3 2h1v-1l-1-2-4-2zm4 7-4-2-2-4 1-1h2l3 2 2 3-1 2h-1"/><path fill="#87bfd1" d="m224 115-21-12c-1 0-2-2-1-3l1-1 21 12 1 3-1 1"/><path fill="#fff" d="M202 99v1l1 3 21 12 1-1-2-2-20-12-1-1zm22 17h-1l-20-12a4 4 0 0 1-2-4l1-1h1l21 12 2 3-1 2h-1"/><path fill="#87bfd1" d="M229 118h-1a4 4 0 0 1-1-3l1-1h1l2 3c0 1-1 2-2 1"/><path fill="#fff" d="M229 118h1v-1l-1-2-1-1-1 1 2 3zm1 1h-1l-1-1a4 4 0 0 1-2-3l1-2h1l1 1 2 3-1 2"/><path fill="#87bfd1" d="m240 125-6-4a3 3 0 0 1-1-3l1-1 6 4 2 3-2 1"/><path fill="#fff" d="M241 124v1-1l-1-3-6-3h-1l1 3zm0 1h-1l-6-3a4 4 0 0 1-2-4l1-1h1l7 3a4 4 0 0 1 1 4l-1 1"/><path fill="#87bfd1" d="m257 135-12-7-1-3c0-1 0-2 1-1l12 7 2 2c0 2-1 2-2 2"/><path fill="#fff" d="M257 134h1l-1-3-12-7h-1v1l1 2zm1 1h-1l-12-7a4 4 0 0 1-2-3l1-2h1l12 7a4 4 0 0 1 2 3l-1 2m8 5-4-2-1-3 1-1 4 2 1 3-1 1"/><path fill="#fff" d="M266 139h1l-1-3-4-2-1 1 2 2zm0 1-4-2a4 4 0 0 1-1-3v-2h2l3 2a4 4 0 0 1 2 4l-1 1h-1"/><path fill="#87bfd1" d="m283 150-12-7a4 4 0 0 1-1-3c0-1 0-2 1-1l12 7 2 3-2 1"/><path fill="#fff" d="M284 149v1-1l-1-3-12-7h-1v1l1 2zm0 1h-1l-12-7-2-3 1-2h1l12 7a4 4 0 0 1 2 4 2 2 0 0 1-1 1"/><path fill="#87bfd1" d="m292 155-4-2a4 4 0 0 1-1-3c0-1 0-2 1-1l4 2 1 2-1 2"/><path fill="#fff" d="M292 154s0 1 0 0h1l-2-3-3-2-1 1 1 2zm0 1h-1l-3-2a4 4 0 0 1-2-3l1-2h1l4 2a4 4 0 0 1 2 4l-1 1h-1m-84-42-2-3 2-2v1l2 3-2 1"/><path fill="#fff" d="M207 109v1l1 2 1 1 1-1-2-3h-1zm2 5-1-1a4 4 0 0 1-2-3l1-2h2a4 4 0 0 1 2 4l-1 1h-1m11 6-7-3a4 4 0 0 1-1-3c0-1 0-2 1-1l7 3 1 3-1 1"/><path fill="#fff" d="m213 112-1 1 1 2 7 4 1-1-2-2-6-4zm7 8h-1l-6-4a4 4 0 0 1-2-3l1-2h1l7 4a4 4 0 0 1 1 3v2h-1"/><path fill="#87bfd1" d="m237 129-12-7a4 4 0 0 1-2-3l2-1 12 7 1 3-1 1"/><path fill="#fff" d="m237 129 1-1-2-2-12-7 1 3zm0 1h-1l-12-7a4 4 0 0 1-1-4v-1a2 2 0 0 1 2 0l12 7a4 4 0 0 1 1 3v2h-1m-35-21-6-3a4 4 0 0 1-1-3c0-1 0-2 1-1l6 3 2 3c0 1-1 2-2 1"/><path fill="#fff" d="M203 109v-1c1-1 0-2-1-2l-6-4h-1v1l1 2zm0 1h-1l-6-4a4 4 0 0 1-2-3l1-2h1l7 4a4 4 0 0 1 1 3v2h-1m59 34-20-12-2-3 2-1 20 12 2 3c0 1-1 2-2 1"/><path fill="#fff" d="M263 144v-1l-1-3-20-12h-1v1l1 3zm0 1-1-1-20-11a4 4 0 0 1-2-4v-1h2l21 12 1 3-1 2"/><path fill="#87bfd1" d="m274 151-7-4-1-3 1-1 7 4 1 3-1 1"/><path fill="#fff" d="M274 150s0 1 0 0h1l-2-3-6-4-1 1 2 3zm0 1h-1l-6-4a4 4 0 0 1-2-3l1-1h2l6 3a4 4 0 0 1 2 4l-1 1h-1"/><path fill="#87bfd1" d="m209 120-4-2-1-3 1-1 4 2 1 3c0 1 0 2-1 1"/><path fill="#fff" d="M209 120h1v-1l-1-3-4-2-1 1 2 3zm1 1h-1l-4-2a4 4 0 0 1-2-4l1-1h2l3 2a4 4 0 0 1 2 3l-1 2h-1m26 14-21-12-1-3 1-1 21 12 1 3c0 1-1 2-2 1"/><path fill="#fff" d="m235 135 1-1-2-3-20-12h-1v1l1 3zm0 1-1-1-20-12a4 4 0 0 1-2-3l1-1h1l21 12a4 4 0 0 1 2 3 2 2 0 0 1-1 2h-1m5 2h-1a4 4 0 0 1-1-3l1-1h1l2 3c0 1-1 2-2 1"/><path fill="#fff" d="M240 138h1v-1l-1-2-1-1-1 1 2 2zm1 1h-1l-1-1a4 4 0 0 1-2-3l1-2a2 2 0 0 1 2 0v1a4 4 0 0 1 2 3l-1 2"/><path fill="#87bfd1" d="m251 145-6-4a4 4 0 0 1-1-3l1-1 6 4c1 0 2 1 2 3l-2 1"/><path fill="#fff" d="M252 144s0 1 0 0l-1-3-6-4h-1v1l1 3zm0 1h-1l-6-4a4 4 0 0 1-2-3l1-1h1l6 3a4 4 0 0 1 2 4 2 2 0 0 1-1 1"/><path fill="#87bfd1" d="m294 170-20-12-2-3c0-1 1-2 2-1l20 12 2 2c0 2-1 2-2 2"/><path fill="#fff" d="M294 169h1v-1l-1-2-21-12-1 1 2 2zm1 1h-1l-21-12a4 4 0 0 1-2-3l1-2h2l20 12a4 4 0 0 1 2 3l-1 2m-97-50-21-12-1-2 1-2 21 12 1 3-1 1"/><path fill="#fff" d="M177 105h-1v1l1 2 21 12 1-1-2-2-20-12zm21 16h-1l-20-12a4 4 0 0 1-2-3l1-2h1l21 12a4 4 0 0 1 2 3l-1 2h-1m11 6-7-4a4 4 0 0 1-1-3l1-1 7 4 1 3-1 1"/><path fill="#fff" d="m202 119-1 1 2 3 6 4h1v-1l-1-3-7-3v-1zm7 8-7-3a4 4 0 0 1-2-4l1-1h2l6 4a4 4 0 0 1 2 3l-1 1-1 1"/><path fill="#87bfd1" d="m226 137-12-7a4 4 0 0 1-2-3c0-1 1-2 2-1l12 7 1 3-1 1"/><path fill="#fff" d="M213 126v1l1 2 12 7s0 1 0 0h1l-1-3-12-7h-1zm13 11-12-7a4 4 0 0 1-2-3v-2h2l12 7a4 4 0 0 1 2 4l-1 1h-1m8 5-3-2a4 4 0 0 1-2-3c0-1 1-2 2-1l3 2 2 2c0 2-1 2-2 2"/><path fill="#fff" d="M230 136v1l1 2 3 2h1v-1l-1-2-4-2zm5 6h-1l-4-2a4 4 0 0 1-1-3v-2h2l3 2a4 4 0 0 1 2 3l-1 2"/><path fill="#87bfd1" d="m260 157-21-12-1-3 1-2 21 13 1 2c0 1 0 2-1 1"/><path fill="#fff" d="M260 156h1v-1l-1-2-21-12h-1v1l1 2zm0 1-21-12-2-3 1-2h1l21 12a4 4 0 0 1 2 3 2 2 0 0 1-1 2h-1"/><path fill="#87bfd1" d="m265 160-1-1a4 4 0 0 1-1-3l2-1v1c1 0 2 1 2 3l-2 1"/><path fill="#fff" d="M265 159h1l-1-3h-1s0-1 0 0l1 3zm1 1h-2a4 4 0 0 1-1-4v-1a2 2 0 0 1 2 0 4 4 0 0 1 2 4l-1 1m-58-27a4 4 0 0 1-2-3l2-1 2 3c0 1-1 2-2 1"/><path fill="#fff" d="M207 129v1l1 3h1v-1l-1-2-1-1zm2 5h-2a4 4 0 0 1-1-4l1-1h2a4 4 0 0 1 1 3 2 2 0 0 1 0 2h-1m10 6-6-4-1-3 1-1 6 4 2 3-2 1"/><path fill="#fff" d="M213 133h-1l1 3 7 4 1-1-2-3-6-3zm7 8-1-1-6-3a4 4 0 0 1-2-4l1-1h1l7 4a4 4 0 0 1 1 3v1l-1 1"/><path fill="#87bfd1" d="m236 150-12-7-1-3 1-1 12 7 2 3-2 1"/><path fill="#fff" d="m224 139-1 1 2 2 12 7s0 1 0 0h1l-2-3-12-7zm13 11h-1l-12-7a4 4 0 0 1-2-3l1-2h2l12 7a4 4 0 0 1 1 4v1h-1"/><path fill="#87bfd1" d="m202 130-6-4-1-3 1-1 6 4 2 3-2 1"/><path fill="#fff" d="M195 123v1l1 2 7 4v-1l-1-3-6-3-1-1zm8 8-1-1-6-3a4 4 0 0 1-2-4l1-1h1l7 4a4 4 0 0 1 1 3v1l-1 1"/><path fill="#87bfd1" d="m262 165-20-12-2-3c0-1 1-2 2-1l20 12c1 0 2 1 2 3l-2 1"/><path fill="#fff" d="M262 164h1l-1-3-21-12v1l1 2zm1 1h-1l-21-12a4 4 0 0 1-1-3v-2h2l20 12a4 4 0 0 1 2 4l-1 1"/><path fill="#87bfd1" d="m277 166-7-3a4 4 0 0 1-1-3c0-1 0-2 1-1l6 3 2 3-1 1"/><path fill="#fff" d="M277 166v-1c1-1 0-2-1-2l-6-4h-1v1l1 2zm0 1h-1l-6-4a4 4 0 0 1-2-3l1-2h1l7 4a4 4 0 0 1 1 3 2 2 0 0 1 0 2h-1m-68-26-4-2a4 4 0 0 1-1-3c0-1 0-2 1-1l4 2 1 3-1 1"/><path fill="#fff" d="M205 135h-1v1l1 2 4 2h1l-2-3-3-2zm4 6h-1l-3-2a4 4 0 0 1-2-3l1-2h1l4 2a4 4 0 0 1 1 4 2 2 0 0 1 0 1h-1"/><path fill="#87bfd1" d="m234 156-20-12-2-3c0-1 1-2 2-1l20 12 2 2c0 2-1 2-2 2"/><path fill="#fff" d="M213 140v1l1 2 21 12v-1l-1-2-20-12h-1zm22 16h-1l-20-12a4 4 0 0 1-2-3l1-2h1l21 12a4 4 0 0 1 1 3 2 2 0 0 1-1 2m16 9-6-3a4 4 0 0 1-2-3c0-1 1-2 2-1l6 3 2 3c0 1-1 2-2 1"/><path fill="#fff" d="M251 165h1v-1l-1-2-7-4v1l1 2zm1 1h-1l-7-4a4 4 0 0 1-1-3v-2h2l6 4a4 4 0 0 1 2 3l-1 2"/><path fill="#87bfd1" d="m198 142-21-12a4 4 0 0 1-2-3c0-1 1-2 2-1l21 12 1 2-1 2"/><path fill="#fff" d="m198 141 1-1-2-2-20-12h-1v1l1 2zm0 1h-1l-20-12a4 4 0 0 1-2-3l1-2h1l21 12a4 4 0 0 1 1 3v2h-1"/><path fill="#87bfd1" d="m209 148-7-4-1-2 1-2 7 4 1 3-1 1"/><path fill="#fff" d="M202 141h-1l1 3 7 4 1-1-2-3-6-3zm7 8-1-1-6-3a4 4 0 0 1-2-4l1-1h1l7 4a4 4 0 0 1 2 3l-1 1-1 1m17 9-12-7-2-3c0-1 1-2 2-1l12 7 1 3-1 1"/><path fill="#fff" d="m226 158 1-1-2-3-12-7-1 1 2 3zm0 1-1-1-12-7-1-3v-2h2l12 7a4 4 0 0 1 1 4v1l-1 1m8 4-3-2-2-3c0-1 1-2 2-1l3 2 1 3-1 1"/><path fill="#fff" d="M234 162h1l-1-3-4-2-1 1 2 2zm0 1-4-2a4 4 0 0 1-2-3l1-2h2l3 2a4 4 0 0 1 2 4l-1 1m-27-8v-1c-1 0-2-1-2-3l2-1v1c1 0 2 1 2 3l-2 1"/><path fill="#fff" d="M208 154h1l-1-3h-1s0-1 0 0l1 3zm1 1h-2l-1-4v-1h2a4 4 0 0 1 2 4l-1 1"/><path fill="#87bfd1" d="m219 161-6-4a4 4 0 0 1-1-2l1-2 6 4 2 3c0 1-1 2-2 1"/><path fill="#fff" d="M220 161v-1l-1-3-6-3h-1l1 3zm0 1-1-1-6-3a4 4 0 0 1-2-4l1-1h1l6 4c2 0 2 2 2 3l-1 1v1"/><path fill="#87bfd1" d="m202 151-6-4-2-2c0-2 1-2 2-2l6 4 2 3c0 1-1 2-2 1"/><path fill="#fff" d="M202 151h1v-1l-1-3-6-3h-1v1l1 2zm1 1-1-1-6-3a4 4 0 0 1-2-3l1-2h1l6 4a4 4 0 0 1 2 3l-1 1v1"/><path fill="#87bfd1" d="m208 162-3-2a4 4 0 0 1-1-3c0-1 0-2 1-1l4 2 1 3-2 1"/><path fill="#fff" d="M209 161c1-1 0-2-1-3l-3-2h-1v1l1 2zm0 1h-1l-3-2a4 4 0 0 1-2-3l1-2h1l4 2a4 4 0 0 1 1 4v1h-1"/><path fill="#87bfd1" d="m234 177-20-12-2-3c0-1 1-2 2-1l20 12 2 2c0 2-1 2-2 2"/><path fill="#fff" d="M213 161v1l1 2 20 12h1l-1-3-21-12zm22 16h-1l-21-12a4 4 0 0 1-1-3v-2h2l20 12a4 4 0 0 1 2 3l-1 2m5 3-1-1a4 4 0 0 1-2-3l2-1 1 1 1 3-1 1"/><path fill="#fff" d="M238 176v1l1 2h2l-2-3h-1zm2 4h-1l-2-3 1-2h2a4 4 0 0 1 2 4l-1 1-1 1m-51-24-12-7-1-2 1-2 12 7 2 3c0 1-1 2-2 1"/><path fill="#fff" d="M189 157h1v-1l-1-2-12-7h-1l1 3zm1 1h-1l-12-7a4 4 0 0 1-2-3l1-2h1l12 7a4 4 0 0 1 2 3l-1 2m8 4-4-2-1-3 1-1 4 2 1 3-1 1"/><path fill="#fff" d="M194 157h-1l1 3 4 2 1-1-2-2-3-2v-1zm4 6h-1l-3-2a4 4 0 0 1-2-4l1-1h1l4 2a4 4 0 0 1 2 3l-1 2h-1"/><path fill="#87bfd1" d="m223 177-20-12a4 4 0 0 1-2-3l2-1 20 12 2 3c0 1-1 2-2 1"/><path fill="#fff" d="M224 177v-1l-1-2-21-12 1 3zm0 1h-1l-21-12a4 4 0 0 1-1-4l1-1h1l21 12a4 4 0 0 1 1 3l-1 2m-16-3a4 4 0 0 1-2-3c0-1 1-2 2-1l2 3-2 1"/><path fill="#fff" d="M207 171v1l1 2 1 1v-1l-1-3h-1zm2 5-1-1h-1a4 4 0 0 1-1-3l1-2h1l1 1a4 4 0 0 1 1 3v1l-1 1"/><path fill="#87bfd1" d="m202 171-6-3a4 4 0 0 1-2-3c0-1 1-2 2-1l6 3 2 3c0 1-1 2-2 1"/><path fill="#fff" d="M202 171h1v-1l-1-2-6-4h-1v1l1 2zm1 1h-1l-6-4a4 4 0 0 1-2-3l1-2h1l6 4a4 4 0 0 1 2 3l-1 2m109-33-6-3-5 3 5 4v3l2-2v3l4-3v-5"/><path fill="#1a162c" d="M308 144v2l4-2v-4l-6-4-4 3 4 4v2zm0 4h-1a1 1 0 0 1 0-1v-1l-1 1a2 2 0 0 1-1-2v-1l-4-5a1 1 0 0 1 0-1l5-3a1 1 0 0 1 1 0l5 4 1 1v5l-5 2v1"/><path fill="#1a162c" d="m304 144 3 3h1l4-3v-4l-4 3-4 1"/><path fill="#1a162c" d="m305 144 3 2 4-2v-3l-4 2zm3 3h-1l-3-3v-1h4l4-3h1v4l-1 1-4 2"/><path fill="#87bfd1" d="m307 147-5-3-1-1v-4h1l5 3 1 1v4h-1"/><path fill="#1a162c" d="M302 139v4l5 3v-4zm6 8h-1zm-1 1a1 1 0 0 1 0-1l-6-3a2 2 0 0 1-1-1v-4l1-1a1 1 0 0 1 1 0l5 4 1 1v5h-1"/><path fill="#1a162c" d="m305 141-1-1 4-3 1 1-5 3"/><path fill="#87bfd1" d="M308 146v-1l4-3v1l-4 3"/><path fill="#fff" d="m326 236-12-8h-1l-5 4 5 5v2l1 2 2-2 5 6 6-3v-5l-1-1"/><path fill="#1a162c" d="m316 238 5 6 5-3v-5l-12-7-5 3 5 5v3l2-2zm5 7-5-6-2 2-1-2v-1l-5-6a1 1 0 0 1 0-1l5-3a1 1 0 0 1 1 0l12 7 1 2v5l-5 3h-1"/><path fill="#1a162c" d="M318 241v1l3 3h1l5-3v-5l-5 3-4 1"/><path fill="#1a162c" d="m318 242 3 2 5-3v-3l-4 3zm3 3-4-3v-1l4-1 5-3a1 1 0 0 1 1 0v5l-5 3h-1"/><path fill="#87bfd1" d="m321 245-12-7-1-1v-5h1l12 7 1 1v4l-1 1"/><path fill="#1a162c" d="M308 232v4l1 1 12 7v-4h-1zm13 14-1-1-12-7-1-1v-5l1-1a1 1 0 0 1 1 0l12 7 1 2v4l-1 1a1 1 0 0 1 0 1"/><path fill="#1a162c" d="m312 234-1-1 5-3 1 1-5 3"/><path fill="#87bfd1" d="M322 243v-1l4-2h1l-5 3m1-81-40-23-6-1-6 4v1l6 14 4 19v5l3 9 3 20 6 14 5-4 1-1-1-2 8-4a31 31 0 0 1-1-5l17 19 6-4h1l2-5v-41c0-6-4-12-8-15"/><path fill="#1a162c" d="m305 206 18 20 5-3c2-1 2-3 2-5v-41c0-6-3-12-8-15l-39-22c-2-2-4-2-5-1l-6 4 6 14 4 19v5l2 9 4 19 6 14 4-3-1-3 8-5v-4zm17 22-16-18 1 2v1l-8 4v4l-6 3-6-14-4-20a18 18 0 0 1-3-9v-5l-3-19a191 191 0 0 0-6-15l6-4a7 7 0 0 1 6 1l40 22c5 3 9 10 9 15v42c0 3-1 5-3 6l-7 4"/><path fill="#fff" d="m323 162-39-22-12 7 41 22 8 1 7-3a17 17 0 0 0-6-5"/><path fill="#1a162c" d="m313 168 8 2 6-4a15 15 0 0 0-5-4l-38-21-10 7zm8 3-8-1-42-22 13-9 39 22 5 5v1l-7 4m3 6-17 4c0 1-16 13-21 19l1 9 6 15 6-4v-1l-1-2 8-4c0-2-8 1-8 0l24 14 6-4h1l2-5v-44l-7 3"/><path fill="#87bfd1" d="m327 183-1-2 4-1v1l-3 1m0 39-1-1 4-2v1l-3 1m-32 0-1-1 3-2 1 1-3 2"/><path fill="#87bfd1" d="m316 166-39-23c-5-3-8-1-8 5v41c0 6 3 12 8 15l5 2 1 3c1 3 2 10 9 14 1 1 2 0 2-1a36 36 0 0 1-1-7l1-1 22 13c5 2 9 0 9-5v-42a19 19 0 0 0-9-14"/><path fill="#1a162c" d="M294 213h1l22 13 5 1 2-5v-42a18 18 0 0 0-8-14l-39-22c-2-2-4-2-6-1l-2 5v41a18 18 0 0 0 8 14l5 3 2 3c0 3 2 9 8 14h1v-1a34 34 0 0 1-1-7l1-2h1zm26 16-4-2-22-13h-1v1l1 7v2h-3a23 23 0 0 1-9-15l-1-2-4-2a20 20 0 0 1-9-16v-41c0-3 1-5 3-6h6l40 23c5 3 9 10 9 16v41c0 3-1 5-3 6a5 5 0 0 1-3 1"/><path fill="#87bfd1" d="m306 192-1-1 4-2v1l-3 2"/><path fill="#fff" d="m258 179-18-10h-1l-4 2 4 8v10l1 1 9 6 5 7 5-2v-20l-1-2"/><path fill="#1a162c" d="m235 172 4 7v10l1 1 10 5v1l4 7 4-3v-20l-18-11zm19 32h-1l-4-8-9-5a3 3 0 0 1-2-2v-10l-4-7v-1l5-3h1l18 10a3 3 0 0 1 1 3v20l-5 3"/><path fill="#1a162c" d="M248 193v2l1 1 5 7 4-2 1-1v-19l-5 3-6 9"/><path fill="#1a162c" d="M249 195h1v1l4 7 4-3v-18l-3 2-6 9zm5 9h-1l-4-8h-1v-3l6-10 5-3v21l-5 3"/><path fill="#87bfd1" d="m253 204-18-11-1-2v-19l1-1 18 11 1 2v19h-1"/><path fill="#1a162c" d="M253 203h1v-19l-1-2-18-10v19l1 2zm1 1h-1l-18-10a3 3 0 0 1-1-3v-20h2l17 10a3 3 0 0 1 2 3v19l-1 1"/><path fill="#1a162c" d="M238 174v-1l4-3 1 1-5 3"/><path fill="#87bfd1" d="m255 200-1-1 4-2 1 1-4 2"/><path fill="#fff" d="m245 182 1 3 1 1 2 2 1 2-2 1v4h-1l-2-2-1-1h-2l-2-1 1-3v-1l-2-3v-2l3 1c0 1 0 0 0 0l1-2 2 1"/><path fill="#1a162c" d="M244 192h1l2 3v-4l2-1v-1l-3-2-1-1-1-4-1 1-2 1-2-1 2 3v6h3zm4 4h-2l-2-3h-3l-1-1v-5l-2-3v-2a1 1 0 0 1 1 0l3 1 1-2a1 1 0 0 1 1 0l1 1 1 3 1 1 2 2 1 2v1l-2 1v4a1 1 0 0 1-1 0"/><path fill="#1a162c" d="M244 187v-2h1v2h-1"/><path fill="#fff" d="m182 71-10-6h-1l-4 3 4 5v2l1 1 1-2 5 5 5-2v-4l-1-1"/><path fill="#1a162c" d="m174 74 4 5 4-3v-4l-11-6-4 2 4 5h1v2l1-2 1 1zm4 6-5-5-1 1h-1a2 2 0 0 1-1-2v-1l-4-4a1 1 0 0 1 0-1l5-3a1 1 0 0 1 1 0l10 6 1 1v5l-5 3"/><path fill="#1a162c" d="M175 76v1l3 2 5-3v-3l-5 2-3 1"/><path fill="#1a162c" d="m176 77 2 2 4-3v-2l-3 2zm2 3a1 1 0 0 1 0-1l-4-2v-1l4-1 4-3h1v5l-4 3h-1"/><path fill="#87bfd1" d="m178 79-11-6-1-1v-3l1-1 11 6v6"/><path fill="#1a162c" d="M167 69v4l11 6v-4h-1zm11 10zm0 1a1 1 0 0 1-1 0l-10-6a2 2 0 0 1-1-2v-4a1 1 0 0 1 1 0l11 6 1 1v4l-1 1"/><path fill="#1a162c" d="m170 70-1-1 5-3v1l-4 3"/><path fill="#87bfd1" d="m179 78-1-1 4-2 1 1-4 2"/><path fill="#fff" d="m183 56-11-6c0-1 0-1 0 0l-5 2 5 8v2l2 1 4 8h1l4-2V56"/><path fill="#1a162c" d="m168 53 4 7v2l2 1 5 8 4-3V56l-11-6zm11 19h-1l-5-8-1-1a2 2 0 0 1-1-2v-1l-4-7v-1l5-3a1 1 0 0 1 1 0l10 6 1 2v12h-1l-4 3"/><path fill="#1a162c" d="m175 66 3 5h1l4-3V57l-4 3-4 6"/><path fill="#1a162c" d="m176 66 3 5 4-3V58l-4 2zm3 6a1 1 0 0 1-1-1l-3-5v-1l3-6h1l4-3h1v13l-5 3"/><path fill="#87bfd1" d="m178 71-10-6-1-1V53l1-1 10 6 1 2v11l-1 1"/><path fill="#1a162c" d="M168 53v12l10 6V59zm10 18v1-1zm0 1-11-6a2 2 0 0 1-1-2V53l1-1a1 1 0 0 1 1 0l10 6 1 2v12h-1"/><path fill="#1a162c" d="m171 54-1-1 4-2 1 1-4 2"/><path fill="#87bfd1" d="M179 68v-1l4-2v1l-4 2"/><path fill="#1a162c" d="m202 348-1 1-1-1h-1l2-1 1 1m3-1h-3l1-1h1l1 1m1-3 2 1-1 1h-1l-1-1 1-1m4-1v1h-2l2-1m-8 8-1 1h-1l-1-1h3m3-1h-3l1-1h1l1 1m2-2-1 1-1-1 1-1 1 1c1 0 1 0 0 0m3-1h-2v-1h2v1m3-2-1 1h-1l-1-1 1-1h1l1 1m3-2-1 1h-1l-1-1h3m-14 12h-3v-1h3m3-1-1 1h-1l-1-1 1-1h1l1 1m2-2-1 1-1-1 1-1 1 1c1 0 1 0 0 0m3-1h-2c-1 0-1 0 0 0l1-1h1v1m3-2-1 1h-1l-1-1 1-1h1l1 1m3-1h-3v-1h3v1m2-2-1 1-1-1 1-1 1 1c1 0 1 0 0 0m3-2-1 1-1-1c-1 0-1 0 0 0h2m-19 15h-3v-1h3v1m3-2-1 1h-1l-1-1 1-1 1 1h1m2-2-1 1-1-1h2m3-1h-3l1-1h1l1 1m3-2-1 1h-1l-1-1 1-1h1l1 1m3-1h-3v-1h2v1m3-2-1 1-1-1 1-1 1 1m3-1h-3v-1h3v1m3-2-1 1h-1l-1-1 1-1h1l1 1m2-2-1 1-1-1h2m-22 16-1 1-1-1 1-1 1 1c1 0 1 0 0 0m3-2-1 1h-1v-1h2m3-1-1 1h-1l-1-1 1-1h1l1 1m3-2-1 1h-1l-1-1 1-1h1l1 1m2-1h-2l1-1h1v1m3-2-1 1-1-1c-1 0-1 0 0 0l1-1 1 1m3-1h-3v-1h3v1m3-2-2 1-1-1 1-1h1l1 1m2-2-1 1-1-1h2m3-1h-3l2-1 1 1m2-3 1 1-1 1h-1l-1-1 2-1m-27 20-1 1-1-1 1-1 1 1c1 0 1 0 0 0m3-1h-2v-1h2v1m3-2-1 1h-1l-1-1 1-1h1l1 1m3-2-1 1h-2v-1h3m2-1-1 1-1-1 1-1 1 1c1 0 1 0 0 0m3-2-1 1-1-1c-1 0-1 0 0 0l1-1 1 1m3-1h-3l1-1h2v1m3-2-1 1h-1l-1-1 1-1h1l1 1m2-1h-2v-1h2v1m3-2-1 1-1-1h-1l2-1 1 1m3-2-1 1h-1l-1-1h3m3-1h-3l1-1 1 1h1m-28 19h-3l1-1h1l1 1m3-2-1 1h-1l-1-1 1-1h1l1 1m2-1h-2v-1h2v1m3-2-1 1-1-1 1-1 1 1m3-2-1 1h-1l-1-1h3m3-1h-3l1-1h1l1 1m2-2-1 1-1-1 1-1 1 1m3-1h-2v-1h2v1m3-2-1 1h-1l-1-1 1-1h1l1 1m3-1h-3v-1h3v1m2-2-1 1-1-1 1-1 1 1c1 0 1 0 0 0m3-2-1 1-1-1c-1 0-1 0 0 0l1-1 1 1m-27 19-1 1h-1l-1-1 1-1h1l1 1m2-1h-2v-1h2v1m3-2-1 1-1-1c-1 0-1 0 0 0l1-1 1 1m3-1h-3v-1h3v1m3-2-2 1-1-1 1-1h1l1 1m2-2-1 1-1-1 1-1 1 1m3-1h-3l2-1h1v1m3-2-1 1h-1l-1-1 1-1h1l1 1m3-1h-3v-1h2l1 1m2-2-1 1-1-1 1-1 1 1m3-2-1 1h-1l-1-1h3m3-1h-3l1-1h1l1 1m-28 19h-2l1-1 1 1s1 0 0 0m3-2-1 1-1-1c-1 0-1 0 0 0l1-1 1 1m3-1h-3v-1h3v1m3-2-2 1-1-1 1-1h1l1 1m2-1h-2v-1h2v1m3-2-1 1-1-1h-1l2-1 1 1m3-2-1 1h-1l-1-1 1-1h1l1 1m3-1h-3l1-1 1 1h1m2-2-1 1-1-1 1-1 1 1m3-1h-3v-1h3v1m3-2-1 1h-1l-1-1 1-1h1l1 1m3-2-2 1-1-1h2c1 0 1 0 0 0m-27 19-1 1h-1l-1-1 1-1h1l1 1m3-1h-3l1-1h2v1m2-2-1 1-1-1 1-1 1 1c1 0 1 0 0 0m3-1h-2v-1h2v1m3-2-1 1h-1l-1-1 1-1h1l1 1m3-2-1 1h-1l-1-1h3m2-1h-2l1-1 1 1c1 0 1 0 0 0m3-2-1 1-1-1c-1 0-1 0 0 0l1-1 1 1m3-1h-3v-1h3v1m3-2-1 1h-1l-1-1 1-1h1l1 1m2-1h-2v-1h2v1m3-2-1 1-1-1c-1 0-1 0 0 0l1-1 1 1m-27 19h-3l1-1h1l1 1m2-2-1 1-1-1 1-1 1 1m3-1h-2l-1-1h3v1m3-2-1 1h-1l-1-1 1-1h1l1 1m3-1h-3v-1h2l1 1m2-2-1 1-1-1 1-1 1 1m3-2-1 1h-1l-1-1 1-1h1l1 1m3-1h-3l1-1h1l1 1m3-2-2 1-1-1 1-1 1 1c1 0 1 0 0 0m3-1h-2v-1h2v1m3-2-1 1h-1l-1-1 1-1h1l1 1m3-2-1 1h-1l-1-1h3m-28 19-1 1-1-1h2m3-1h-3l2-1 1 1m3-2-1 1h-1l-1-1 1-1h1l1 1m3-1h-3v-1h2l1 1m2-2-1 1-1-1 1-1 1 1m3-1h-3v-1h3v1m3-2-1 1h-1l-1-1 1-1h1l1 1m3-2-2 1-1-1 1-1 1 1c1 0 1 0 0 0m3-1h-2s-1 0 0 0l1-1 1 1m3-2-1 1h-1l-1-1 1-1h1l1 1m3-1h-3v-1h3v1m2-2-1 1-1-1 1-1 1 1c1 0 1 0 0 0m-24 17-1 1h-1l-1-1 1-1h1l1 1m2-1h-2l1-1 1 1c1 0 1 0 0 0m3-2-1 1-1-1c-1 0-1 0 0 0l1-1 1 1m3-1h-3v-1h3v1m3-2-1 1h-1l-1-1 1-1h1l1 1m2-2-1 1-1-1h2m3-1h-2c-1 0-1 0 0 0l1-1 1 1m3-2-1 1h-1l-1-1 1-1h1l1 1m3-1h-3v-1h3v1m2-2-1 1-1-1 1-1 1 1m3-1h-3v-1h3v1m-25 17h-2l1-1 1 1m3-2-1 1h-1l-1-1 1-1h1l1 1m3-1h-3v-1h3v1m3-2-2 1-1-1 1-1 1 1c1 0 1 0 0 0m3-1h-2v-1h2v1m3-2-1 1h-1l-1-1 1-1h1l1 1m3-2-1 1h-1l-1-1 1-1h1l1 1m2-1h-2l1-1 1 1c1 0 1 0 0 0m3-2-1 1-1-1c-1 0-1 0 0 0l1-1 1 1m3-1h-3v-1h3v1m3-2-1 1h-1l-1-1 1-1h1l1 1m-22 16h-3l1-1h1l1 1m3-2-2 1-1-1 1-1 1 1c1 0 1 0 0 0m3-1h-2v-1h2v1m3-2-1 1h-1l-1-1 1-1h1l1 1m3-1h-3v-1h3v1m2-2-1 1-1-1 1-1 1 1c1 0 1 0 0 0m3-2-1 1-1-1c-1 0-1 0 0 0l1-1 1 1m3-1h-3l1-1h1l1 1m3-2-1 1h-1l-1-1 1-1h1l1 1m2-1h-2v-1h2v1m-19 14-1 1-1-1c-1 0-1 0 0 0l1-1 1 1m3-2-1 1h-1l-1-1 1-1h1l1 1m3-1h-3v-1h3v1m2-2-1 1-1-1 1-1 1 1m3-2-1 1-2-1h3m3-1-1 1h-1l-1-1 1-1h1l1 1m3-2-2 1-1-1 1-1 1 1c1 0 1 0 0 0m3-1h-2v-1h2v1m3-2-1 1h-1l-1-1 1-1h1l1 1m-17 13h-2v-1h2v1m3-2-1 1-1-1c-1 0-1 0 0 0l1-1 1 1m3-1h-3v-1h3v1m3-2-1 1h-1l-1-1 1-1h1l1 1m2-2-1 1-1-1 1-1 1 1c1 0 1 0 0 0m3-1h-2c-1 0-1 0 0 0l1-1 1 1m3-2-1 1h-1l-1-1 1-1h1l1 1m3-1h-3v-1h3v1m-14 11h-3v-1h3v1m3-2-1 1h-1l-1-1 1-1h1l1 1m2-1h-2v-1h2v1m3-2-1 1-1-1c-1 0-1 0 0 0l1-1 1 1m3-2-1 1h-1l-1-1 1-1h1l1 1m3-1h-3l1-1h1l1 1m2-2-1 1-1-1 1-1 1 1m-13-33h1v1h-2l1-1m3-1-1 1 1-1m-17 12h1v1h-3l2-1m-2 2-1 1-1-1 1-1 1 1m6-3-1 1h-1l-1-1h3m2-2v1h-1l1-1m2-2 1 1-1 1-1-1 1-1m1-1 1-1h1l1 1-1 1h-1l-1-1m6-1h-3l1-1h1l1 1m2-2-1 1-1-1 1-1 1 1c1 0 1 0 0 0m3-1h-2v-1h2v1m3-2-1 1h-1l-1-1 1-1h1l1 1m2-2h1l-1 1h-1l-1-1h2m3-1c1 0 1 0 0 0l-1 1-1-1h2m-24 17-1 1h-1l-1-1 1-1h1l1 1m-3 2h-3l1-1h1l1 1m5-3h-2v-1h2v1m3-2-1 1-1-1c-1 0-1 0 0 0l1-1 1 1m3-2-1 1h-1l-1-1h3m3-1-1 1h-1l-1-1 1-1h1l1 1m2-2-1 1-1-1 1-1 1 1m3-1h-3v-1h3v1m3-2-1 1h-1l-1-1 1-1h1l1 1m3-1h-3v-1h2l1 1m2-2-1 1-1-1 1-1 1 1m3-2-1 1h-1l-1-1h3m3-1h-3 3m-28 19h-2v-1h2v1m-3 1-1 1-1-1 1-1 1 1c1 0 1 0 0 0m6-3-1 1h-1l-1-1 1-1h1l1 1m3-1h-3v-1h3v1m2-2-1 1-1-1 1-1 1 1c1 0 1 0 0 0m3-2-1 1-1-1c-1 0-1 0 0 0l1-1 1 1m3-1h-3l1-1h1l1 1m3-2-1 1h-1l-1-1 1-1h1l1 1m2-1h-2v-1h2v1m3-2-1 1-1-1c-1 0-1 0 0 0l1-1 1 1m3-2-1 1h-1l-1-1h3m3-1-1 1h-1l-1-1 1-1h1l1 1m1-1-1-1 1-1v2m-26 18-1 1h-1l-1-1 1-1h1l1 1m-3 2-1 1-1-1s-1 0 0 0l1-1 1 1m6-3h-3v-1h3v1m2-2-1 1-1-1 1-1 1 1c1 0 1 0 0 0m3-1h-2v-1h2v1m3-2-1 1h-1l-1-1 1-1h1l1 1m3-2-1 1h-1l-1-1 1-1h1l1 1m2-1h-2l1-1 1 1c1 0 1 0 0 0m3-2-1 1-1-1c-1 0-1 0 0 0l1-1 1 1m3-1h-3v-1h3v1m3-2-1 1h-1l-1-1 1-1h1l1 1m2-2-1 1-1-1h2m3-1-1 1-1-1c-1 0-1 0 0 0l1-1 1 1m-27 19h-3l1-1h1l1 1m-3 1-1 1h-1l-1-1 1-1h1l1 1m5-3-1 1-1-1 1-1 1 1m3-1h-3v-1h3v1m3-2-1 1h-1l-1-1 1-1h1l1 1m3-2-2 1-1-1h2c1 0 1 0 0 0m3-1-1 1-1-1 1-1 1 1m3-2-1 1h-1l-1-1 1-1h1l1 1m3-1h-3v-1h3v1m2-2-1 1-1-1 1-1 1 1c1 0 1 0 0 0m3-1h-2v-1h2v1m3-2-1 1h-1l-1-1 1-1h1l1 1m3-2-1 1h-1l-1-1h3m-28 19-1 1-1-1c-1 0-1 0 0 0l1-1 1 1m-3 2-1 1-1-1 1-1 1 1c1 0 1 0 0 0m6-3h-3v-1h3v1m3-2-1 1h-1l-1-1 1-1h1l1 1m2-1h-2v-1h2v1m3-2-1 1-1-1c-1 0-1 0 0 0l1-1 1 1m3-2-1 1h-1l-1-1 1-1h1l1 1m3-1h-3l1-1h1l1 1m2-2-1 1-1-1 1-1 1 1m3-1h-2l-1-1h3v1m3-2-1 1h-1l-1-1 1-1h1l1 1m3-2-2 1-1-1h3m-25 18-1 1h-1l-1-1 1-1h1l1 1m-3 2h-2v-1h2v1m6-4-1 1h-1l-1-1h3m2-1h-2l1-1 1 1c1 0 1 0 0 0m3-2-1 1-1-1c-1 0-1 0 0 0l1-1 1 1m3-1h-3v-1h3v1m3-2-1 1h-1l-1-1 1-1h1l1 1m2-2-1 1h-1v-1h2m3-1h-2c-1 0-1 0 0 0l1-1 1 1m3-2-1 1h-1l-1-1 1-1h1l1 1m3-1h-3v-1h3v1m2-2-1 1-1-1 1-1 1 1m-24 17-2 1-1-1 1-1 1 1c1 0 1 0 0 0m-2 2-1 1h-1l-1-1 1-1h1l1 1m5-3-1 1-1-1 1-1 1 1m3-2-1 1h-1l-1-1 1-1h1l1 1m3-1h-3v-1h3v1m2-2-1 1-1-1 1-1 1 1c1 0 1 0 0 0m3-1h-1l-1-1c-1 1-1 0 0 0h2v1m3-2-1 1h-1l-1-1 1-1h1l1 1m3-2-1 1h-1l-1-1 1-1h1l1 1m2-1h-2v-1h2v1m3-2-1 1-1-1c-1 0-1 0 0 0l1-1 1 1m-22 16-1 1-1-1c-1 0-1 0 0 0l1-1 1 1m-3 2h-2v-1h2v1m6-4-1 1h-1l-1-1h3m3-1h-3l1-1h1l1 1m2-2-1 1-1-1 1-1 1 1m3-1h-2l-1-1h3v1m3-2-1 1h-1l-1-1 1-1h1l1 1m3-2-2 1h-1v-1h3m-14 11-1 1h-1l-1-1c0 1 0 0 0 0h3v1m-3 1-1 1-1-1c-1 0-1 0 0 0l1-1 1 1m6-3-1 1h-1l-1-1 1-1h1l1 1m2-2-1 1-1-1 1-1 1 1m3-1h-2l-1-1h3v1m-6 6-1 1-1-1 1-1 1 1c1 0 1 0 0 0m-2 2h-3v-1h3v1m5-4-1 1h-1v-1l1-1 1 1m3-1h-3l1-1h1l1 1m-3 4-1 1-1-1h-1 3v1m-3 1-1 1-1-1 1-1 1 1m6-3-1 1h-1l-1-1 1-1h1l1 1m0 3-1 1h-1l-1-1 1-1h1l1 1m-3 2h-2l-1-1h3v1"/><path fill="#87bfd1" d="m265 338-6-1v-7l-13-1v-5l-9 3-11-1-4-2v5l-6 2-4-1h-2v5l-4 1-3 2v14l2 4h5v4l5 3a2 2 0 0 0 1 0l3-1 3 1v2l1 1 6 1 2-1 1-1h5l1 1 1 1 6-1c1 0 2 0 1-1v-2l4-1 2 1a2 2 0 0 0 2 0l5-3v-4h5l1-4v-14"/><path fill="#1a162c" d="m237 364 1 2h1l6-1h1v-3l4-1 3 2h1l4-3v-5l4 1 1-1 2-3v-13l-6-2v-7h-13v-5l-9 3-11-1-3-2v4h-1l-6 2h-4l-2-1v6l-3 1-3 2v13l1 3 2 1 3-1v5l5 3h1l3-2 3 1h1v3l6 1h2l1-2h5zm2 4-2-1-1-2h-4v2l-3 1-6-1-1-1a1 1 0 0 1 0-1v-2l-3-1-2 2h-3l-5-3v-5l-2 1-3-1-1-4a1 1 0 0 1 0-1v-13l3-2 3-1v-6h3l4 1 6-2v-4l4 2 11 1 9-3h1v5h13v7l5 2h1v14l-2 4-2 1-2-1-1 5-5 3h-2l-2-2-3 1v3a2 2 0 0 1-2 1l-6 1"/><path fill="#1a162c" d="m218 350-3 3v10h1l3-1v-9l-1-3"/><path fill="#1a162c" d="M216 353v10l2-2v-10zm0 11h-1v-9l-1-2 5-4v13l-2 2h-2m-8-16v8h2l1-1-1-3h1l5-2-3-5-4-1-1 4"/><path fill="#1a162c" d="M207 348v7h2v-3l1-1 5-1-3-5h-4zm0 9-1-1v-8l1-4h6l3 6a1 1 0 0 1-1 1l-5 1v4l-3 1m24 9 1-2h5l1 2 1 1 6-1 1-1v-2a35 35 0 0 0 4-1l2 1a2 2 0 0 0 2 0l5-3v-4h3l2-1 1-3a999 999 0 0 0 0-14l-6-1v-7l-13-1v-5l-6 2-11 27v14l2-1"/><path fill="#1a162c" d="m237 364 1 2h1l6-1h1v-3l4-1 3 2h1l4-3v-5h5l2-3v-14l-6-1v-7h-13v-5l-5 2-11 26v13h1l1-2h5zm2 3h-2l-1-2h-4v2h-3v-14l11-27 7-2v5h13v7l6 2v14l-2 4h-4l-1 5-5 2-2 1-2-2-3 1v3a2 2 0 0 1-1 1h-6a3 3 0 0 1-1 0"/><path fill="#fff" d="m252 327-2 1a35 35 0 0 0-5-1l1-2c1-1 0-1-1-1l-6-1h-1l-1 2h-5l-1-2h-2l-6 1-1 1 1 2-4 1-3-1h-2l-4 2v1l2 2-2 2h-5l-2 4 1 1h3a9 9 0 0 0 1 3l-4 1-1 1 2 3 2 1 3-1 2 3-2 1v1l4 3h2l3-2 4 2-1 2 1 1 6 1 2-1 1-2h5l1 2 1 1 6-1 1-1-1-2 5-2 2 2h2l5-3v-1l-3-1 3-3 3 1 2-1 1-3c1-1 0-1-1-1l-3-1v-3h3l1-1-1-4h-5l-3-2 3-2v-1l-5-2h-2"/><path fill="#1a162c" d="m223 357 6 1h1l1-2h6l1 2h1l6-1h1l-1-3a35 35 0 0 0 5-1l2 1h2l4-2-3-2 1-1a16 16 0 0 0 2-2h5l2-4h-5v-4l4-1h1l-2-4h-1l-4 1-2-3h-1l3-2-4-3h-2l-2 2-5-2 1-2-1-1-6-1-1 1-1 2h-6l-1-2-1-1-6 1v1l1 2h-1l-4 2-3-2a2 2 0 0 0-1 0l-5 3 3 2a16 16 0 0 0-3 3l-4-1-1 1-1 3 4 1v4h-4v1l1 3h5l3 2v1l-3 2 5 2h1l3-1 4 1 1 1-1 2zm7 2a3 3 0 0 1-1 0l-6-1-1-1v-2l-3-1-2 1h-3l-4-2-1-1 1-1 1-1a10 10 0 0 1-1-2h-3l-3-1-1-3a1 1 0 0 1 0-1l1-1h3v-2l-3-1a2 2 0 0 1-1-1l1-4 3-1 3 1 1-2-1-1-1-1 1-1 4-3h3l2 1 3-1v-1a1 1 0 0 1 0-1l1-1 6-1 2 1 1 2h4l1-2 2-1 6 1 2 1v1l-1 1 4 1 2-1a3 3 0 0 1 3 0l4 3 1 1-1 1-2 1 2 2 3-1 2 1 2 4v1h-2l-2 1v2h2l2 1v1l-2 3-2 1h-3l-2 2 2 1 1 1-1 1-5 2a3 3 0 0 1-2 0l-2-1-4 1 1 1v2h-2l-6 1-2-1-1-1h-4l-1 1-1 1"/><path fill="#87bfd1" d="M240 337c4 2 4 5 0 7a14 14 0 0 1-12 0c-3-2-3-5 0-7 4-2 9-2 12 0"/><path fill="#1a162c" d="M234 336a11 11 0 0 0-5 2l-3 3 3 3h11l2-3-2-3a11 11 0 0 0-6-2zm0 10-6-1-3-4c0-2 1-3 3-4 3-2 9-2 13 0l2 4-2 4a13 13 0 0 1-7 1"/><path fill="#1a162c" d="m234 336-6 1c-3 2-3 5 0 7a12 12 0 0 0 6 2v-10"/><path fill="#1a162c" d="m234 336-6 2-2 3 3 3 5 1zm1 10h-1l-6-1-3-4c0-2 1-3 3-4l6-2h1v11"/><path fill="#87bfd1" d="M228 344a13 13 0 0 0 12 0c-3-2-8-2-12 0"/><path fill="#1a162c" d="M230 344h9a13 13 0 0 0-10 0zm4 2-6-1v-1c3-2 9-2 13 0v1a13 13 0 0 1-7 1"/><path fill="#87bfd1" d="M232 342h-2v-5h2v5"/><path fill="#1a162c" d="M223 365h-1v-8h1v8"/><path fill="#87bfd1" d="M239 366h-1v-6h1v6m14-3h-1v-7h1v7m10-7h-1v-7h1v7m16-30v-7l-3-1-11-6v-6l-3 1-20 2h-1l-17 2v9h-4v8l3 6 4 2 4-1a21 21 0 0 0 3 3v3l3 1 11 2 4-1 1-2a32 32 0 0 0 6-1l3 1h4l8-4 1-2v-7h2c2 0 3-1 2-2"/><path fill="#1a162c" d="m235 341 2 1 11 1c2 1 3 0 4-1l1-2a38 38 0 0 0 6-1l3 2h4l8-5 1-1v-7h2l2-1v-8l-4-1-10-6v-6l-3 2-20 1-17 2v9h-4v8l3 6 3 1h4a20 20 0 0 0 3 2h1zm14 4h-1l-11-2c-2 0-3-1-3-2v-3a24 24 0 0 1-3-2h-3c-2 1-5 0-5-1l-3-7v-8a1 1 0 0 1 0-1h4v-9l17-2 20-1 4-2h1v7l10 5 3 1 1 1v8l-3 2h-1v6l-1 2-8 5a6 6 0 0 1-6 0l-2-2-6 1v2l-4 2"/><path fill="#1a162c" d="M225 336h2l4-1v-13h-6v14"/><path fill="#1a162c" d="M225 335a5 5 0 0 0 2 0h3v-12h-5zm1 1a6 6 0 0 1-1 0h-1v-15h7v15h-4m25 7 1-2a32 32 0 0 0 6-1l3 1h4l8-4 1-2v-7h2c2 0 3-1 2-2v-7l-3-1-1-1-6 3-9 8-12 3v13l4-1"/><path fill="#1a162c" d="m248 344 4-2 1-2a38 38 0 0 0 6-1l3 2h4l8-5 1-1v-7h2l2-1v-8l-4-1-6 3-9 7v1l-12 3zm1 1h-2v-14l13-3 9-8 6-3h1l3 1 1 1v8l-3 2h-1v6l-1 2-8 5a6 6 0 0 1-6 0l-2-2-6 1v2l-4 2"/><path fill="#fff" d="m272 310-3 1a20 20 0 0 0-5-3l1-2c1-1 0-2-2-2l-11-2-4 1-1 2-6 1-3-1a5 5 0 0 0-5 0l-8 5v2l3 2a10 10 0 0 0-2 3l-3 1c-2 0-3 1-3 2l3 7 4 1 4-1a21 21 0 0 0 4 3l-1 2c0 1 1 2 3 2l11 2 4-1 1-2 6-1 3 1h4l8-4c2-1 2-2 0-3l-2-2a10 10 0 0 0 2-3l3-1c2 0 3-1 2-2l-3-6-4-2"/><path fill="#1a162c" d="M231 327a20 20 0 0 0 4 3h1l-1 2v1l2 1 11 2 3-1 1-3h1l6-1 3 2h4l8-5 1-1-1-1-3-1 1-1a9 9 0 0 0 1-3v-1h4l2-1v-1l-3-6-4-1h-3a20 20 0 0 0-5-2v-1l1-2v-1l-2-1-11-1c-2-1-3 0-4 1l-1 2-6 1-3-2a5 5 0 0 0-4 0l-8 5-1 1 1 1 3 2h-1l-1 3v1h-4l-2 1v1l3 6c0 1 2 2 3 1zm18 10h-1l-11-2c-2 0-3-1-3-2v-1l1-2a25 25 0 0 1-4-2l-3 1c-3 0-5-1-5-2l-3-7v-1c0-1 1-2 3-2h3l1-3-2-1-1-2 1-2 8-5a6 6 0 0 1 5 0l3 2a39 39 0 0 1 5-1l1-2 5-2 11 2 3 2v1l-1 2a25 25 0 0 1 4 2h3c2-1 4 0 5 1l3 7v1l-3 2h-3l-1 3 2 1 1 2-1 2-8 5a6 6 0 0 1-6 0l-2-1a39 39 0 0 1-6 0l-1 2-3 2"/><path fill="#87bfd1" d="M257 315c4 2 4 6 0 8s-10 2-14 0-4-6 0-8a16 16 0 0 1 14 0"/><path fill="#1a162c" d="m250 314-7 1-3 4 3 4c4 2 10 2 14 0l2-4-2-3a14 14 0 0 0-7-2Zm0 11c-3 1-6 0-8-1-2-2-3-3-3-5s1-3 3-5c4-2 11-2 15 0 2 2 3 3 3 5s-1 3-3 5l-7 1"/><path fill="#1a162c" d="m250 313-7 2c-4 2-4 6 0 8l6 2h1v-12"/><path fill="#1a162c" d="m249 314-6 1-3 4c0 2 1 3 3 4l6 1zm1 11h-1l-7-1c-2-2-3-3-3-5s1-3 3-5a15 15 0 0 1 8-1v12"/><path fill="#87bfd1" d="M243 323c4 2 10 2 14 0a16 16 0 0 0-14 0"/><path fill="#1a162c" d="M244 323c3 2 8 2 12 0a16 16 0 0 0-12 0zm6 2c-3 1-6 0-8-1v-1c4-3 11-3 15 0v1a15 15 0 0 1-7 1m-15 16h-1v-8h1v8"/><path fill="#87bfd1" d="M247 321h-2v-7h2v7m7 19h-1v-6h1v6m11 1h-1v-6h1v6m11-15h-1v-5h1v5"/><path fill="#87bfd1" d="M257 307v-7l-11-4v-5l-8 2-10 2-4-1h-2v8l-3-1v8l1 3 2 1 3-1a16 16 0 0 0 4 3v2l1 1 6 1 1-1 1-2a24 24 0 0 0 7-1l2 2h2l4-3h1v-6l2-1h1"/><path fill="#1a162c" d="m225 311 2 2 2 1v3h1l6 1h1l1-2 7-1 3 1h1l4-2v-7h3v-7l-10-3v-5l-8 2-10 1h-6v7h-3v6l2 4zm11 8-6-1-2-1v-2a16 16 0 0 1-3-3l-3 1-2-1-2-3a1 1 0 0 1 0-1v-7h3v-7h7l9-1 9-3 1 1v5l11 3v8l-2 1h-2v7l-5 2a3 3 0 0 1-2 0l-2-1-7 1v1l-2 1"/><path fill="#1a162c" d="M222 302h-1v10h4v-10h-3"/><path fill="#1a162c" d="M221 303v9l3-1v-9h-2v1zm0 10h-1v-12h5v11l-4 1"/><path fill="#1a162c" d="M223 295h-1v11l4-1v-10h-3"/><path fill="#1a162c" d="M223 296v9h2v-10h-2v1zm-1 10h-1v-12h5v12h-4m35 1v-7l-11-4v-5l-4 1-1 1-5 17v9l1-1 1-2a24 24 0 0 0 7-1l2 1h2l4-2 1-1v-6h3"/><path fill="#1a162c" d="M237 310v8l1-2 7-1 3 1h1l4-2v-7h3v-7l-10-3v-5l-4 1h-1zm-1 9v-9l4-18 1-1 5-1 1 1v5l10 3v8l-1 1h-2v7l-5 2a3 3 0 0 1-2 0l-2-1-7 1v1l-2 1"/><path fill="#fff" d="M254 296h-3a10 10 0 0 0-3-2 17 17 0 0 0-3-1l1-2v-1l-6-1-2 1-1 2-7 1-2-1h-2l-4 2v1l3 1a6 6 0 0 0-2 4l-4 1v1l1 3 1 1 4-1a14 14 0 0 0 5 3l-1 2 1 1 6 1 1-1 1-2 7-1 2 2h2l4-3v-1l-2-1a6 6 0 0 0 2-4l3-1 1-1-2-3-1-1"/><path fill="#1a162c" d="m230 310 6 1h1l1-2 7-1 3 1h1l4-2-3-2 1-1 1-3v-1h4l-1-4h-1l-4 1v-1a8 8 0 0 0-2-1 12 12 0 0 0-3-1v-1l1-2-6-1h-1l-1 2h-1l-6 1h-1l-2-1h-1l-5 3 3 1v1a6 6 0 0 0-2 3v1h-4l2 4 4-1v1a16 16 0 0 0 5 2l1 1zm6 2-6-1h-2a1 1 0 0 1 1-1v-2a17 17 0 0 1-4-2h-3l-2-1-2-3a1 1 0 0 1 0-1l1-1h3l2-3-2-1-1-1 1-1 4-3h2l2 1 7-1 1-1 2-1 6 1 1 1-1 2a17 17 0 0 1 5 2h3l2 1 1 3v1l-1 1h-3a7 7 0 0 1-1 4l2 1v2l-5 2h-2l-2-1-7 1v1l-2 1"/><path fill="#87bfd1" d="M244 297c4 2 4 5 0 7-3 2-9 2-13 0-3-2-3-5 0-7 4-2 10-2 13 0"/><path fill="#1a162c" d="m238 296-7 1-2 3 2 4c4 2 10 2 13 0l2-4-2-3-6-1zm0 10c-3 1-5 0-7-1s-3-3-3-5l3-4a15 15 0 0 1 13 0l3 4c0 2-1 4-3 5a14 14 0 0 1-6 1"/><path fill="#1a162c" d="m238 295-7 2c-3 2-3 5 0 7a13 13 0 0 0 6 2h1v-11"/><path fill="#1a162c" d="m237 296-5 1c-2 1-3 2-3 4l2 3 6 1zm1 11h-1a15 15 0 0 1-6-2l-3-4c0-2 1-4 3-5l7-1v11"/><path fill="#87bfd1" d="M231 304c4 2 10 2 13 0-3-2-9-2-13 0"/><path fill="#1a162c" d="M233 304c3 2 7 2 10 0h-10zm5 3a14 14 0 0 1-7-2v-1a15 15 0 0 1 14 0v1a14 14 0 0 1-7 2"/><path fill="#87bfd1" d="M235 302h-1v-6h1v6"/><path fill="#1a162c" d="M230 317h-1v-7h1v7"/><path fill="#87bfd1" d="M249 317h-1v-7h1v6m-10 0h-1v-6h1v6"/><path fill="#1a162c" d="m298 321-1 1h-1l-1-1 1-1h1l1 1m3-1-1 1h-1l-1-1 1-1h1l1 1m2-2-1 1-1-1 1-1 1 1m2-2h1v1h-2v-1h1m3-2 1 1-1 1h-1l-1-1 2-1m2-1h2l-1 1h-2l2-1m3-1-1 1-1-1h2m-16 13h-3v-1h3v1m3-2-1 1h-1l-1-1 1-1h1l1 1m2-2-1 1-1-1 1-1 1 1s1 0 0 0m3-1-1 1-1-1c-1 0-1 0 0 0l1-1 1 1m3-2-1 1h-1l-1-1 1-1h1l1 1m3-1h-3v-1h3v1m2-2-1 1-1-1 1-1 1 1m3-2-1 1-1-1h-1 3m2-2 1 1-1 1h-1l-1-1 2-1m-21 17h-3v-1h3v1m3-2-2 1-1-1 1-1 1 1c1 0 1 0 0 0m3-2-1 1-1-1s-1 0 0 0h2m3-1h-3l1-1h1l1 1m3-2-1 1h-1l-1-1 1-1h1l1 1m2-1h-2v-1h2v1m3-2-1 1-1-1c-1 0-1 0 0 0l1-1 1 1m3-1h-3v-1h3v1m3-2-1 1h-1l-1-1 1-1h1l1 1m2-2-1 1-1-1 1-1 1 1c1 0 1 0 0 0m-24 18h-3v-1h3v1m2-2-1 1-1-1 1-1 1 1m3-1h-2v-1h2v1m3-2-1 1h-1l-1-1 1-1h1l1 1m3-2-1 1h-1l-1-1 1-1h1l1 1m2-1h-2l1-1 1 1m3-2-1 1-2-1 1-1h1l1 1m3-1h-3v-1h3v1m3-2-2 1-1-1 1-1 1 1h1m2-2-1 1-1-1h2m3-1-1 1h-1l-1-1 1-1h1l1 1m-25 17-1 1-1-1 1-1 1 1s1 0 0 0m3-1h-2v-1h2v1m3-2-1 1h-1l-1-1 1-1h1l1 1m3-1h-3v-1h3v1m2-2-1 1-1-1 1-1 1 1m3-2-1 1-1-1h-1l2-1 1 1m3-1h-3l1-1h1l1 1m3-2-2 1-1-1 1-1 1 1h1m2-1h-2v-1h2v1m3-2-1 1h-1l-1-1 1-1h1l1 1m3-2-1 1h-1l-1-1h3m-25 18-1 1h-1l-1-1 1-1h1l1 1m3-2-1 1h-1l-1-1 1-1h1l1 1m2-1h-2v-1h2v1m3-2-1 1-1-1c-1 0-1 0 0 0l1-1 1 1m3-2-1 1h-1l-1-1h3m3-1-1 1h-1l-1-1 1-1h1l1 1m2-2-1 1-1-1 1-1 1 1c1 0 1 0 0 0m3-1h-2v-1h2v1m3-2-1 1h-1l-1-1 1-1h1l1 1m3-1h-3v-1h3v1m2-2-1 1-1-1 1-1 1 1m-24 17-1 1h-1l-1-1 1-1h1l1 1m2-1h-2v-1h2v1m3-2-1 1-2-1 1-1h1l1 1m3-1h-3v-1h3v1m3-2-2 1-1-1 1-1 1 1c1 0 1 0 0 0m3-2-1 1-1-1 1-1 1 1m3-1h-3l1-1h1l1 1m3-2-1 1h-1l-1-1 1-1h1l1 1m2-1h-2v-1h2v1m3-2-1 1-1-1c-1 0-1 0 0 0l1-1 1 1m3-2-1 1h-1l-1-1h3m-25 18-1 1-1-1c-1 0-1 0 0 0l1-1 1 1m3-2-1 1-1-1h-1l1-1h1l1 1m3-1h-3l1-1h2v1m3-2-2 1-1-1 1-1 1 1h1m2-1h-2v-1h2v1m3-2-1 1h-1l-1-1 1-1h1l1 1m3-2-1 1h-1l-1-1 1-1h1l1 1m3-1h-3l1-1 1 1c1 0 1 0 0 0m3-2-1 1-1-1c-1 0-1 0 0 0l1-1 1 1m3-1h-3v-1h3v1m3-2-1 1h-1l-1-1 1-1h1l1 1m-22 16h-3l1-1h1l1 1m2-2-1 1-1-1 1-1 1 1c1 0 1 0 0 0m3-1h-2v-1h2v1m3-2-1 1h-1l-1-1 1-1h1l1 1m3-2-1 1h-1l-1-1h3m2-1-1 1-1-1 1-1 1 1m3-2-1 1-1-1c-1 0-1 0 0 0l1-1 1 1m3-1h-3v-1h3v1m3-2-1 1h-1l-1-1 1-1 2 1m2-1h-2v-1h2v1m-19 14h-3v-1h3v1m3-2-1 1h-1l-1-1 1-1h1l1 1m2-1h-2v-1h2v1m3-2-1 1-1-1c-1 0-1 0 0 0l1-1 1 1m3-2-1 1h-1l-1-1 1-1h1l1 1m3-1h-3l1-1h1l1 1m2-2-1 1-1-1 1-1 1 1c1 0 1 0 0 0m3-1h-2v-1h2v1m3-2-1 1h-1l-1-1 1-1h1l1 1m-16 13h-3v-1h2v1m3-2-1 1-1-1c-1 0-1 0 0 0l1-1 1 1m3-1h-3v-1h3v1m3-2-1 1h-1l-1-1 1-1h1l1 1m2-2-1 1-1-1 1-1 1 1c1 0 1 0 0 0m3-1h-2c-1 0-1 0 0 0l1-1 1 1m3-2-1 1h-1l-1-1 1-1h1l1 1m-11 10h-3v-1h3v1m3-2-1 1h-1l-1-1 1-1 2 1m2-2-1 1-1-1h2m3-1-1 1h-1l-1-1 1-1h1l1 1m3-2-1 1h-1l-1-1 1-1h1l1 1m-16-18h-2c-1 0-1 0 0 0l1-1 1 1m3 1-1 1h-1l-1-1 1-1h1l1 1m5 0-1 1-1-1c-1 0-1 0 0 0l1-1 1 1m-2 2-2 1-1-1 1-1 1 1c1 0 1 0 0 0m6 0h-3l1-1h1l1 1m-3 1-1 1-1-1h-1l2-1 1 1m5 0-1 1-1-1 1-1 1 1c1 0 1 0 0 0m-2 2-1 1h-1l-1-1 1-1h1l1 1m5 0-1 1-1-1c-1 0-1 0 0 0l1-1 1 1m-3 1-1 1-1-1h2c1 0 1 0 0 0m3 2-1 1h-1l-1-1 1-1h1l1 1"/><path fill="#87bfd1" d="m337 308-20-1-2 2a29 29 0 0 0-12 3 17 17 0 0 0-3 2l-3-1v7c0 4 2 7 6 9a33 33 0 0 0 29 0 17 17 0 0 0 3-2v-7l-9-2 11-3v-7"/><path fill="#1a162c" d="m318 307-3 2c-5 0-9 2-12 3l-3 2h-3v7c0 3 2 6 6 8a32 32 0 0 0 29 0l2-2v-6l-9-2v-1h1l10-3v-6zm-22 6h4l3-2 11-3 3-2 20 2v8l-9 2 7 2v8l-2 2c-9 5-22 5-31 0-4-3-6-6-6-9v-8"/><path fill="#fff" d="m318 313 19-5a16 16 0 0 0-6-4 34 34 0 0 0-28 0c-8 5-9 13 0 18a33 33 0 0 0 30 0 17 17 0 0 0 2-2l-17-7"/><path fill="#1a162c" d="M336 308a16 16 0 0 0-6-4 33 33 0 0 0-27 1c-4 2-6 5-6 8s2 6 6 8a32 32 0 0 0 29 0l2-1-17-7zm-38 1c1-2 2-4 5-5a34 34 0 0 1 28-1 16 16 0 0 1 6 5v1l-18 4 16 7-2 2a34 34 0 0 1-31 0c-4-2-6-5-6-9l2-4"/><path fill="#fff" d="m335 320-17-7 6 12a27 27 0 0 0 9-3 17 17 0 0 0 2-2"/><path fill="#1a162c" d="m334 320-15-6 5 10a26 26 0 0 0 10-4zm-17-7h1l17 7h1l-1 1-2 1a28 28 0 0 1-9 3h-1l-6-12"/><path fill="#1a162c" d="M318 313v12h6l-6-12m13 10v7a17 17 0 0 0 4-3v-7l-4 3"/><path fill="#1a162c" d="m323 324-5-9v10l5-1zm-6-11h1l6 12-6 1h-1v-13"/><path fill="#87bfd1" d="M318 325v-12l-5 12h5"/><path fill="#1a162c" d="M317 325v-9l-3 9h3zm0-12h1v13a31 31 0 0 1-5 0l4-13m6 12h1v7h-1v-7m-23-5h1v8h-1v-8m3 2h1v8h-1v-8m29-12h1v7h-1v-8"/><path fill="#fff" d="M317 298c5-1 9 1 9 1l-1 1-8-1v-1m10 1 3 1v1l-3-1v-1"/><path fill="#1a162c" d="m102 320-1 1h-1l-1-1 1-1h1l1 1m2 2h-2l1-1 1 1m-2 1-2 1-1-1 1-1 1 1c1 0 1 0 0 0m6 0-1 1h-1l-1-1 1-1h1l1 1m-3 2-1 1-1-1s-1 0 0 0l1-1 1 1m6 0-1 1h-1l-1-1 1-1h1l1 1m-3 2h-3v-1h3v1m5-1-1 1-1-1c-1 0-1 0 0 0h2m-3 2-1 1-1-1 1-1 1 1c1 0 1 0 0 0m6 0-1 1h-1l-1-1 1-1h1l1 1m-3 2h-2v-1h2v1m6 0h-3v-1h2v1m-2 1-1 1h-1l-1-1 1-1h1l1 1m5 0-1 1-1-1c-1 0-1 0 0 0l1-1 1 1m-3 2h-2v-1h2v1m6 0h-3v-1h3v1m-3 1-1 1-1-1c-1 0-1 0 0 0l1-1 1 1m5 0-1 1-1-1 1-1 1 1c1 0 1 0 0 0m-2 2h-3v-1h3v1m5 0h-2l-1-1h3v1m-3 1-1 1-1-1 1-1 1 1m6 0-1 1h-1l-1-1 1-1h1l1 1m-3 2h-2c-1 0-1 0 0 0l1-1 1 1m5 0h-2l1-1h1v1m-2 1-1 1h-1l-1-1 1-1h1l1 1m5 0-1 1-1-1c-1 0-1 0 0 0l1-1 1 1m-3 2h-2l1-1 1 1c1 0 1 0 0 0m6 0h-3l1-1h1l1 1m-3 1-1 1-1-1c-1 0-1 0 0 0h2m5 0-1 1-1-1 1-1 1 1c1 0 1 0 0 0m-2 2-1 1h-1l-1-1 1-1h1l1 1m5 0h-3l2-1 1 1m-3 1-1 1-1-1h2m6 0-1 1h-1l-1-1h3m-3 2-1 1-1-1c-1 0-1 0 0 0l1-1 1 1m5 0h-2l1-1 1 1c1 0 1 0 0 0m-2 1-1 1h-2v-1h3m5 0-1 1h-1l-1-1 1-1h1l1 1m-3 2-1 1-1-1 1-1 1 1m6 0-1 1h-1l-1-1 1-1h1l1 1m-3 2h-3v-1h3m5 0-1 1-1-1h2s1 0 0 0m-2 2-1 1h-1l-1-1 1-1h1l1 1m5 0-1 1h-1l-1-1 1-1h1l1 1m-3 1-1 1h-1v-1h2m6 0-1 1h-2v-1h3m-3 2-1 1h-1l-1-1 1-1h1l1 1m5-3-1 1-1-1 1-1 1 1m3-2-1 1-1-1c-1 0-1 0 0 0l1-1 1 1m3-1h-3l1-1h2v1m3-2-1 1h-1l-1-1 1-1h1l1 1m2-1h-2v-1h2v1m3-2-1 1-1-1c-1 0-1 0 0 0l1-1 1 1m3-2-1 1h-1l-1-1h3m3-1h-3l1-1h1l1 1m2-2-1 1-1-1 1-1 1 1s1 0 0 0m3-1h-2v-1h2v1m3-2-1 1h-1l-1-1 1-1h1l1 1m-28 19-1 1-1-1 1-1 1 1m3-2-1 1-1-1h-1 3m3-1h-3l1-1h1l1 1m3-2-2 1-1-1 1-1 1 1h1m2-1h-2v-1h2v1m3-2-1 1h-1l-1-1 1-1h1l1 1m3-1h-3v-1h3v1m3-2-2 1-1-1 1-1 1 1c1 0 1 0 0 0m3-2-1 1-1-1s-1 0 0 0l1-1 1 1m3-1h-3l1-1h1l1 1m3-2-1 1h-1l-1-1 1-1h1l1 1m-3-5-24 14c-3 1-7 1-10-1l-54-31c-3-2-4-6-1-8l24-11c3-1 7-1 10 1l55 29c3 2 2 6 0 7"/><path fill="#1a162c" d="m129 299-4 1-24 11-1 2a5 5 0 0 0 2 4l54 32c3 2 7 2 10 1l24-14a4 4 0 0 0 1-4l-1-3-55-29-6-1zm33 52-6-1-54-32a6 6 0 0 1-3-5c0-1 0-3 2-3l24-11c3-2 7-2 10 0l55 29c2 1 2 3 2 4a5 5 0 0 1-2 5l-24 13a9 9 0 0 1-4 1"/><path fill="#fff" d="m190 334-24 14c-3 1-7 1-10-1l-54-31c-3-2-3-5-1-6l24-14c3-1 7-1 10 1l54 31c3 2 3 5 1 6"/><path fill="#1a162c" d="m129 296-4 1-24 13-1 2 2 3 54 32c3 2 7 2 10 0l24-13 1-2-2-3-54-32-6-1zm33 53-6-1-54-32c-2-1-3-2-3-4l2-2 24-14c3-2 7-1 10 0l54 32c2 1 3 2 3 4l-2 2-24 14a9 9 0 0 1-4 1"/><path fill="#fff" d="m127 298-3 2v2l-13 7h-4l-3 2c-2 1-2 3 0 4l54 31h6l23-13c2-1 2-2 0-4l-54-31h-6"/><path fill="#5d97e5" d="m158 346-53-32 2-1h4l13-7v-2l3-2h6l54 31-23 13h-6"/><path fill="#073783" d="M108 310h-1l-3 1-1 2 1 1 54 31c2 2 4 2 6 1l23-13 1-2-2-1-53-31h-6l-3 1 1 1-1 1-13 8h-2l-1-1zm53 37a7 7 0 0 1-3-1l-54-31-2-2 2-2 3-2h4l13-7v-1l-1-1 1-1 2-1h7l54 31 2 2-2 2-22 13a7 7 0 0 1-4 1"/><path fill="#1a162c" d="M111 307h-1v-1l1 1m9-5-7 4h-1v-1l7-4h1v1"/><path fill="#87bfd1" d="M163 351h-1v-2h1v2m-5-1h-1v-2h1v2m10-1h-1v-2h1v2m-63-30h-1v-2h1v2m84 18h-1v-2h1v2m-86-19h-1v-2h1v2m57 33h-1v-2h1v2m-43-26 1 1 2 1h-1l-2-2zm3 3h-1l-2-1v-2h1l2 1v2m58 13-2 1v1l2-1v-1zm-2 3v-2l2-1h1v1l-1 1-2 1m-55-16v1l2 1h1l-1-1-2-1zm3 2h-1l-2-1-1-1 1-1 2 1 1 2m-10-6 1 1v-1h-1zm1 1h-1l-1-1 1-1h1v2"/><path fill="#fff" d="M136 294c-4-2-8-2-12 0l-2 1v-1l2-1c4-2 8-2 12 0v1"/><path fill="#87bfd1" d="M159 332c3-2 7-1 10 0 2 2 2 4-1 6-2 1-7 1-9-1-3-2-3-4 0-5"/><path fill="#fff" d="M158 331c2-2 7-1 9 0 3 2 2 4 0 6-3 1-7 1-10-1-2-2-2-4 1-5"/><path fill="#1a162c" d="m159 332-2 2 2 3c2 1 7 2 9 0 2 0 2-1 2-2l-1-3a10 10 0 0 0-6-1l-4 1zm-1 5-2-3 3-3c3-1 7-1 10 1 2 1 2 2 2 3l-2 3a11 11 0 0 1-11-1"/><path fill="#87bfd1" d="M165 333v2h-5v-1h3v-1l1-1h1"/><path fill="#1a162c" d="M166 333v3h-1l-4-1s-1 0 0 0l1-1 2 1v-2h2m7 4c0-1 1-3-1-5v4l1 1m-2 2 1-1v-1l-2 1 1 1"/><path fill="#fff" d="M127 314h1l-1 1-1-1h-1l1-1 2-1-1-1h4l-1 1h1l-1 1-1-1-2 1v1m6 0h-2l2 1v-1zm-4 3-1-2 1-1 3-1 2 1 1 1-1 1h-1l-3-1v1a5 5 0 0 0 2 1h-1a6 6 0 0 1-2 0m7 2h-3l-1-1 1-1v1h2a2 2 0 0 1-1-1v-1h4l1 1-1 1-1-1h-1v1h1v1h-1m3 2v1l-2-1v-1l2-2h3l-1 1h2l-1 1-1-1-2 1-1 1h1m6-2h1v1h-1v-1zm-4 4-2-1 5-2h1l-4 3m5 3-2-1 3-1v-1h-1a3 3 0 0 0-1 0l-2 1h-1l4-3 1 1h-1 2l1 1-1 1-2 2m5-1-1 1h2v-1h-1zm-4 2h-1l1 1h2l-1-1h-1zm8-1-1 1-1-1v1h-3l-1-1v1h1l1 1-1 1h-2l-2-1-1-1h1v-1l1 1v-1h2a1 1 0 0 1 0-1l2-1a4 4 0 0 1 2 1l2 1"/><path fill="#1a162c" d="m401 215-1 1-1-1c-1 0-1 0 0 0l1-1 1 1m3 2h-3v-1h3v1m-3 1-1 1-1-1c-1 0-1 0 0 0l1-1 1 1m6 0-2 1-1-1 1-1 1 1c1 0 1 0 0 0m-2 2h-3v-1h3v1m5 0h-2v-1h2v1m-3 1-1 1-1-1 1-1 1 1m6 0-1 1h-1l-1-1 1-1h1l1 1m-3 2h-2c-1 0-1 0 0 0l1-1 1 1m6-3h-3v-1h3v1m2-2-1 1-1-1 1-1 1 1m3-1h-2l-1-1h3v1m3-2-1 1h-1l-1-1 1-1h1l1 1m-9 8h-2l1-1 1 1c1 0 1 0 0 0m3-2-1 1-1-1c-1 0-1 0 0 0l1-1 1 1m3-1h-3v-1h3v1m3-2-1 1h-1l-1-1 1-1h1l1 1"/><path fill="#87bfd1" d="m416 209-2 1v1h-7v-1l-1-1 3-2a3 3 0 0 1 3 0zm-16 3 8 5h5l8-5 1-1v-4l-3 2-3-6-10-1-4 6-3-1v3l1 2"/><path fill="#1a162c" d="m407 210 6 1 1-1 1-1-3-1h-2l-4 1zm7 1v1l-8-1v-1l-1-1 4-2h3l4 2v1zm5-2-3-6a23 23 0 0 0-10 0l-3 6h-1l-3-2v3l1 1 8 5h5l8-4 1-1v-4zm3 4-9 4a6 6 0 0 1-5 0l-8-5-2-2v-4h1l3 2 4-6c1-1 9 0 10 1l3 5 3-2 1 1v4l-1 1"/><path fill="#fff" d="M409 203a3 3 0 0 1 3 0l5 3v2l-5 2a3 3 0 0 1-3 0l-4-3v-1zm-1-2-8 4v3l8 5h5l8-5c2 0 2-2 0-3l-8-4a6 6 0 0 0-5 0"/><path fill="#1a162c" d="M405 206v1l5 3a3 3 0 0 0 2 0l4-3h1l-1-1-4-2a3 3 0 0 0-2 0l-5 2zm12 2-5 3h-3l-5-3v-2l5-3h3l5 3 1 1-1 1zm-4-7a5 5 0 0 0-5 0l-8 5-1 1 1 1 8 5h5l8-5 1-1-1-1-8-5zm9 8-9 4h-5l-8-5-2-1 2-2 8-5a6 6 0 0 1 5 0l9 5 1 2v1a3 3 0 0 1-1 1"/><path fill="#1a162c" d="M411 217v-3h-1v3h1m0-10v-4h-1v4h1m10 6v-4h-1v4h1m-19 0v-4h-1v4h1m15-6-2 2-3-2h-1v-4l1 1 5 2v1M27 173l-1 1h-1l-1-1 1-1h1l1 1m2 1-1 1-1-1h2s1 0 0 0m-2 2-1 1h-1l-1-1 1-1h1l1 1m5 0-1 1-1-1h-1l1-1h1l1 1m-3 2h-2v-1h2v1m6-1-1 1h-1l-1-1h3m-3 2-1 1h-1l-1-1 1-1h1l1 1m5 0-1 1-1-1 1-1 1 1m-2 2h-3v-1h3v1m5-4-1 1-1-1c-1 0-1 0 0 0h2m3-1-1 1h-1l-1-1 1-1h1l1 1m3-2-2 1-1-1 1-1h1l1 1m2-1h-2v-1h2v1m-8 8h-3v-1h3v1m3-2-1 1h-1l-1-1 1-1h1l1 1m2-2-1 1-1-1h3m2-1h-2s-1 0 0 0l1-1 1 1"/><path fill="#87bfd1" d="m41 167-2 1v1h-7v-1l-1-1 4-2a3 3 0 0 1 3 0zm-16 3 9 5h5l8-5 1-1v-4l-3 1-3-5c-2-1-9-2-10-1l-4 6-3-2h-1v4l1 2"/><path fill="#1a162c" d="m32 167 1 1 6 1v-1l2-1-4-2h-2l-3 2zm8 1v1h-8v-1l-2-1 5-2h3l4 2zm5-1h-1l-3-6a23 23 0 0 0-9-1l-4 7-3-2v3l1 1 8 5h4l9-4 1-1v-4zm2 3-8 5a6 6 0 0 1-6 0l-8-5-1-2v-4l4 2 3-6h11l3 6 3-2h1v5l-1 1h-1"/><path fill="#fff" d="M35 161a3 3 0 0 1 3 0l4 3v1l-4 3a3 3 0 0 1-3 0l-5-3v-1zm-1-3-9 5v3l9 5h5l8-5v-3l-8-5a6 6 0 0 0-5 0"/><path fill="#1a162c" d="m31 164-1 1h1l4 3a3 3 0 0 0 2 0l5-3v-1l-5-3h-2l-4 3h-1zm11 2-4 2h-3l-5-2-1-1 1-2 5-2h3l4 3 1 1-1 1zm-3-7a5 5 0 0 0-5 0l-8 4-1 1 1 2 8 4a5 5 0 0 0 5 1l8-5 1-1-1-1zm8 8-8 4a6 6 0 0 1-6 0l-8-5-1-2 1-1 9-5a6 6 0 0 1 5 0l8 5 2 2-1 1a3 3 0 0 1-1 0"/><path fill="#1a162c" d="M37 175v-4h-1v4h1m0-10v-4h-1v4h1m10 5v-3h-1v3m-19 0v-3 3"/><path fill="#1a162c" d="m43 165-2 1-3-1-2-1v-3l2 1 4 2 1 1m59 94-1 1-1-1 1-1 1 1m-2 2h-3v-1h3v1m5 0h-3v-1h3v1m-3 1-1 1-1-1c-1 0-1 0 0 0l1-1 1 1m6 0-2 1-1-1 1-1 1 1c1 0 1 0 0 0m-2 2h-3v-1h3v1m5 0h-2v-1h2v1m-2 1-2 1-1-1 1-1 1 1c1 0 1 0 0 0m6 0-1 1h-1l-1-1 1-1h1l1 1m-3 2h-2c-1 0-1 0 0 0l1-1h1v1m5 0h-2v-1h2v1m-2 1-1 1h-1l-1-1 1-1h1l1 1m5 0-1 1-1-1c-1 0-1 0 0 0l1-1 1 1m-24-13h-1l-1-1c0 1 0 0 0 0h2v1m3 1-1 1h-1l-1-1 1-1h1l1 1m-3 2h-2v-1h2v1m5 0h-2v-1h2l1 1m-3 1-1 1h-1l-1-1 1-1h1l1 1m18 11-1 1-1-1 1-1 1 1c1 0 1 0 0 0m6 0h-3v-1h3v1m-3 1-1 1-1-1h-1l2-1 1 1m6 0-2 1-1-1 1-1 1 1c1 0 1 0 0 0m-2 2h-3l1-1h1l1 1m5 0h-2c-1 0-1 0 0 0l1-1 1 1m-3 1-1 1-1-1 1-1 1 1m6 0-1 1h-1l-1-1h3m-3 2-1 1-1-1c-1 0-1 0 0 0l1-1 1 1m5 0-1 1-1-1 1-1 1 1c1 0 1 0 0 0m-2 2h-3v-1h3v1m5-1-1 1-2-1h3m-3 2-1 1-1-1 1-1 1 1m6 0-1 1h-1l-1-1 1-1h1l1 1m-3 2h-2l-1-1h3v1m5 0h-2v-1h2v1m-2 1-1 1h-1l-1-1 1-1h1l1 1m5 0-1 1h-1l-1-1 1-1h1l1 1m-3 2h-2v-1h2v1m6 0h-3v-1h3v1m-3 1-1 1h-1l-1-1 1-1h1l1 1m5 0-1 1-1-1 1-1 1 1m-2 2h-3v-1h3v1m5 0h-3v-1h3v1m-3 1-1 1-1-1c-1 0-1 0 0 0l1-1 1 1m6 0-1 1h-1l-1-1 1-1h1l1 1m-3 2h-3l1-1h1l1 1m5 0h-2v-1h2v1m-2 1-1 1h-1l-1-1 1-1 1 1h1m5 0-1 1h-1l-1-1 1-1h1l1 1m-3 2h-2c-1 0-1 0 0 0l1-1 1 1m6 0h-3l1-1h1l1 1m-3 1-1 1h-1l-1-1h3m5 0-1 1-1-1 1-1 1 1m-2 2-2 1-1-1 1-1 1 1c1 0 1 0 0 0m6 0h-3l1-1h1l1 1m-3 1-1 1-1-1c-1 0-1 0 0 0h2m6 0-2 1-1-1h3m-3 2-1 1h-1l-1-1 1-1h1l1 1m5 0-1 1-1-1c-1 0-1 0 0 0l1-1 1 1m-3 1-1 1h-1v-1h2c1 0 1 0 0 0m6 0-1 1h-1l-1-1h3m-3 2-1 1-1-1h-1l1-1h1l1 1m6 0-2 1-1-1 1-1 1 1h1m-3 1-1 1h-1l-1-1c0 1 0 0 0 0h3v1m5-1-1 1-1-1h2m-3 2-1 1-1-1 1-1 1 1c1 0 1 0 0 0m6 0-1 1h-1l-1-1 1-1h1l1 1m-3 1-1 1h-1l-1-1h3m6 0-2 1h-1v-1h2c1 0 1 0 0 0m-2 2-1 1h-1l-1-1 1-1h1l1 1m5-3-1 1-1-1s-1 0 0 0l1-1 1 1m3-2-1 1h-1l-1-1 1-1h1l1 1m3-1h-3l1-1h2v1m-6 6-1 1-1-1c-1 0-1 0 0 0l1-1 1 1m3-2-1 1h-1l-1-1h3m3-1h-3l1-1h1l1 1m-3-8 1-4V157c0-5-3-12-8-14l-82-48h-5l-4 3 1 2v137c0 6 3 12 8 15l82 47 2 2s3 0 5-4"/><path fill="#1a162c" d="M94 99v138c0 5 3 12 7 14l83 47 1 3a8 8 0 0 0 4-4h1V157c0-5-3-11-7-14l-83-47-4-1v1a13 13 0 0 0-4 2l1 1zm90 203-1-3-83-47c-4-2-7-9-7-15V100l-2-2v-1l5-3 5 1 83 47c4 3 8 9 8 15v136l-1 4v1a9 9 0 0 1-6 4"/><path fill="#fff" d="m180 301-83-47c-4-3-7-9-7-15V103c0-5 3-8 7-5l83 47c4 2 8 9 8 14v136c0 6-4 8-8 6"/><path fill="#1a162c" d="m94 97-1 1c-2 1-3 3-3 5v136c0 6 3 12 8 14l82 48h5l2-6V159c0-5-3-11-7-14L97 98l-3-1zm89 205-3-1-83-47c-4-2-8-9-8-15V103c0-3 1-5 3-6h6l82 48c5 2 8 9 8 14v136c0 3-1 6-3 7a5 5 0 0 1-2 1"/><path fill="#33537e" d="m178 147-82-47c-2-1-3 0-3 2v138c0 4 3 10 7 12l81 46c2 1 4 0 4-2V159c0-5-3-10-7-12"/><path fill="#1a162c" d="m95 100-1 1-1 2v137c0 4 3 9 7 11l81 47h2l1-2V159c0-4-3-10-7-12l-81-46a3 3 0 0 0-1-1zm88 199a4 4 0 0 1-2 0l-82-47c-4-2-7-8-7-12V103c0-2 1-3 2-3h3l81 46c4 3 7 8 7 13v137l-1 3a2 2 0 0 1-1 0"/><path fill="#1a162c" d="m182 298-81-47c-4-2-7-7-7-12V100l-1 3v137c0 4 3 10 7 12l81 46h3-2"/><path fill="#1a162c" d="M182 299h-1l-82-47c-4-2-7-8-7-12V103c0-2 1-3 2-3l2-1-2 2v138c0 4 3 10 7 12l81 46h3l-1 1-2 1"/><path fill="#87bfd1" d="m186 151 3-2v1l-3 1M97 98v-1a7 7 0 0 1 3-2v1l-3 1m2 1h-1l3-2 1 1-3 1m88 57 3-2v1l-3 1m1 135 3-2-3 2m0 5 3-2-3 2m0 2 3-2-3 2"/><path fill="#1a162c" d="M189 202h-1v-7l1-2 1 1v7l-1 1"/><path fill="#87bfd1" d="M190 193h-1v9l1-1v-8zm-1 10h-1v-8l1-2a1 1 0 0 1 1 0v8l-1 2"/><path fill="#1a162c" d="M189 191h-1v-7l1-2 1 1v7l-1 1"/><path fill="#87bfd1" d="M190 182h-1v9l1-1v-8zm-1 10h-1v-8l1-2h1v8l-1 1a1 1 0 0 1 0 1"/><path fill="#1a162c" d="M189 178v1l-1-1v-4l1-2 1 1v4l-1 1"/><path fill="#87bfd1" d="M190 173h-1v5l1-1v-4zm-1 6h-1v-5l1-2a1 1 0 0 1 1 0v5l-1 2"/><path fill="#87bfd1" d="M189 175h-1v-1l1-2 1 1v1l-1 1"/><path fill="#87bfd1" d="M190 173h-1v2l1-1v-2zm-1 3h-1v-2l1-2a1 1 0 0 1 1 0v2l-1 2m-4-26v-1l3-1-3 2"/><path fill="#1a162c" d="m104 95-2-1a9 9 0 0 0-5-1v-2l5 1 3 2-1 1m-16 9h-1v-3a9 9 0 0 1 1-5 11 11 0 0 1 6-4l1 1c-3 1-5 2-6 4a8 8 0 0 0-1 4v3m106 190h-1v-7h1v7m-5-27-1-1v-13l1-2 1 1v13l-1 2"/><path fill="#87bfd1" d="M190 251h-1v16l1-2v-14zm-1 17-1-1v-14l1-2h1v14l-1 2a1 1 0 0 1 0 1"/><path fill="#87bfd1" d="m189 265 1-1h-1v1"/><path fill="#1a162c" d="M163 133v1l6 4h2v-1l-6-4h-2"/><path fill="#87bfd1" d="m164 133-1 1h1l6 4a2 2 0 0 0 1 0v-1l-6-3-1-1zm6 5h-1l-6-3v-2a2 2 0 0 1 2 0l6 3 1 1v1h-1a2 2 0 0 1-1 0"/><path fill="#1a162c" d="M110 103v1h3v-1h-3"/><path fill="#87bfd1" d="M110 103v1h3l-1-1a2 2 0 0 0-2 0zm2 2a3 3 0 0 1-2 0l-1-2h4l1 1-1 1h-1"/><path fill="#1a162c" d="M113 104h-3v-1a3 3 0 0 1 2 0h1v1"/><path fill="#87bfd1" d="m111 103 2 1-1-1a2 2 0 0 0-2 0v1l1-1zm2 2-1-1h-2l-1-1h4l1 1h-1v1m-1 23 38 22 1-1-1-3-38-22-2 1 2 3"/><path fill="#fff" d="m112 127 38 22h1l-2-3-37-22h-1v1l1 2zm38 23h-1l-37-22a4 4 0 0 1-2-3l1-1h1l38 21 2 4-1 1h-1"/><path fill="#87bfd1" d="m104 122 2 3 2-1-2-3c-1-1-2 0-2 1"/><path fill="#fff" d="M105 121v1l1 2h1l-1-3a1 1 0 0 0-1 0zm2 4a2 2 0 0 1-1 0 4 4 0 0 1-2-3l1-2h1a4 4 0 0 1 2 4l-1 1m5 10 38 22h1l-2-3-37-21h-1l1 2zm38 23h-1l-37-22a4 4 0 0 1-2-3l1-1h1l38 22c1 0 2 1 2 3l-1 1h-1"/><path fill="#87bfd1" d="m104 130 2 3 2-1-2-3c-1-1-2 0-2 1"/><path fill="#fff" d="M105 129v1l1 2h1l-1-3a1 1 0 0 0-1 0zm2 4h-1a4 4 0 0 1-2-3l1-2h1a4 4 0 0 1 2 4l-1 1m5 11 38 22 1-1-1-3-38-22-2 1 2 3"/><path fill="#fff" d="m112 144 38 21h1l-2-3-37-21h-1l1 3zm38 22a1 1 0 0 1-1 0l-37-22a4 4 0 0 1-2-3l1-1h1l38 22c1 0 2 1 2 3l-1 1h-1m-46-28a4 4 0 0 0 2 3l2-1-2-3c-1-1-2 0-2 1"/><path fill="#fff" d="M105 137v1l1 2h1l-1-3a1 1 0 0 0-1 0zm2 4h-1a4 4 0 0 1-2-3l1-2h1a4 4 0 0 1 2 4l-1 1"/><path fill="#87bfd1" d="m112 152 38 22 1-1-1-3-38-22-2 1 2 3"/><path fill="#fff" d="m112 152 38 21h1l-2-3-37-21h-1l1 2zm38 22h-1l-37-22a4 4 0 0 1-2-3l1-1h1l38 22c1 0 2 1 2 3l-1 1h-1m-45-29v1l1 2h1l-1-3a1 1 0 0 0-1 0zm2 4a2 2 0 0 1-1 0 4 4 0 0 1-2-3l1-2 1 1a4 4 0 0 1 2 3l-1 1"/><path fill="#87bfd1" d="m112 160 38 22 1-1-1-3-38-22-2 1 2 3"/><path fill="#fff" d="m112 160 38 21s0 1 0 0h1l-2-3-37-21h-1l1 2zm38 22h-1l-37-22a4 4 0 0 1-2-3l1-1h1l38 22a4 4 0 0 1 2 3l-1 1h-1"/><path fill="#87bfd1" d="m104 154 2 3 2-1-2-3c-1-1-2 0-2 1"/><path fill="#fff" d="M105 153v1l1 2h1l-1-3a1 1 0 0 0-1 0zm2 4h-1a4 4 0 0 1-2-3l1-1h1a4 4 0 0 1 2 3l-1 1"/><path fill="#87bfd1" d="m133 186 38 22c1 1 2 0 2-1l-2-3-38-21-1 1 1 2"/><path fill="#fff" d="m134 186 37 22h1v-1l-1-2-38-22-1 1 2 2zm38 23-1-1-38-21a4 4 0 0 1-1-3v-2h2l37 22 2 3-1 2"/><path fill="#87bfd1" d="m126 180 2 3c1 1 1 0 1-1l-1-3-2 1"/><path fill="#fff" d="m127 180 1 3h1v-1l-2-2zm1 4a2 2 0 0 1-1-1 4 4 0 0 1-1-3v-1h2a4 4 0 0 1 2 3l-1 2h-1m6 10 38 22v-1l-1-2-38-22-1 1 2 2zm38 23a1 1 0 0 1-1 0l-38-22a4 4 0 0 1-1-3v-2h2l38 22 1 3-1 2"/><path fill="#87bfd1" d="M126 188a4 4 0 0 0 2 3c1 1 1 0 1-1l-1-3-2 1"/><path fill="#fff" d="m127 188 1 3h1v-1l-2-2zm1 4a2 2 0 0 1-1-1 4 4 0 0 1-1-3v-1h2a4 4 0 0 1 2 3l-1 2h-1"/><path fill="#87bfd1" d="m133 202 38 22c1 1 2 0 2-1l-2-2-38-22-1 1 1 2"/><path fill="#fff" d="m134 202 37 22h1v-1l-1-2-38-22-1 1 2 2zm38 23h-1l-38-22a4 4 0 0 1-1-3v-2h2l37 22 2 3-1 2"/><path fill="#87bfd1" d="m126 196 2 3c1 1 1 0 1-1l-1-2c-1-1-2-1-2 1"/><path fill="#fff" d="m127 196 1 3h1v-1l-2-2zm1 4a2 2 0 0 1-1 0 4 4 0 0 1-1-4v-1h2a4 4 0 0 1 2 3l-1 2h-1m5 10 38 22c1 1 2 0 2-1l-2-3-38-21-1 1 1 2"/><path fill="#fff" d="m134 210 37 22h1v-1l-1-2-38-22-1 1 2 2zm38 23h-1l-38-22a4 4 0 0 1-1-3v-2h2l37 22a4 4 0 0 1 2 3l-1 2m-46-29 2 3c1 1 1 0 1-1l-1-3-2 1"/><path fill="#fff" d="m127 204 1 3h1v-1l-2-2zm1 4a2 2 0 0 1-1 0 4 4 0 0 1-1-4v-1h2a4 4 0 0 1 2 3l-1 2h-1"/><path fill="#87bfd1" d="m133 219 38 21c1 1 2 0 2-1l-2-2-38-22-1 1 1 3"/><path fill="#fff" d="m134 218 37 22h1v-1l-1-2-38-22-1 1 2 2zm38 23a1 1 0 0 1-1 0l-38-22a4 4 0 0 1-1-3v-2h2l37 22 2 3-1 2"/><path fill="#87bfd1" d="M126 212a4 4 0 0 0 2 3c1 1 1 0 1-1l-1-2c-1-1-2 0-2 1"/><path fill="#fff" d="m127 212 1 3h1v-1l-2-2zm1 4h-1a4 4 0 0 1-1-4v-1h2a4 4 0 0 1 2 3l-1 2h-1"/><path fill="#87bfd1" d="m172 175-13-7v-16l1-1 12 7 1 2v14l-1 1"/><path fill="#fff" d="M159 152v14l1 1 12 7v-14l-1-1-12-7v-1zm13 23h-1l-12-7a3 3 0 0 1-1-2v-14l1-1h1l12 7a3 3 0 0 1 1 2v14l-1 1"/><path fill="#87bfd1" d="m167 159-1-1v5l1-4"/><path fill="#fff" d="M166 159v1-1zm0 4h-1v-5h1l1 1-1 4h-1"/><path fill="#87bfd1" d="m166 163 2-1-2-3v4"/><path fill="#fff" d="m167 160-1 2 2-1-1-1zm-2 3 1-4h1a9 9 0 0 1 2 2l-1 1-3 1"/><path fill="#87bfd1" d="m166 163 3 2-1-4-2 2"/><path fill="#fff" d="m166 163 3 2-1-3zm4 3-5-3 3-2h1a8 8 0 0 1 1 4v1"/><path fill="#87bfd1" d="m166 163-2 3 2 1c2 2 3 1 3-2l-3-2"/><path fill="#fff" d="m164 166 2 1h2l1-2-3-1zm3 2h-2l-2-2 2-3 5 2-2 3a2 2 0 0 1-1 0"/><path fill="#87bfd1" d="m164 166 2-3v-5c-3-1-4 0-4 3 0 1 0 3 2 5"/><path fill="#fff" d="M164 158h-1l-1 3 2 4 1-2v-4a3 3 0 0 0-1-1zm0 8h-1a9 9 0 0 1-2-5c0-2 1-3 2-3h3v5l-2 3m8 29-12-7-1-2v-14h1l12 7 1 2v13l-1 1"/><path fill="#fff" d="M159 172v14l1 2 12 7v-14l-1-2-12-7zm13 24-1-1-12-7a3 3 0 0 1-1-2v-14l1-1h1l12 7a3 3 0 0 1 1 3v13l-1 1a1 1 0 0 1 0 1"/><path fill="#fff" d="m167 181-3-2c-1-1-2 0-2 2l2 5v1h3c1 1 2 0 2-2 1-1-1-4-2-4"/><path fill="#87bfd1" d="m166 186 1 1h1l1-2-3-4-2-1-1-1-1 2c0 2 1 4 3 5v1h1zm2 2-1-1h-1v1l-2-1v-1a7 7 0 0 1-3-5l1-2h3l2 1 3 5-1 3h-1m-51 1-12-7-1-2v-13l1-1 12 7 1 2v13c0 1 0 2-1 1"/><path fill="#fff" d="M105 166v14l1 2 12 7v-14l-1-2-12-7zm13 24h-1l-12-7a3 3 0 0 1-1-3v-15a1 1 0 0 1 1 0l13 7a3 3 0 0 1 1 3v13l-1 2"/><path fill="#87bfd1" d="M113 179v-4l-3-3h-1v5l-1-1 3 6s0 1 0 0l3-2-1-1"/><path fill="#fff" d="m109 177 2 5 3-2-1-1v-4l-3-2v3l-1 1zm2 6a1 1 0 0 1 0-1l-3-6h1v-4h1l3 2 1 1v4l1 1-3 3h-1m6 27-12-7-1-2v-14l1-1 12 7 1 2v14l-1 1"/><path fill="#fff" d="M118 209v-14l-1-1-12-7v14l1 1zm0 1h-1l-12-7a3 3 0 0 1-1-2v-15h1l13 7a3 3 0 0 1 1 2v14l-1 1"/><path fill="#fff" d="M115 200c0 3-1 4-4 2a9 9 0 0 1-4-6c1-3 2-4 4-3a9 9 0 0 1 4 7"/><path fill="#87bfd1" d="m110 193-1 1-1 2a8 8 0 0 0 3 6h3l1-2c0-2-2-5-4-6l-1-1zm3 10h-2a9 9 0 0 1-4-7l1-3h3a9 9 0 0 1 5 7c0 2-1 3-2 3h-1"/><path fill="#87bfd1" d="M114 200c0 1-1 2-3 1a6 6 0 0 1-3-5c0-2 2-2 3-1 2 1 3 3 3 5"/><path fill="#fff" d="M110 195h-1v1a6 6 0 0 0 3 5h1l1-1a6 6 0 0 0-3-5l-1-1zm3 7a3 3 0 0 1-2 0 7 7 0 0 1-3-6l1-2h2c2 1 4 4 4 6l-1 2h-1"/><path fill="#fff" d="m113 200-2-2v-2h1v2l1 2m-9 38 69 40v-31l-16 4-8-4h-20l-14-7-11-2"/><path fill="#fff" d="m107 239 65 38v-30l-16 5v-1l-7-4h-20l-14-6zm66 39h-1l-68-40v-1h1l10 3 14 6h21l7 5 16-5v32"/><path fill="#fff" d="m116 233 12 7h4l4-2-1-6-7 1h-1l-5-6-7 1-9 9zm51 26-2-12h-7l-3-9-10-4-8 4 4 11h-1l-3-11-5 3h-4l-12-7-12 4v-1l11-10 7-1 6 6 7-1v1l2 5 8-4 10 4v1l3 8h8l2 13h-1"/><path fill="#fff" d="m176 264-15-9-4 2 4 6v10l8 4 4 6 3-2h1v-16l-1-2"/><path fill="#1a162c" d="m158 258 3 5v8l1 1 7 5 4 6 3-2v-17l-15-8zm15 26h-1l-4-6-7-5a3 3 0 0 1-1-2v-8l-4-5 1-1 4-2a1 1 0 0 1 1 0l14 8 1 2v17l-4 2"/><path fill="#1a162c" d="M168 275v2h1l4 7 3-3h1v-16l-4 2-5 8"/><path fill="#1a162c" d="m169 277 4 6 3-2v-15l-3 2-4 7zm4 7h-1l-4-6v-3l5-8 4-2v17l-4 2"/><path fill="#87bfd1" d="m172 284-14-9-1-1v-16l1-1 14 9 1 1v16l-1 1"/><path fill="#1a162c" d="M157 258v16l1 1 14 8v-17zm15 26-15-8-1-2v-16l1-1a1 1 0 0 1 1 0l14 8 1 2v17a1 1 0 0 1-1 0"/><path fill="#1a162c" d="M160 259v-1l3-2 1 1-4 2"/><path fill="#87bfd1" d="m174 281-1-1 3-2 1 1-4 2"/><path fill="#fff" d="M169 269c-2-3-4-2-4-1 0-1-2-4-4-4-2 1 1 6 1 6l3 6 3-3s3-1 1-4"/><path fill="#1a162c" d="M162 265h-1l1 4 3 6 3-2s2-1 0-4l-2-1h-1a1 1 0 0 1-1 0l-2-3zm3 12a1 1 0 0 1-1-1l-3-6s-2-3-1-5l1-1c2-1 3 2 4 3h2l2 1c2 4-1 6-1 6l-3 3"/><path fill="#1a162c" d="m165 273-2-4h1l2 3-1 1"/><path fill="#5687d0" d="M-338-359c8-2 11-17 4-31-6-15-18-25-27-22-7 3-10 14-6 27l-20 7c-2 0-2 3-1 5l1 1c1 3 3 4 4 4l20-7c7 12 17 19 25 16zm-5-10c-5 2-13-4-16-13-4-9-3-18 2-20 6-1 13 4 17 14 4 9 3 18-3 19z" color="#000"/><path fill="#fff" stroke="#1a162c" stroke-linecap="round" stroke-width="1.3" d="M308 202c6-2 8-12 4-22-5-11-13-17-19-15s-7 10-5 18l-14 5v5c1 1 2 3 3 2l14-4c5 8 12 13 17 11zm-3-7c-3 1-9-3-11-9-3-7-2-13 2-14 3-1 9 3 11 9 3 7 2 13-2 14z" color="#000"/><path fill="none" stroke="#000" stroke-width="1.3" d="M303 171a22 22 0 0 1 5 7"/></svg>
