<svg xmlns="http://www.w3.org/2000/svg" viewBox="0 0 160.98 28.07"><path fill="#fff" fill-rule="evenodd" d="m11.72 27.85-.43-2.27c-.57-.13-1.12-.3-1.65-.52l-1.68 1.55c-.99-.5-1.93-1.11-2.8-1.85l.73-2.09c-.44-.41-.85-.86-1.23-1.34l-2.14.53A14.1 14.1 0 0 1 .94 18.9l1.69-1.52c-.16-.55-.28-1.12-.36-1.7l-2.22-.63a14 14 0 0 1 .12-3.36l2.33-.5c.13-.53.3-1.04.5-1.54L1.32 7.9c.47-1 1.07-1.96 1.78-2.85l2.37.77c.36-.38.75-.74 1.16-1.06l-.54-2.43a13.8 13.8 0 0 1 3-1.5l1.58 1.82c.51-.15 1.04-.27 1.58-.35l.71-2.27c1.12-.07 2.25 0 3.36.2l.43 2.26c.56.13 1.11.3 1.64.52l1.68-1.55a14 14 0 0 1 2.8 1.86l-.72 2.08c.44.42.85.87 1.22 1.34l2.15-.53a14.4 14.4 0 0 1 1.58 2.97l-1.7 1.53c.17.54.29 1.1.37 1.68l2.21.64a14 14 0 0 1-.11 3.36l-2.34.5c-.13.53-.3 1.04-.5 1.54l1.69 1.74A13.9 13.9 0 0 1 24.95 23l-3.76-3.5-.64.55-1.07-1.08a7.37 7.37 0 1 0-.79.76l.88 1.17-.64.56 2.98 4.3a14 14 0 0 1-2.97 1.49l-1.57-1.83c-.52.15-1.04.27-1.58.35l-.72 2.27c-1.12.07-2.24 0-3.35-.2"/><path fill="#fff" d="M10.23 14.8a3.9 3.9 0 0 0 2.69 2.9c.65.2 1.35.21 1.97-.03-.6-.3-1.1-.56-1.56-.87a7.39 7.39 0 0 1-2.92-3.96c-.29.6-.32 1.3-.18 1.97m9.2-1.43A5.46 5.46 0 1 1 8.6 14.69a5.46 5.46 0 0 1 10.84-1.31"/><path fill="#fff" fill-opacity=".73" d="m113.1 5.47-1.28 2.21h4.63V19.4h2.49V7.68h4.03l1.3-2.21zm14.94 14.24a5.76 5.76 0 0 1-2.75-.65 5 5 0 0 1-2.63-4.69c0-1.03.22-1.95.67-2.77a4.83 4.83 0 0 1 1.92-1.9c.83-.46 1.77-.69 2.81-.69s1.97.23 2.77.7a4.7 4.7 0 0 1 1.9 1.9c.46.8.7 1.71.7 2.74 0 1.04-.24 1.97-.7 2.8a4.87 4.87 0 0 1-1.9 1.9 5.7 5.7 0 0 1-2.79.66zm-2.89-5.36c0 1 .27 1.8.8 2.4.52.59 1.22.89 2.09.89.87 0 1.56-.3 2.08-.87.53-.58.79-1.39.79-2.42 0-1-.26-1.8-.8-2.4a2.65 2.65 0 0 0-2.07-.88c-.87 0-1.57.3-2.1.9-.52.6-.79 1.4-.79 2.38zm15.22 5.36a5.76 5.76 0 0 1-2.75-.65 5 5 0 0 1-2.64-4.69c0-1.03.23-1.95.68-2.77a4.83 4.83 0 0 1 1.92-1.9 5.67 5.67 0 0 1 2.8-.69c1.05 0 1.97.23 2.78.7a4.7 4.7 0 0 1 1.9 1.9c.46.8.69 1.71.69 2.74 0 1.04-.23 1.97-.7 2.8a4.87 4.87 0 0 1-1.9 1.9c-.8.44-1.73.66-2.78.66zm-2.9-5.36c0 1 .27 1.8.8 2.4a2.7 2.7 0 0 0 2.1.89c.87 0 1.56-.3 2.07-.87.53-.58.8-1.39.8-2.42 0-1-.27-1.8-.8-2.4a2.65 2.65 0 0 0-2.07-.88c-.87 0-1.57.3-2.1.9-.53.6-.8 1.4-.8 2.38zm10.38 5.05V5.05h2.4V19.4Zm12.7-4.61a2.76 2.76 0 0 0-1.25-.95 1048.91 1048.91 0 0 1-2.22-.65 17.6 17.6 0 0 1-1.72-.5c-.27-.18-.41-.4-.41-.63 0-.32.16-.56.47-.74.36-.2.76-.31 1.21-.31.55 0 1.06.1 1.52.31.53.24.97.5 1.33.76l1.03-1.76c-.57-.37-1.17-.69-1.8-.95a5.47 5.47 0 0 0-2.14-.36 5.1 5.1 0 0 0-2.12.4c-.6.25-1.08.62-1.42 1.1a2.93 2.93 0 0 0-.48 1.67c0 .63.14 1.14.42 1.54.34.46.74.78 1.19.95.15.06.75.24 1.78.51l1.05.3c.58.16.97.29 1.16.4.24.11.36.33.36.65 0 .35-.17.63-.5.83-.34.21-.8.32-1.38.32a4.6 4.6 0 0 1-1.84-.38 6.57 6.57 0 0 1-1.64-1.03l-1.03 1.78a6.62 6.62 0 0 0 4.47 1.66c.91 0 1.7-.14 2.35-.43a3.32 3.32 0 0 0 1.5-1.17c.36-.5.54-1.08.54-1.74 0-.67-.14-1.2-.43-1.58z" font-family="Opentalk-750" font-size="19.79" style="line-height:1.25;-inkscape-font-specification:&quot;Opentalk-750, Normal&quot;"/><path fill="#fff" d="M39.04 5.5h-2.89l-4.94 13 2.11 1.22 1.27-3.42h5.9l1.28 3.42 2.2-1.26zm-1.5 3.1 2.13 5.49h-4.21zm18.34 4.65q0-1.97-1.01-3.06-.4-.46-1.07-.77-.8-.38-2.08-.38-.89 0-1.78.44-.89.41-1.72 1.66l-1.23-2.1-2.1 1.19 1.49 2.6v6.6h2.45v-5.58q0-.8.3-1.45.32-.65.87-.95.57-.37 1.27-.37 1.1 0 1.62.63.55.56.55 1.76v5.96h2.44zm2.67-1.62q-.65 1.33-.65 2.77 0 1.47.65 2.81.61 1.19 1.74 1.84 1.07.7 2.5.7 1.04 0 1.93-.44.71-.34 1.27-.9.55-.55.75-.86l1.29 2.2 2.11-1.17-1.5-2.58V9.36h-2.45v1.28q-.54-.7-1.47-1.2-.93-.4-1.94-.4-1.46 0-2.5.7-1.06.57-1.73 1.9zm1.9 2.77q0-1.42.75-2.33.38-.44.93-.66.53-.23 1.17-.23 1.32 0 2.11.89.78.83.78 2.33 0 1-.34 1.72-.36.74-1.01 1.13-.63.4-1.56.4-.8 0-1.55-.4-.67-.41-.93-1.13-.35-.8-.35-1.72zm11.49 5.03V5.08h2.42v14.35Zm4.41-10.51v2.1l3.4 8.29-1.55 3.88h2.47l4.95-12.17v-2.1h-2.46v2.1c-.7 1.84-1.44 3.72-2.16 5.58l-2.19-5.58v-2.1Zm18.84 5.9q-.36-.56-1.25-.95-.23-.1-1.06-.32l-1.15-.34q-1.59-.41-1.72-.49-.42-.28-.42-.63 0-.48.48-.73.53-.32 1.2-.32.83 0 1.53.32.79.35 1.32.75l1.03-1.76q-.85-.56-1.8-.95-.83-.36-2.14-.36-1.22 0-2.11.4-.91.37-1.43 1.1-.47.72-.47 1.67t.41 1.54q.52.7 1.19.95.24.1 1.78.51l1.05.3q.87.24 1.17.4.35.17.35.65 0 .53-.5.83-.5.32-1.38.32-.97 0-1.84-.38-.87-.38-1.64-1.03l-1.03 1.78q1.01.85 2 1.2 1.03.46 2.47.46 1.37 0 2.36-.43.99-.42 1.5-1.17.54-.75.54-1.74 0-1-.44-1.58zm2.47 4.61V9.36h2.44v10.07Zm1.23-11.4q-.65 0-1.1-.45-.46-.48-.46-1.11 0-.65.45-1.11.46-.47 1.11-.47.65 0 1.1.47.46.46.46 1.1 0 .64-.45 1.12-.46.45-1.11.45zm11.57 6.79q-.35-.56-1.24-.95-.24-.1-1.07-.32l-1.15-.34q-1.58-.41-1.72-.49-.42-.28-.42-.63 0-.48.48-.73.53-.32 1.2-.32.84 0 1.53.32.8.35 1.33.75l1.02-1.76q-.85-.56-1.8-.95-.83-.36-2.13-.36-1.23 0-2.12.4-.91.37-1.42 1.1-.48.72-.48 1.67t.42 1.54q.51.7 1.18.95.24.1 1.78.51l1.05.3q.87.24 1.17.4.36.17.36.65 0 .53-.5.83-.51.32-1.38.32-.97 0-1.84-.38-.87-.38-1.65-1.03l-1.02 1.78q1 .85 2 1.2 1.02.46 2.47.46 1.36 0 2.35-.43 1-.42 1.5-1.17.54-.75.54-1.74 0-1-.44-1.58z" font-family="Arcon" font-size="19.79" style="-inkscape-font-specification:&quot;Opentalk-750, Normal&quot;"/><path fill="#fff" d="M76.4 21.5h4.19v1.69h-4.2z"/></svg>
