<?xml version="1.0" encoding="UTF-8" standalone="no"?>
<!-- Created with Inkscape (http://www.inkscape.org/) -->

<svg
   version="1.1"
   id="svg9"
   width="160.98232"
   height="28.071886"
   viewBox="0 0 160.98232 28.071887"
   sodipodi:docname="logo2.svg"
   inkscape:version="1.2.1 (9c6d41e, 2022-07-14)"
   xmlns:inkscape="http://www.inkscape.org/namespaces/inkscape"
   xmlns:sodipodi="http://sodipodi.sourceforge.net/DTD/sodipodi-0.dtd"
   xmlns="http://www.w3.org/2000/svg"
   xmlns:svg="http://www.w3.org/2000/svg">
  <sodipodi:namedview
     id="namedview217"
     pagecolor="#ffffff"
     bordercolor="#666666"
     borderopacity="1.0"
     inkscape:showpageshadow="2"
     inkscape:pageopacity="0.0"
     inkscape:pagecheckerboard="0"
     inkscape:deskcolor="#d1d1d1"
     showgrid="false"
     showguides="true"
     inkscape:zoom="5.3544304"
     inkscape:cx="73.490544"
     inkscape:cy="25.492908"
     inkscape:window-width="1920"
     inkscape:window-height="1027"
     inkscape:window-x="1728"
     inkscape:window-y="25"
     inkscape:window-maximized="1"
     inkscape:current-layer="svg9" />
  <defs
     id="defs13">
    <clipPath
       clipPathUnits="userSpaceOnUse"
       id="clipPath367">
      <g
         id="g371"
         transform="translate(-1542.0851,-1059.6255)">
        <path
           d="M 0,2027.321 H 3000 V 0 H 0 Z"
           id="path369" />
      </g>
    </clipPath>
    <clipPath
       clipPathUnits="userSpaceOnUse"
       id="clipPath409">
      <g
         id="g413">
        <path
           d="M 0,2027.321 H 3000 V 0 H 0 Z"
           id="path411" />
      </g>
    </clipPath>
    <clipPath
       clipPathUnits="userSpaceOnUse"
       id="clipPath1036">
      <g
         id="g1042">
        <g
           id="g1040"
           transform="matrix(-1,0,0,1,3014.8522,-210)">
          <path
             d="M 0,2027.321 H 3000 V 0 H 0 Z"
             id="path1038" />
        </g>
      </g>
    </clipPath>
    <clipPath
       clipPathUnits="userSpaceOnUse"
       id="clipPath1053">
      <g
         id="g1059">
        <g
           id="g1057"
           transform="translate(-18,-210)">
          <path
             d="M 0,2027.321 H 3000 V 0 H 0 Z"
             id="path1055" />
        </g>
      </g>
    </clipPath>
    <clipPath
       clipPathUnits="userSpaceOnUse"
       id="clipPath1057">
      <g
         id="g1063">
        <g
           id="g1061"
           transform="matrix(0.0882324,0,0,0.0882324,758.25338,622.34539)">
          <path
             d="M 0,2027.321 H 3000 V 0 H 0 Z"
             id="path1059" />
        </g>
      </g>
    </clipPath>
    <clipPath
       clipPathUnits="userSpaceOnUse"
       id="clipPath1072">
      <g
         id="g1078">
        <g
           id="g1076"
           transform="matrix(0.0882324,0,0,0.0882324,760.50331,622.34539)">
          <path
             d="M 0,2027.321 H 3000 V 0 H 0 Z"
             id="path1074" />
        </g>
      </g>
    </clipPath>
    <clipPath
       clipPathUnits="userSpaceOnUse"
       id="clipPath1087">
      <g
         id="g1093">
        <g
           id="g1091"
           transform="matrix(0.0882324,0,0,0.0882324,758.25338,622.34539)">
          <path
             d="M 0,2027.321 H 3000 V 0 H 0 Z"
             id="path1089" />
        </g>
      </g>
    </clipPath>
    <clipPath
       clipPathUnits="userSpaceOnUse"
       id="clipPath1102">
      <g
         id="g1108">
        <g
           id="g1106"
           transform="matrix(0.0882324,0,0,0.0882324,760.50331,622.34539)">
          <path
             d="M 0,2027.321 H 3000 V 0 H 0 Z"
             id="path1104" />
        </g>
      </g>
    </clipPath>
    <clipPath
       clipPathUnits="userSpaceOnUse"
       id="clipPath1117">
      <g
         id="g1123">
        <g
           id="g1121"
           transform="matrix(0.0882324,0,0,0.0882324,759.31217,622.3454)">
          <path
             d="M 0,2027.321 H 3000 V 0 H 0 Z"
             id="path1119" />
        </g>
      </g>
    </clipPath>
    <clipPath
       clipPathUnits="userSpaceOnUse"
       id="clipPath1132">
      <g
         id="g1138">
        <g
           id="g1136"
           transform="matrix(0.0882324,0,0,0.0882324,759.31216,622.3454)">
          <path
             d="M 0,2027.321 H 3000 V 0 H 0 Z"
             id="path1134" />
        </g>
      </g>
    </clipPath>
    <clipPath
       clipPathUnits="userSpaceOnUse"
       id="clipPath1147">
      <g
         id="g1153">
        <g
           id="g1151"
           transform="matrix(0.0882324,0,0,0.0882324,760.50331,622.34539)">
          <path
             d="M 0,2027.321 H 3000 V 0 H 0 Z"
             id="path1149" />
        </g>
      </g>
    </clipPath>
    <clipPath
       clipPathUnits="userSpaceOnUse"
       id="clipPath1162">
      <g
         id="g1168">
        <g
           id="g1166"
           transform="matrix(0.0882324,0,0,0.0882324,758.25338,622.34539)">
          <path
             d="M 0,2027.321 H 3000 V 0 H 0 Z"
             id="path1164" />
        </g>
      </g>
    </clipPath>
    <clipPath
       clipPathUnits="userSpaceOnUse"
       id="clipPath1177">
      <g
         id="g1183">
        <g
           id="g1181"
           transform="matrix(0.0882324,0,0,0.0882324,760.50331,622.3454)">
          <path
             d="M 0,2027.321 H 3000 V 0 H 0 Z"
             id="path1179" />
        </g>
      </g>
    </clipPath>
    <clipPath
       clipPathUnits="userSpaceOnUse"
       id="clipPath1192">
      <g
         id="g1198">
        <g
           id="g1196"
           transform="matrix(0.0882324,0,0,0.0882324,758.25338,622.34539)">
          <path
             d="M 0,2027.321 H 3000 V 0 H 0 Z"
             id="path1194" />
        </g>
      </g>
    </clipPath>
    <clipPath
       clipPathUnits="userSpaceOnUse"
       id="clipPath1207">
      <g
         id="g1213">
        <g
           id="g1211"
           transform="matrix(0.0882324,0,0,0.0882324,760.5033,622.34539)">
          <path
             d="M 0,2027.321 H 3000 V 0 H 0 Z"
             id="path1209" />
        </g>
      </g>
    </clipPath>
    <clipPath
       clipPathUnits="userSpaceOnUse"
       id="clipPath1222">
      <g
         id="g1228">
        <g
           id="g1226"
           transform="matrix(0.0882324,0,0,0.0882324,758.25338,622.34539)">
          <path
             d="M 0,2027.321 H 3000 V 0 H 0 Z"
             id="path1224" />
        </g>
      </g>
    </clipPath>
    <clipPath
       clipPathUnits="userSpaceOnUse"
       id="clipPath1237">
      <g
         id="g1243">
        <g
           id="g1241"
           transform="matrix(0.0882324,0,0,0.0882324,758.25338,622.3454)">
          <path
             d="M 0,2027.321 H 3000 V 0 H 0 Z"
             id="path1239" />
        </g>
      </g>
    </clipPath>
  </defs>
  <path
     d="M 11.718506,27.848907 11.288297,25.581191 C 10.722567,25.448087 10.173351,25.274803 9.6432097,25.064517 L 7.9646354,26.608393 C 6.9732764,26.114867 6.0304362,25.495316 5.1560017,24.755631 L 5.8873988,22.672686 C 5.4452454,22.256158 5.0356138,21.806509 4.6620387,21.327547 L 2.5201443,21.861193 C 1.8656946,20.922436 1.3367518,19.92611 0.93665746,18.89388 L 2.6303754,17.366093 C 2.4701325,16.818198 2.3486782,16.254905 2.2687649,15.678713 L 0.05176147,15.04093 c -0.09709845,-1.12168 -0.05708089,-2.250358 0.1157767,-3.3605 L 2.5009785,11.182455 C 2.6316044,10.652994 2.7987945,10.138982 2.9973487,9.641271 L 1.3202674,7.9020305 C 1.7901285,6.8947966 2.3851409,5.9388745 3.1044007,5.0501596 l 2.3625699,0.765148 C 5.8304398,5.4375479 6.2182648,5.0842659 6.6282316,4.7575134 L 6.0867757,2.3335155 C 7.0376498,1.7008926 8.0454729,1.1967018 9.0913329,0.82181647 L 10.667223,2.6544685 c 0.514469,-0.1514268 1.042041,-0.270281 1.581841,-0.3511084 l 0.711602,-2.27612587 c 1.122807,-0.07038622 2.25045,-0.0040627 3.357545,0.19576105 l 0.428898,2.26772622 c 0.56632,0.1331549 1.115993,0.3067235 1.646591,0.5172727 l 1.678402,-1.5446068 c 0.991217,0.49377 1.934179,1.1131789 2.807069,1.8528741 l -0.730249,2.0834017 c 0.441818,0.4163858 0.851104,0.8657404 1.224588,1.3444683 l 2.143073,-0.5334321 c 0.654348,0.9385134 1.183402,1.9349812 1.583375,2.9672007 l -1.694642,1.5274729 c 0.160232,0.547875 0.281809,1.111188 0.361701,1.687492 l 2.217837,0.637975 c 0.09557,1.121792 0.05708,2.250602 -0.117412,3.361201 l -2.332557,0.49768 c -0.130646,0.529705 -0.297978,1.043961 -0.496685,1.541997 l 1.678188,1.738875 c -0.466387,0.999149 -1.058251,1.94789 -1.768938,2.831974 l -3.753211,-3.504391 -0.640261,0.552628 -1.069972,-1.075863 C 21.943918,16.25657 22.050473,12.069057 19.593181,9.2227117 16.93376,6.1423343 12.280753,5.8009662 9.2002335,8.4603974 6.119846,11.119808 5.7784678,15.772947 8.4380208,18.853335 c 2.6200232,3.034824 7.1738082,3.408958 10.2538202,0.876557 l 0.875938,1.172372 -0.640241,0.55274 2.979186,4.311029 c -0.939925,0.618617 -1.932818,1.115353 -2.963016,1.484073 l -1.574945,-1.832459 c -0.514236,0.151336 -1.041797,0.270169 -1.581232,0.350926 l -0.713044,2.276115 c -1.121355,0.07029 -2.248946,0.0041 -3.35597,-0.195811"
     style="display:inline;fill:#ffffff;fill-opacity:1;fill-rule:evenodd;stroke:none;stroke-width:0.0896154"
     id="path15169"
     clip-path="none" />
  <path
     d="m 10.234088,14.808493 c 0.144551,0.667187 0.48402,1.297961 0.953972,1.805767 0.47044,0.507208 1.074533,0.89289 1.729287,1.086741 0.652266,0.192816 1.354402,0.211586 1.975974,-0.03169 -0.59747,-0.290625 -1.104718,-0.556721 -1.560725,-0.873286 -0.4542,-0.313752 -0.85659,-0.65703 -1.216758,-1.04322 -0.359406,-0.386758 -0.672122,-0.813758 -0.951697,-1.290099 -0.282235,-0.478342 -0.509513,-1.004522 -0.753589,-1.621839 -0.28707,0.601909 -0.319897,1.302927 -0.176433,1.967676 m 9.204862,-1.431511 C 19.802887,16.371056 17.670703,19.093043 14.6768,19.456959 11.682785,19.820865 8.9606664,17.68868 8.5968926,14.694788 8.2329867,11.700763 10.365161,8.9786645 13.359054,8.6148703 c 2.994014,-0.3639059 5.716143,1.7682687 6.079927,4.7621617"
     style="fill:#ffffff;fill-opacity:1;fill-rule:nonzero;stroke:none;stroke-width:0.0896154"
     id="path15241" />
  <path
     id="path1974"
     style="font-size:19.7851px;line-height:1.25;font-family:Opentalk-750;-inkscape-font-specification:'Opentalk-750, Normal';fill:#ffffff;fill-opacity:0.728532;stroke-width:0.494628"
     d="m 113.10741,5.4687579 -1.29101,2.2148438 h 4.6289 V 19.396492 h 2.49414 V 7.6836017 h 4.03516 l 1.29101,-2.2148438 z" />
  <path
     d="m 128.04015,19.713632 c -1.01563,0 -1.93234,-0.217636 -2.75013,-0.652908 -0.81778,-0.448463 -1.46409,-1.074991 -1.93894,-1.879585 -0.46165,-0.804594 -0.69247,-1.741089 -0.69247,-2.809484 0,-1.028825 0.22423,-1.95213 0.67269,-2.769914 0.46165,-0.817785 1.10137,-1.450908 1.91915,-1.8993703 0.83097,-0.4616523 1.76747,-0.6924785 2.80949,-0.6924785 1.04201,0 1.96532,0.2308262 2.76991,0.6924785 0.81779,0.4484623 1.45091,1.0815853 1.89937,1.8993703 0.46165,0.804594 0.69248,1.721304 0.69248,2.750129 0,1.042015 -0.23083,1.971915 -0.69248,2.789699 -0.44846,0.804594 -1.08158,1.437717 -1.89937,1.899369 -0.80459,0.448463 -1.73449,0.672694 -2.7897,0.672694 z m -2.88862,-5.361762 c 0,1.002445 0.2638,1.800444 0.7914,2.393997 0.52761,0.593553 1.22668,0.890329 2.09722,0.890329 0.87055,0 1.56303,-0.290181 2.07744,-0.870544 0.5276,-0.580363 0.7914,-1.384957 0.7914,-2.413782 0,-1.002445 -0.2638,-1.800445 -0.7914,-2.393998 -0.52761,-0.593553 -1.22009,-0.890329 -2.07744,-0.890329 -0.87054,0 -1.56961,0.303371 -2.09722,0.910114 -0.5276,0.593553 -0.7914,1.384958 -0.7914,2.374213 z"
     style="font-size:19.7851px;line-height:1.25;font-family:Opentalk-750;-inkscape-font-specification:'Opentalk-750, Normal';fill:#ffffff;fill-opacity:0.728532;stroke-width:0.494628"
     id="path1976"
     sodipodi:nodetypes="sccsccsccsccsssscssscs" />
  <path
     d="m 140.36626,19.713632 c -1.01564,0 -1.93235,-0.217636 -2.75013,-0.652908 -0.81779,-0.448463 -1.4641,-1.074991 -1.93894,-1.879585 -0.46165,-0.804594 -0.69248,-1.741089 -0.69248,-2.809484 0,-1.028825 0.22423,-1.95213 0.67269,-2.769914 0.46165,-0.817785 1.10137,-1.450908 1.91916,-1.8993703 0.83097,-0.4616523 1.76747,-0.6924785 2.80948,-0.6924785 1.04201,0 1.96532,0.2308262 2.76991,0.6924785 0.81779,0.4484623 1.45091,1.0815853 1.89937,1.8993703 0.46165,0.804594 0.69248,1.721304 0.69248,2.750129 0,1.042015 -0.23083,1.971915 -0.69248,2.789699 -0.44846,0.804594 -1.08158,1.437717 -1.89937,1.899369 -0.80459,0.448463 -1.73449,0.672694 -2.78969,0.672694 z m -2.88863,-5.361762 c 0,1.002445 0.2638,1.800444 0.7914,2.393997 0.52761,0.593553 1.22668,0.890329 2.09723,0.890329 0.87054,0 1.56302,-0.290181 2.07743,-0.870544 0.5276,-0.580363 0.7914,-1.384957 0.7914,-2.413782 0,-1.002445 -0.2638,-1.800445 -0.7914,-2.393998 -0.5276,-0.593553 -1.22008,-0.890329 -2.07743,-0.890329 -0.87055,0 -1.56962,0.303371 -2.09723,0.910114 -0.5276,0.593553 -0.7914,1.384958 -0.7914,2.374213 z"
     style="font-size:19.7851px;line-height:1.25;font-family:Opentalk-750;-inkscape-font-specification:'Opentalk-750, Normal';fill:#ffffff;fill-opacity:0.728532;stroke-width:0.494628"
     id="path1978"
     sodipodi:nodetypes="sccsccsccsccsssscssscs" />
  <path
     d="M 147.84501,19.39707 V 5.052872 h 2.41378 V 19.39707 Z"
     style="font-size:19.7851px;line-height:1.25;font-family:Opentalk-750;-inkscape-font-specification:'Opentalk-750, Normal';fill:#ffffff;fill-opacity:0.728532;stroke-width:0.494628"
     id="path1980"
     sodipodi:nodetypes="ccccc" />
  <path
     d="m 160.54704,14.787142 c -0.23742,-0.369322 -0.65291,-0.685884 -1.24646,-0.949685 -0.15829,-0.06595 -0.51442,-0.171474 -1.0684,-0.316562 -0.54079,-0.158281 -0.92331,-0.270396 -1.14754,-0.336346 -1.0552,-0.276992 -1.62897,-0.441868 -1.7213,-0.494628 -0.27699,-0.184661 -0.41549,-0.395702 -0.41549,-0.633123 0,-0.316562 0.15828,-0.560578 0.47485,-0.732049 0.35613,-0.211041 0.75842,-0.316561 1.20689,-0.316561 0.55398,0 1.0618,0.10552 1.52345,0.316561 0.5276,0.237421 0.96947,0.488033 1.3256,0.751834 l 1.02883,-1.760874 c -0.56717,-0.369322 -1.16732,-0.6858837 -1.80045,-0.949685 -0.55398,-0.2374212 -1.26624,-0.3561318 -2.13679,-0.3561318 -0.81778,0 -1.52345,0.1319007 -2.117,0.395702 -0.60675,0.2506113 -1.08159,0.6199328 -1.42453,1.1079658 -0.31656,0.474843 -0.47484,1.028825 -0.47484,1.661948 0,0.633123 0.13849,1.147536 0.41548,1.543238 0.34295,0.461653 0.73865,0.778214 1.18711,0.949685 0.15828,0.06595 0.75183,0.237424 1.78066,0.514413 0.1319,0.03957 0.48144,0.138499 1.04861,0.296776 0.58036,0.158281 0.96947,0.290182 1.16732,0.395702 0.23742,0.118711 0.35613,0.336347 0.35613,0.652909 0,0.356131 -0.16488,0.633123 -0.49463,0.830974 -0.34294,0.211041 -0.80459,0.316562 -1.38495,0.316562 -0.64631,0 -1.25965,-0.125306 -1.84002,-0.375917 -0.58036,-0.250611 -1.12775,-0.593553 -1.64216,-1.028826 l -1.02883,1.780659 c 0.67269,0.567173 1.33879,0.969471 1.9983,1.206892 0.68588,0.303371 1.51026,0.455057 2.47314,0.455057 0.91011,0 1.69492,-0.145091 2.35442,-0.435272 0.65951,-0.276991 1.16073,-0.666098 1.50367,-1.167321 0.35613,-0.501223 0.5342,-1.081586 0.5342,-1.741089 0,-0.672693 -0.14509,-1.200296 -0.43527,-1.582808 z"
     style="font-size:19.7851px;line-height:1.25;font-family:Opentalk-750;-inkscape-font-specification:'Opentalk-750, Normal';fill:#ffffff;fill-opacity:0.728532;stroke-width:0.494628"
     id="path1982"
     sodipodi:nodetypes="cccccscsccccsccscccccscsscccsccsc" />
  <path
     d="m 39.039938,5.4986764 h -2.888625 l -4.946275,12.9988116 2.117006,1.226676 1.266246,-3.422822 h 5.89596 l 1.286032,3.422822 2.196146,-1.266246 z M 37.53627,8.6049373 39.673061,14.08541 h -4.214226 z"
     style="font-size:19.7851px;font-family:Arcon;-inkscape-font-specification:'Opentalk-750, Normal';fill:#ffffff;stroke-width:0.494628"
     id="path1265" />
  <path
     d="m 55.877005,13.254436 q 0,-1.97851 -1.00904,-3.066691 -0.395702,-0.455057 -1.068396,-0.7716186 -0.791404,-0.3759169 -2.077435,-0.3759169 -0.89033,0 -1.780659,0.4352722 -0.89033,0.4154872 -1.721304,1.6619483 l -1.226676,-2.0972205 -2.097221,1.1871065 1.483883,2.611633 v 6.588439 h 2.453352 v -5.579399 q 0,-0.791404 0.296777,-1.444312 0.316561,-0.652909 0.870544,-0.949685 0.573768,-0.375917 1.266247,-0.375917 1.107965,0 1.622378,0.633123 0.553983,0.553983 0.553983,1.760874 v 5.955316 h 2.433567 z"
     style="font-size:19.7851px;font-family:Arcon;-inkscape-font-specification:'Opentalk-750, Normal';fill:#ffffff;stroke-width:0.494628"
     id="path1267" />
  <path
     d="m 58.547976,11.632058 q -0.652908,1.325602 -0.652908,2.769914 0,1.464097 0.652908,2.809484 0.613338,1.187106 1.741089,1.840015 1.068396,0.692478 2.492923,0.692478 1.04861,0 1.93894,-0.435272 0.712263,-0.336347 1.266246,-0.89033 0.553983,-0.553982 0.751834,-0.870544 l 1.286032,2.196146 2.117005,-1.167321 -1.503667,-2.572063 V 9.3567711 h -2.453353 v 1.2860319 q -0.534197,-0.7122639 -1.464097,-1.2068915 -0.9299,-0.395702 -1.93894,-0.395702 -1.464098,0 -2.492923,0.6924785 -1.068395,0.573768 -1.741089,1.89937 z m 1.89937,2.769914 q 0,-1.424527 0.751834,-2.334642 0.375917,-0.435272 0.9299,-0.652908 0.534197,-0.237421 1.167321,-0.237421 1.325601,0 2.117005,0.890329 0.771619,0.830974 0.771619,2.334642 0,0.989255 -0.336346,1.721304 -0.356132,0.732048 -1.009041,1.127751 -0.633123,0.395702 -1.563023,0.395702 -0.791404,0 -1.543237,-0.395702 -0.672694,-0.415488 -0.9299,-1.127751 -0.356132,-0.811189 -0.356132,-1.721304 z"
     style="font-size:19.7851px;font-family:Arcon;-inkscape-font-specification:'Opentalk-750, Normal';fill:#ffffff;stroke-width:0.494628"
     id="path1269" />
  <path
     d="M 71.942463,19.427388 V 5.0831893 h 2.413782 V 19.427388 Z"
     style="font-size:19.7851px;font-family:Arcon;-inkscape-font-specification:'Opentalk-750, Normal';fill:#ffffff;stroke-width:0.494628"
     id="path1271" />
  <path
     id="path1273"
     style="font-size:19.7851px;font-family:Arcon;-inkscape-font-specification:'Opentalk-750, Normal';fill:#ffffff;stroke-width:0.494628"
     d="m 76.351552,8.9160235 v 2.1035155 l 3.40625,8.289063 -1.5625,3.878906 h 2.472657 L 85.621084,11.019539 V 8.9160235 h -2.462891 v 2.1035155 c -0.698055,1.841433 -1.435752,3.724319 -2.154297,5.578125 L 78.814443,11.019539 V 8.9160235 Z"
     sodipodi:nodetypes="ccccccccccccc" />
  <path
     d="m 95.189894,14.817459 q -0.356132,-0.553983 -1.246461,-0.949685 -0.237422,-0.09892 -1.068396,-0.316561 -0.811189,-0.237422 -1.147536,-0.336347 -1.582808,-0.415487 -1.721303,-0.494628 -0.415488,-0.276991 -0.415488,-0.633123 0,-0.474842 0.474843,-0.732049 0.534198,-0.316561 1.206891,-0.316561 0.830974,0 1.523453,0.316561 0.791404,0.356132 1.325602,0.751834 l 1.028825,-1.760874 Q 94.299564,9.7920434 93.34988,9.3963413 92.518905,9.0402095 91.213089,9.0402095 q -1.226677,0 -2.117006,0.395702 -0.910115,0.375917 -1.424527,1.1079655 -0.474843,0.712264 -0.474843,1.661949 0,0.949685 0.415487,1.543238 0.514413,0.692478 1.187106,0.949684 0.237422,0.09893 1.78066,0.514413 0.197851,0.05936 1.04861,0.296777 0.870544,0.237421 1.167321,0.395702 0.356132,0.178066 0.356132,0.652908 0,0.534198 -0.494628,0.830974 -0.514413,0.316562 -1.384957,0.316562 -0.96947,0 -1.840014,-0.375917 -0.870545,-0.375917 -1.642164,-1.028825 l -1.028825,1.780659 q 1.00904,0.850759 1.998295,1.206891 1.028825,0.455057 2.473138,0.455057 1.365172,0 2.354427,-0.435272 0.989255,-0.415487 1.503668,-1.167321 0.534197,-0.751834 0.534197,-1.741089 0,-1.00904 -0.435272,-1.582808 z"
     style="font-size:19.7851px;font-family:Arcon;-inkscape-font-specification:'Opentalk-750, Normal';fill:#ffffff;stroke-width:0.494628"
     id="path1275" />
  <path
     d="M 97.663016,19.427388 V 9.3567711 h 2.433564 V 19.427388 Z M 98.889692,8.0311694 q -0.652908,0 -1.107965,-0.4550574 -0.455058,-0.4748424 -0.455058,-1.1079656 0,-0.6529083 0.455058,-1.1079657 0.455057,-0.4748424 1.107965,-0.4748424 0.652909,0 1.107966,0.4748424 0.455062,0.4550574 0.455062,1.1079657 0,0.6331232 -0.455062,1.1079656 -0.455057,0.4550574 -1.107966,0.4550574 z"
     style="font-size:19.7851px;font-family:Arcon;-inkscape-font-specification:'Opentalk-750, Normal';fill:#ffffff;stroke-width:0.494628"
     id="path1277" />
  <path
     d="m 110.46398,14.817459 q -0.35614,-0.553983 -1.24647,-0.949685 -0.23742,-0.09892 -1.06839,-0.316561 -0.81119,-0.237422 -1.14754,-0.336347 -1.5828,-0.415487 -1.7213,-0.494628 -0.41549,-0.276991 -0.41549,-0.633123 0,-0.474842 0.47485,-0.732049 0.53419,-0.316561 1.20689,-0.316561 0.83097,0 1.52345,0.316561 0.7914,0.356132 1.3256,0.751834 l 1.02883,-1.760874 q -0.85076,-0.5539826 -1.80045,-0.9496847 -0.83097,-0.3561318 -2.13679,-0.3561318 -1.22668,0 -2.117,0.395702 -0.91012,0.375917 -1.42453,1.1079655 -0.47484,0.712264 -0.47484,1.661949 0,0.949685 0.41548,1.543238 0.51442,0.692478 1.18711,0.949684 0.23742,0.09893 1.78066,0.514413 0.19785,0.05936 1.04861,0.296777 0.87054,0.237421 1.16732,0.395702 0.35613,0.178066 0.35613,0.652908 0,0.534198 -0.49463,0.830974 -0.51441,0.316562 -1.38495,0.316562 -0.96947,0 -1.84002,-0.375917 -0.87054,-0.375917 -1.64216,-1.028825 l -1.02883,1.780659 q 1.00904,0.850759 1.9983,1.206891 1.02882,0.455057 2.47314,0.455057 1.36517,0 2.35442,-0.435272 0.98926,-0.415487 1.50367,-1.167321 0.5342,-0.751834 0.5342,-1.741089 0,-1.00904 -0.43527,-1.582808 z"
     style="font-size:19.7851px;font-family:Arcon;-inkscape-font-specification:'Opentalk-750, Normal';fill:#ffffff;stroke-width:0.494628"
     id="path1279" />
  <path
     id="rect1216"
     style="fill:#ffffff;stroke-width:14.9979;stroke-linecap:round;stop-color:#000000"
     d="m 76.392578,21.505873 h 4.193988 v 1.681635 h -4.193988 z" />
</svg>
