<?xml version="1.0" encoding="UTF-8" standalone="no"?>
<svg
   viewBox="0 0 28.033868 28.062817"
   version="1.1"
   id="svg28988"
   width="28.033867"
   height="28.062817"
   xmlns="http://www.w3.org/2000/svg"
   xmlns:svg="http://www.w3.org/2000/svg">
  <defs
     id="defs28992" />
  <g
     id="g29113"
     transform="translate(1.5052381e-4,-0.00359162)">
    <path
       fill="#ffffff"
       fill-rule="evenodd"
       d="M 11.72,27.85 11.29,25.58 C 10.72,25.45 10.17,25.28 9.64,25.06 L 7.96,26.61 C 6.97,26.11 6.03,25.5 5.16,24.76 L 5.89,22.67 C 5.45,22.26 5.04,21.81 4.66,21.33 L 2.52,21.86 A 14.1,14.1 0 0 1 0.94,18.9 L 2.63,17.38 C 2.47,16.83 2.35,16.26 2.27,15.68 L 0.05,15.05 A 14,14 0 0 1 0.17,11.69 L 2.5,11.19 C 2.63,10.66 2.8,10.15 3,9.65 L 1.32,7.9 C 1.79,6.9 2.39,5.94 3.1,5.05 L 5.47,5.82 C 5.83,5.44 6.22,5.08 6.63,4.76 L 6.09,2.33 a 13.8,13.8 0 0 1 3,-1.5 l 1.58,1.82 C 11.18,2.5 11.71,2.38 12.25,2.3 l 0.71,-2.27 c 1.12,-0.07 2.25,0 3.36,0.2 l 0.43,2.26 c 0.56,0.13 1.11,0.3 1.64,0.52 l 1.68,-1.55 a 14,14 0 0 1 2.8,1.86 L 22.15,5.4 c 0.44,0.42 0.85,0.87 1.22,1.34 l 2.15,-0.53 a 14.4,14.4 0 0 1 1.58,2.97 l -1.7,1.53 c 0.17,0.54 0.29,1.1 0.37,1.68 l 2.21,0.64 a 14,14 0 0 1 -0.11,3.36 l -2.34,0.5 c -0.13,0.53 -0.3,1.04 -0.5,1.54 l 1.69,1.74 A 13.9,13.9 0 0 1 24.95,23 l -3.76,-3.5 -0.64,0.55 -1.07,-1.08 a 7.37,7.37 0 1 0 -0.79,0.76 l 0.88,1.17 -0.64,0.56 2.98,4.3 a 14,14 0 0 1 -2.97,1.49 l -1.57,-1.83 c -0.52,0.15 -1.04,0.27 -1.58,0.35 l -0.72,2.27 c -1.12,0.07 -2.24,0 -3.35,-0.2"
       id="path28978" />
    <path
       fill="#ffffff"
       d="m 10.23,14.8 a 3.9,3.9 0 0 0 2.69,2.9 c 0.65,0.2 1.35,0.21 1.97,-0.03 -0.6,-0.3 -1.1,-0.56 -1.56,-0.87 a 7.39,7.39 0 0 1 -2.92,-3.96 c -0.29,0.6 -0.32,1.3 -0.18,1.97 m 9.2,-1.43 A 5.46,5.46 0 1 1 8.6,14.69 5.46,5.46 0 0 1 19.44,13.38"
       id="path28980" />
  </g>
</svg>
