<?xml version="1.0" encoding="UTF-8" standalone="no"?>
<!-- Created with Inkscape (http://www.inkscape.org/) -->

<svg
   version="1.1"
   id="svg9"
   width="135.79581"
   height="28.071878"
   viewBox="0 0 135.79581 28.071879"
   xmlns="http://www.w3.org/2000/svg"
   xmlns:svg="http://www.w3.org/2000/svg">
  <defs
     id="defs13">
    <clipPath
       clipPathUnits="userSpaceOnUse"
       id="clipPath367">
      <g
         id="g371"
         transform="translate(-1542.0851,-1059.6255)">
        <path
           d="M 0,2027.321 H 3000 V 0 H 0 Z"
           id="path369" />
      </g>
    </clipPath>
    <clipPath
       clipPathUnits="userSpaceOnUse"
       id="clipPath409">
      <g
         id="g413">
        <path
           d="M 0,2027.321 H 3000 V 0 H 0 Z"
           id="path411" />
      </g>
    </clipPath>
    <clipPath
       clipPathUnits="userSpaceOnUse"
       id="clipPath1036">
      <g
         id="g1042">
        <g
           id="g1040"
           transform="matrix(-1,0,0,1,3014.8522,-210)">
          <path
             d="M 0,2027.321 H 3000 V 0 H 0 Z"
             id="path1038" />
        </g>
      </g>
    </clipPath>
    <clipPath
       clipPathUnits="userSpaceOnUse"
       id="clipPath1053">
      <g
         id="g1059">
        <g
           id="g1057"
           transform="translate(-18,-210)">
          <path
             d="M 0,2027.321 H 3000 V 0 H 0 Z"
             id="path1055" />
        </g>
      </g>
    </clipPath>
    <clipPath
       clipPathUnits="userSpaceOnUse"
       id="clipPath1057">
      <g
         id="g1063">
        <g
           id="g1061"
           transform="matrix(0.0882324,0,0,0.0882324,758.25338,622.34539)">
          <path
             d="M 0,2027.321 H 3000 V 0 H 0 Z"
             id="path1059" />
        </g>
      </g>
    </clipPath>
    <clipPath
       clipPathUnits="userSpaceOnUse"
       id="clipPath1072">
      <g
         id="g1078">
        <g
           id="g1076"
           transform="matrix(0.0882324,0,0,0.0882324,760.50331,622.34539)">
          <path
             d="M 0,2027.321 H 3000 V 0 H 0 Z"
             id="path1074" />
        </g>
      </g>
    </clipPath>
    <clipPath
       clipPathUnits="userSpaceOnUse"
       id="clipPath1087">
      <g
         id="g1093">
        <g
           id="g1091"
           transform="matrix(0.0882324,0,0,0.0882324,758.25338,622.34539)">
          <path
             d="M 0,2027.321 H 3000 V 0 H 0 Z"
             id="path1089" />
        </g>
      </g>
    </clipPath>
    <clipPath
       clipPathUnits="userSpaceOnUse"
       id="clipPath1102">
      <g
         id="g1108">
        <g
           id="g1106"
           transform="matrix(0.0882324,0,0,0.0882324,760.50331,622.34539)">
          <path
             d="M 0,2027.321 H 3000 V 0 H 0 Z"
             id="path1104" />
        </g>
      </g>
    </clipPath>
    <clipPath
       clipPathUnits="userSpaceOnUse"
       id="clipPath1117">
      <g
         id="g1123">
        <g
           id="g1121"
           transform="matrix(0.0882324,0,0,0.0882324,759.31217,622.3454)">
          <path
             d="M 0,2027.321 H 3000 V 0 H 0 Z"
             id="path1119" />
        </g>
      </g>
    </clipPath>
    <clipPath
       clipPathUnits="userSpaceOnUse"
       id="clipPath1132">
      <g
         id="g1138">
        <g
           id="g1136"
           transform="matrix(0.0882324,0,0,0.0882324,759.31216,622.3454)">
          <path
             d="M 0,2027.321 H 3000 V 0 H 0 Z"
             id="path1134" />
        </g>
      </g>
    </clipPath>
    <clipPath
       clipPathUnits="userSpaceOnUse"
       id="clipPath1147">
      <g
         id="g1153">
        <g
           id="g1151"
           transform="matrix(0.0882324,0,0,0.0882324,760.50331,622.34539)">
          <path
             d="M 0,2027.321 H 3000 V 0 H 0 Z"
             id="path1149" />
        </g>
      </g>
    </clipPath>
    <clipPath
       clipPathUnits="userSpaceOnUse"
       id="clipPath1162">
      <g
         id="g1168">
        <g
           id="g1166"
           transform="matrix(0.0882324,0,0,0.0882324,758.25338,622.34539)">
          <path
             d="M 0,2027.321 H 3000 V 0 H 0 Z"
             id="path1164" />
        </g>
      </g>
    </clipPath>
    <clipPath
       clipPathUnits="userSpaceOnUse"
       id="clipPath1177">
      <g
         id="g1183">
        <g
           id="g1181"
           transform="matrix(0.0882324,0,0,0.0882324,760.50331,622.3454)">
          <path
             d="M 0,2027.321 H 3000 V 0 H 0 Z"
             id="path1179" />
        </g>
      </g>
    </clipPath>
    <clipPath
       clipPathUnits="userSpaceOnUse"
       id="clipPath1192">
      <g
         id="g1198">
        <g
           id="g1196"
           transform="matrix(0.0882324,0,0,0.0882324,758.25338,622.34539)">
          <path
             d="M 0,2027.321 H 3000 V 0 H 0 Z"
             id="path1194" />
        </g>
      </g>
    </clipPath>
    <clipPath
       clipPathUnits="userSpaceOnUse"
       id="clipPath1207">
      <g
         id="g1213">
        <g
           id="g1211"
           transform="matrix(0.0882324,0,0,0.0882324,760.5033,622.34539)">
          <path
             d="M 0,2027.321 H 3000 V 0 H 0 Z"
             id="path1209" />
        </g>
      </g>
    </clipPath>
    <clipPath
       clipPathUnits="userSpaceOnUse"
       id="clipPath1222">
      <g
         id="g1228">
        <g
           id="g1226"
           transform="matrix(0.0882324,0,0,0.0882324,758.25338,622.34539)">
          <path
             d="M 0,2027.321 H 3000 V 0 H 0 Z"
             id="path1224" />
        </g>
      </g>
    </clipPath>
    <clipPath
       clipPathUnits="userSpaceOnUse"
       id="clipPath1237">
      <g
         id="g1243">
        <g
           id="g1241"
           transform="matrix(0.0882324,0,0,0.0882324,758.25338,622.3454)">
          <path
             d="M 0,2027.321 H 3000 V 0 H 0 Z"
             id="path1239" />
        </g>
      </g>
    </clipPath>
  </defs>
  <g
     id="g17"
     transform="matrix(1.3333333,0,0,-1.3333333,-1126.1734,961.89829)">
    <path
       d="m 873.04532,703.80749 -0.54942,3.33878 h -2.66257 l -0.48602,-3.33878 h -1.45807 l 2.04975,13.1438 h 2.30333 l 2.26108,-13.1438 z m -3.04293,4.58554 h 2.30333 l -1.22563,7.54395 z"
       style="font-weight:300;font-size:21.1315px;line-height:1.25;font-family:Teko;-inkscape-font-specification:'Teko, Light';opacity:1;fill:#ffffff;stroke-width:0.528287"
       id="path12669" />
    <path
       d="m 878.39156,714.05627 h 0.84526 q 1.66939,0 1.66939,-1.66939 v -8.57939 h -1.45808 v 8.34695 q 0,0.4015 -0.12678,0.52828 -0.10566,0.12679 -0.52829,0.12679 h -0.84526 q -0.38037,0 -0.54942,-0.16905 -0.16905,-0.16905 -0.16905,-0.59168 v -8.24129 h -1.45808 v 10.24878 h 1.45808 v -0.69734 q 0.23244,0.69734 1.16223,0.69734 z"
       style="font-weight:300;font-size:21.1315px;line-height:1.25;font-family:Teko;-inkscape-font-specification:'Teko, Light';opacity:1;fill:#ffffff;stroke-width:0.528287"
       id="path12672" />
    <path
       d="m 886.37923,714.05627 h 1.45807 v -10.24878 h -1.45807 v 0.69734 q -0.23245,-0.69734 -1.16223,-0.69734 h -0.84526 q -1.66939,0 -1.66939,1.66939 v 6.91 q 0,1.66939 1.66939,1.66939 h 0.84526 q 0.92978,0 1.16223,-0.69734 z m -1.56373,-9.00202 h 0.84526 q 0.38037,0 0.54942,0.16905 0.16905,0.16906 0.16905,0.59169 v 6.23379 q 0,0.42263 -0.16905,0.59168 -0.16905,0.16905 -0.54942,0.16905 h -0.84526 q -0.42263,0 -0.54942,-0.12679 -0.10566,-0.12678 -0.10566,-0.52828 v -6.44511 q 0,-0.42263 0.10566,-0.54942 0.12679,-0.10566 0.54942,-0.10566 z"
       style="font-weight:300;font-size:21.1315px;line-height:1.25;font-family:Teko;-inkscape-font-specification:'Teko, Light';opacity:1;fill:#ffffff;stroke-width:0.528287"
       id="path12675" />
    <path
       d="m 891.19719,703.80749 h -1.45807 v 14.13698 h 1.45807 z"
       style="font-weight:300;font-size:21.1315px;line-height:1.25;font-family:Teko;-inkscape-font-specification:'Teko, Light';opacity:1;fill:#ffffff;stroke-width:0.528287"
       id="path12678" />
    <path
       d="m 894.40915,700.82795 h -1.1411 v 1.24676 h 0.69734 q 0.90865,0 1.05657,0.65508 l 0.25358,1.0777 h -0.95092 l -1.96522,10.24878 h 1.45807 l 1.64826,-9.23446 1.5426,9.23446 h 1.45807 l -2.04976,-11.55893 q -0.31697,-1.66939 -2.00749,-1.66939 z"
       style="font-weight:300;font-size:21.1315px;line-height:1.25;font-family:Teko;-inkscape-font-specification:'Teko, Light';opacity:1;fill:#ffffff;stroke-width:0.528287"
       id="path12681" />
    <path
       d="m 902.77718,705.6882 v 1.9441 q 0,0.40149 -0.12679,0.52828 -0.12678,0.12679 -0.52828,0.12679 h -1.03545 q -1.66938,0 -1.66938,1.66939 v 2.43012 q 0,1.66939 1.66938,1.66939 h 1.43695 q 1.66938,0 1.66938,-1.66939 v -1.03544 h -1.43694 v 0.82413 q 0,0.42263 -0.12679,0.52829 -0.10565,0.12678 -0.52828,0.12678 h -0.59169 q -0.42263,0 -0.54942,-0.12678 -0.10565,-0.10566 -0.10565,-0.52829 v -2.00749 q 0,-0.4015 0.10565,-0.52829 0.12679,-0.12679 0.54942,-0.12679 h 1.03545 q 1.66939,0 1.66939,-1.66939 v -2.36673 q 0,-1.66939 -1.66939,-1.66939 h -1.41581 q -1.66939,0 -1.66939,1.66939 v 1.03545 h 1.43694 v -0.82413 q 0,-0.4015 0.10566,-0.52829 0.12679,-0.12679 0.54942,-0.12679 h 0.57055 q 0.4015,0 0.52828,0.12679 0.12679,0.12679 0.12679,0.52829 z"
       style="font-weight:300;font-size:21.1315px;line-height:1.25;font-family:Teko;-inkscape-font-specification:'Teko, Light';opacity:1;fill:#ffffff;fill-opacity:1;stroke-width:0.528287"
       id="path12684" />
    <path
       d="m 905.86236,716.25395 v 1.71165 h 1.5426 v -1.71165 z m 1.50034,-12.44646 h -1.45808 v 10.24878 h 1.45808 z"
       style="font-weight:300;font-size:21.1315px;line-height:1.25;font-family:Teko;-inkscape-font-specification:'Teko, Light';opacity:1;fill:#ffffff;fill-opacity:1;stroke-width:0.528287"
       id="path12687" />
    <path
       d="m 912.4131,705.6882 v 1.9441 q 0,0.40149 -0.12679,0.52828 -0.12679,0.12679 -0.52829,0.12679 h -1.03544 q -1.66939,0 -1.66939,1.66939 v 2.43012 q 0,1.66939 1.66939,1.66939 h 1.43694 q 1.66939,0 1.66939,-1.66939 v -1.03544 h -1.43695 v 0.82413 q 0,0.42263 -0.12678,0.52829 -0.10566,0.12678 -0.52829,0.12678 h -0.59168 q -0.42263,0 -0.54942,-0.12678 -0.10566,-0.10566 -0.10566,-0.52829 v -2.00749 q 0,-0.4015 0.10566,-0.52829 0.12679,-0.12679 0.54942,-0.12679 h 1.03544 q 1.66939,0 1.66939,-1.66939 v -2.36673 q 0,-1.66939 -1.66939,-1.66939 h -1.41581 q -1.66939,0 -1.66939,1.66939 v 1.03545 h 1.43694 v -0.82413 q 0,-0.4015 0.10566,-0.52829 0.12679,-0.12679 0.54942,-0.12679 h 0.57055 q 0.4015,0 0.52829,0.12679 0.12679,0.12679 0.12679,0.52829 z"
       style="font-weight:300;font-size:21.1315px;line-height:1.25;font-family:Teko;-inkscape-font-specification:'Teko, Light';opacity:1;fill:#ffffff;fill-opacity:1;stroke-width:0.528287"
       id="path12690" />
    <path
       d="m 923.10559,716.95129 v -1.24676 h -2.11315 v -11.89704 h -1.43694 v 11.89704 h -2.11315 v 1.24676 z"
       style="font-weight:300;font-size:21.1315px;line-height:1.25;font-family:Teko;-inkscape-font-specification:'Teko, Light';opacity:1;fill:#ffffff;fill-opacity:1;stroke-width:0.528287"
       id="path12693" />
    <path
       d="m 925.7259,714.05627 h 2.15541 q 1.66939,0 1.66939,-1.66939 v -6.91 q 0,-1.66939 -1.66939,-1.66939 h -2.15541 q -1.66939,0 -1.66939,1.66939 v 6.91 q 0,1.66939 1.66939,1.66939 z m 2.38786,-8.34694 v 6.44511 q 0,0.4015 -0.12679,0.52828 -0.12679,0.12679 -0.52829,0.12679 h -1.31015 q -0.4015,0 -0.52829,-0.12679 -0.12679,-0.12678 -0.12679,-0.52828 v -6.44511 q 0,-0.42263 0.12679,-0.54942 0.12679,-0.10566 0.52829,-0.10566 h 1.31015 q 0.4015,0 0.52829,0.10566 0.12679,0.12679 0.12679,0.54942 z"
       style="font-weight:300;font-size:21.1315px;line-height:1.25;font-family:Teko;-inkscape-font-specification:'Teko, Light';opacity:1;fill:#ffffff;fill-opacity:1;stroke-width:0.528287"
       id="path12696" />
    <path
       d="m 932.91057,714.05627 h 2.15541 q 1.66939,0 1.66939,-1.66939 v -6.91 q 0,-1.66939 -1.66939,-1.66939 h -2.15541 q -1.66939,0 -1.66939,1.66939 v 6.91 q 0,1.66939 1.66939,1.66939 z m 2.38786,-8.34694 v 6.44511 q 0,0.4015 -0.12679,0.52828 -0.12679,0.12679 -0.52829,0.12679 h -1.31015 q -0.4015,0 -0.52829,-0.12679 -0.12679,-0.12678 -0.12679,-0.52828 v -6.44511 q 0,-0.42263 0.12679,-0.54942 0.12679,-0.10566 0.52829,-0.10566 h 1.31015 q 0.4015,0 0.52829,0.10566 0.12679,0.12679 0.12679,0.54942 z"
       style="font-weight:300;font-size:21.1315px;line-height:1.25;font-family:Teko;-inkscape-font-specification:'Teko, Light';opacity:1;fill:#ffffff;fill-opacity:1;stroke-width:0.528287"
       id="path12699" />
    <path
       d="m 939.98959,703.80749 h -1.45808 v 14.13698 h 1.45808 z"
       style="font-weight:300;font-size:21.1315px;line-height:1.25;font-family:Teko;-inkscape-font-specification:'Teko, Light';opacity:1;fill:#ffffff;fill-opacity:1;stroke-width:0.528287"
       id="path12702" />
    <path
       d="m 945.03998,705.6882 v 1.9441 q 0,0.40149 -0.12679,0.52828 -0.12678,0.12679 -0.52828,0.12679 h -1.03545 q -1.66938,0 -1.66938,1.66939 v 2.43012 q 0,1.66939 1.66938,1.66939 h 1.43695 q 1.66938,0 1.66938,-1.66939 v -1.03544 h -1.43694 v 0.82413 q 0,0.42263 -0.12679,0.52829 -0.10565,0.12678 -0.52828,0.12678 h -0.59169 q -0.42263,0 -0.54942,-0.12678 -0.10565,-0.10566 -0.10565,-0.52829 v -2.00749 q 0,-0.4015 0.10565,-0.52829 0.12679,-0.12679 0.54942,-0.12679 h 1.03545 q 1.66939,0 1.66939,-1.66939 v -2.36673 q 0,-1.66939 -1.66939,-1.66939 h -1.41581 q -1.66939,0 -1.66939,1.66939 v 1.03545 h 1.43694 v -0.82413 q 0,-0.4015 0.10566,-0.52829 0.12679,-0.12679 0.54942,-0.12679 h 0.57055 q 0.4015,0 0.52828,0.12679 0.12679,0.12679 0.12679,0.52829 z"
       style="font-weight:300;font-size:21.1315px;line-height:1.25;font-family:Teko;-inkscape-font-specification:'Teko, Light';opacity:1;fill:#ffffff;fill-opacity:1;stroke-width:0.528287"
       id="path12705" />
    <g
       id="g15258"
       transform="matrix(0.76175566,0,0,0.76175566,209.4697,197.9611)">
      <path
         d="m 845.34882,659.76005 -0.42357,2.23272 c -0.557,0.13105 -1.09774,0.30166 -1.6197,0.5087 l -1.65267,-1.52005 c -0.97606,0.48591 -1.90435,1.0959 -2.76529,1.82417 l 0.72011,2.0508 c -0.43533,0.4101 -0.83864,0.85281 -1.20645,1.32438 l -2.10884,-0.52541 c -0.64435,0.92427 -1.16513,1.90522 -1.55905,2.92152 l 1.66758,1.50421 c -0.15777,0.53944 -0.27735,1.09404 -0.35603,1.66134 l -2.18279,0.62794 c -0.0956,1.10437 -0.0562,2.21563 0.11399,3.30864 l 2.29743,0.49029 c 0.12861,0.52129 0.29322,1.02737 0.48871,1.5174 l -1.6512,1.7124 c 0.46261,0.99169 1.04844,1.93286 1.7566,2.80786 l 2.32611,-0.75334 c 0.35786,0.37193 0.7397,0.71976 1.14334,1.04147 l -0.5331,2.38659 c 0.9362,0.62286 1.92847,1.11927 2.95819,1.48837 l 1.55157,-1.80437 c 0.50653,0.14909 1.02596,0.26611 1.55743,0.34569 l 0.70062,2.241 c 1.10548,0.0693 2.21572,0.004 3.30573,-0.19274 l 0.42228,-2.23273 c 0.55758,-0.1311 1.09877,-0.30199 1.62118,-0.50929 l 1.6525,1.52077 c 0.97592,-0.48615 1.90433,-1.096 2.76375,-1.82428 l -0.71898,-2.05125 c 0.435,-0.40996 0.83797,-0.85238 1.20569,-1.32372 l 2.11,0.5252 c 0.64425,-0.92403 1.16514,-1.90512 1.55894,-2.92141 l -1.66849,-1.5039 c 0.15776,-0.53942 0.27746,-1.09404 0.35612,-1.66145 l 2.18361,-0.62813 c 0.0941,-1.10448 0.0562,-2.21587 -0.1156,-3.30933 l -2.29656,-0.49 c -0.12863,-0.52153 -0.29338,-1.02785 -0.48902,-1.5182 l 1.65229,-1.71204 c -0.45919,-0.98373 -1.04192,-1.91783 -1.74164,-2.78827 l -3.69529,3.45031 -0.63038,-0.5441 -1.05346,1.05926 c 2.42195,2.67642 2.52686,6.79931 0.10749,9.60173 -2.61838,3.03284 -7.19958,3.36894 -10.23256,0.75055 -3.03285,-2.61837 -3.36896,-7.1997 -0.75045,-10.23255 2.57959,-2.98799 7.0631,-3.35635 10.09558,-0.86303 l 0.86242,-1.15428 -0.63036,-0.54421 2.93321,-4.2445 c -0.92542,-0.60907 -1.90299,-1.09814 -2.91729,-1.46117 l -1.55064,1.80418 c -0.5063,-0.149 -1.02572,-0.266 -1.55683,-0.34551 l -0.70204,-2.24099 c -1.10405,-0.0692 -2.21424,-0.004 -3.30418,0.19279"
         style="display:inline;fill:#ffffff;fill-opacity:1;fill-rule:evenodd;stroke:none;stroke-width:0.0882324"
         id="path15169"
         clip-path="none" />
      <path
         d="m 843.88731,672.59922 c 0.14232,-0.65689 0.47655,-1.27793 0.93925,-1.7779 0.46318,-0.49938 1.05795,-0.87911 1.7026,-1.06997 0.6422,-0.18984 1.3335,-0.20832 1.94548,0.0312 -0.58825,0.28614 -1.08767,0.54813 -1.53664,0.85981 -0.44719,0.30891 -0.84337,0.64689 -1.19798,1.02712 -0.35386,0.38079 -0.66175,0.8012 -0.93701,1.27019 -0.27788,0.47096 -0.50165,0.98902 -0.74196,1.59681 -0.28264,-0.59262 -0.31496,-1.28282 -0.17371,-1.93731 m 9.06281,1.40942 c 0.35829,-2.94782 -1.74099,-5.6278 -4.68869,-5.9861 -2.94781,-0.35829 -5.62792,1.74099 -5.98608,4.68868 -0.35829,2.94782 1.74098,5.62791 4.68867,5.98609 2.94781,0.35829 5.62793,-1.74098 5.9861,-4.68867"
         style="fill:#ffffff;fill-opacity:1;fill-rule:nonzero;stroke:none;stroke-width:0.0882324"
         id="path15241" />
    </g>
  </g>
</svg>
