<svg xmlns="http://www.w3.org/2000/svg" viewBox="0 0 161 28"><path fill="#fff" fill-rule="evenodd" d="m12 28-1-2-1-1-2 2-3-2 1-2-1-2-2 1-2-3 2-2-1-1-2-1v-3l3-1v-1L1 8l2-3 2 1 2-1-1-3 3-1 2 2 1-1 1-2h3l1 2 1 1 2-2 3 2-1 2 1 2 3-1 1 3-2 2 1 1 2 1v3l-2 1-1 1 2 2-2 3-4-4v1l-2-1a7 7 0 1 0 0 1l1 1h-1l3 5-3 1-2-2-1 1-1 2h-3"/><path fill="#fff" d="M10 15a4 4 0 0 0 3 3h2l-2-1a7 7 0 0 1-3-4v2m9-2a5 5 0 1 1-10 2 5 5 0 0 1 10-2"/><path fill="#fff" fill-opacity=".7" d="m113 5-1 3h4v11h3V8h4l1-3zm15 15-3-1a5 5 0 0 1-2-5v-2l2-2 3-1 3 1 2 2v5l-2 2-3 1zm-3-6 1 3 2 1 2-1 1-3-1-2-2-1-2 1-1 2zm15 6-2-1a5 5 0 0 1-3-5l1-2 2-2 2-1 3 1 2 2 1 2-1 3-2 2-3 1zm-3-6 1 3 2 1 2-1 1-3-1-2-2-1-2 1-1 2zm11 5V5h2v14Zm13-4-2-1h-1a1049 1049 0 0 1 1-2l2-2-2-1h-5l-1 2v3l1 1a26 26 0 0 0 3 0l1 1 1 1h-1l-1 1-2-1-2-1-1 2a7 7 0 0 0 5 2l2-1 1-1 1-2v-1z" font-family="Opentalk-750" font-size="19.8" style="line-height:1.25;-inkscape-font-specification:&quot;Opentalk-750, Normal&quot;"/><path fill="#fff" d="M39 5h-3l-5 13 2 2 2-4h5l2 4 2-2zm-1 4 2 5h-5zm18 4-1-3-1-1h-4l-2 2-1-2-2 1 1 3v6h3v-7l1-1h1l2 1v7h3zm3-1-1 2 1 3 1 2 3 1 2-1 1-1h1l1 2 2-1-1-3V9h-3v2l-1-2h-2l-3 1-1 2zm1 2 1-2 1-1h1l2 1 1 2v2l-1 1-2 1-1-1-1-1-1-2zm12 5V5h2v14Zm4-10v2l4 8-2 4h3l5-12V9h-3v2l-2 6-2-6V9Zm19 6-1-1h-1l-1-1h-2v-2h3l1 1 1-2-2-1h-4l-1 2-1 1 1 2 1 1h2l1 1h1v1l-2 1-2-1-1-1-1 2 2 1 2 1 3-1 1-1 1-2-1-1zm3 4V9h2v10Zm1-11h-1l-1-2 1-1h2v3h-1zm11 7-1-1h-1l-1-1h-2v-2h3l1 1 1-2-1-1h-5l-1 2-1 1 1 2 1 1h2l1 1h1v1l-1 1-2-1-2-1-1 2 2 1 3 1 2-1 1-1 1-2-1-1z" font-family="Arcon" font-size="19.8" style="-inkscape-font-specification:&quot;Opentalk-750, Normal&quot;"/><path fill="#fff" d="M76 22h5v1h-5z"/></svg>
