<svg xmlns="http://www.w3.org/2000/svg" viewBox="0 0 136 28"><g fill="#fff"><path d="m873 704-1 3h-2l-1-3h-1l2 13h2l3-13zm-3 4h2l-1 8zm8 6h1q2 0 2-2v-8h-2v9h-2v-9h-1v10h1v-1l1 1zm8 0h2v-10h-2v1l-1-1h-1l-1 1v7l1 2h1l1-1zm-1-9h1v8h-2v-8h1zm6-1h-1v14h1zm3-3h-1v1h1l1 1v1h-1l-2 10h2l1-9 2 9h1l-2-12-2-1zm9 5v2h-2q-2 0-2 2v2q0 2 2 2h2l1-2v-1h-1v2h-2v-3h2l1-2v-3l-1-1h-2l-2 1v2h2v-2h2v1zm3 10v2h1v-2zm1-12h-1v10h1zm5 2v2h-1q-2 0-2 2v2q0 2 2 2h1q2 0 2-2v-1h-2v2h-1l-1-1v-2h2q2 0 2-2v-3l-2-1h-1l-2 1v2h2v-2h1v1zm11 11v-1h-2v-12h-1v12h-3v1zm3-3h2q2 0 2-2v-7l-2-1h-2l-2 1v7q0 2 2 2zm2-8v7h-2l-1-1v-6l1-1h2v1zm5 8h2q2 0 2-2v-7l-2-1h-2l-2 1v7q0 2 2 2zm2-8v7h-2v-8h2v1zm5-2h-1v14h1zm5 2v2h-2l-1 2v2l1 2h2l1-2v-1h-1v2h-2v-3h2l1-2v-3l-1-1h-2l-1 1v2h1v-2h2v1z" font-family="Teko" font-size="21.1" font-weight="300" style="line-height:1.25;-inkscape-font-specification:&quot;Teko, Light&quot;" transform="matrix(1 0 0 -1 -1126 962)"/><path fill-rule="evenodd" d="m12 28-1-2-1-1-2 2-3-2 1-2-1-2-2 1-2-3 2-2-1-1-2-1v-3l3-1v-1L1 8l2-3 2 1 2-1-1-3 3-1 2 2 1-1 1-2h3l1 2 1 1 2-2 3 2-1 2 1 2 3-1 1 3-2 2 1 1 2 1v3l-2 1-1 1 2 2-2 3-4-4v1l-2-1a7 7 0 1 0 0 1l1 1h-1l3 5-3 1-2-2-1 1-1 2h-3"/><path d="M10 15a4 4 0 0 0 3 3h2l-2-1a7 7 0 0 1-3-4v2m9-2a5 5 0 1 1-10 2 5 5 0 0 1 10-2"/></g></svg>
