<?xml version="1.0" encoding="UTF-8" standalone="no"?>
<!-- Created with Inkscape (http://www.inkscape.org/) -->

<svg
   version="1.1"
   id="svg9"
   width="155.72293"
   height="27.636549"
   viewBox="0 0 155.72293 27.63655"
   sodipodi:docname="logo.svg"
   inkscape:version="1.2.1 (9c6d41e, 2022-07-14)"
   xmlns:inkscape="http://www.inkscape.org/namespaces/inkscape"
   xmlns:sodipodi="http://sodipodi.sourceforge.net/DTD/sodipodi-0.dtd"
   xmlns="http://www.w3.org/2000/svg"
   xmlns:svg="http://www.w3.org/2000/svg">
  <defs
     id="defs13">
    <clipPath
       clipPathUnits="userSpaceOnUse"
       id="clipPath343">
      <g
         id="g347"
         transform="translate(-2092.6289,-980.7027)">
        <path
           d="M 0,2027.321 H 3000 V 0 H 0 Z"
           id="path345" />
      </g>
    </clipPath>
    <clipPath
       clipPathUnits="userSpaceOnUse"
       id="clipPath349">
      <g
         id="g353"
         transform="translate(-1672.5453,-1014.7061)">
        <path
           d="M 0,2027.321 H 3000 V 0 H 0 Z"
           id="path351" />
      </g>
    </clipPath>
    <clipPath
       clipPathUnits="userSpaceOnUse"
       id="clipPath355">
      <g
         id="g359"
         transform="translate(-1569.5037,-1014.7061)">
        <path
           d="M 0,2027.321 H 3000 V 0 H 0 Z"
           id="path357" />
      </g>
    </clipPath>
    <clipPath
       clipPathUnits="userSpaceOnUse"
       id="clipPath361">
      <g
         id="g365"
         transform="translate(-1151.6729,-1059.6255)">
        <path
           d="M 0,2027.321 H 3000 V 0 H 0 Z"
           id="path363" />
      </g>
    </clipPath>
    <clipPath
       clipPathUnits="userSpaceOnUse"
       id="clipPath367">
      <g
         id="g371"
         transform="translate(-1542.0851,-1059.6255)">
        <path
           d="M 0,2027.321 H 3000 V 0 H 0 Z"
           id="path369" />
      </g>
    </clipPath>
    <clipPath
       clipPathUnits="userSpaceOnUse"
       id="clipPath373">
      <g
         id="g377"
         transform="translate(-1493.3746,-1059.6255)">
        <path
           d="M 0,2027.321 H 3000 V 0 H 0 Z"
           id="path375" />
      </g>
    </clipPath>
    <clipPath
       clipPathUnits="userSpaceOnUse"
       id="clipPath379">
      <g
         id="g383"
         transform="translate(-1360.1294,-1059.6255)">
        <path
           d="M 0,2027.321 H 3000 V 0 H 0 Z"
           id="path381" />
      </g>
    </clipPath>
    <clipPath
       clipPathUnits="userSpaceOnUse"
       id="clipPath385">
      <g
         id="g389"
         transform="translate(-2082.3835,-963.0488)">
        <path
           d="M 0,2027.321 H 3000 V 0 H 0 Z"
           id="path387" />
      </g>
    </clipPath>
    <clipPath
       clipPathUnits="userSpaceOnUse"
       id="clipPath391">
      <g
         id="g395"
         transform="translate(-1912.8713,-1007.7025)">
        <path
           d="M 0,2027.321 H 3000 V 0 H 0 Z"
           id="path393" />
      </g>
    </clipPath>
    <clipPath
       clipPathUnits="userSpaceOnUse"
       id="clipPath397">
      <g
         id="g401"
         transform="translate(-1792.332,-1007.7025)">
        <path
           d="M 0,2027.321 H 3000 V 0 H 0 Z"
           id="path399" />
      </g>
    </clipPath>
    <clipPath
       clipPathUnits="userSpaceOnUse"
       id="clipPath403">
      <g
         id="g407"
         transform="translate(-1760.8068,-1052.3562)">
        <path
           d="M 0,2027.321 H 3000 V 0 H 0 Z"
           id="path405" />
      </g>
    </clipPath>
    <clipPath
       clipPathUnits="userSpaceOnUse"
       id="clipPath409">
      <g
         id="g413">
        <path
           d="M 0,2027.321 H 3000 V 0 H 0 Z"
           id="path411" />
      </g>
    </clipPath>
    <clipPath
       clipPathUnits="userSpaceOnUse"
       id="clipPath415">
      <g
         id="g419"
         transform="translate(-1483.0576,-973.8228)">
        <path
           d="M 0,2027.321 H 3000 V 0 H 0 Z"
           id="path417" />
      </g>
    </clipPath>
    <clipPath
       clipPathUnits="userSpaceOnUse"
       id="clipPath421">
      <g
         id="g425"
         transform="translate(-1280.2954,-1059.6255)">
        <path
           d="M 0,2027.321 H 3000 V 0 H 0 Z"
           id="path423" />
      </g>
    </clipPath>
    <clipPath
       clipPathUnits="userSpaceOnUse"
       id="clipPath427">
      <g
         id="g431"
         transform="translate(-960.5967,-982.2545)">
        <path
           d="M 0,2027.321 H 3000 V 0 H 0 Z"
           id="path429" />
      </g>
    </clipPath>
    <clipPath
       clipPathUnits="userSpaceOnUse"
       id="clipPath433">
      <g
         id="g437"
         transform="translate(-1085.0769,-1022.6925)">
        <path
           d="M 0,2027.321 H 3000 V 0 H 0 Z"
           id="path435" />
      </g>
    </clipPath>
    <clipPath
       clipPathUnits="userSpaceOnUse"
       id="clipPath1036">
      <g
         id="g1042">
        <g
           id="g1040"
           transform="matrix(-1,0,0,1,3014.8522,-210)">
          <path
             d="M 0,2027.321 H 3000 V 0 H 0 Z"
             id="path1038" />
        </g>
      </g>
    </clipPath>
    <clipPath
       clipPathUnits="userSpaceOnUse"
       id="clipPath1053">
      <g
         id="g1059">
        <g
           id="g1057"
           transform="translate(-18,-210)">
          <path
             d="M 0,2027.321 H 3000 V 0 H 0 Z"
             id="path1055" />
        </g>
      </g>
    </clipPath>
  </defs>
  <sodipodi:namedview
     id="namedview11"
     pagecolor="#ffffff"
     bordercolor="#666666"
     borderopacity="1.0"
     inkscape:showpageshadow="2"
     inkscape:pageopacity="0.0"
     inkscape:pagecheckerboard="0"
     inkscape:deskcolor="#d1d1d1"
     showgrid="false"
     inkscape:zoom="2.1764209"
     inkscape:cx="229.96471"
     inkscape:cy="51.690369"
     inkscape:window-width="1728"
     inkscape:window-height="1051"
     inkscape:window-x="0"
     inkscape:window-y="38"
     inkscape:window-maximized="1"
     inkscape:current-layer="g17">
    <inkscape:page
       x="0"
       y="0"
       id="page15"
       width="155.72293"
       height="27.636551" />
  </sodipodi:namedview>
  <g
     id="g17"
     inkscape:groupmode="layer"
     inkscape:label="Page 1"
     transform="matrix(1.3333333,0,0,-1.3333333,-1111.1077,962.86235)">
    <g
       id="g911"
       transform="translate(1493.3746,849.6255)"
       clip-path="url(#clipPath373)" />
    <g
       id="g12724"
       transform="matrix(0.0882324,0,0,0.0882324,758.25338,659.403)">
      <g
         id="g1264"
         transform="translate(1085.0769,602.6925)"
         clip-path="url(#clipPath433)"
         style="fill:#ffffff;fill-opacity:1">
        <path
           d="m 0,0 -18.59,5.251 c -0.695,4.814 -1.736,9.52 -3.1,14.094 l 14.103,12.861 c -3.387,8.627 -7.86,16.942 -13.385,24.775 l -17.902,-4.569 c -3.148,3.992 -6.596,7.737 -10.315,11.203 l 6.021,17.465 c -7.346,6.145 -15.264,11.286 -23.576,15.379 L -80.724,83.46 c -4.45,1.738 -9.057,3.164 -13.802,4.253 l -3.69,18.951 c -9.28,1.633 -18.719,2.127 -28.101,1.501 l -5.864,-19.088 c -4.51,-0.7 -8.918,-1.717 -13.213,-3.007 l -13.269,15.258 c -8.742,-3.178 -17.148,-7.437 -25.085,-12.781 l 4.645,-20.258 c -3.416,-2.753 -6.646,-5.727 -9.671,-8.905 l -19.811,6.293 c -5.972,-7.463 -10.915,-15.495 -14.808,-23.939 l 14.122,-14.483 c -1.64,-4.178 -3.018,-8.489 -4.088,-12.93 l -19.498,-4.262 c -1.411,-9.309 -1.682,-18.759 -0.832,-28.135 l 18.591,-5.24 c 0.695,-4.819 1.738,-9.529 3.104,-14.107 l -14.109,-12.859 c 3.389,-8.626 7.861,-16.942 13.387,-24.762 l 17.905,4.559 c 3.147,-3.989 6.593,-7.731 10.31,-11.196 l -6.02,-17.475 c 7.344,-6.144 15.263,-11.286 23.575,-15.378 l 13.978,13.007 c 4.45,-1.738 9.057,-3.165 13.803,-4.254 l 3.691,-18.958 c 9.282,-1.62 18.721,-2.128 28.108,-1.488 l 5.861,19.081 c 4.512,0.7 8.922,1.718 13.22,3.009 L -75.02,-119.4 c 8.672,3.155 17.016,7.393 24.908,12.669 l -26.461,33.862 5.077,4.932 -8.184,9.71 c -24.468,-18.513 -59.457,-16.328 -81.383,6.247 -23.729,24.432 -23.16,63.474 1.272,87.204 24.432,23.729 63.475,23.16 87.204,-1.273 23.378,-24.07 23.155,-62.309 -0.218,-86.128 l 9.131,-8.163 5.078,4.932 33.754,-28.001 c 5.847,7.382 10.717,15.295 14.547,23.613 l -14.121,14.475 c 1.639,4.176 3.017,8.487 4.086,12.925 l 19.499,4.274 C 0.578,-18.825 0.856,-9.376 0,0"
           style="fill:#ffffff;fill-opacity:1;fill-rule:evenodd;stroke:none"
           id="path1262" />
      </g>
      <g
         id="g1268"
         transform="translate(960.5967,562.2545)"
         clip-path="url(#clipPath427)"
         style="fill:#ffffff;fill-opacity:1">
        <path
           d="m 0,0 c -5.535,1.416 -10.705,4.451 -14.806,8.539 -4.096,4.092 -7.134,9.264 -8.552,14.8 -1.41,5.515 -1.349,11.393 0.879,16.516 2.245,-5.087 4.313,-9.412 6.819,-13.324 2.483,-3.896 5.229,-7.368 8.347,-10.5 C -4.19,12.905 -0.716,10.157 3.181,7.671 7.094,5.162 11.424,3.098 16.511,0.865 11.388,-1.349 5.515,-1.406 0,0 M 14.83,76.539 C -10.097,80.512 -33.524,63.525 -37.497,38.599 -41.47,13.672 -24.483,-9.756 0.443,-13.728 25.37,-17.701 48.798,-0.714 52.77,24.212 56.743,49.139 39.756,72.567 14.83,76.539"
           style="fill:#ffffff;fill-opacity:1;fill-rule:nonzero;stroke:none"
           id="path1266" />
      </g>
      <g
         id="g1272"
         transform="translate(1280.2954,639.6255)"
         clip-path="url(#clipPath421)"
         style="fill:#ffffff;fill-opacity:1">
        <path
           d="m 0,0 h 17.913 v -107.74 l -67.629,68.019 v -64.125 H -67.63 V 3.894 L 0,-64.125 Z"
           style="fill:#ffffff;fill-opacity:1;fill-rule:nonzero;stroke:none"
           id="path1270" />
      </g>
      <g
         id="g1276"
         transform="translate(1483.0576,553.8228)"
         clip-path="url(#clipPath415)"
         style="fill:#ffffff;fill-opacity:1">
        <path
           d="M 0,0 V -18.043 H -61.398 V 85.803 h 18.042 V 0 Z"
           style="fill:#ffffff;fill-opacity:1;fill-rule:nonzero;stroke:none"
           id="path1274" />
      </g>
      <path
         d="m 1637.653,1059.625 h 18.044 V 955.779 h -18.044 z"
         style="fill:#ffffff;fill-opacity:1;fill-rule:nonzero;stroke:none"
         id="path1278"
         clip-path="url(#clipPath409)"
         transform="translate(12,-420)" />
      <g
         id="g1282"
         transform="translate(1786.3068,632.3562)"
         clip-path="url(#clipPath403)"
         style="fill:#ffffff;fill-opacity:1">
        <path
           d="M 0,0 V -96.577 H -7.269 V 0 H -30.115 V 7.269 H 23.107 V 0 Z"
           style="fill:#ffffff;fill-opacity:1;fill-rule:nonzero;stroke:none"
           id="path1280" />
      </g>
      <g
         id="g1286"
         transform="translate(1817.832,587.7025)"
         clip-path="url(#clipPath397)"
         style="fill:#ffffff;fill-opacity:1">
        <path
           d="m 0,0 c 0,-26.87 21.808,-48.678 48.678,-48.678 26.871,0 48.679,21.808 48.679,48.678 0,26.87 -21.808,48.678 -48.679,48.678 C 21.808,48.678 0,26.87 0,0 m 104.495,0 c 0,-30.764 -25.053,-55.817 -55.817,-55.817 -30.764,0 -55.817,25.053 -55.817,55.817 0,30.764 25.053,55.817 55.817,55.817 30.764,0 55.817,-25.053 55.817,-55.817"
           style="fill:#ffffff;fill-opacity:1;fill-rule:nonzero;stroke:none"
           id="path1284" />
      </g>
      <g
         id="g1290"
         transform="translate(1938.3713,587.7025)"
         clip-path="url(#clipPath391)"
         style="fill:#ffffff;fill-opacity:1">
        <path
           d="m 0,0 c 0,-26.87 21.808,-48.678 48.677,-48.678 26.87,0 48.677,21.808 48.677,48.678 0,26.87 -21.807,48.678 -48.677,48.678 C 21.808,48.678 0,26.87 0,0 m 104.494,0 c 0,-30.764 -25.052,-55.817 -55.817,-55.817 -30.765,0 -55.817,25.053 -55.817,55.817 0,30.764 25.052,55.817 55.817,55.817 30.765,0 55.817,-25.053 55.817,-55.817"
           style="fill:#ffffff;fill-opacity:1;fill-rule:nonzero;stroke:none"
           id="path1288" />
      </g>
      <g
         id="g1294"
         transform="translate(2107.8835,543.0488)"
         clip-path="url(#clipPath385)"
         style="fill:#ffffff;fill-opacity:1">
        <path
           d="M 0,0 V -7.269 H -55.427 V 96.577 h 7.139 V 0 Z"
           style="fill:#ffffff;fill-opacity:1;fill-rule:nonzero;stroke:none"
           id="path1292" />
      </g>
      <g
         id="g1298"
         transform="translate(1360.1294,639.6255)"
         clip-path="url(#clipPath379)"
         style="fill:#ffffff;fill-opacity:1">
        <path
           d="m 0,0 -52.962,-103.846 h 19.991 L 0,-39.411 32.582,-103.846 h 19.86 z"
           style="fill:#ffffff;fill-opacity:1;fill-rule:nonzero;stroke:none"
           id="path1296" />
      </g>
      <g
         id="g1302"
         transform="translate(1151.6729,639.6255)"
         clip-path="url(#clipPath361)"
         style="fill:#ffffff;fill-opacity:1">
        <path
           d="m 0,0 -52.962,-103.846 h 19.991 L 0,-39.411 32.582,-103.846 h 19.86 z"
           style="fill:#ffffff;fill-opacity:1;fill-rule:nonzero;stroke:none"
           id="path1300" />
      </g>
      <g
         id="g1306"
         transform="translate(1581.5037,594.7061)"
         clip-path="url(#clipPath355)"
         style="fill:#ffffff;fill-opacity:1">
        <path
           d="m 0,0 c -3.019,4.709 -4.588,10.144 -4.588,15.698 0,16.18 13.041,29.221 29.1,29.221 14.732,0 27.049,-10.988 28.86,-25.357 L 36.95,16.181 c -0.241,6.641 -5.675,12.075 -12.438,12.075 -6.882,0 -12.437,-5.675 -12.437,-12.558 0,-2.294 0.604,-4.709 1.933,-6.642 1.811,-2.897 4.588,-3.864 12.799,-6.037 9.781,-2.777 18.113,-5.072 23.908,-14.007 3.261,-5.071 4.952,-10.868 4.952,-16.784 0,-17.147 -14.008,-31.155 -31.155,-31.155 -16.421,0 -29.824,12.801 -31.032,28.86 l 16.059,3.14 c 1.933,-10.143 7.125,-15.335 14.973,-15.335 7.971,0 14.491,6.52 14.491,14.49 0,2.776 -0.845,5.433 -2.294,7.728 -2.295,3.381 -5.434,4.467 -14.37,6.883 C 13.162,-10.626 5.434,-8.452 0,0"
           style="fill:#ffffff;fill-opacity:1;fill-rule:nonzero;stroke:none"
           id="path1304" />
      </g>
      <g
         id="g1310"
         transform="translate(1684.5453,594.7061)"
         clip-path="url(#clipPath349)"
         style="fill:#ffffff;fill-opacity:1">
        <path
           d="m 0,0 c -3.019,4.709 -4.588,10.144 -4.588,15.698 0,16.18 13.041,29.221 29.1,29.221 14.732,0 27.049,-10.988 28.86,-25.357 L 36.95,16.181 c -0.241,6.641 -5.675,12.075 -12.438,12.075 -6.882,0 -12.437,-5.675 -12.437,-12.558 0,-2.294 0.604,-4.709 1.933,-6.642 1.811,-2.897 4.588,-3.864 12.799,-6.037 9.781,-2.777 18.113,-5.072 23.908,-14.007 3.261,-5.071 4.952,-10.868 4.952,-16.784 0,-17.147 -14.008,-31.155 -31.155,-31.155 -16.421,0 -29.824,12.801 -31.032,28.86 l 16.06,3.14 c 1.932,-10.143 7.124,-15.335 14.972,-15.335 7.971,0 14.491,6.52 14.491,14.49 0,2.776 -0.845,5.433 -2.294,7.728 -2.295,3.381 -5.434,4.467 -14.37,6.883 C 13.162,-10.626 5.434,-8.452 0,0"
           style="fill:#ffffff;fill-opacity:1;fill-rule:nonzero;stroke:none"
           id="path1308" />
      </g>
      <g
         id="g1314"
         transform="translate(2118.1289,560.7027)"
         clip-path="url(#clipPath343)"
         style="fill:#ffffff;fill-opacity:1">
        <path
           d="m 0,0 c 2.466,-13.759 13.11,-21.678 25.312,-21.678 12.461,0 24.014,10.125 24.014,22.587 0,6.879 -1.298,10.384 -5.062,15.057 -4.414,5.582 -9.866,6.88 -19.731,9.736 -10.904,2.985 -18.822,5.192 -24.274,13.63 -2.986,4.673 -4.673,10.254 -4.673,15.966 0,16.355 13.371,27.519 29.726,27.519 14.409,0 26.481,-10.255 29.076,-23.884 L 47.509,57.505 C 45.432,67.889 36.345,75.678 25.312,75.678 12.85,75.678 2.726,67.759 2.726,55.298 c 0,-4.284 1.298,-8.567 3.634,-12.202 3.894,-6.101 10.125,-7.789 20.12,-10.514 10.644,-2.986 18.822,-4.803 24.664,-14.02 3.244,-5.192 5.321,-10.903 5.321,-17.653 0,-16.356 -14.798,-29.726 -31.153,-29.726 -15.577,0 -29.726,9.865 -32.582,27.389 z"
           style="fill:#ffffff;fill-opacity:1;fill-rule:nonzero;stroke:none"
           id="path1312" />
      </g>
      <rect
         style="fill:#ffffff;fill-opacity:1;stroke-width:43.2253;stroke-linecap:round;stop-color:#000000"
         id="rect1316"
         width="52.811623"
         height="15.644816"
         x="1124.9506"
         y="-573.2146"
         transform="scale(1,-1)" />
      <rect
         style="fill:#ffffff;fill-opacity:1;stroke-width:43.2253;stroke-linecap:round;stop-color:#000000"
         id="rect1318"
         width="52.811623"
         height="15.644816"
         x="1334.9506"
         y="-573.2146"
         transform="scale(1,-1)" />
      <path
         id="path1320"
         clip-path="url(#clipPath1053)"
         style="fill:#ffffff;fill-opacity:1;fill-rule:nonzero;stroke:none"
         d="m 1464.1055,849.62517 v -43.88965 l 25.2759,-16.88965 v -43.0664 h 0.045 18 0.044 v 43.0664 l 26.5518,16.88965 v 43.88965 h -16.7666 v -33.14209 l -18.8291,-13.64209 -18.8299,13.64209 v 33.14209 z"
         sodipodi:nodetypes="cccccccccccccccc"
         transform="translate(25.5,-210)" />
    </g>
  </g>
</svg>
