<svg xmlns="http://www.w3.org/2000/svg" viewBox="0 0 135.8 28.07"><g fill="#fff"><path d="m873.05 703.8-.55 3.35h-2.67l-.48-3.34h-1.46l2.05 13.14h2.3l2.26-13.14zm-3.05 4.6h2.3l-1.22 7.54zm8.4 5.66h.84q1.67 0 1.67-1.67v-8.58h-1.46v8.34q0 .4-.13.53-.1.13-.53.13h-.84q-.38 0-.55-.17-.17-.17-.17-.6v-8.23h-1.46v10.25h1.46v-.7q.23.7 1.16.7zm7.98 0h1.46V703.8h-1.46v.7q-.23-.7-1.16-.7h-.85q-1.67 0-1.67 1.67v6.9q0 1.68 1.67 1.68h.85q.93 0 1.16-.7zm-1.56-9h.84q.38 0 .55.16.17.17.17.6v6.23q0 .42-.17.59-.17.17-.55.17h-.84q-.43 0-.55-.13-.11-.12-.11-.53v-6.44q0-.42.1-.55.13-.1.56-.1zm6.38-1.26h-1.46v14.14h1.46zm3.2-2.97h-1.13v1.24h.7q.9 0 1.05.66l.26 1.08h-.96l-1.96 10.25h1.46l1.65-9.24 1.54 9.24h1.46l-2.05-11.56q-.32-1.67-2.01-1.67zm8.38 4.86v1.94q0 .4-.13.53t-.53.13h-1.03q-1.67 0-1.67 1.67v2.43q0 1.67 1.67 1.67h1.43q1.67 0 1.67-1.67v-1.04h-1.43v.83q0 .42-.13.52-.1.13-.53.13h-.6q-.41 0-.54-.13-.1-.1-.1-.52v-2.01q0-.4.1-.53.13-.13.55-.13h1.03q1.67 0 1.67-1.67v-2.36q0-1.67-1.67-1.67h-1.41q-1.67 0-1.67 1.67v1.03h1.44v-.82q0-.4.1-.53.13-.13.55-.13h.57q.4 0 .53.13t.13.53zm3.08 10.56v1.72h1.54v-1.72zm1.5-12.44h-1.46v10.25h1.46zm5.05 1.88v1.94q0 .4-.12.53-.13.13-.53.13h-1.04q-1.67 0-1.67 1.67v2.43q0 1.67 1.67 1.67h1.44q1.67 0 1.67-1.67v-1.04h-1.44v.83q0 .42-.12.52-.11.13-.53.13h-.6q-.42 0-.54-.13-.11-.1-.11-.52v-2.01q0-.4.1-.53.13-.13.56-.13h1.03q1.67 0 1.67-1.67v-2.36q0-1.67-1.67-1.67h-1.42q-1.66 0-1.66 1.67v1.03h1.43v-.82q0-.4.1-.53.13-.13.56-.13h.57q.4 0 .53.13.12.13.12.53zm10.69 11.26v-1.25H921v-11.9h-1.44v11.9h-2.12v1.25zm2.63-2.89h2.15q1.67 0 1.67-1.67v-6.91q0-1.67-1.67-1.67h-2.15q-1.67 0-1.67 1.67v6.9q0 1.68 1.67 1.68zm2.38-8.35v6.44q0 .4-.12.53-.13.13-.53.13h-1.31q-.4 0-.53-.13-.13-.12-.13-.53v-6.44q0-.42.13-.55.13-.1.53-.1h1.3q.41 0 .54.1.12.13.12.55zm4.8 8.35h2.16q1.67 0 1.67-1.67v-6.91q0-1.67-1.67-1.67h-2.16q-1.67 0-1.67 1.67v6.9q0 1.68 1.67 1.68zm2.39-8.35v6.44q0 .4-.13.53t-.53.13h-1.3q-.4 0-.54-.13-.12-.12-.12-.53v-6.44q0-.42.12-.55.13-.1.53-.1h1.31q.4 0 .53.1.13.13.13.55zm4.69-1.91h-1.46v14.14H940zm5.05 1.89v1.94q0 .4-.13.53-.12.13-.53.13h-1.03q-1.67 0-1.67 1.67v2.43q0 1.67 1.67 1.67h1.44q1.67 0 1.67-1.67v-1.04h-1.44v.83q0 .42-.13.52-.1.13-.53.13h-.59q-.42 0-.55-.13-.1-.1-.1-.52v-2.01q0-.4.1-.53.13-.13.55-.13h1.04q1.67 0 1.67-1.67v-2.36q0-1.67-1.67-1.67h-1.42q-1.67 0-1.67 1.67v1.03h1.44v-.82q0-.4.1-.53.13-.13.55-.13h.57q.4 0 .53.13t.13.53z" font-family="Teko" font-size="21.13" font-weight="300" style="line-height:1.25;-inkscape-font-specification:&quot;Teko, Light&quot;" transform="matrix(1.3 0 0 -1.3 -1126.17 961.9)"/><path fill-rule="evenodd" d="m11.72 27.85-.43-2.27c-.57-.13-1.12-.3-1.65-.52l-1.68 1.55c-.99-.5-1.93-1.11-2.8-1.85l.73-2.09c-.44-.41-.85-.86-1.23-1.34l-2.14.53A14.1 14.1 0 0 1 .94 18.9l1.69-1.52c-.16-.55-.28-1.12-.36-1.7l-2.22-.63a14 14 0 0 1 .12-3.36l2.33-.5c.13-.53.3-1.04.5-1.54L1.32 7.9c.47-1 1.07-1.96 1.78-2.85l2.37.77c.36-.38.75-.74 1.16-1.06l-.54-2.43a13.8 13.8 0 0 1 3-1.5l1.58 1.82c.51-.15 1.04-.27 1.58-.35l.71-2.27c1.12-.07 2.25 0 3.36.2l.43 2.26c.56.13 1.11.3 1.64.52l1.68-1.55a14 14 0 0 1 2.8 1.86l-.72 2.08c.44.42.85.87 1.22 1.34l2.15-.53a14.4 14.4 0 0 1 1.58 2.97l-1.7 1.53c.17.54.29 1.1.37 1.68l2.21.64a14 14 0 0 1-.11 3.36l-2.34.5c-.13.53-.3 1.04-.5 1.54l1.69 1.74A13.9 13.9 0 0 1 24.95 23l-3.76-3.5-.64.55-1.07-1.08a7.37 7.37 0 1 0-.79.76l.88 1.17-.64.56 2.98 4.3a14 14 0 0 1-2.97 1.49l-1.57-1.83c-.52.15-1.04.27-1.58.35l-.72 2.27c-1.12.07-2.24 0-3.35-.2"/><path d="M10.23 14.8a3.9 3.9 0 0 0 2.69 2.9c.65.2 1.35.21 1.97-.03-.6-.3-1.1-.56-1.56-.87a7.39 7.39 0 0 1-2.92-3.96c-.29.6-.32 1.3-.18 1.97m9.2-1.43A5.46 5.46 0 1 1 8.6 14.69a5.46 5.46 0 0 1 10.84-1.31"/></g></svg>
