<?xml version="1.0" encoding="UTF-8" standalone="no"?>
<!-- Created with Inkscape (http://www.inkscape.org/) -->

<svg
   width="1200mm"
   height="630mm"
   viewBox="0 0 1200 630"
   version="1.1"
   id="svg1793"
   xml:space="preserve"
   inkscape:version="1.2.1 (9c6d41e, 2022-07-14)"
   sodipodi:docname="social.svg"
   xmlns:inkscape="http://www.inkscape.org/namespaces/inkscape"
   xmlns:sodipodi="http://sodipodi.sourceforge.net/DTD/sodipodi-0.dtd"
   xmlns="http://www.w3.org/2000/svg"
   xmlns:svg="http://www.w3.org/2000/svg"><sodipodi:namedview
     id="namedview1795"
     pagecolor="#ffffff"
     bordercolor="#666666"
     borderopacity="1.0"
     inkscape:showpageshadow="2"
     inkscape:pageopacity="0.0"
     inkscape:pagecheckerboard="0"
     inkscape:deskcolor="#d1d1d1"
     inkscape:document-units="mm"
     showgrid="false"
     inkscape:zoom="0.2102413"
     inkscape:cx="1855.0113"
     inkscape:cy="563.63806"
     inkscape:window-width="1728"
     inkscape:window-height="1051"
     inkscape:window-x="0"
     inkscape:window-y="38"
     inkscape:window-maximized="0"
     inkscape:current-layer="layer1" /><defs
     id="defs1790" /><g
     inkscape:label="Layer 1"
     inkscape:groupmode="layer"
     id="layer1"><rect
       style="fill:#111b2e;fill-opacity:1;stroke:none;stroke-width:0.234131;stroke-linecap:square;stroke-linejoin:round;stop-color:#000000"
       id="rect6125"
       width="1208.1356"
       height="636.78815"
       x="-4.0678101"
       y="-3.3940735" /><g
       id="g8676"
       transform="matrix(6.0730423,0,0,6.0730423,111.18128,229.76485)"><path
         fill="#ffffff"
         fill-rule="evenodd"
         d="M 11.72,27.85 11.29,25.58 C 10.72,25.45 10.17,25.28 9.64,25.06 L 7.96,26.61 C 6.97,26.11 6.03,25.5 5.16,24.76 L 5.89,22.67 C 5.45,22.26 5.04,21.81 4.66,21.33 L 2.52,21.86 A 14.1,14.1 0 0 1 0.94,18.9 L 2.63,17.38 C 2.47,16.83 2.35,16.26 2.27,15.68 L 0.05,15.05 A 14,14 0 0 1 0.17,11.69 L 2.5,11.19 C 2.63,10.66 2.8,10.15 3,9.65 L 1.32,7.9 C 1.79,6.9 2.39,5.94 3.1,5.05 L 5.47,5.82 C 5.83,5.44 6.22,5.08 6.63,4.76 L 6.09,2.33 a 13.8,13.8 0 0 1 3,-1.5 l 1.58,1.82 C 11.18,2.5 11.71,2.38 12.25,2.3 l 0.71,-2.27 c 1.12,-0.07 2.25,0 3.36,0.2 l 0.43,2.26 c 0.56,0.13 1.11,0.3 1.64,0.52 l 1.68,-1.55 a 14,14 0 0 1 2.8,1.86 L 22.15,5.4 c 0.44,0.42 0.85,0.87 1.22,1.34 l 2.15,-0.53 a 14.4,14.4 0 0 1 1.58,2.97 l -1.7,1.53 c 0.17,0.54 0.29,1.1 0.37,1.68 l 2.21,0.64 a 14,14 0 0 1 -0.11,3.36 l -2.34,0.5 c -0.13,0.53 -0.3,1.04 -0.5,1.54 l 1.69,1.74 A 13.9,13.9 0 0 1 24.95,23 l -3.76,-3.5 -0.64,0.55 -1.07,-1.08 a 7.37,7.37 0 1 0 -0.79,0.76 l 0.88,1.17 -0.64,0.56 2.98,4.3 a 14,14 0 0 1 -2.97,1.49 l -1.57,-1.83 c -0.52,0.15 -1.04,0.27 -1.58,0.35 l -0.72,2.27 c -1.12,0.07 -2.24,0 -3.35,-0.2"
         id="path8655" /><path
         fill="#ffffff"
         d="m 10.23,14.8 a 3.9,3.9 0 0 0 2.69,2.9 c 0.65,0.2 1.35,0.21 1.97,-0.03 -0.6,-0.3 -1.1,-0.56 -1.56,-0.87 a 7.39,7.39 0 0 1 -2.92,-3.96 c -0.29,0.6 -0.32,1.3 -0.18,1.97 m 9.2,-1.43 A 5.46,5.46 0 1 1 8.6,14.69 5.46,5.46 0 0 1 19.44,13.38"
         id="path8657" /><path
         fill="#ffffff"
         fill-opacity="0.73"
         d="m 113.1,5.47 -1.28,2.21 h 4.63 V 19.4 h 2.49 V 7.68 h 4.03 l 1.3,-2.21 z m 14.94,14.24 a 5.76,5.76 0 0 1 -2.75,-0.65 5,5 0 0 1 -2.63,-4.69 c 0,-1.03 0.22,-1.95 0.67,-2.77 a 4.83,4.83 0 0 1 1.92,-1.9 c 0.83,-0.46 1.77,-0.69 2.81,-0.69 1.04,0 1.97,0.23 2.77,0.7 a 4.7,4.7 0 0 1 1.9,1.9 c 0.46,0.8 0.7,1.71 0.7,2.74 0,1.04 -0.24,1.97 -0.7,2.8 a 4.87,4.87 0 0 1 -1.9,1.9 5.7,5.7 0 0 1 -2.79,0.66 z m -2.89,-5.36 c 0,1 0.27,1.8 0.8,2.4 0.52,0.59 1.22,0.89 2.09,0.89 0.87,0 1.56,-0.3 2.08,-0.87 0.53,-0.58 0.79,-1.39 0.79,-2.42 0,-1 -0.26,-1.8 -0.8,-2.4 a 2.65,2.65 0 0 0 -2.07,-0.88 c -0.87,0 -1.57,0.3 -2.1,0.9 -0.52,0.6 -0.79,1.4 -0.79,2.38 z m 15.22,5.36 a 5.76,5.76 0 0 1 -2.75,-0.65 5,5 0 0 1 -2.64,-4.69 c 0,-1.03 0.23,-1.95 0.68,-2.77 a 4.83,4.83 0 0 1 1.92,-1.9 5.67,5.67 0 0 1 2.8,-0.69 c 1.05,0 1.97,0.23 2.78,0.7 a 4.7,4.7 0 0 1 1.9,1.9 c 0.46,0.8 0.69,1.71 0.69,2.74 0,1.04 -0.23,1.97 -0.7,2.8 a 4.87,4.87 0 0 1 -1.9,1.9 c -0.8,0.44 -1.73,0.66 -2.78,0.66 z m -2.9,-5.36 c 0,1 0.27,1.8 0.8,2.4 a 2.7,2.7 0 0 0 2.1,0.89 c 0.87,0 1.56,-0.3 2.07,-0.87 0.53,-0.58 0.8,-1.39 0.8,-2.42 0,-1 -0.27,-1.8 -0.8,-2.4 a 2.65,2.65 0 0 0 -2.07,-0.88 c -0.87,0 -1.57,0.3 -2.1,0.9 -0.53,0.6 -0.8,1.4 -0.8,2.38 z m 10.38,5.05 V 5.05 h 2.4 V 19.4 Z m 12.7,-4.61 a 2.76,2.76 0 0 0 -1.25,-0.95 1048.91,1048.91 0 0 1 -2.22,-0.65 17.6,17.6 0 0 1 -1.72,-0.5 c -0.27,-0.18 -0.41,-0.4 -0.41,-0.63 0,-0.32 0.16,-0.56 0.47,-0.74 0.36,-0.2 0.76,-0.31 1.21,-0.31 0.55,0 1.06,0.1 1.52,0.31 0.53,0.24 0.97,0.5 1.33,0.76 l 1.03,-1.76 c -0.57,-0.37 -1.17,-0.69 -1.8,-0.95 a 5.47,5.47 0 0 0 -2.14,-0.36 5.1,5.1 0 0 0 -2.12,0.4 c -0.6,0.25 -1.08,0.62 -1.42,1.1 a 2.93,2.93 0 0 0 -0.48,1.67 c 0,0.63 0.14,1.14 0.42,1.54 0.34,0.46 0.74,0.78 1.19,0.95 0.15,0.06 0.75,0.24 1.78,0.51 l 1.05,0.3 c 0.58,0.16 0.97,0.29 1.16,0.4 0.24,0.11 0.36,0.33 0.36,0.65 0,0.35 -0.17,0.63 -0.5,0.83 -0.34,0.21 -0.8,0.32 -1.38,0.32 a 4.6,4.6 0 0 1 -1.84,-0.38 6.57,6.57 0 0 1 -1.64,-1.03 l -1.03,1.78 a 6.62,6.62 0 0 0 4.47,1.66 c 0.91,0 1.7,-0.14 2.35,-0.43 a 3.32,3.32 0 0 0 1.5,-1.17 c 0.36,-0.5 0.54,-1.08 0.54,-1.74 0,-0.67 -0.14,-1.2 -0.43,-1.58 z"
         font-family="Opentalk-750"
         font-size="19.79px"
         style="line-height:1.25;-inkscape-font-specification:'Opentalk-750, Normal'"
         id="path8659" /><path
         fill="#ffffff"
         d="m 39.04,5.5 h -2.89 l -4.94,13 2.11,1.22 1.27,-3.42 h 5.9 l 1.28,3.42 2.2,-1.26 z m -1.5,3.1 2.13,5.49 h -4.21 z m 18.34,4.65 q 0,-1.97 -1.01,-3.06 Q 54.47,9.73 53.8,9.42 53,9.04 51.72,9.04 q -0.89,0 -1.78,0.44 -0.89,0.41 -1.72,1.66 l -1.23,-2.1 -2.1,1.19 1.49,2.6 v 6.6 h 2.45 v -5.58 q 0,-0.8 0.3,-1.45 0.32,-0.65 0.87,-0.95 0.57,-0.37 1.27,-0.37 1.1,0 1.62,0.63 0.55,0.56 0.55,1.76 v 5.96 h 2.44 z m 2.67,-1.62 q -0.65,1.33 -0.65,2.77 0,1.47 0.65,2.81 0.61,1.19 1.74,1.84 1.07,0.7 2.5,0.7 1.04,0 1.93,-0.44 0.71,-0.34 1.27,-0.9 0.55,-0.55 0.75,-0.86 l 1.29,2.2 2.11,-1.17 L 68.64,16 V 9.36 h -2.45 v 1.28 q -0.54,-0.7 -1.47,-1.2 -0.93,-0.4 -1.94,-0.4 -1.46,0 -2.5,0.7 -1.06,0.57 -1.73,1.9 z m 1.9,2.77 q 0,-1.42 0.75,-2.33 0.38,-0.44 0.93,-0.66 0.53,-0.23 1.17,-0.23 1.32,0 2.11,0.89 0.78,0.83 0.78,2.33 0,1 -0.34,1.72 -0.36,0.74 -1.01,1.13 -0.63,0.4 -1.56,0.4 -0.8,0 -1.55,-0.4 -0.67,-0.41 -0.93,-1.13 -0.35,-0.8 -0.35,-1.72 z m 11.49,5.03 V 5.08 h 2.42 V 19.43 Z M 76.35,8.92 v 2.1 l 3.4,8.29 -1.55,3.88 h 2.47 l 4.95,-12.17 v -2.1 h -2.46 v 2.1 c -0.7,1.84 -1.44,3.72 -2.16,5.58 l -2.19,-5.58 v -2.1 z m 18.84,5.9 q -0.36,-0.56 -1.25,-0.95 -0.23,-0.1 -1.06,-0.32 l -1.15,-0.34 q -1.59,-0.41 -1.72,-0.49 -0.42,-0.28 -0.42,-0.63 0,-0.48 0.48,-0.73 0.53,-0.32 1.2,-0.32 0.83,0 1.53,0.32 0.79,0.35 1.32,0.75 l 1.03,-1.76 Q 94.3,9.79 93.35,9.4 92.52,9.04 91.21,9.04 q -1.22,0 -2.11,0.4 -0.91,0.37 -1.43,1.1 -0.47,0.72 -0.47,1.67 0,0.95 0.41,1.54 0.52,0.7 1.19,0.95 0.24,0.1 1.78,0.51 l 1.05,0.3 q 0.87,0.24 1.17,0.4 0.35,0.17 0.35,0.65 0,0.53 -0.5,0.83 -0.5,0.32 -1.38,0.32 -0.97,0 -1.84,-0.38 -0.87,-0.38 -1.64,-1.03 l -1.03,1.78 q 1.01,0.85 2,1.2 1.03,0.46 2.47,0.46 1.37,0 2.36,-0.43 0.99,-0.42 1.5,-1.17 0.54,-0.75 0.54,-1.74 0,-1 -0.44,-1.58 z m 2.47,4.61 V 9.36 h 2.44 v 10.07 z m 1.23,-11.4 q -0.65,0 -1.1,-0.45 -0.46,-0.48 -0.46,-1.11 0,-0.65 0.45,-1.11 0.46,-0.47 1.11,-0.47 0.65,0 1.1,0.47 0.46,0.46 0.46,1.1 0,0.64 -0.45,1.12 -0.46,0.45 -1.11,0.45 z m 11.57,6.79 q -0.35,-0.56 -1.24,-0.95 -0.24,-0.1 -1.07,-0.32 L 107,13.21 q -1.58,-0.41 -1.72,-0.49 -0.42,-0.28 -0.42,-0.63 0,-0.48 0.48,-0.73 0.53,-0.32 1.2,-0.32 0.84,0 1.53,0.32 0.8,0.35 1.33,0.75 l 1.02,-1.76 q -0.85,-0.56 -1.8,-0.95 -0.83,-0.36 -2.13,-0.36 -1.23,0 -2.12,0.4 -0.91,0.37 -1.42,1.1 -0.48,0.72 -0.48,1.67 0,0.95 0.42,1.54 0.51,0.7 1.18,0.95 0.24,0.1 1.78,0.51 l 1.05,0.3 q 0.87,0.24 1.17,0.4 0.36,0.17 0.36,0.65 0,0.53 -0.5,0.83 -0.51,0.32 -1.38,0.32 -0.97,0 -1.84,-0.38 -0.87,-0.38 -1.65,-1.03 l -1.02,1.78 q 1,0.85 2,1.2 1.02,0.46 2.47,0.46 1.36,0 2.35,-0.43 1,-0.42 1.5,-1.17 0.54,-0.75 0.54,-1.74 0,-1 -0.44,-1.58 z"
         font-family="Arcon"
         font-size="19.79px"
         style="-inkscape-font-specification:'Opentalk-750, Normal'"
         id="path8661" /><path
         fill="#ffffff"
         d="m 76.4,21.5 h 4.19 v 1.69 h -4.2 z"
         id="path8663" /></g></g></svg>
