<svg xmlns="http://www.w3.org/2000/svg" fill="none" viewBox="0 0 1797 450"><g clip-path="url(#a)"><path fill="#fff" d="M747 363h-22c-5 0-10-4-10-10V240c0-18 16-29 34-29 32 0 41 32 45 57 10 58-16 95-47 95Zm109-112c-10-56-42-88-89-88-22 0-40 7-52 19V93c0-5-5-10-10-10h-44c-5 0-10 5-10 10v-1 264l-1 46v-1c0 6 4 10 10 10h85c89 0 129-59 111-160Zm324 113c-26 0-37-21-41-46-8-41-3-106 48-108h21c5 0 10 5 10 10v109c-1 19-14 35-38 35Zm47 31c0 5 4 9 9 9h35c5 0 10-4 10-9V173c0-5-4-10-9-10h-80c-93 0-133 68-116 163 8 50 38 85 87 85 29 0 50-9 64-30v14Zm202-173c6 0 11-1 12-6l6-35c1-5-1-9-5-12-9-4-20-6-32-6-22 0-43 13-54 40l-7-30c-1-5-5-11-10-11h-26c-5 0-9 5-9 10l-1 38v185c0 5 4 9 9 9h45c6 0 10-4 10-10V259c1-28 16-41 39-41 9 0 17 1 24 4h-1Zm349 0c6 0 11-1 11-6l7-35c1-5-1-9-5-12-9-4-20-6-32-6-22 0-44 13-54 40l-7-30c-1-5-5-11-10-11h-26c-5 0-9 5-10 10v38l-1 185c1 5 5 9 10 9h45c5 0 10-4 10-10V259c0-28 16-41 39-41 9 0 16 1 24 4h-1Zm-226-13c12 0 22 6 24 19 5 28-33 37-61 39-5 0-9-3-9-9 5-24 17-49 46-49Zm80 181c4-3 5-8 3-13l-15-26c-3-5-8-6-13-3-12 7-28 14-48 14-35 0-48-23-52-48 54-2 140-15 126-94-6-36-36-57-79-57-87 0-125 75-111 154 9 54 43 94 108 94 39 0 67-12 81-21Z"/><path fill="#fff" d="M984 209c11 0 22 6 24 19 5 28-34 37-61 39-6 0-9-3-9-9 4-24 16-49 46-49Zm79 181c5-3 6-8 3-13l-14-26c-3-5-9-6-13-3-12 7-29 14-49 14-34 0-48-23-52-48 55-2 140-15 126-94-6-36-36-57-79-57-86 0-125 75-111 154 10 54 44 94 108 94 40 0 67-12 81-21ZM99 223l-10-10-12 12 9 10a9 9 0 0 0 13 0 9 9 0 0 0 0-12Zm118-111c-5 3-11 5-17 6l10 27a9 9 0 0 0 11 5c5-1 7-6 5-11l-9-27Zm139 2-6-2-11 31a9 9 0 0 0 8 12c4 0 7-3 8-6l12-31-11-4Zm107 124-11 13a9 9 0 0 0 7 15c3 0 5-2 7-4l10-12c-5-3-9-7-13-12Zm-184-78c-59 0-110 38-126 94a95 95 0 0 0-19-1 97 97 0 0 0-80 52 98 98 0 0 0 86 144l279 1a81 81 0 0 0 78-103 82 82 0 0 0-87-59c-2-71-60-128-131-128Zm0 18c62 0 113 51 113 114v12l-12 7v3a2 2 0 0 0 3 1 75 75 0 0 1 35-9 63 63 0 0 1 61 46 63 63 0 0 1-60 80l-279-2a81 81 0 0 1-67-38 80 80 0 0 1 24-108 79 79 0 0 1 45-13 82 82 0 0 1 51 18c5 4 10 9 14 15a4 4 0 0 0 6-4 85 85 0 0 0-44-36c12-50 57-86 110-86Z"/><path fill="#9DACE3" d="M187 105a52 52 0 0 1-49-33 52 52 0 1 1 97 0c-8 20-27 33-48 33Zm195 0A52 52 0 1 1 402 4a52 52 0 0 1-20 101Zm120 137-9-1a34 34 0 0 1 17-67c9 3 16 8 21 16s6 17 4 26c-4 15-18 26-33 26ZM43 221a43 43 0 0 1-37-21c-6-9-7-21-5-32a43 43 0 1 1 84 21c-5 19-22 32-42 32Z"/></g><defs><clipPath id="a"><path fill="#fff" d="M0 0h1796v450H0z"/></clipPath></defs></svg>
