<svg width="141" height="20" viewBox="0 0 141 20" fill="none" xmlns="http://www.w3.org/2000/svg">
<path fill-rule="evenodd" clip-rule="evenodd" d="M44.8798 12.4355H48.463V13.8707C47.421 14.9275 45.9808 15.5272 44.4866 15.5272C41.4441 15.5272 38.9717 13.0548 38.9717 10.0123C38.9717 6.95994 41.4441 4.47284 44.4866 4.47284C46.084 4.47284 47.6028 5.16589 48.6547 6.37995L48.8414 6.5913L51.8299 3.18014L51.6677 3.01794C49.7508 1.07152 47.2096 0 44.5111 0C39.0061 0 34.5234 4.4925 34.5234 10.0123C34.5234 15.5173 39.0012 20 44.5111 20C46.025 20 47.4799 19.6707 48.8365 19.0219L49.5591 18.6483H52.9309V7.96264H44.8798V12.4355ZM28.3697 11.7919C28.3697 13.8514 26.6937 15.5275 24.6342 15.5275C22.5747 15.5275 20.8986 13.8514 20.8986 11.7919V0.398438H16.4258V11.7919C16.4258 16.3188 20.1073 20.0003 24.6342 20.0003C29.1611 20.0003 32.8426 16.3188 32.8426 11.7919V0.398438H28.3697V11.7919ZM8.41976 0.398438C11.7424 0.398438 14.4507 2.98384 14.4507 6.16398C14.4507 7.22567 14.1361 8.26769 13.5365 9.19175C14.6424 10.4206 15.247 11.9787 15.247 13.5958C15.247 16.9086 12.5436 19.6022 9.21602 19.6022H4.47284V15.1293H4.75792H9.21602C10.0909 15.1293 10.7741 14.4559 10.7741 13.5958C10.7741 12.6963 10.0467 11.9049 9.21602 11.9049H4.47284V11.9099H0V0.398438H8.41976ZM4.47284 7.43211H8.41976C9.29467 7.43211 9.97788 6.87177 9.97788 6.16398C9.97788 5.45128 9.27992 4.87128 8.41976 4.87128H4.47284V7.43211Z" fill="#FFFFFF"/>
<path fill-rule="evenodd" clip-rule="evenodd" d="M96.762 0H96.7768C102.301 0 106.794 4.48759 106.789 10.0123C106.789 15.5173 102.297 20 96.7768 20C91.2668 20 86.7891 15.5173 86.7891 10.0123V9.99754H91.2373V10.0123C91.2373 13.0548 93.7097 15.5272 96.7522 15.5272C99.8045 15.5272 102.292 13.0548 102.292 10.0123C102.292 6.95994 99.8095 4.47776 96.762 4.47284V0ZM63.6268 0.398438H55.207V19.6022H59.6799V12.4358H63.6268C66.9544 12.4358 69.6578 9.74226 69.6578 6.4294C69.6578 3.1018 66.9495 0.398438 63.6268 0.398438ZM63.6268 7.96295H59.6799V4.87128H63.6268C64.5017 4.87128 65.1849 5.5545 65.1849 6.4294C65.1849 7.28957 64.5017 7.96295 63.6268 7.96295ZM85.6089 6.4294C85.6089 3.1018 82.9006 0.398438 79.578 0.398438H71.1582V19.6022H75.631V12.4358H77.0171L80.9198 19.6022H86.0464L81.893 11.9738C84.1294 11.0497 85.6089 8.85752 85.6089 6.4294ZM79.578 7.96295H75.631V4.87128H79.578C80.4529 4.87128 81.1361 5.5545 81.1361 6.4294C81.1361 7.28957 80.4529 7.96295 79.578 7.96295ZM111.438 0.398438L116.338 13.4532L121.239 0.398438H125.982L118.821 19.6022H113.832L106.641 0.398438H111.438ZM139.754 0.398438V4.87128H130.995H130.99V0.398438H139.754ZM130.994 12.0374V15.129H140.151V19.6019H126.521V7.55469H130.994V7.56452H139.355V12.0374H130.994Z" fill="#01D69E"/>
</svg>
