<svg xmlns="http://www.w3.org/2000/svg" xmlns:xlink="http://www.w3.org/1999/xlink" viewBox="0 0 142.7887 39.8805"><defs><linearGradient id="a"><stop offset="0" stop-color="#fe496e"/><stop offset="1" stop-color="#fd63a8"/></linearGradient><linearGradient xlink:href="#a" id="b" x1="52.0439" x2="174.8131" y1="180.8308" y2="180.8308" gradientUnits="userSpaceOnUse"/></defs><path fill="url(#b)" d="M64.577 184.2683h-1.6933c-.1757 3.4846-4.621 4.6831-7.112 2.6764-1.7914-1.443-1.6933-3.4791-1.6933-5.555 0-2.4998-.3673-5.0902 1.8626-6.804.3804-.2923.812-.5046 1.27-.6467.5588-.1733 1.1144-.1747 1.6934-.1694 1.304.0121 2.653.6986 3.2808 1.8627.1748.3242.3089.6564.3904 1.016.0362.1595.0236.424.167.5315.1246.0935.3349.0608.4798.0611h1.1853c-.1179-1.1216-.471-2.2528-1.2041-3.1326-1.9316-2.318-5.7862-2.6003-8.1939-.8726-2.1718 1.5585-2.7362 4.2974-2.881 6.7993-.0248.4287-.1052.8344-.08 1.27.1539 2.6585.6253 5.8196 3.1303 7.333 3.1429 1.8988 7.921.798 9.144-2.8457.1705-.5077.254-.9893.254-1.524m43.434 0h-1.6933c.0261.5169.148 1.0334.3105 1.524.9916 2.9958 3.997 3.962 6.8862 3.6477 2.0258-.2204 4.1777-1.1824 4.793-3.309.143-.4942.207-1.0111.2023-1.524-.003-.3651-.0698-.7463-.1576-1.1007-.6508-2.6277-3.85-3.2098-6.1077-3.7794-1.6707-.4216-3.5187-.9039-3.7183-2.9093-.1872-1.8808 1.4427-2.8034 3.041-3.081 2.3131-.4015 4.5718.9152 4.826 3.335.365 0 1.2882.1683 1.5804-.061.2162-.17-.0222-.8135-.0729-1.0396-.242-1.0779-.938-2.1654-1.8462-2.794-2.8696-1.9861-8.396-1.2605-9.1605 2.6247-.0935.4747-.0959.9625-.0165 1.4393.0851.5104.1552.9688.3904 1.4393 1.3649 2.7297 5.2386 2.5008 7.6859 3.5772 1.3775.6059 2.17 1.844 1.7192 3.3655-.254.8573-1.027 1.5074-1.8039 1.8815-1.5859.7636-3.8959.6477-5.334-.3975-.974-.708-1.3108-1.711-1.524-2.8387m-18.796-11.7686v6.1806h-.0846c-.2415-.7661-.997-1.4358-1.6934-1.7968-2.2751-1.1797-5.249-.3354-6.4158 1.9662-1.0009 1.9742-1.0918 4.486-.5574 6.604.2485.9849.662 1.972 1.3923 2.7023 1.9119 1.9118 6.1745 1.7755 7.2743-1.009h.0846v1.9473h1.524v-16.5946h-1.524m79.0787.0847v.3386h1.016v2.8787h.4233v-2.032l-.0128-.8341 1.0288-.0126v-.3387h-2.4553m3.1327 0v3.2174h.4233v-2.7094h.0847l.9313 2.7094h.508l.9313-2.7094h.0847v2.7094h.4234v-3.2174h-.8467l-.8467 2.4554-.5554-1.6087-.3252-.8607-.8127.014m-99.9913 3.843c-.5494.0953-1.1137.2328-1.6087.4962-2.334 1.2427-2.794 3.8413-2.794 6.2442 0 1.909.5014 3.9586 2.032 5.2306 1.2572 1.0447 3.1039 1.219 4.6567.9171 2.3674-.4603 3.5532-2.5936 3.8994-4.793.3967-2.5202.017-5.9668-2.3754-7.4177-.575-.3487-1.2073-.5327-1.8627-.6586-.5895-.1133-1.3547-.1217-1.9473-.0188m32.512 8.857h-1.6087c-.2646 2.519-3.4876 3.5656-5.4187 2.0814-1.371-1.0536-1.3546-2.3768-1.3546-3.944h8.4666c0-1.5626.031-3.1728-.7949-4.572-.4701-.7964-1.0891-1.4867-1.9144-1.9262-1.9191-1.0217-4.552-.6347-6.0043.9949-1.1842 1.3288-1.372 3.1433-1.524 4.826-.0258.2867.0697.5612.0776.8466.052 1.8685.5855 3.8954 2.2014 5.0213 1.8746 1.306 4.9627 1.089 6.597-.541.776-.7741 1.08-1.7448 1.277-2.787m26.8393-.1693h-1.524c-.0208.4136-.1346.8149-.3199 1.1854-1.4095 2.8191-5.958 1.9477-6.277-1.1854-.076-.7469-.007-1.535-.007-2.286 0-1.426-.1766-2.834.8536-3.9793 1.2353-1.3732 3.6252-1.4717 4.8966-.0847.4712.514.6975 1.1815.769 1.8627h1.524c-.0145-3.4729-3.9557-5.1526-6.858-3.7888-1.8936.8898-2.8229 3.1392-2.8786 5.1435-.0654 2.355.0703 5.1589 2.2013 6.6487 2.8676 2.0046 7.5577.1948 7.62-3.516m12.446.1692c-.359 0-1.2014-.157-1.496.0612-.194.1443-.2252.6474-.315.8702-.2193.5441-.6392 1.0423-1.1523 1.3335-1.8119 1.0276-4.1952.3882-5.141-1.5029-.3976-.795-.2777-1.7653-.2777-2.6246h7.7894c.1828 0 .4927.0566.6494-.0611.1524-.1148.1126-.3659.1126-.5316.0008-.4287-.0804-.8413-.0847-1.27-.0203-2.202-1.579-4.5926-3.81-5.047-1.6646-.3392-3.5086-.029-4.7226 1.244-1.6066 1.6847-1.7878 4.3252-1.5498 6.5124.1342 1.2337.4514 2.4704 1.2277 3.4713 2.4403 3.1468 8.5592 1.7335 8.77-2.4553m4.7413-6.5194h-.0847v-2.1167l-1.463.1129-.061.9031v11.43h1.524v-5.588c0-1.298-.0686-2.6157.5317-3.81.8534-1.6986 3.5789-2.786 5.0495-1.1853.861.937.7688 2.2943.7688 3.4713v7.112h1.524v-6.858c0-1.4491.1253-2.9251-.6138-4.2333-1.5181-2.6883-6.1341-1.902-7.1755.762m20.828 6.5193h-1.524c-.1228.6501-.2998 1.2804-.7688 1.7757-1.3123 1.3833-3.7397 1.252-5.0665-.0164-1.0371-.9924-1.0227-2.2974-1.0227-3.6219h7.7893c.1829 0 .4928.0566.6494-.0611.1524-.1147.1126-.3658.1126-.5315a12.7499 12.7499 0 0 0-.0779-1.4394c-.238-2.1906-1.4935-4.4098-3.8168-4.8777-.5969-.1202-1.2556-.183-1.8626-.0988-.4598.0638-.9305.1457-1.3547.341-2.684 1.2363-3.203 4.2821-3.0506 6.9215.078 1.3441.3125 2.78 1.1388 3.8947 2.0566 2.7772 7.1196 2.4282 8.5302-.8467.1973-.4598.3226-.9387.3243-1.4393m-96.9434-7.5165c1.6719-.2322 3.4736.6089 4.0264 2.2672.2825.8475.1223 1.9095.1223 2.794 0 1.6406.2207 3.3-1.1853 4.4685-.2501.2079-.5446.3743-.8467.4939-.3932.1556-.8503.238-1.27.2799-1.6346.1626-3.3873-.724-3.8617-2.3637-.2524-.8721-.1176-1.8923-.1176-2.794 0-1.6234-.201-3.2318 1.1853-4.3838.2284-.1899.4902-.3386.762-.4563.3799-.1644.777-.249 1.1853-.3057m13.2927 0c.419-.0582.8613.0273 1.27.12a3.7986 3.7986 0 0 1 1.016.3903c1.8565 1.0358 1.778 3.1402 1.778 4.9742 0 .6544.0415 1.3075-.12 1.9473-.3467 1.3742-1.45 2.6365-2.928 2.787-1.2212.1244-2.585-.0497-3.4643-1.009-.9189-1.0024-.8537-2.3722-.8537-3.6406 0-1.9502-.259-4.2417 1.8627-5.214.4623-.212.9409-.286 1.4393-.3552m17.1873 4.2145H95.565c0-1.012-.0809-2.0107.548-2.8787 1.2614-1.741 4.281-1.7935 5.5973-.0847.6795.8821.628 1.9118.628 2.9634m39.37 0h-6.858c0-1.0195-.051-2.0034.5664-2.8787 1.1515-1.6308 4.0564-1.8387 5.412-.3316.8127.9037.8796 2.056.8796 3.2103m25.5694 0h-6.858c0-1.1218.0246-2.2298.795-3.1303 1.3504-1.5792 4.3078-1.4316 5.4966.2516.6096.8643.5664 1.8741.5664 2.8787z" transform="translate(-40.8935 -160.953)"/></svg>
