<?xml version="1.0" encoding="UTF-8" standalone="no"?>
<!-- Created with Inkscape (http://www.inkscape.org/) -->

<svg
   width="237.86043mm"
   height="44.473473mm"
   viewBox="0 0 237.86043 44.473473"
   version="1.1"
   id="svg5"
   xml:space="preserve"
   xmlns="http://www.w3.org/2000/svg"
   xmlns:svg="http://www.w3.org/2000/svg"><defs
     id="defs2" /><g
     id="layer1"
     transform="translate(193.91017,96.178931)"><g
       id="g4190"><path
         style="fill:#bbc8e9;fill-opacity:1;stroke-width:0.264583"
         d="m -91.459055,-52.104001 c -1.29932,-0.91009 -1.74226,-2.88209 -0.97892,-4.35823 0.56251,-1.08778 1.76321,-1.64205 3.32482,-1.53482 1.28277,0.0881 1.28999,0.0839 3.2707,-1.88259 1.98509,-1.97086 1.98509,-1.97086 2.660766,-1.3361 0.67568,0.63477 0.67568,0.63477 -1.326976,2.64924 -1.97413,1.98578 -2.00022,2.02977 -1.83095,3.0883 0.21632,1.3528 -0.44578,2.85925 -1.49517,3.40191 -0.97873,0.50612 -2.8829,0.49156 -3.62427,-0.0277 z m 25.400001,0 c -1.299322,-0.91009 -1.742263,-2.88209 -0.978922,-4.35823 0.769001,-1.48708 3.086193,-2.0493 4.646777,-1.12744 0.821264,0.48513 1.566452,1.78079 1.566452,2.7236 0,0.96319 -0.8177,2.38005 -1.61004,2.78978 -0.97873,0.50612 -2.882894,0.49156 -3.624267,-0.0277 z m -4.853152,-8.21505 c -1.965478,-1.96548 -2.028399,-2.00361 -2.643698,-1.60216 -1.119045,0.73012 -3.070995,1.02236 -4.645438,0.69551 -4.954272,-1.0285 -6.815763,-7.24272 -3.240553,-10.81793 3.079631,-3.07963 8.318434,-2.23946 10.361486,1.66172 0.788418,1.50547 0.809307,4.11374 0.04519,5.64206 l -0.553186,1.10642 2.069269,2.05713 c 2.069272,2.05713 2.069272,2.05713 1.499251,2.66389 -0.31351,0.33372 -0.639522,0.60676 -0.724469,0.60676 -0.08495,0 -1.060479,-0.90603 -2.16785,-2.0134 z m -3.713408,-3.20924 c 1.052494,-0.49594 2.121614,-2.01365 2.332079,-3.31059 0.296016,-1.82414 -1.006435,-4.14334 -2.731714,-4.8642 -3.881924,-1.62198 -7.825557,2.49578 -5.935985,6.19807 1.250071,2.4493 3.706323,3.21565 6.33562,1.97672 z m 15.506263,-0.6726 c -0.07851,-0.20459 -0.107392,-1.25089 -0.06418,-2.3251 0.07857,-1.9531 0.07857,-1.9531 1.211057,-2.14562 2.330931,-0.39624 4.490143,-2.34364 4.95741,-4.47109 0.16986,-0.77337 0.16986,-0.77337 2.799712,-0.77337 2.62985,0 2.62985,0 2.455352,0.72761 -1.287894,5.37007 -4.648567,8.47138 -9.957863,9.18935 -0.955609,0.12923 -1.29312,0.0806 -1.40149,-0.20178 z m 27.852541,0.0639 c -1.991928,-0.3349 -4.538752,-1.66803 -6.023932,-3.15321 -1.573768,-1.57377 -2.49632,-3.44157 -2.88062,-5.83212 -0.35566,-2.21238 -0.358597,-11.78419 -0.0043,-14.02291 0.555818,-3.51213 2.708863,-6.3658 6.040276,-8.00585 1.694273,-0.83409 1.837037,-0.8577 5.187368,-0.8577 3.334959,0 3.500152,0.0269 5.164939,0.84186 0.945886,0.46302 2.271215,1.37022 2.945178,2.01599 2.792809,2.67603 3.384193,4.92356 3.39035,12.88486 0.0063,8.14163 -0.552085,10.42388 -3.175524,12.97919 -2.771659,2.69968 -6.593785,3.83079 -10.643733,3.14989 z m 5.285201,-5.15763 c 1.511837,-0.75338 2.507879,-2.0124 3.028198,-3.8277 0.231402,-0.80732 0.34286,-3.06457 0.346215,-7.01146 0.006,-7.02991 -0.233685,-8.17154 -2.070938,-9.86506 -2.992112,-2.75803 -8.018987,-1.95319 -9.844059,1.57611 -0.584753,1.13079 -0.892071,3.98634 -0.892071,8.28895 0,5.08336 0.318666,7.32861 1.256339,8.85185 1.552059,2.52129 5.284332,3.42845 8.176316,1.98731 z m 17.5443609,-10.6966 v -15.91549 l 7.47447899,0.0813 c 7.14562601,0.0777 7.53268261,0.10799 8.79739621,0.68893 2.9583189,1.35888 4.6627729,3.15175 5.7533669,6.05182 0.543759,1.44595 0.58062,1.99015 0.588367,8.68634 0.0077,6.69421 -0.02917,7.2603 -0.586687,8.99583 -1.04118,3.24119 -3.077961,5.33799 -6.3548361,6.54209 -1.365361,0.50171 -2.223839,0.56874 -8.594482,0.67105 l -7.077604,0.11366 z m 14.305928,10.37463 c 1.5494983,-0.78499 2.4225704,-1.85079 2.9586982,-3.61184 0.2228268,-0.73193 0.3301656,-3.06291 0.3301656,-7.16993 0,-6.08542 0,-6.08542 -0.7937499,-7.67292 -0.6218053,-1.24361 -1.0756292,-1.75944 -2.0949869,-2.38125 -1.279078,-0.78023 -1.372568,-0.79527 -5.49010401,-0.88314 l -4.18886699,-0.0894 v 11.26804 11.26804 h 3.92130699 c 3.75322101,0 3.98286801,-0.0312 5.35753701,-0.72761 z m 17.7086551,-10.38489 v -15.875 h 10.186459 10.186458 v 2.24895 2.24896 h -7.672917 -7.672916 v 4.49792 4.49792 h 6.482291 6.482292 v 2.24895 2.24896 H 35.08671 28.604419 v 4.49792 4.49792 h 7.672916 7.672917 v 2.38125 2.38125 H 33.763794 23.577335 Z m -94.189667,-2.71197 c 0.004,-5.50151 0.822467,-7.90773 3.560865,-10.46937 2.496011,-2.33489 3.899826,-2.82595 8.078803,-2.82595 3.147534,0 3.390366,0.0394 5.027084,0.81666 2.9337,1.39308 5.347628,4.47168 6.050237,7.71616 l 0.243515,1.12448 h -2.575362 c -2.575359,0 -2.575359,0 -2.925635,-1.06135 -0.470583,-1.42588 -1.977954,-3.13464 -3.291531,-3.73128 -1.329539,-0.6039 -3.778559,-0.64661 -5.116493,-0.0892 -1.519095,0.63284 -2.925691,2.1652 -3.384064,3.68664 -0.219977,0.73014 -0.472667,2.72651 -0.561538,4.43638 l -0.161581,3.10886 h -2.47315 -2.473148 l 0.0021,-2.71198 z"
         id="path3017" /><path
         style="fill:#4bc9f1;fill-opacity:1;stroke-width:0.264583"
         d="m -193.91017,-80.285001 v -15.89393 l 7.2099,0.0926 c 6.74297,0.0866 7.30662,0.13122 8.70342,0.68899 3.11894,1.24544 5.03562,3.29817 6.09938,6.53231 0.56888,1.72956 0.60918,2.28095 0.60918,8.33438 0,6.92927 -0.17239,8.27208 -1.36842,10.65898 -1.30762,2.60961 -3.44568,4.25907 -6.57833,5.07502 -1.19633,0.3116 -3.07692,0.40558 -8.11613,0.40558 h -6.559 z m 13.24729,10.97205 c 1.02791,-0.30324 1.74766,-0.74655 2.52785,-1.55695 1.60053,-1.6625 1.81965,-2.82587 1.81965,-9.66075 0,-6.42327 -0.25405,-7.72549 -1.79187,-9.18465 -1.66356,-1.57846 -2.33363,-1.76531 -6.74094,-1.87968 l -4.03489,-0.10471 v 11.40535 11.40536 h 3.39156 c 2.33674,0 3.83851,-0.13186 4.82864,-0.42397 z m 18.50271,-10.95312 v -15.875 h 10.31875 10.31875 v 2.24896 2.24896 h -7.80521 -7.8052 v 4.49792 4.49791 h 6.61458 6.61458 v 2.24896 2.24896 h -6.61458 -6.61458 v 4.63021 4.63021 h 7.8052 7.80521 v 2.24895 2.24896 h -10.31875 -10.31875 z m 29.10417,0 v -15.875 h 10.31875 10.31875 v 2.24896 2.24896 h -7.80521 -7.80521 v 4.49792 4.49791 h 6.61459 6.61458 v 2.24896 2.24896 h -6.61458 -6.61459 v 4.63021 4.63021 h 7.80521 7.80521 v 2.24895 2.24896 h -10.31875 -10.31875 z m 29.10417,-0.0184 v -15.89341 l 7.474475,0.0914 c 7.04418,0.0862 7.56133,0.12612 8.98304,0.69409 1.99888,0.79855 3.96945,2.6061 4.894265,4.48936 0.675169,1.3749 0.740928,1.76713 0.740928,4.41923 0,2.65211 -0.06576,3.04433 -0.740928,4.41924 -0.925695,1.88507 -2.897465,3.69256 -4.894265,4.48652 -1.33767,0.53187 -2.07052,0.61074 -6.46949,0.69629 l -4.96094,0.0965 v 6.19709 6.19709 h -2.513545 -2.51354 v -15.89341 z m 14.633165,-1.6737 c 0.55392,-0.27446 1.32782,-0.91948 1.71979,-1.43338 0.63921,-0.83804 0.71267,-1.1568 0.71267,-3.09222 0,-1.93541 -0.0735,-2.25417 -0.71267,-3.09221 -1.26602,-1.65984 -2.17251,-1.92077 -7.02639,-2.02254 l -4.29948,-0.0901 v 5.2049 5.20491 l 4.29948,-0.0901 c 3.55657,-0.0746 4.4735,-0.17637 5.3066,-0.58916 z"
         id="path3583" /></g></g></svg>
