<svg xmlns="http://www.w3.org/2000/svg" xml:space="preserve" viewBox="0 0 237.8604 44.4735"><path fill="#bbc8e9" d="M102.4511 44.075c-1.2993-.9102-1.7422-2.8822-.979-4.3583.5626-1.0878 1.7633-1.642 3.325-1.5348 1.2827.088 1.2899.0839 3.2706-1.8826 1.9851-1.9709 1.9851-1.9709 2.6608-1.3361s.6757.6348-1.327 2.6492c-1.9741 1.9858-2.0002 2.0298-1.831 3.0883.2164 1.3528-.4457 2.8593-1.4951 3.402-.9787.506-2.883.4915-3.6243-.0278zm25.4 0c-1.2993-.9102-1.7422-2.8822-.979-4.3583.769-1.487 3.0863-2.0493 4.6469-1.1274.8212.485 1.5664 1.7808 1.5664 2.7236 0 .9632-.8177 2.38-1.61 2.7897-.9787.5062-2.883.4916-3.6243-.0277zm-4.8531-8.2151c-1.9655-1.9655-2.0284-2.0036-2.6437-1.6022-1.119.7301-3.071 1.0224-4.6455.6955-4.9542-1.0285-6.8157-7.2427-3.2405-10.8179 3.0796-3.0796 8.3184-2.2395 10.3615 1.6617.7884 1.5055.8093 4.1138.0452 5.642l-.5532 1.1065 2.0692 2.0571c2.0693 2.0572 2.0693 2.0572 1.4993 2.664-.3135.3336-.6395.6067-.7245.6067-.085 0-1.0605-.906-2.1678-2.0134zm-3.7134-3.2093c1.0524-.4959 2.1216-2.0136 2.332-3.3105.296-1.8242-1.0064-4.1434-2.7317-4.8642-3.8819-1.622-7.8255 2.4957-5.936 6.198 1.2501 2.4493 3.7064 3.2157 6.3357 1.9767zm15.5062-.6726c-.0785-.2045-.1074-1.2508-.0642-2.325.0786-1.9532.0786-1.9532 1.2111-2.1457 2.331-.3962 4.4901-2.3436 4.9574-4.471.1699-.7734.1699-.7734 2.7997-.7734 2.6299 0 2.6299 0 2.4554.7276-1.288 5.37-4.6486 8.4714-9.9579 9.1893-.9556.1293-1.2931.0806-1.4015-.2018zm27.8526.064c-1.992-.335-4.5388-1.668-6.024-3.1533-1.5737-1.5737-2.4963-3.4415-2.8806-5.832-.3557-2.2125-.3586-11.7843-.0043-14.023.5558-3.5121 2.7089-6.3658 6.0403-8.0058 1.6943-.8341 1.837-.8577 5.1874-.8577 3.335 0 3.5001.0269 5.1649.8418.9459.463 2.2712 1.3702 2.9452 2.016 2.7928 2.676 3.3842 4.9236 3.3903 12.8849.0063 8.1416-.552 10.4238-3.1755 12.9792-2.7717 2.6996-6.5938 3.8307-10.6437 3.1498zm5.2852-5.1577c1.5118-.7534 2.5078-2.0124 3.0282-3.8277.2314-.8073.3428-3.0646.3462-7.0114.006-7.03-.2337-8.1716-2.071-9.8651-2.992-2.758-8.019-1.9532-9.844 1.5761-.5848 1.1308-.892 3.9863-.892 8.289 0 5.0833.3186 7.3286 1.2562 8.8518 1.5521 2.5213 5.2844 3.4285 8.1764 1.9873zm17.5443-10.6966V.2722l7.4745.0813c7.1456.0777 7.5327.108 8.7974.689 2.9583 1.3588 4.6628 3.1517 5.7534 6.0518.5437 1.446.5806 1.9901.5883 8.6863.0077 6.6942-.0291 7.2603-.5867 8.9958-1.0411 3.2412-3.078 5.338-6.3548 6.5421-1.3654.5017-2.2238.5688-8.5945.671l-7.0776.1137zm14.306 10.3746c1.5494-.785 2.4225-1.8507 2.9586-3.6118.2229-.732.3302-3.063.3302-7.17 0-6.0853 0-6.0853-.7937-7.6728-.6218-1.2437-1.0757-1.7595-2.095-2.3813-1.2791-.7802-1.3726-.7953-5.4901-.8831L190.5 4.7539v22.536h3.9213c3.7532 0 3.9829-.0312 5.3575-.7276zm17.7086-10.3848V.3025h20.3729v4.4979h-15.3459v8.9958h12.9647v4.498h-12.9646V27.29h15.3459v4.7624h-20.373Zm-94.1897-2.712c.004-5.5015.8225-7.9077 3.5609-10.4694 2.496-2.3349 3.8998-2.826 8.0788-2.826 3.1475 0 3.3904.0395 5.027.8167 2.9338 1.3931 5.3477 4.4717 6.0503 7.7162l.2435 1.1245h-2.5753c-2.5754 0-2.5754 0-2.9257-1.0614-.4705-1.4259-1.978-3.1346-3.2915-3.7313-1.3295-.6039-3.7785-.6466-5.1165-.0892-1.519.6329-2.9257 2.1652-3.384 3.6867-.22.7301-.4727 2.7265-.5616 4.4364l-.1616 3.1088h-4.9463l.0021-2.712z"/><path fill="#4bc9f1" d="M0 15.894V0l7.2099.0926c6.743.0866 7.3066.1312 8.7034.689 3.119 1.2454 5.0356 3.2982 6.0994 6.5323.5689 1.7296.6092 2.281.6092 8.3344 0 6.9293-.1724 8.272-1.3684 10.659-1.3077 2.6096-3.4457 4.259-6.5784 5.075-1.1963.3116-3.0769.4056-8.1161.4056H0zm13.2473 10.972c1.0279-.3033 1.7477-.7466 2.5278-1.557 1.6006-1.6625 1.8197-2.8258 1.8197-9.6607 0-6.4233-.254-7.7255-1.7919-9.1847-1.6635-1.5784-2.3336-1.7653-6.741-1.8796l-4.0348-.1048V27.29h3.3916c2.3367 0 3.8385-.132 4.8286-.424zM31.75 15.9129V.0379h20.6375v4.4979H36.7771v8.9959h13.2292v4.4979H36.777V27.29h15.6104v4.4979H31.75zm29.1042 0V.0379h20.6375v4.4979H65.8812v8.9959h13.2292v4.4979H65.8812V27.29h15.6105v4.4979H60.8542zm29.1041-.0184V.001l7.4745.0914c7.0442.0862 7.5613.126 8.983.694 1.999.7986 3.9695 2.6061 4.8943 4.4894.6752 1.3749.741 1.7671.741 4.4192s-.0658 3.0444-.741 4.4193c-.9257 1.885-2.8974 3.6925-4.8942 4.4865-1.3377.5319-2.0706.6107-6.4695.6963l-4.961.0965v12.3942h-5.0271V15.8945zm14.6332-1.6737c.554-.2745 1.3278-.9195 1.7198-1.4334.6392-.838.7127-1.1568.7127-3.0922s-.0735-2.2542-.7127-3.0922c-1.266-1.6599-2.1725-1.9208-7.0264-2.0226l-4.2995-.09v10.4098l4.2995-.0902c3.5566-.0746 4.4735-.1763 5.3066-.5891z"/></svg>
