<svg xmlns="http://www.w3.org/2000/svg" fill="none" viewBox="0 0 100 100"><path fill="#2187D0" d="M0 0h100v100H0V0Z"/><path fill="url(#a)" d="M0 0h100v100H0V0Z"/><path fill="#E05D5B" d="M0 0h100v100H0V0Z"/><path fill="#243D4E" fill-rule="evenodd" d="m37.3653 60.5045 35.0706 24.111H56.9534L20.5128 59.9802v-8.1315h31.6189c4.716 0 8.7798-3.9609 8.7798-8.7759 0-4.9524-3.5443-8.776-8.7798-8.776H39.9292l-4.332-4.3278 4.332-4.3279h12.2025c10.2489 0 17.4531 7.9248 17.4531 17.4317 0 9.6537-8.0056 17.4317-17.4531 17.4317H37.3653Z" clip-rule="evenodd"/><path fill="#243D4E" fill-rule="evenodd" d="M57.0108 84.3671 20.7535 59.6714V51.52h31.4599c4.6923 0 8.7357-3.9706 8.7357-8.7975 0-4.9646-3.5265-8.7975-8.7357-8.7975H40.0723l-4.3103-4.3384 4.3103-4.3385h12.1411c10.1974 0 17.3653 7.9442 17.3653 17.4744 0 9.6774-7.9653 17.4744-17.3653 17.4744H37.5213l34.8942 24.1702H57.0108ZM46.516 63.0092l34.8943 24.1702h-25.262L17.9487 61.1608V48.7077h34.2647c3.1526 0 5.9309-2.7209 5.9309-5.9852 0-3.4832-2.3414-5.9852-5.9309-5.9852H38.9073l-7.1042-7.1507 7.1042-7.1508h13.3061c11.8324 0 20.1701 9.2909 20.1701 20.2867 0 11.2439-9.2343 20.2867-20.1701 20.2867H46.516Z" clip-rule="evenodd"/><path fill="#243D4E" fill-rule="evenodd" d="m19.8718 30.1281 12.7007-12.8205 4.6069 4.6505-8.0937 8.17 8.0938 8.1701-4.607 4.6504-12.7007-12.8205Z" clip-rule="evenodd"/><path fill="#243D4E" fill-rule="evenodd" d="M16.0256 30.1281 32.964 13.4614l8.7027 8.5632-8.2357 8.1035 8.2357 8.1035-8.7027 8.5632-16.9384-16.6667Z" clip-rule="evenodd"/><path fill="#fff" fill-rule="evenodd" d="m41.2114 56.6583 35.0706 24.111H60.7995L24.3589 56.134v-8.1315h31.6189c4.7161 0 8.7799-3.9609 8.7799-8.7759 0-4.9524-3.5443-8.776-8.7799-8.776H43.7753l-4.332-4.3278 4.332-4.3279h12.2025c10.2489 0 17.4531 7.9248 17.4531 17.4317 0 9.6537-8.0056 17.4317-17.4531 17.4317H41.2114Z" clip-rule="evenodd"/><path fill="#243D4E" fill-rule="evenodd" d="M60.857 81.162 24.5996 56.4664v-8.1515h31.4599c4.6924 0 8.7357-3.9706 8.7357-8.7975 0-4.9645-3.5265-8.7974-8.7357-8.7974H43.9184l-4.3103-4.3385 4.3103-4.3385h12.1411c10.1974 0 17.3654 7.9442 17.3654 17.4744 0 9.6775-7.9654 17.4745-17.3654 17.4745H41.3674L76.2616 81.162H60.857ZM50.3622 59.8042l34.8942 24.1701h-25.262L21.7949 57.9558V45.5026h34.2646c3.1527 0 5.9309-2.7209 5.9309-5.9852 0-3.4832-2.3414-5.9851-5.9309-5.9851h-13.306l-7.1043-7.1508 7.1042-7.1508h13.3061c11.8324 0 20.1701 9.2909 20.1701 20.2867 0 11.2439-9.2343 20.2868-20.1701 20.2868h-5.6973Z" clip-rule="evenodd"/><path fill="#fff" fill-rule="evenodd" d="m23.718 26.2819 13.1711-12.8205 4.7776 4.6505-8.3935 8.17 8.3935 8.1701-4.7776 4.6505L23.718 26.2819Z" clip-rule="evenodd"/><path fill="#243D4E" fill-rule="evenodd" d="M19.8718 26.2821 36.8101 9.6155l8.7027 8.5631-8.2356 8.1035 8.2357 8.1036-8.7027 8.5631-16.9384-16.6667Zm13.3905 0 8.2356-8.1035-4.6878-4.6126-12.9233 12.7161 12.9234 12.7161 4.6877-4.6125-8.2356-8.1036Z" clip-rule="evenodd"/><defs><linearGradient id="a" x1="57.2727" x2="77.3476" y1="21.4888" y2="144.697" gradientUnits="userSpaceOnUse"><stop stop-color="#2187D0"/><stop offset="1" stop-color="#1970AF"/></linearGradient></defs></svg>
