<?xml version="1.0" encoding="UTF-8" standalone="no"?>
<svg
   fill="none"
   version="1.1"
   viewBox="0 0 497 280"
   id="svg270"
   xmlns="http://www.w3.org/2000/svg"
   xmlns:svg="http://www.w3.org/2000/svg">
  <path
     d="m 69.6,47.1 a 28.25,28.25 0 1 0 56.5,0 28.25,28.25 0 0 0 -56.5,0 z M 97.8,0 a 47.05,47.05 0 1 0 0,94.1 47.05,47.05 0 0 0 0,-94.1 z"
     clip-rule="evenodd"
     fill="url(#c)"
     fill-rule="evenodd"
     id="path185"
     style="fill:url(#c);filter:url(#b)"
     transform="matrix(1.44,0,0,1.44,-0.947,0.096)"
     mask="url(#mask574)" />
  <path
     d="m 220,47.1 a 28.25,28.25 0 1 0 56.5,0 28.2,28.2 0 0 0 -56.4,0 z M 248.4,0 a 47.05,47.05 0 1 0 0,94.1 47.05,47.05 0 0 0 0,-94.1 z"
     clip-rule="evenodd"
     fill="url(#d)"
     fill-rule="evenodd"
     id="path189"
     style="fill:url(#d)"
     transform="matrix(1.44,0,0,1.44,-0.947,0.096)"
     mask="url(#mask555)" />
  <path
     d="m 145,47.1 a 28.25,28.25 0 1 0 56.5,0 28.25,28.25 0 0 0 -56.5,0 z M 173.1,0 a 47.05,47.05 0 1 0 0,94.1 47.05,47.05 0 0 0 0,-94.1 z"
     clip-rule="evenodd"
     fill="#1e961b"
     fill-rule="evenodd"
     id="path191"
     transform="matrix(1.44,0,0,1.44,-0.947,0.096)"
     mask="url(#mask549)" />
  <path
     d="M 173,75.4 A 28.2,28.2 0 0 1 144.8,47 a 47,47 0 1 0 -94,0 h 18.8 a 28.2,28.2 0 1 1 56.4,0 47,47 0 1 0 94,0 28.25,28.25 0 1 1 56.5,0 h 18.8 a 47,47 0 1 0 -94,0 28.2,28.2 0 0 1 -28.3,28.4 z"
     fill="#f2f8ff"
     id="path193"
     transform="matrix(1.44,0,0,1.44,-0.947,0.096)"
     mask="url(#mask543)" />
  <path
     d="M 173,75.4 A 28.2,28.2 0 0 1 144.8,47 a 47,47 0 1 0 -94,0 h 18.8 a 28.2,28.2 0 1 1 56.4,0 47,47 0 1 0 94,0 28.25,28.25 0 1 1 56.5,0 h 18.8 a 47,47 0 1 0 -94,0 28.2,28.2 0 0 1 -28.3,28.4 z"
     fill="#2ed02a"
     id="path195"
     transform="matrix(1.44,0,0,1.44,-0.947,0.096)"
     mask="url(#mask537)" />
  <path
     d="m 5.533,229.056 c -3.456,0 -6.336,3.024 -5.328,6.336 3.888,12.672 16.416,20.448 34.128,20.448 21.024,0 34.56,-10.8 34.56,-28.224 0,-13.392 -7.632,-21.168 -27.36,-25.488 l -10.224,-2.304 c -12.96,-2.88 -17.856,-7.776 -17.856,-15.264 0,-9.648 9.072,-15.264 20.736,-15.264 10.08,0 17.28,4.176 20.16,11.232 1.152,2.88 3.6,5.328 6.624,5.328 3.456,0 6.336,-2.88 5.472,-6.192 -3.456,-12.528 -15.84,-21.024 -31.968,-21.024 -19.44,0 -33.12,10.944 -33.12,26.496 0,13.248 8.208,21.888 26.928,25.92 l 10.512,2.304 c 12.96,2.88 18.144,8.064 18.144,15.984 0,9.216 -9.216,15.84 -22.032,15.84 -10.944,0 -19.296,-4.032 -22.608,-11.088 -1.44,-2.736 -3.744,-5.04 -6.768,-5.04 z"
     fill="#0974d7"
     id="path199"
     style="stroke-width:1.44;fill:#ffffff;fill-opacity:1" />
  <path
     d="m 5.533,229.056 c -3.456,0 -6.336,3.024 -5.328,6.336 3.888,12.672 16.416,20.448 34.128,20.448 21.024,0 34.56,-10.8 34.56,-28.224 0,-13.392 -7.632,-21.168 -27.36,-25.488 l -10.224,-2.304 c -12.96,-2.88 -17.856,-7.776 -17.856,-15.264 0,-9.648 9.072,-15.264 20.736,-15.264 10.08,0 17.28,4.176 20.16,11.232 1.152,2.88 3.6,5.328 6.624,5.328 3.456,0 6.336,-2.88 5.472,-6.192 -3.456,-12.528 -15.84,-21.024 -31.968,-21.024 -19.44,0 -33.12,10.944 -33.12,26.496 0,13.248 8.208,21.888 26.928,25.92 l 10.512,2.304 c 12.96,2.88 18.144,8.064 18.144,15.984 0,9.216 -9.216,15.84 -22.032,15.84 -10.944,0 -19.296,-4.032 -22.608,-11.088 -1.44,-2.736 -3.744,-5.04 -6.768,-5.04 z"
     fill="#f2f8ff"
     id="path201"
     style="stroke-width:1.44;fill:#ffffff;fill-opacity:1" />
  <path
     d="m 5.533,229.056 c -3.456,0 -6.336,3.024 -5.328,6.336 3.888,12.672 16.416,20.448 34.128,20.448 21.024,0 34.56,-10.8 34.56,-28.224 0,-13.392 -7.632,-21.168 -27.36,-25.488 l -10.224,-2.304 c -12.96,-2.88 -17.856,-7.776 -17.856,-15.264 0,-9.648 9.072,-15.264 20.736,-15.264 10.08,0 17.28,4.176 20.16,11.232 1.152,2.88 3.6,5.328 6.624,5.328 3.456,0 6.336,-2.88 5.472,-6.192 -3.456,-12.528 -15.84,-21.024 -31.968,-21.024 -19.44,0 -33.12,10.944 -33.12,26.496 0,13.248 8.208,21.888 26.928,25.92 l 10.512,2.304 c 12.96,2.88 18.144,8.064 18.144,15.984 0,9.216 -9.216,15.84 -22.032,15.84 -10.944,0 -19.296,-4.032 -22.608,-11.088 -1.44,-2.736 -3.744,-5.04 -6.768,-5.04 z"
     fill="#29343d"
     id="path203"
     style="stroke-width:1.44;fill:#ffffff;fill-opacity:1" />
  <path
     d="m 108.061,195.936 c 10.656,0 17.712,8.064 18,19.44 h -36.72 c 0.72,-11.376 8.064,-19.44 18.72,-19.44 z m 22.032,39.744 c -2.592,0 -4.752,1.728 -6.192,3.744 -2.88,4.32 -8.208,6.912 -14.832,6.912 -12.24,0 -19.872,-8.64 -19.872,-21.6 v -0.576 h 48.528 v -4.32 c 0,-20.448 -11.232,-33.84 -29.52,-33.84 -18.72,0 -30.528,14.4 -30.528,35.424 0,21.312 11.664,34.848 31.104,34.848 11.952,0 21.6,-5.76 25.92,-14.256 1.728,-3.168 -1.008,-6.336 -4.608,-6.336 z"
     fill="#0974d7"
     id="path205"
     style="stroke-width:1.44;fill:#ffffff;fill-opacity:1" />
  <path
     d="m 108.061,195.936 c 10.656,0 17.712,8.064 18,19.44 h -36.72 c 0.72,-11.376 8.064,-19.44 18.72,-19.44 z m 22.032,39.744 c -2.592,0 -4.752,1.728 -6.192,3.744 -2.88,4.32 -8.208,6.912 -14.832,6.912 -12.24,0 -19.872,-8.64 -19.872,-21.6 v -0.576 h 48.528 v -4.32 c 0,-20.448 -11.232,-33.84 -29.52,-33.84 -18.72,0 -30.528,14.4 -30.528,35.424 0,21.312 11.664,34.848 31.104,34.848 11.952,0 21.6,-5.76 25.92,-14.256 1.728,-3.168 -1.008,-6.336 -4.608,-6.336 z"
     fill="#f2f8ff"
     id="path207"
     style="stroke-width:1.44;fill:#ffffff;fill-opacity:1" />
  <path
     d="m 108.061,195.936 c 10.656,0 17.712,8.064 18,19.44 h -36.72 c 0.72,-11.376 8.064,-19.44 18.72,-19.44 z m 22.032,39.744 c -2.592,0 -4.752,1.728 -6.192,3.744 -2.88,4.32 -8.208,6.912 -14.832,6.912 -12.24,0 -19.872,-8.64 -19.872,-21.6 v -0.576 h 48.528 v -4.32 c 0,-20.448 -11.232,-33.84 -29.52,-33.84 -18.72,0 -30.528,14.4 -30.528,35.424 0,21.312 11.664,34.848 31.104,34.848 11.952,0 21.6,-5.76 25.92,-14.256 1.728,-3.168 -1.008,-6.336 -4.608,-6.336 z"
     fill="#29343d"
     id="path209"
     style="stroke-width:1.44;fill:#ffffff;fill-opacity:1" />
  <path
     d="m 148.813,249.216 a 5.76,5.76 0 1 0 11.232,0 v -36.864 c 0,-9.36 6.624,-16.416 15.552,-16.416 8.352,0 13.824,5.328 13.824,13.536 v 39.744 a 5.76,5.76 0 1 0 11.376,0 v -37.44 c 0,-9.216 6.336,-15.84 15.264,-15.84 8.928,0 13.968,5.472 13.968,14.688 v 38.592 a 5.76,5.76 0 1 0 11.376,0 v -41.184 c 0,-13.392 -8.64,-22.176 -22.032,-22.176 -9.504,0 -17.424,4.896 -21.168,12.96 h -0.288 c -2.88,-8.208 -9.792,-12.96 -19.008,-12.96 a 20.16,20.16 0 0 0 -19.152,12.096 h -0.288 v -5.472 a 5.328,5.328 0 0 0 -10.656,0 z"
     fill="#0974d7"
     id="path211"
     style="stroke-width:1.44;fill:#ffffff;fill-opacity:1" />
  <path
     d="m 148.813,249.216 a 5.76,5.76 0 1 0 11.232,0 v -36.864 c 0,-9.36 6.624,-16.416 15.552,-16.416 8.352,0 13.824,5.328 13.824,13.536 v 39.744 a 5.76,5.76 0 1 0 11.376,0 v -37.44 c 0,-9.216 6.336,-15.84 15.264,-15.84 8.928,0 13.968,5.472 13.968,14.688 v 38.592 a 5.76,5.76 0 1 0 11.376,0 v -41.184 c 0,-13.392 -8.64,-22.176 -22.032,-22.176 -9.504,0 -17.424,4.896 -21.168,12.96 h -0.288 c -2.88,-8.208 -9.792,-12.96 -19.008,-12.96 a 20.16,20.16 0 0 0 -19.152,12.096 h -0.288 v -5.472 a 5.328,5.328 0 0 0 -10.656,0 z"
     fill="#f2f8ff"
     id="path213"
     style="stroke-width:1.44;fill:#ffffff;fill-opacity:1" />
  <path
     d="m 148.813,249.216 a 5.76,5.76 0 1 0 11.232,0 v -36.864 c 0,-9.36 6.624,-16.416 15.552,-16.416 8.352,0 13.824,5.328 13.824,13.536 v 39.744 a 5.76,5.76 0 1 0 11.376,0 v -37.44 c 0,-9.216 6.336,-15.84 15.264,-15.84 8.928,0 13.968,5.472 13.968,14.688 v 38.592 a 5.76,5.76 0 1 0 11.376,0 v -41.184 c 0,-13.392 -8.64,-22.176 -22.032,-22.176 -9.504,0 -17.424,4.896 -21.168,12.96 h -0.288 c -2.88,-8.208 -9.792,-12.96 -19.008,-12.96 a 20.16,20.16 0 0 0 -19.152,12.096 h -0.288 v -5.472 a 5.328,5.328 0 0 0 -10.656,0 z"
     fill="#29343d"
     id="path215"
     style="stroke-width:1.44;fill:#ffffff;fill-opacity:1" />
  <path
     d="m 284.173,244.896 c -11.52,0 -19.152,-9.36 -19.152,-24.48 0,-15.264 7.488,-24.912 19.152,-24.912 11.808,0 19.728,9.936 19.728,24.768 0,14.976 -7.92,24.768 -19.728,24.768 z m 0.432,35.136 c 18.72,0 30.528,-10.8 30.528,-26.928 v -61.056 a 5.4,5.4 0 0 0 -10.8,0 v 6.048 h -0.144 a 24.48,24.48 0 0 0 -22.032,-12.672 c -17.424,0 -28.8,13.68 -28.8,34.848 0,21.024 11.376,34.704 28.512,34.704 a 24.48,24.48 0 0 0 21.6,-12.24 h 0.432 v 10.8 c 0,10.08 -7.2,16.848 -18.72,16.848 -6.768,0 -12.24,-2.448 -15.408,-6.48 -1.584,-2.16 -3.888,-3.888 -6.48,-3.888 -3.744,0 -6.768,3.6 -4.752,6.912 4.464,7.776 14.4,12.96 26.064,12.96 z"
     fill="#0974d7"
     id="path217"
     style="stroke-width:1.44;fill:#ffffff;fill-opacity:1" />
  <path
     d="m 284.173,244.896 c -11.52,0 -19.152,-9.36 -19.152,-24.48 0,-15.264 7.488,-24.912 19.152,-24.912 11.808,0 19.728,9.936 19.728,24.768 0,14.976 -7.92,24.768 -19.728,24.768 z m 0.432,35.136 c 18.72,0 30.528,-10.8 30.528,-26.928 v -61.056 a 5.4,5.4 0 0 0 -10.8,0 v 6.048 h -0.144 a 24.48,24.48 0 0 0 -22.032,-12.672 c -17.424,0 -28.8,13.68 -28.8,34.848 0,21.024 11.376,34.704 28.512,34.704 a 24.48,24.48 0 0 0 21.6,-12.24 h 0.432 v 10.8 c 0,10.08 -7.2,16.848 -18.72,16.848 -6.768,0 -12.24,-2.448 -15.408,-6.48 -1.584,-2.16 -3.888,-3.888 -6.48,-3.888 -3.744,0 -6.768,3.6 -4.752,6.912 4.464,7.776 14.4,12.96 26.064,12.96 z"
     fill="#f2f8ff"
     id="path219"
     style="stroke-width:1.44;fill:#ffffff;fill-opacity:1" />
  <path
     d="m 284.173,244.896 c -11.52,0 -19.152,-9.36 -19.152,-24.48 0,-15.264 7.488,-24.912 19.152,-24.912 11.808,0 19.728,9.936 19.728,24.768 0,14.976 -7.92,24.768 -19.728,24.768 z m 0.432,35.136 c 18.72,0 30.528,-10.8 30.528,-26.928 v -61.056 a 5.4,5.4 0 0 0 -10.8,0 v 6.048 h -0.144 a 24.48,24.48 0 0 0 -22.032,-12.672 c -17.424,0 -28.8,13.68 -28.8,34.848 0,21.024 11.376,34.704 28.512,34.704 a 24.48,24.48 0 0 0 21.6,-12.24 h 0.432 v 10.8 c 0,10.08 -7.2,16.848 -18.72,16.848 -6.768,0 -12.24,-2.448 -15.408,-6.48 -1.584,-2.16 -3.888,-3.888 -6.48,-3.888 -3.744,0 -6.768,3.6 -4.752,6.912 4.464,7.776 14.4,12.96 26.064,12.96 z"
     fill="#29343d"
     id="path221"
     style="stroke-width:1.44;fill:#ffffff;fill-opacity:1" />
  <path
     d="m 330.253,249.216 a 5.76,5.76 0 1 0 11.232,0 V 212.64 c 0,-9.504 5.76,-15.84 14.544,-15.84 2.88,0 6.048,-2.592 6.048,-5.472 v -0.72 c 0,-2.448 -1.728,-4.608 -4.176,-4.752 h -0.432 c -7.92,0 -14.112,4.896 -16.272,12.384 h -0.288 v -5.76 a 5.328,5.328 0 0 0 -10.656,0 z"
     fill="#0974d7"
     id="path223"
     style="stroke-width:1.44;fill:#ffffff;fill-opacity:1" />
  <path
     d="m 330.253,249.216 a 5.76,5.76 0 1 0 11.232,0 V 212.64 c 0,-9.504 5.76,-15.84 14.544,-15.84 2.88,0 6.048,-2.592 6.048,-5.472 v -0.72 c 0,-2.448 -1.728,-4.608 -4.176,-4.752 h -0.432 c -7.92,0 -14.112,4.896 -16.272,12.384 h -0.288 v -5.76 a 5.328,5.328 0 0 0 -10.656,0 z"
     fill="#f2f8ff"
     id="path225"
     style="stroke-width:1.44;fill:#ffffff;fill-opacity:1" />
  <path
     d="m 330.253,249.216 a 5.76,5.76 0 1 0 11.232,0 V 212.64 c 0,-9.504 5.76,-15.84 14.544,-15.84 2.88,0 6.048,-2.592 6.048,-5.472 v -0.72 c 0,-2.448 -1.728,-4.608 -4.176,-4.752 h -0.432 c -7.92,0 -14.112,4.896 -16.272,12.384 h -0.288 v -5.76 a 5.328,5.328 0 0 0 -10.656,0 z"
     fill="#29343d"
     id="path227"
     style="stroke-width:1.44;fill:#ffffff;fill-opacity:1" />
  <path
     d="m 395.053,195.936 c 10.656,0 17.712,8.064 18,19.44 h -36.72 c 0.72,-11.376 8.064,-19.44 18.72,-19.44 z m 22.032,39.744 c -2.448,0 -4.608,1.728 -6.192,3.744 -2.88,4.32 -8.208,6.912 -14.832,6.912 -12.24,0 -19.872,-8.64 -19.872,-21.6 v -0.576 h 48.528 v -4.32 c 0,-20.448 -11.232,-33.84 -29.52,-33.84 -18.72,0 -30.528,14.4 -30.528,35.424 0,21.312 11.664,34.848 31.104,34.848 11.952,0 21.6,-5.76 25.92,-14.256 1.728,-3.168 -1.008,-6.336 -4.608,-6.336 z"
     fill="#0974d7"
     id="path229"
     style="stroke-width:1.44;fill:#ffffff;fill-opacity:1" />
  <path
     d="m 395.053,195.936 c 10.656,0 17.712,8.064 18,19.44 h -36.72 c 0.72,-11.376 8.064,-19.44 18.72,-19.44 z m 22.032,39.744 c -2.448,0 -4.608,1.728 -6.192,3.744 -2.88,4.32 -8.208,6.912 -14.832,6.912 -12.24,0 -19.872,-8.64 -19.872,-21.6 v -0.576 h 48.528 v -4.32 c 0,-20.448 -11.232,-33.84 -29.52,-33.84 -18.72,0 -30.528,14.4 -30.528,35.424 0,21.312 11.664,34.848 31.104,34.848 11.952,0 21.6,-5.76 25.92,-14.256 1.728,-3.168 -1.008,-6.336 -4.608,-6.336 z"
     fill="#f2f8ff"
     id="path231"
     style="stroke-width:1.44;fill:#ffffff;fill-opacity:1" />
  <path
     d="m 395.053,195.936 c 10.656,0 17.712,8.064 18,19.44 h -36.72 c 0.72,-11.376 8.064,-19.44 18.72,-19.44 z m 22.032,39.744 c -2.448,0 -4.608,1.728 -6.192,3.744 -2.88,4.32 -8.208,6.912 -14.832,6.912 -12.24,0 -19.872,-8.64 -19.872,-21.6 v -0.576 h 48.528 v -4.32 c 0,-20.448 -11.232,-33.84 -29.52,-33.84 -18.72,0 -30.528,14.4 -30.528,35.424 0,21.312 11.664,34.848 31.104,34.848 11.952,0 21.6,-5.76 25.92,-14.256 1.728,-3.168 -1.008,-6.336 -4.608,-6.336 z"
     fill="#29343d"
     id="path233"
     style="stroke-width:1.44;fill:#ffffff;fill-opacity:1" />
  <path
     d="m 468.493,185.856 a 24.48,24.48 0 0 0 -21.888,12.672 h -0.288 v -6.048 a 5.328,5.328 0 1 0 -10.656,0 v 79.344 a 5.76,5.76 0 1 0 11.232,0 v -27.936 h 0.288 c 4.032,7.488 11.808,12.24 21.6,12.24 16.992,0 28.656,-13.824 28.656,-35.136 0,-21.312 -11.664,-35.136 -28.944,-35.136 z m -2.16,60.192 c -11.52,0 -19.44,-9.936 -19.44,-25.056 0,-15.12 7.776,-25.056 19.44,-25.056 11.952,0 19.584,9.792 19.584,25.056 0,15.408 -7.632,25.056 -19.584,25.056 z"
     fill="#0974d7"
     id="path235"
     style="stroke-width:1.44;fill:#ffffff;fill-opacity:1" />
  <path
     d="m 468.493,185.856 a 24.48,24.48 0 0 0 -21.888,12.672 h -0.288 v -6.048 a 5.328,5.328 0 1 0 -10.656,0 v 79.344 a 5.76,5.76 0 1 0 11.232,0 v -27.936 h 0.288 c 4.032,7.488 11.808,12.24 21.6,12.24 16.992,0 28.656,-13.824 28.656,-35.136 0,-21.312 -11.664,-35.136 -28.944,-35.136 z m -2.16,60.192 c -11.52,0 -19.44,-9.936 -19.44,-25.056 0,-15.12 7.776,-25.056 19.44,-25.056 11.952,0 19.584,9.792 19.584,25.056 0,15.408 -7.632,25.056 -19.584,25.056 z"
     fill="#f2f8ff"
     id="path237"
     style="stroke-width:1.44;fill:#ffffff;fill-opacity:1" />
  <path
     d="m 468.493,185.856 a 24.48,24.48 0 0 0 -21.888,12.672 h -0.288 v -6.048 a 5.328,5.328 0 1 0 -10.656,0 v 79.344 a 5.76,5.76 0 1 0 11.232,0 v -27.936 h 0.288 c 4.032,7.488 11.808,12.24 21.6,12.24 16.992,0 28.656,-13.824 28.656,-35.136 0,-21.312 -11.664,-35.136 -28.944,-35.136 z m -2.16,60.192 c -11.52,0 -19.44,-9.936 -19.44,-25.056 0,-15.12 7.776,-25.056 19.44,-25.056 11.952,0 19.584,9.792 19.584,25.056 0,15.408 -7.632,25.056 -19.584,25.056 z"
     fill="#29343d"
     id="path239"
     style="stroke-width:1.44;fill:#ffffff;fill-opacity:1" />
  <defs
     id="defs268">
    <linearGradient
       id="c"
       x1="75.6"
       x2="165"
       y1="20"
       y2="58.2"
       gradientUnits="userSpaceOnUse">
      <stop
         stop-color="#2ED02A"
         offset=".3"
         id="stop243" />
      <stop
         stop-color="#1E961B"
         offset=".6"
         id="stop245" />
    </linearGradient>
    <linearGradient
       id="d"
       x1="291"
       x2="199"
       y1="28.2"
       y2="64.5"
       gradientUnits="userSpaceOnUse">
      <stop
         stop-color="#2ED02A"
         offset=".3"
         id="stop248" />
      <stop
         stop-color="#1E961B"
         offset=".8"
         id="stop250" />
    </linearGradient>
    <filter
       id="b"
       x="42.8"
       y="-4"
       width="102"
       height="102"
       color-interpolation-filters="sRGB"
       filterUnits="userSpaceOnUse">
      <feFlood
         flood-opacity="0"
         result="BackgroundImageFix"
         id="feFlood253" />
      <feColorMatrix
         in="SourceAlpha"
         values="0 0 0 0 0 0 0 0 0 0 0 0 0 0 0 0 0 0 127 0"
         id="feColorMatrix255" />
      <feOffset
         dx="-4"
         id="feOffset257" />
      <feGaussianBlur
         stdDeviation="2"
         id="feGaussianBlur259" />
      <feColorMatrix
         values="0 0 0 0 0 0 0 0 0 0 0 0 0 0 0 0 0 0 0.23 0"
         id="feColorMatrix261" />
      <feBlend
         in2="BackgroundImageFix"
         result="effect1_dropShadow"
         id="feBlend263" />
      <feBlend
         in="SourceGraphic"
         in2="effect1_dropShadow"
         result="shape"
         id="feBlend265" />
    </filter>
    <mask
       maskUnits="userSpaceOnUse"
       id="mask537">
      <g
         id="g541"
         transform="matrix(0.69444444,0,0,0.69444444,0.65763889,-0.06666667)">
        <path
           d="m 139.885,0.096 a 67.68,67.68 0 1 0 54.144,108.576 67.68,67.68 0 0 0 108.432,0 A 67.68,67.68 0 0 0 424.285,67.92 67.68,67.68 0 0 0 302.461,27.168 67.68,67.68 0 0 0 194.029,27.168 67.68,67.68 0 0 0 139.885,0.096 Z M 99.277,67.92 a 40.68,40.68 0 1 0 81.36,0 40.68,40.68 0 0 0 -81.36,0 z m 216,2.16 a 73.008,73.008 0 0 0 0,-4.32 40.608,40.608 0 1 1 0,4.32 z m -27.072,-4.32 a 40.665406,40.665406 0 1 0 -81.216,4.32 40.665406,40.665406 0 0 0 81.216,-4.32 z"
           clip-rule="evenodd"
           fill="#1e961b"
           fill-rule="evenodd"
           id="path539"
           style="stroke-width:1.44" />
      </g>
    </mask>
    <mask
       maskUnits="userSpaceOnUse"
       id="mask543">
      <g
         id="g547"
         transform="matrix(0.69444444,0,0,0.69444444,0.65763889,-0.06666667)">
        <path
           d="m 139.885,0.096 a 67.68,67.68 0 1 0 54.144,108.576 67.68,67.68 0 0 0 108.432,0 A 67.68,67.68 0 0 0 424.285,67.92 67.68,67.68 0 0 0 302.461,27.168 67.68,67.68 0 0 0 194.029,27.168 67.68,67.68 0 0 0 139.885,0.096 Z M 99.277,67.92 a 40.68,40.68 0 1 0 81.36,0 40.68,40.68 0 0 0 -81.36,0 z m 216,2.16 a 73.008,73.008 0 0 0 0,-4.32 40.608,40.608 0 1 1 0,4.32 z m -27.072,-4.32 a 40.665406,40.665406 0 1 0 -81.216,4.32 40.665406,40.665406 0 0 0 81.216,-4.32 z"
           clip-rule="evenodd"
           fill="#1e961b"
           fill-rule="evenodd"
           id="path545"
           style="stroke-width:1.44" />
      </g>
    </mask>
    <mask
       maskUnits="userSpaceOnUse"
       id="mask549">
      <g
         id="g553"
         transform="matrix(0.69444444,0,0,0.69444444,0.65763889,-0.06666667)">
        <path
           d="m 139.885,0.096 a 67.68,67.68 0 1 0 54.144,108.576 67.68,67.68 0 0 0 108.432,0 A 67.68,67.68 0 0 0 424.285,67.92 67.68,67.68 0 0 0 302.461,27.168 67.68,67.68 0 0 0 194.029,27.168 67.68,67.68 0 0 0 139.885,0.096 Z M 99.277,67.92 a 40.68,40.68 0 1 0 81.36,0 40.68,40.68 0 0 0 -81.36,0 z m 216,2.16 a 73.008,73.008 0 0 0 0,-4.32 40.608,40.608 0 1 1 0,4.32 z m -27.072,-4.32 a 40.665406,40.665406 0 1 0 -81.216,4.32 40.665406,40.665406 0 0 0 81.216,-4.32 z"
           clip-rule="evenodd"
           fill="#1e961b"
           fill-rule="evenodd"
           id="path551"
           style="stroke-width:1.44" />
      </g>
    </mask>
    <mask
       maskUnits="userSpaceOnUse"
       id="mask555">
      <g
         id="g559"
         transform="matrix(0.69444444,0,0,0.69444444,0.65763889,-0.06666667)">
        <path
           d="m 139.885,0.096 a 67.68,67.68 0 1 0 54.144,108.576 67.68,67.68 0 0 0 108.432,0 A 67.68,67.68 0 0 0 424.285,67.92 67.68,67.68 0 0 0 302.461,27.168 67.68,67.68 0 0 0 194.029,27.168 67.68,67.68 0 0 0 139.885,0.096 Z M 99.277,67.92 a 40.68,40.68 0 1 0 81.36,0 40.68,40.68 0 0 0 -81.36,0 z m 216,2.16 a 73.008,73.008 0 0 0 0,-4.32 40.608,40.608 0 1 1 0,4.32 z m -27.072,-4.32 a 40.665406,40.665406 0 1 0 -81.216,4.32 40.665406,40.665406 0 0 0 81.216,-4.32 z"
           clip-rule="evenodd"
           fill="#1e961b"
           fill-rule="evenodd"
           id="path557"
           style="stroke-width:1.44" />
      </g>
    </mask>
    <mask
       maskUnits="userSpaceOnUse"
       id="mask574">
      <g
         id="g580"
         transform="matrix(0.69444444,0,0,0.69444444,0.65763889,-0.06666667)">
        <g
           id="g578">
          <path
             d="m 139.885,0.096 a 67.68,67.68 0 1 0 54.144,108.576 67.68,67.68 0 0 0 108.432,0 A 67.68,67.68 0 0 0 424.285,67.92 67.68,67.68 0 0 0 302.461,27.168 67.68,67.68 0 0 0 194.029,27.168 67.68,67.68 0 0 0 139.885,0.096 Z M 99.277,67.92 a 40.68,40.68 0 1 0 81.36,0 40.68,40.68 0 0 0 -81.36,0 z m 216,2.16 a 73.008,73.008 0 0 0 0,-4.32 40.608,40.608 0 1 1 0,4.32 z m -27.072,-4.32 a 40.665406,40.665406 0 1 0 -81.216,4.32 40.665406,40.665406 0 0 0 81.216,-4.32 z"
             clip-rule="evenodd"
             fill="#1e961b"
             fill-rule="evenodd"
             id="path576"
             style="stroke-width:1.44" />
        </g>
      </g>
    </mask>
  </defs>
</svg>
