<svg xmlns="http://www.w3.org/2000/svg" xmlns:xlink="http://www.w3.org/1999/xlink" fill="none" viewBox="0 0 497 280"><defs><path id="i" fill="#fff" d="M5.533 229.056c-3.456 0-6.336 3.024-5.328 6.336 3.888 12.672 16.416 20.448 34.128 20.448 21.024 0 34.56-10.8 34.56-28.224 0-13.392-7.632-21.168-27.36-25.488l-10.224-2.304c-12.96-2.88-17.856-7.776-17.856-15.264 0-9.648 9.072-15.264 20.736-15.264 10.08 0 17.28 4.176 20.16 11.232 1.152 2.88 3.6 5.328 6.624 5.328 3.456 0 6.336-2.88 5.472-6.192-3.456-12.528-15.84-21.024-31.968-21.024-19.44 0-33.12 10.944-33.12 26.496 0 13.248 8.208 21.888 26.928 25.92l10.512 2.304c12.96 2.88 18.144 8.064 18.144 15.984 0 9.216-9.216 15.84-22.032 15.84-10.944 0-19.296-4.032-22.608-11.088-1.44-2.736-3.744-5.04-6.768-5.04z"/><path id="j" fill="#fff" d="M468.493 185.856a24.48 24.48 0 0 0-21.888 12.672h-.288v-6.048a5.328 5.328 0 1 0-10.656 0v79.344a5.76 5.76 0 1 0 11.232 0v-27.936h.288c4.032 7.488 11.808 12.24 21.6 12.24 16.992 0 28.656-13.824 28.656-35.136 0-21.312-11.664-35.136-28.944-35.136zm-2.16 60.192c-11.52 0-19.44-9.936-19.44-25.056 0-15.12 7.776-25.056 19.44-25.056 11.952 0 19.584 9.792 19.584 25.056 0 15.408-7.632 25.056-19.584 25.056z"/><path id="k" fill="#1e961b" fill-rule="evenodd" stroke-width="1.44" d="M97.8 0a47 47 0 1 0 37.6 75.4 47 47 0 0 0 75.3 0 47 47 0 0 0 84.6-28.3 47 47 0 0 0-84.6-28.3 47 47 0 0 0-75.3 0A47 47 0 0 0 97.8 0ZM69.6 47.1a28.25 28.25 0 1 0 56.5 0 28.25 28.25 0 0 0-56.5 0zm150 1.5a50.7 50.7 0 0 0 0-3 28.2 28.2 0 1 1 0 3zm-18.8-3a28.2399 28.2399 0 1 0-56.4 3 28.2399 28.2399 0 0 0 56.4-3z" clip-rule="evenodd"/></defs><path fill="url(#a)" fill-rule="evenodd" d="M69.6 47.1a28.25 28.25 0 1 0 56.5 0 28.25 28.25 0 0 0-56.5 0zM97.8 0a47.05 47.05 0 1 0 0 94.1 47.05 47.05 0 0 0 0-94.1z" clip-rule="evenodd" filter="url(#b)" mask="url(#c)" transform="matrix(1.44 0 0 1.44 -.947 .096)"/><path fill="url(#d)" fill-rule="evenodd" d="M220 47.1a28.25 28.25 0 1 0 56.5 0 28.2 28.2 0 0 0-56.4 0zM248.4 0a47.05 47.05 0 1 0 0 94.1 47.05 47.05 0 0 0 0-94.1z" clip-rule="evenodd" mask="url(#e)" transform="matrix(1.44 0 0 1.44 -.947 .096)"/><path fill="#1e961b" fill-rule="evenodd" d="M145 47.1a28.25 28.25 0 1 0 56.5 0 28.25 28.25 0 0 0-56.5 0zM173.1 0a47.05 47.05 0 1 0 0 94.1 47.05 47.05 0 0 0 0-94.1z" clip-rule="evenodd" mask="url(#f)" transform="matrix(1.44 0 0 1.44 -.947 .096)"/><path fill="#f2f8ff" d="M173 75.4A28.2 28.2 0 0 1 144.8 47a47 47 0 1 0-94 0h18.8a28.2 28.2 0 1 1 56.4 0 47 47 0 1 0 94 0 28.25 28.25 0 1 1 56.5 0h18.8a47 47 0 1 0-94 0A28.2 28.2 0 0 1 173 75.4z" mask="url(#g)" transform="matrix(1.44 0 0 1.44 -.947 .096)"/><path fill="#2ed02a" d="M173 75.4A28.2 28.2 0 0 1 144.8 47a47 47 0 1 0-94 0h18.8a28.2 28.2 0 1 1 56.4 0 47 47 0 1 0 94 0 28.25 28.25 0 1 1 56.5 0h18.8a47 47 0 1 0-94 0A28.2 28.2 0 0 1 173 75.4z" mask="url(#h)" transform="matrix(1.44 0 0 1.44 -.947 .096)"/><use xlink:href="#i"/><use xlink:href="#i"/><path fill="#fff" d="M5.533 229.056c-3.456 0-6.336 3.024-5.328 6.336 3.888 12.672 16.416 20.448 34.128 20.448 21.024 0 34.56-10.8 34.56-28.224 0-13.392-7.632-21.168-27.36-25.488l-10.224-2.304c-12.96-2.88-17.856-7.776-17.856-15.264 0-9.648 9.072-15.264 20.736-15.264 10.08 0 17.28 4.176 20.16 11.232 1.152 2.88 3.6 5.328 6.624 5.328 3.456 0 6.336-2.88 5.472-6.192-3.456-12.528-15.84-21.024-31.968-21.024-19.44 0-33.12 10.944-33.12 26.496 0 13.248 8.208 21.888 26.928 25.92l10.512 2.304c12.96 2.88 18.144 8.064 18.144 15.984 0 9.216-9.216 15.84-22.032 15.84-10.944 0-19.296-4.032-22.608-11.088-1.44-2.736-3.744-5.04-6.768-5.04zm102.528-33.12c10.656 0 17.712 8.064 18 19.44h-36.72c.72-11.376 8.064-19.44 18.72-19.44zm22.032 39.744c-2.592 0-4.752 1.728-6.192 3.744-2.88 4.32-8.208 6.912-14.832 6.912-12.24 0-19.872-8.64-19.872-21.6v-.576h48.528v-4.32c0-20.448-11.232-33.84-29.52-33.84-18.72 0-30.528 14.4-30.528 35.424 0 21.312 11.664 34.848 31.104 34.848 11.952 0 21.6-5.76 25.92-14.256 1.728-3.168-1.008-6.336-4.608-6.336z"/><path fill="#fff" d="M108.061 195.936c10.656 0 17.712 8.064 18 19.44h-36.72c.72-11.376 8.064-19.44 18.72-19.44zm22.032 39.744c-2.592 0-4.752 1.728-6.192 3.744-2.88 4.32-8.208 6.912-14.832 6.912-12.24 0-19.872-8.64-19.872-21.6v-.576h48.528v-4.32c0-20.448-11.232-33.84-29.52-33.84-18.72 0-30.528 14.4-30.528 35.424 0 21.312 11.664 34.848 31.104 34.848 11.952 0 21.6-5.76 25.92-14.256 1.728-3.168-1.008-6.336-4.608-6.336z"/><path fill="#fff" d="M108.061 195.936c10.656 0 17.712 8.064 18 19.44h-36.72c.72-11.376 8.064-19.44 18.72-19.44zm22.032 39.744c-2.592 0-4.752 1.728-6.192 3.744-2.88 4.32-8.208 6.912-14.832 6.912-12.24 0-19.872-8.64-19.872-21.6v-.576h48.528v-4.32c0-20.448-11.232-33.84-29.52-33.84-18.72 0-30.528 14.4-30.528 35.424 0 21.312 11.664 34.848 31.104 34.848 11.952 0 21.6-5.76 25.92-14.256 1.728-3.168-1.008-6.336-4.608-6.336zm18.72 13.536a5.76 5.76 0 1 0 11.232 0v-36.864c0-9.36 6.624-16.416 15.552-16.416 8.352 0 13.824 5.328 13.824 13.536v39.744a5.76 5.76 0 1 0 11.376 0v-37.44c0-9.216 6.336-15.84 15.264-15.84 8.928 0 13.968 5.472 13.968 14.688v38.592a5.76 5.76 0 1 0 11.376 0v-41.184c0-13.392-8.64-22.176-22.032-22.176-9.504 0-17.424 4.896-21.168 12.96h-.288c-2.88-8.208-9.792-12.96-19.008-12.96a20.16 20.16 0 0 0-19.152 12.096h-.288v-5.472a5.328 5.328 0 0 0-10.656 0z"/><path fill="#fff" d="M148.813 249.216a5.76 5.76 0 1 0 11.232 0v-36.864c0-9.36 6.624-16.416 15.552-16.416 8.352 0 13.824 5.328 13.824 13.536v39.744a5.76 5.76 0 1 0 11.376 0v-37.44c0-9.216 6.336-15.84 15.264-15.84 8.928 0 13.968 5.472 13.968 14.688v38.592a5.76 5.76 0 1 0 11.376 0v-41.184c0-13.392-8.64-22.176-22.032-22.176-9.504 0-17.424 4.896-21.168 12.96h-.288c-2.88-8.208-9.792-12.96-19.008-12.96a20.16 20.16 0 0 0-19.152 12.096h-.288v-5.472a5.328 5.328 0 0 0-10.656 0z"/><path fill="#fff" d="M148.813 249.216a5.76 5.76 0 1 0 11.232 0v-36.864c0-9.36 6.624-16.416 15.552-16.416 8.352 0 13.824 5.328 13.824 13.536v39.744a5.76 5.76 0 1 0 11.376 0v-37.44c0-9.216 6.336-15.84 15.264-15.84 8.928 0 13.968 5.472 13.968 14.688v38.592a5.76 5.76 0 1 0 11.376 0v-41.184c0-13.392-8.64-22.176-22.032-22.176-9.504 0-17.424 4.896-21.168 12.96h-.288c-2.88-8.208-9.792-12.96-19.008-12.96a20.16 20.16 0 0 0-19.152 12.096h-.288v-5.472a5.328 5.328 0 0 0-10.656 0zm135.36-4.32c-11.52 0-19.152-9.36-19.152-24.48 0-15.264 7.488-24.912 19.152-24.912 11.808 0 19.728 9.936 19.728 24.768 0 14.976-7.92 24.768-19.728 24.768zm.432 35.136c18.72 0 30.528-10.8 30.528-26.928v-61.056a5.4 5.4 0 0 0-10.8 0v6.048h-.144a24.48 24.48 0 0 0-22.032-12.672c-17.424 0-28.8 13.68-28.8 34.848 0 21.024 11.376 34.704 28.512 34.704a24.48 24.48 0 0 0 21.6-12.24h.432v10.8c0 10.08-7.2 16.848-18.72 16.848-6.768 0-12.24-2.448-15.408-6.48-1.584-2.16-3.888-3.888-6.48-3.888-3.744 0-6.768 3.6-4.752 6.912 4.464 7.776 14.4 12.96 26.064 12.96z"/><path fill="#fff" d="M284.173 244.896c-11.52 0-19.152-9.36-19.152-24.48 0-15.264 7.488-24.912 19.152-24.912 11.808 0 19.728 9.936 19.728 24.768 0 14.976-7.92 24.768-19.728 24.768zm.432 35.136c18.72 0 30.528-10.8 30.528-26.928v-61.056a5.4 5.4 0 0 0-10.8 0v6.048h-.144a24.48 24.48 0 0 0-22.032-12.672c-17.424 0-28.8 13.68-28.8 34.848 0 21.024 11.376 34.704 28.512 34.704a24.48 24.48 0 0 0 21.6-12.24h.432v10.8c0 10.08-7.2 16.848-18.72 16.848-6.768 0-12.24-2.448-15.408-6.48-1.584-2.16-3.888-3.888-6.48-3.888-3.744 0-6.768 3.6-4.752 6.912 4.464 7.776 14.4 12.96 26.064 12.96z"/><path fill="#fff" d="M284.173 244.896c-11.52 0-19.152-9.36-19.152-24.48 0-15.264 7.488-24.912 19.152-24.912 11.808 0 19.728 9.936 19.728 24.768 0 14.976-7.92 24.768-19.728 24.768zm.432 35.136c18.72 0 30.528-10.8 30.528-26.928v-61.056a5.4 5.4 0 0 0-10.8 0v6.048h-.144a24.48 24.48 0 0 0-22.032-12.672c-17.424 0-28.8 13.68-28.8 34.848 0 21.024 11.376 34.704 28.512 34.704a24.48 24.48 0 0 0 21.6-12.24h.432v10.8c0 10.08-7.2 16.848-18.72 16.848-6.768 0-12.24-2.448-15.408-6.48-1.584-2.16-3.888-3.888-6.48-3.888-3.744 0-6.768 3.6-4.752 6.912 4.464 7.776 14.4 12.96 26.064 12.96zm45.648-30.816a5.76 5.76 0 1 0 11.232 0V212.64c0-9.504 5.76-15.84 14.544-15.84 2.88 0 6.048-2.592 6.048-5.472v-.72c0-2.448-1.728-4.608-4.176-4.752h-.432c-7.92 0-14.112 4.896-16.272 12.384h-.288v-5.76a5.328 5.328 0 0 0-10.656 0z"/><path fill="#fff" d="M330.253 249.216a5.76 5.76 0 1 0 11.232 0V212.64c0-9.504 5.76-15.84 14.544-15.84 2.88 0 6.048-2.592 6.048-5.472v-.72c0-2.448-1.728-4.608-4.176-4.752h-.432c-7.92 0-14.112 4.896-16.272 12.384h-.288v-5.76a5.328 5.328 0 0 0-10.656 0z"/><path fill="#fff" d="M330.253 249.216a5.76 5.76 0 1 0 11.232 0V212.64c0-9.504 5.76-15.84 14.544-15.84 2.88 0 6.048-2.592 6.048-5.472v-.72c0-2.448-1.728-4.608-4.176-4.752h-.432c-7.92 0-14.112 4.896-16.272 12.384h-.288v-5.76a5.328 5.328 0 0 0-10.656 0zm64.8-53.28c10.656 0 17.712 8.064 18 19.44h-36.72c.72-11.376 8.064-19.44 18.72-19.44zm22.032 39.744c-2.448 0-4.608 1.728-6.192 3.744-2.88 4.32-8.208 6.912-14.832 6.912-12.24 0-19.872-8.64-19.872-21.6v-.576h48.528v-4.32c0-20.448-11.232-33.84-29.52-33.84-18.72 0-30.528 14.4-30.528 35.424 0 21.312 11.664 34.848 31.104 34.848 11.952 0 21.6-5.76 25.92-14.256 1.728-3.168-1.008-6.336-4.608-6.336z"/><path fill="#fff" d="M395.053 195.936c10.656 0 17.712 8.064 18 19.44h-36.72c.72-11.376 8.064-19.44 18.72-19.44zm22.032 39.744c-2.448 0-4.608 1.728-6.192 3.744-2.88 4.32-8.208 6.912-14.832 6.912-12.24 0-19.872-8.64-19.872-21.6v-.576h48.528v-4.32c0-20.448-11.232-33.84-29.52-33.84-18.72 0-30.528 14.4-30.528 35.424 0 21.312 11.664 34.848 31.104 34.848 11.952 0 21.6-5.76 25.92-14.256 1.728-3.168-1.008-6.336-4.608-6.336z"/><path fill="#fff" d="M395.053 195.936c10.656 0 17.712 8.064 18 19.44h-36.72c.72-11.376 8.064-19.44 18.72-19.44zm22.032 39.744c-2.448 0-4.608 1.728-6.192 3.744-2.88 4.32-8.208 6.912-14.832 6.912-12.24 0-19.872-8.64-19.872-21.6v-.576h48.528v-4.32c0-20.448-11.232-33.84-29.52-33.84-18.72 0-30.528 14.4-30.528 35.424 0 21.312 11.664 34.848 31.104 34.848 11.952 0 21.6-5.76 25.92-14.256 1.728-3.168-1.008-6.336-4.608-6.336zm51.408-49.824a24.48 24.48 0 0 0-21.888 12.672h-.288v-6.048a5.328 5.328 0 1 0-10.656 0v79.344a5.76 5.76 0 1 0 11.232 0v-27.936h.288c4.032 7.488 11.808 12.24 21.6 12.24 16.992 0 28.656-13.824 28.656-35.136 0-21.312-11.664-35.136-28.944-35.136zm-2.16 60.192c-11.52 0-19.44-9.936-19.44-25.056 0-15.12 7.776-25.056 19.44-25.056 11.952 0 19.584 9.792 19.584 25.056 0 15.408-7.632 25.056-19.584 25.056z"/><use xlink:href="#j"/><use xlink:href="#j"/><defs><mask id="h" maskUnits="userSpaceOnUse"><use xlink:href="#k" fill-rule="evenodd" stroke-width="1.44" clip-rule="evenodd"/></mask><mask id="g" maskUnits="userSpaceOnUse"><use xlink:href="#k" fill-rule="evenodd" stroke-width="1.44" clip-rule="evenodd"/></mask><mask id="f" maskUnits="userSpaceOnUse"><use xlink:href="#k" fill-rule="evenodd" stroke-width="1.44" clip-rule="evenodd"/></mask><mask id="e" maskUnits="userSpaceOnUse"><use xlink:href="#k" fill-rule="evenodd" stroke-width="1.44" clip-rule="evenodd"/></mask><mask id="c" maskUnits="userSpaceOnUse"><use xlink:href="#k" fill-rule="evenodd" stroke-width="1.44" clip-rule="evenodd"/></mask><linearGradient id="a" x1="75.6" x2="165" y1="20" y2="58.2" gradientUnits="userSpaceOnUse"><stop offset=".3" stop-color="#2ED02A"/><stop offset=".6" stop-color="#1E961B"/></linearGradient><linearGradient id="d" x1="291" x2="199" y1="28.2" y2="64.5" gradientUnits="userSpaceOnUse"><stop offset=".3" stop-color="#2ED02A"/><stop offset=".8" stop-color="#1E961B"/></linearGradient><filter id="b" width="102" height="102" x="42.8" y="-4" color-interpolation-filters="sRGB" filterUnits="userSpaceOnUse"><feFlood flood-opacity="0" result="BackgroundImageFix"/><feColorMatrix in="SourceAlpha" values="0 0 0 0 0 0 0 0 0 0 0 0 0 0 0 0 0 0 127 0"/><feOffset dx="-4"/><feGaussianBlur stdDeviation="2"/><feColorMatrix values="0 0 0 0 0 0 0 0 0 0 0 0 0 0 0 0 0 0 0.23 0"/><feBlend in2="BackgroundImageFix" result="effect1_dropShadow"/><feBlend in="SourceGraphic" in2="effect1_dropShadow" result="shape"/></filter></defs></svg>
