<?xml version="1.0" encoding="UTF-8" standalone="no"?>
<svg
   width="323.32187pt"
   height="323.32684pt"
   version="1.1"
   viewBox="0 0 323.32187 323.32684"
   id="svg4736"
   xmlns="http://www.w3.org/2000/svg"
   xmlns:svg="http://www.w3.org/2000/svg">
  <defs
     id="defs4646">
    <symbol
       id="w"
       overflow="visible">
      <path
         d="m 18.828,-1.125 c -0.98047,0.5 -1.9961,0.875 -3.0469,1.125 -1.043,0.25781 -2.1367,0.39062 -3.2812,0.39062 -3.418,0 -6.1211,-0.95312 -8.1094,-2.8594 -1.9922,-1.9062 -2.9844,-4.4883 -2.9844,-7.75 0,-3.2695 0.99219,-5.8594 2.9844,-7.7656 1.9883,-1.9062 4.6914,-2.8594 8.1094,-2.8594 1.1445,0 2.2383,0.13281 3.2812,0.39062 1.0508,0.25 2.0664,0.625 3.0469,1.125 v 4.2344 c -0.98047,-0.66406 -1.9492,-1.1562 -2.9062,-1.4688 -0.94922,-0.3125 -1.9492,-0.46875 -3,-0.46875 -1.8867,0 -3.3711,0.60547 -4.4531,1.8125 -1.0742,1.2109 -1.6094,2.875 -1.6094,5 0,2.1172 0.53516,3.7773 1.6094,4.9844 1.082,1.2109 2.5664,1.8125 4.4531,1.8125 1.0508,0 2.0508,-0.15625 3,-0.46875 0.95703,-0.3125 1.9258,-0.80078 2.9062,-1.4688 z"
         id="path4577" />
    </symbol>
    <symbol
       id="d"
       overflow="visible">
      <path
         d="m 13.766,-11.188 c -0.42969,-0.19531 -0.85547,-0.34375 -1.2812,-0.4375 -0.41797,-0.09375 -0.84375,-0.14062 -1.2812,-0.14062 -1.2617,0 -2.2344,0.40625 -2.9219,1.2188 -0.67969,0.80469 -1.0156,1.9609 -1.0156,3.4688 v 7.0781 H 2.3599 v -15.359 h 4.9062 v 2.5156 c 0.63281,-1 1.3594,-1.7266 2.1719,-2.1875 0.82031,-0.46875 1.8047,-0.70312 2.9531,-0.70312 0.16406,0 0.34375,0.01172 0.53125,0.03125 0.1875,0.01172 0.46875,0.03906 0.84375,0.07813 z"
         id="path4580" />
    </symbol>
    <symbol
       id="a"
       overflow="visible">
      <path
         d="m 17.703,-7.7188 v 1.3906 H 6.219 c 0.11328,1.1562 0.52344,2.0273 1.2344,2.6094 0.71875,0.57422 1.7188,0.85938 3,0.85938 1.0312,0 2.0859,-0.14844 3.1719,-0.45312 1.082,-0.3125 2.1953,-0.78125 3.3438,-1.4062 v 3.7812 c -1.1562,0.4375 -2.3203,0.76562 -3.4844,0.98438 -1.1562,0.22656 -2.3203,0.34375 -3.4844,0.34375 -2.7812,0 -4.9453,-0.70312 -6.4844,-2.1094 -1.543,-1.4141 -2.3125,-3.3984 -2.3125,-5.9531 0,-2.5 0.75391,-4.4688 2.2656,-5.9062 1.5195,-1.4375 3.6016,-2.1562 6.25,-2.1562 2.4141,0 4.3477,0.73047 5.7969,2.1875 1.457,1.4492 2.1875,3.3906 2.1875,5.8281 z m -5.0625,-1.6406 c 0,-0.92578 -0.27344,-1.6758 -0.8125,-2.25 -0.54297,-0.57031 -1.25,-0.85938 -2.125,-0.85938 -0.96094,0 -1.7344,0.27344 -2.3281,0.8125 -0.59375,0.53125 -0.96484,1.2969 -1.1094,2.2969 z"
         id="path4583" />
    </symbol>
    <symbol
       id="c"
       overflow="visible">
      <path
         d="m 9.25,-6.9062 c -1.0312,0 -1.8086,0.17188 -2.3281,0.51562 -0.51172,0.34375 -0.76562,0.85547 -0.76562,1.5312 0,0.625 0.20703,1.1172 0.625,1.4688 0.41406,0.35547 0.99219,0.53125 1.7344,0.53125 0.92578,0 1.7031,-0.33203 2.3281,-1 0.63281,-0.66406 0.95312,-1.4922 0.95312,-2.4844 v -0.5625 z m 7.5,-1.8594 V 0 h -4.9531 v -2.2812 c -0.65625,0.9375 -1.3984,1.6211 -2.2188,2.0469 -0.82422,0.41406 -1.8242,0.625 -3,0.625 -1.5938,0 -2.8906,-0.46094 -3.8906,-1.3906 -0.99219,-0.92578 -1.4844,-2.1289 -1.4844,-3.6094 0,-1.8008 0.61719,-3.1172 1.8594,-3.9531 C 4.3008,-9.40615 6.25,-9.828 8.9063,-9.828 h 2.8906 v -0.39062 c 0,-0.78125 -0.30859,-1.3477 -0.92188,-1.7031 -0.61719,-0.36328 -1.5703,-0.54688 -2.8594,-0.54688 -1.0547,0 -2.0312,0.10547 -2.9375,0.3125 -0.90625,0.21094 -1.75,0.52734 -2.5312,0.95312 v -3.75 c 1.0508,-0.25781 2.1094,-0.45312 3.1719,-0.57812 1.0625,-0.13281 2.125,-0.20312 3.1875,-0.20312 2.7695,0 4.7695,0.54688 6,1.6406 1.2266,1.0938 1.8438,2.8711 1.8438,5.3281 z"
         id="path4586" />
    </symbol>
    <symbol
       id="b"
       overflow="visible">
      <path
         d="m 7.7188,-19.719 v 4.3594 h 5.0625 v 3.5 H 7.7188 v 6.5156 c 0,0.71875 0.14062,1.2031 0.42188,1.4531 0.28906,0.25 0.85156,0.375 1.6875,0.375 h 2.5312 V -3e-4 h -4.2188 c -1.9375,0 -3.3125,-0.39844 -4.125,-1.2031 -0.80469,-0.8125 -1.2031,-2.1914 -1.2031,-4.1406 v -6.5156 h -2.4375 v -3.5 h 2.4375 v -4.3594 z"
         id="path4589" />
    </symbol>
    <symbol
       id="k"
       overflow="visible">
      <path
         d="m 12.812,-13.109 v -8.2344 h 4.9375 V 6e-4 H 12.812 v -2.2188 c -0.67969,0.90625 -1.4219,1.5703 -2.2344,1.9844 -0.8125,0.4141 -1.7578,0.625 -2.8281,0.625 -1.8984,0 -3.4531,-0.75 -4.6719,-2.25 -1.2109,-1.5 -1.8125,-3.4375 -1.8125,-5.8125 0,-2.3633 0.60156,-4.2969 1.8125,-5.7969 1.2188,-1.5078 2.7734,-2.2656 4.6719,-2.2656 1.0625,0 2,0.21484 2.8125,0.64062 0.82031,0.42969 1.5703,1.0898 2.25,1.9844 z m -3.2344,9.9375 c 1.0508,0 1.8516,-0.37891 2.4062,-1.1406 0.55078,-0.76953 0.82812,-1.8906 0.82812,-3.3594 0,-1.457 -0.27734,-2.5703 -0.82812,-3.3438 -0.55469,-0.76953 -1.3555,-1.1562 -2.4062,-1.1562 -1.043,0 -1.8438,0.38672 -2.4062,1.1562 -0.55469,0.77344 -0.82812,1.8867 -0.82812,3.3438 0,1.4688 0.27344,2.5898 0.82812,3.3594 0.5625,0.76172 1.3633,1.1406 2.4062,1.1406 z"
         id="path4592" />
    </symbol>
    <symbol
       id="j"
       overflow="visible">
      <path
         d="m 10.531,-3.1719 c 1.0508,0 1.8516,-0.37891 2.4062,-1.1406 0.55078,-0.76953 0.82812,-1.8906 0.82812,-3.3594 0,-1.457 -0.27734,-2.5703 -0.82812,-3.3438 -0.55469,-0.76953 -1.3555,-1.1562 -2.4062,-1.1562 -1.0547,0 -1.8594,0.39062 -2.4219,1.1719 -0.5625,0.77344 -0.84375,1.8828 -0.84375,3.3281 0,1.4609 0.28125,2.5742 0.84375,3.3438 0.5625,0.77344 1.3672,1.1562 2.4219,1.1562 z m -3.2656,-9.9375 c 0.67578,-0.89453 1.4258,-1.5547 2.25,-1.9844 0.82031,-0.42578 1.7695,-0.64062 2.8438,-0.64062 1.8945,0 3.4453,0.75781 4.6562,2.2656 1.2188,1.5 1.8281,3.4336 1.8281,5.7969 0,2.375 -0.60938,4.3125 -1.8281,5.8125 -1.2109,1.5 -2.7617,2.25 -4.6562,2.25 -1.0742,0 -2.0234,-0.21094 -2.8438,-0.625 -0.82422,-0.42578 -1.5742,-1.0859 -2.25,-1.9844 V -2e-5 H 2.3592 v -21.344 h 4.9062 z"
         id="path4595" />
    </symbol>
    <symbol
       id="i"
       overflow="visible">
      <path
         d="m 0.34375,-15.359 h 4.9062 l 4.1406,10.422 3.5,-10.422 h 4.9219 L 11.34365,1.453 C 10.69521,3.16 9.94135,4.3514 9.07805,5.0311 8.21086,5.7186 7.07025,6.0623 5.65615,6.0623 H 2.81235 V 2.8435 h 1.5312 c 0.83203,0 1.4375,-0.13672 1.8125,-0.40625 C 6.53886,2.17553 6.83574,1.70287 7.04667,1.01535 L 7.18729,0.59347 Z"
         id="path4598" />
    </symbol>
    <symbol
       id="g"
       overflow="visible">
      <path
         d="m 7.8594,-16.484 v 12.5 H 9.75 c 2.1562,0 3.8008,-0.53516 4.9375,-1.6094 1.1445,-1.0703 1.7188,-2.6289 1.7188,-4.6719 0,-2.0312 -0.57031,-3.5703 -1.7031,-4.625 -1.1367,-1.0625 -2.7891,-1.5938 -4.9531,-1.5938 z m -5.2812,-4 h 5.5625 c 3.1133,0 5.4297,0.22656 6.9531,0.67188 1.5195,0.4375 2.8281,1.1875 3.9219,2.25 0.95703,0.92969 1.6719,1.9961 2.1406,3.2031 0.46875,1.2109 0.70312,2.5742 0.70312,4.0938 0,1.5547 -0.23438,2.9336 -0.70312,4.1406 -0.46875,1.2109 -1.1836,2.2773 -2.1406,3.2031 -1.1055,1.0625 -2.4297,1.8203 -3.9688,2.2656 C 13.5157,-0.21842 11.211,3.3e-4 8.1407,3.3e-4 H 2.5782 Z"
         id="path4601" />
    </symbol>
    <symbol
       id="v"
       overflow="visible">
      <path
         d="m 0.98438,-15.359 h 4.7812 l 2.5781,10.578 2.5938,-10.578 h 4.0938 l 2.5781,10.469 2.5938,-10.469 h 4.7812 L 20.93748,0 h -5.375 L 12.98438,-10.562 10.39058,0 h -5.3594 z"
         id="path4604" />
    </symbol>
    <symbol
       id="f"
       overflow="visible">
      <path
         d="M 17.812,-9.3594 V 0 h -4.9531 v -7.1562 c 0,-1.332 -0.03125,-2.25 -0.09375,-2.75 -0.05469,-0.5 -0.15234,-0.86719 -0.29688,-1.1094 -0.1875,-0.32031 -0.44922,-0.57031 -0.78125,-0.75 -0.33594,-0.17578 -0.71094,-0.26562 -1.125,-0.26562 -1.0234,0 -1.8281,0.39844 -2.4219,1.1875 -0.58594,0.79297 -0.875,1.8867 -0.875,3.2812 V -2e-5 h -4.9062 v -15.359 h 4.9062 v 2.25 c 0.73828,-0.89453 1.5234,-1.5547 2.3594,-1.9844 0.83203,-0.42578 1.7539,-0.64062 2.7656,-0.64062 1.7695,0 3.1133,0.54688 4.0312,1.6406 0.92578,1.0859 1.3906,2.6641 1.3906,4.7344 z"
         id="path4607" />
    </symbol>
    <symbol
       id="h"
       overflow="visible">
      <path
         d="m 14.359,-14.891 v 3.7344 c -1.0547,-0.4375 -2.0703,-0.76562 -3.0469,-0.98438 -0.98047,-0.21875 -1.9023,-0.32812 -2.7656,-0.32812 -0.9375,0 -1.6367,0.12109 -2.0938,0.35938 -0.44922,0.23047 -0.67188,0.58594 -0.67188,1.0625 0,0.39844 0.17188,0.69922 0.51562,0.90625 0.34375,0.21094 0.95703,0.36719 1.8438,0.46875 l 0.875,0.125 c 2.5078,0.32422 4.1953,0.85156 5.0625,1.5781 0.875,0.73047 1.3125,1.875 1.3125,3.4375 0,1.6367 -0.60547,2.8672 -1.8125,3.6875 -1.2109,0.82422 -3.0117,1.2344 -5.4062,1.2344 -1.0117,0 -2.0586,-0.078125 -3.1406,-0.23438 -1.0859,-0.15625 -2.1992,-0.39453 -3.3438,-0.71875 v -3.7344 c 0.97656,0.48047 1.9766,0.83984 3,1.0781 1.0312,0.24219 2.0781,0.35938 3.1406,0.35938 0.95703,0 1.6797,-0.12891 2.1719,-0.39062 0.48828,-0.26953 0.73438,-0.66406 0.73438,-1.1875 0,-0.44531 -0.17188,-0.77344 -0.51562,-0.98438 -0.33594,-0.21875 -0.99609,-0.38281 -1.9844,-0.5 L 7.359,-6.03165 C 5.1793,-6.3129 3.6481,-6.82071 2.7652,-7.56285 c -0.875,-0.73828 -1.3125,-1.8633 -1.3125,-3.375 0,-1.625 0.55469,-2.8281 1.6719,-3.6094 1.1133,-0.78906 2.8281,-1.1875 5.1406,-1.1875 0.89453,0 1.8438,0.07031 2.8438,0.20312 1,0.13672 2.082,0.35156 3.25,0.64062 z"
         id="path4610" />
    </symbol>
    <symbol
       id="u"
       overflow="visible">
      <path
         d="M 2.3594,-15.359 H 7.2656 V 0 H 2.3594 Z m 0,-5.9844 h 4.9062 v 4 H 2.3594 Z"
         id="path4613" />
    </symbol>
    <symbol
       id="t"
       overflow="visible">
      <path
         d="M 12.812,-2.6094 C 12.13231,-1.71096 11.3901,-1.0508 10.5776,-0.625 9.7651,-0.20703 8.8198,0 7.7495,0 5.8745,0 4.3198,-0.73828 3.0933,-2.2188 1.8745,-3.6954 1.2652,-5.5782 1.2652,-7.8594 c 0,-2.2891 0.60938,-4.1719 1.8281,-5.6406 1.2266,-1.4688 2.7812,-2.2031 4.6562,-2.2031 1.0703,0 2.0156,0.21484 2.8281,0.64062 0.8125,0.41797 1.5547,1.0742 2.2344,1.9688 v -2.2656 h 4.9375 v 13.812 c 0,2.4688 -0.78125,4.3516 -2.3438,5.6562 -1.5547,1.3008 -3.8125,1.9531 -6.7812,1.9531 -0.96094,0 -1.8867,-0.074219 -2.7812,-0.21875 C 4.94486,5.69483 4.0464,5.47218 3.1402,5.17139 v -3.8281 c 0.86328,0.48828 1.707,0.85156 2.5312,1.0938 0.82031,0.25 1.6445,0.375 2.4688,0.375 1.6133,0 2.7969,-0.35547 3.5469,-1.0625 0.75,-0.69922 1.125,-1.7969 1.125,-3.2969 z m -3.2344,-9.5625 c -1.0234,0 -1.8203,0.375 -2.3906,1.125 -0.5625,0.75 -0.84375,1.8125 -0.84375,3.1875 0,1.4062 0.27344,2.4766 0.82812,3.2031 0.55078,0.73047 1.3516,1.0938 2.4062,1.0938 1.0195,0 1.8125,-0.375 2.375,-1.125 0.57031,-0.75 0.85938,-1.8047 0.85938,-3.1719 0,-1.375 -0.28906,-2.4375 -0.85938,-3.1875 -0.5625,-0.75 -1.3555,-1.125 -2.375,-1.125 z"
         id="path4616" />
    </symbol>
    <symbol
       id="s"
       overflow="visible">
      <path
         d="m 12.469,-21.344 v 3.2188 H 9.7502 c -0.69922,0 -1.1836,0.13281 -1.4531,0.39062 -0.27344,0.25 -0.40625,0.68359 -0.40625,1.2969 v 1.0781 h 4.1875 v 3.5 h -4.1875 v 11.859 h -4.9062 v -11.859 h -2.4531 v -3.5 h 2.4531 v -1.0781 c 0,-1.6641 0.46094,-2.8984 1.3906,-3.7031 0.9375,-0.80078 2.3789,-1.2031 4.3281,-1.2031 z"
         id="path4619" />
    </symbol>
    <symbol
       id="e"
       overflow="visible">
      <path
         d="m 9.6719,-12.219 c -1.0938,0 -1.9297,0.39062 -2.5,1.1719 -0.5625,0.78125 -0.84375,1.9062 -0.84375,3.375 0,1.4805 0.28125,2.6094 0.84375,3.3906 0.57031,0.78125 1.4062,1.1719 2.5,1.1719 1.0703,0 1.8906,-0.39062 2.4531,-1.1719 0.57031,-0.78125 0.85938,-1.9102 0.85938,-3.3906 0,-1.4688 -0.28906,-2.5938 -0.85938,-3.375 -0.5625,-0.78125 -1.3828,-1.1719 -2.4531,-1.1719 z m 0,-3.5156 c 2.6445,0 4.707,0.71484 6.1875,2.1406 1.4883,1.4297 2.2344,3.4023 2.2344,5.9219 0,2.5312 -0.74609,4.5117 -2.2344,5.9375 -1.4805,1.418 -3.543,2.125 -6.1875,2.125 -2.6562,0 -4.7344,-0.70703 -6.2344,-2.125 -1.4922,-1.4258 -2.2344,-3.4062 -2.2344,-5.9375 0,-2.5195 0.74219,-4.4922 2.2344,-5.9219 1.5,-1.4258 3.5781,-2.1406 6.2344,-2.1406 z"
         id="path4622" />
    </symbol>
    <symbol
       id="r"
       overflow="visible">
      <path
         d="m 16.594,-12.812 c 0.625,-0.94531 1.3633,-1.6719 2.2188,-2.1719 0.85156,-0.5 1.7891,-0.75 2.8125,-0.75 1.7695,0 3.1133,0.54688 4.0312,1.6406 0.92578,1.0859 1.3906,2.6641 1.3906,4.7344 V 5e-4 h -4.9375 v -8.0156 c 0.0078,-0.11328 0.01563,-0.23438 0.01563,-0.35938 0.0078,-0.13281 0.01563,-0.32031 0.01563,-0.5625 0,-1.082 -0.16406,-1.8672 -0.48438,-2.3594 -0.3125,-0.48828 -0.82812,-0.73438 -1.5469,-0.73438 -0.9375,0 -1.6641,0.38672 -2.1719,1.1562 -0.5,0.77344 -0.76172,1.8828 -0.78125,3.3281 v 7.5469 h -4.9375 v -8.0156 c 0,-1.6953 -0.14844,-2.7891 -0.4375,-3.2812 -0.29297,-0.48828 -0.8125,-0.73438 -1.5625,-0.73438 -0.9375,0 -1.668,0.38672 -2.1875,1.1562 -0.51172,0.77344 -0.76562,1.875 -0.76562,3.3125 V 4.6e-4 H 2.3283 v -15.359 h 4.9375 v 2.25 c 0.60156,-0.875 1.2969,-1.5312 2.0781,-1.9688 0.7812,-0.4376 1.6445,-0.65625 2.5938,-0.65625 1.0625,0 2,0.25781 2.8125,0.76562 0.8125,0.51172 1.4258,1.2305 1.8438,2.1562 z"
         id="path4625" />
    </symbol>
    <symbol
       id="q"
       overflow="visible">
      <path
         d="M 17.812,-9.3594 V 0 h -4.9531 v -7.1406 c 0,-1.3438 -0.03125,-2.2656 -0.09375,-2.7656 -0.05469,-0.5 -0.15234,-0.86719 -0.29688,-1.1094 -0.1875,-0.32031 -0.44922,-0.57031 -0.78125,-0.75 -0.33594,-0.17578 -0.71094,-0.26562 -1.125,-0.26562 -1.0234,0 -1.8281,0.39844 -2.4219,1.1875 -0.58594,0.79297 -0.875,1.8867 -0.875,3.2812 V -2e-5 h -4.9062 v -21.344 h 4.9062 v 8.2344 c 0.73828,-0.89453 1.5234,-1.5547 2.3594,-1.9844 0.83203,-0.42578 1.7539,-0.64062 2.7656,-0.64062 1.7695,0 3.1133,0.54688 4.0312,1.6406 0.92578,1.0859 1.3906,2.6641 1.3906,4.7344 z"
         id="path4628" />
    </symbol>
    <symbol
       id="p"
       overflow="visible">
      <path
         d="m 2.5781,-20.484 h 5.9062 l 7.4375,14.047 v -14.047 h 5.0156 V 0 H 15.0312 L 7.5781,-14.047 V 0 h -5 z"
         id="path4631" />
    </symbol>
    <symbol
       id="o"
       overflow="visible">
      <path
         d="m 2.1875,-5.9844 v -9.375 h 4.9531 v 1.5312 c 0,0.83594 -0.00781,1.8828 -0.015625,3.1406 -0.011719,1.25 -0.015625,2.0898 -0.015625,2.5156 0,1.2305 0.03125,2.1211 0.09375,2.6719 0.0625,0.54297 0.17188,0.93359 0.32812,1.1719 0.19531,0.32422 0.45703,0.57422 0.78125,0.75 0.33203,0.17969 0.70703,0.26562 1.125,0.26562 1.0195,0 1.8203,-0.39062 2.4062,-1.1719 0.59375,-0.78906 0.89062,-1.8906 0.89062,-3.2969 v -7.5781 h 4.9062 v 15.359 h -4.9062 v -2.2188 c -0.74219,0.89844 -1.5273,1.5586 -2.3594,1.9844 -0.82422,0.41406 -1.7344,0.625 -2.7344,0.625 -1.7734,0 -3.125,-0.53906 -4.0625,-1.625 -0.92969,-1.082 -1.3906,-2.6641 -1.3906,-4.75 z"
         id="path4634" />
    </symbol>
    <symbol
       id="n"
       overflow="visible">
      <path
         d="m 2.5781,-20.484 h 8.7656 c 2.6016,0 4.6016,0.57812 6,1.7344 1.3945,1.1562 2.0938,2.8086 2.0938,4.9531 0,2.1484 -0.69922,3.7969 -2.0938,4.9531 -1.3984,1.1562 -3.3984,1.7344 -6,1.7344 H 7.8593 V 4e-4 H 2.5781 Z m 5.2812,3.8281 v 5.7188 h 2.9219 c 1.0195,0 1.8047,-0.24219 2.3594,-0.73438 0.5625,-0.5 0.84375,-1.207 0.84375,-2.125 0,-0.91406 -0.28125,-1.6172 -0.84375,-2.1094 -0.55469,-0.5 -1.3398,-0.75 -2.3594,-0.75 z"
         id="path4637" />
    </symbol>
    <symbol
       id="m"
       overflow="visible">
      <path
         d="m 2.3594,-15.359 h 4.9062 v 15.078 c 0,2.0625 -0.49609,3.6328 -1.4844,4.7188 C 4.80073,5.5198 3.375,6.0628 1.5,6.0628 H -0.9375 V 2.844 h 0.85938 c 0.92578,0 1.5625,-0.21484 1.9062,-0.64062 0.35156,-0.41797 0.53125,-1.2461 0.53125,-2.4844 z m 0,-5.9844 h 4.9062 v 4 H 2.3594 Z"
         id="path4640" />
    </symbol>
    <symbol
       id="l"
       overflow="visible">
      <path
         d="m 14.781,-14.891 v 4.0156 c -0.67969,-0.45703 -1.3555,-0.79688 -2.0312,-1.0156 -0.66797,-0.21875 -1.3594,-0.32812 -2.0781,-0.32812 -1.375,0 -2.4453,0.40234 -3.2031,1.2031 -0.76172,0.79297 -1.1406,1.9062 -1.1406,3.3438 0,1.4376 0.37891,2.5586 1.1406,3.3594 0.75781,0.80469 1.8281,1.2031 3.2031,1.2031 0.76953,0 1.5,-0.11328 2.1875,-0.34375 0.6875,-0.22656 1.3281,-0.56641 1.9219,-1.0156 v 4.0156 c -0.77344,0.28125 -1.5547,0.48828 -2.3438,0.625 -0.79297,0.14453 -1.5859,0.21875 -2.375,0.21875 -2.7734,0 -4.9453,-0.70703 -6.5156,-2.125 -1.5625,-1.4258 -2.3438,-3.4062 -2.3438,-5.9375 0,-2.5313 0.78125,-4.5039 2.3438,-5.9219 1.5703,-1.4258 3.7422,-2.1406 6.5156,-2.1406 0.80078,0 1.5938,0.07422 2.375,0.21875 0.78125,0.13672 1.5625,0.34375 2.3438,0.625 z"
         id="path4643" />
    </symbol>
  </defs>
  <path
     d="m 271.89604,142.0066 c -4.0703,-0.004 -8.125,0.47266 -12.082,1.4219 v -38.75 c -0.0156,-10.930005 -4.3594,-21.406005 -12.09,-29.133005 -7.7266,-7.7266 -18.207,-12.074 -29.137,-12.086 h -38.699 c 1.9844,-8.332 1.8906,-17.02 -0.27734,-25.305 -2.4531,-9.3828 -7.5312,-17.875 -14.641,-24.473 -7.1055,-6.6016 -15.949,-11.035 -25.488,-12.78499997 -17.148,-3.24220003 -34.773,2.42969997 -46.809,15.06999997 -12.031,12.641 -16.836,30.523 -12.754,47.492 h -38.695 c -10.926,0.0117 -21.406,4.3594 -29.133,12.086 -7.7305,7.7266 -12.078,18.203 -12.09,29.133005 v 41.449 c 0,4.6719 2.2109,9.0664 5.957,11.852 3.7461,2.7891 8.5898,3.6406 13.062,2.3008 6.4492,-1.9023 13.316,-1.8867 19.758,0.0391 6.4453,1.9297 12.191,5.6875 16.539,10.82 7.5977,8.9922 10.086,21.238 6.6055,32.484 -3.4805,11.25 -12.453,19.945 -23.805,23.074 -6.2656,1.7109 -12.883,1.6328 -19.109,-0.22266 -4.4727,-1.3398 -9.3164,-0.48438 -13.059,2.3047 C 2.207,231.56754 0,235.96204 0,240.63044 v 41.469 c 0.0117,10.934 4.3594,21.41 12.086,29.141 7.7305,7.7266 18.211,12.074 29.141,12.086 h 41.68 c 4.7227,-0.004 9.1641,-2.2617 11.941,-6.082 2.7812,-3.8242 3.5664,-8.7422 2.1133,-13.238 -3.3281,-10.508 -1.4453,-21.969 5.0664,-30.859 6.5117,-8.89 16.875,-14.141 27.895,-14.137 11.023,0.008 21.379,5.2695 27.883,14.164 6.5039,8.8984 8.375,20.363 5.0352,30.863 -1.4453,4.4961 -0.65234,9.4102 2.1289,13.223 2.78124,3.8128 7.2188,6.0664 11.938,6.0664 h 41.68 c 10.93,-0.0117 21.41,-4.3594 29.141,-12.09 7.7266,-7.7266 12.074,-18.207 12.086,-29.137 v -38.766 c 8.7578,2.1016 17.91,1.8906 26.562,-0.60156 9.3477,-2.6914 17.73,-7.9961 24.16,-15.289 6.4336,-7.2969 10.645,-16.277 12.141,-25.887 2.375,-14.867 -1.8867,-30.031 -11.656,-41.484 -9.7695,-11.457 -24.07,-18.059 -39.125,-18.066 z m 34.125,56.984 c -1.0547,6.4023 -3.8906,12.383 -8.1797,17.254 -4.293,4.8672 -9.8672,8.4297 -16.09,10.277 -6.4688,1.875 -13.336,1.8516 -19.793,-0.0625 -4.4727,-1.3438 -9.3164,-0.48828 -13.059,2.3008 -3.7461,2.7891 -5.9492,7.1836 -5.9414,11.855 v 41.484 c -0.008,6.4609 -2.5781,12.656 -7.1445,17.227 -4.5703,4.5664 -10.766,7.1367 -17.227,7.1445 h -38.91 0.004 c 3.9883,-15.402 0.625,-31.785 -9.1133,-44.367 -9.7383,-12.582 -24.75,-19.945 -40.66,-19.945 -15.91,0 -30.926,7.3633 -40.66,19.945 -9.7383,12.582 -13.102,28.965 -9.1133,44.367 h -38.91 c -6.457,-0.008 -12.652,-2.5781 -17.223,-7.1445 -4.5664,-4.5703 -7.1367,-10.766 -7.1445,-17.227 v -38.754 c 8.4219,2 17.203,1.8789 25.566,-0.35156 9.4141,-2.4961 17.914,-7.6406 24.488,-14.828 6.5781,-7.1836 10.953,-16.105 12.609,-25.703 3.0234,-17.086 -2.7617,-34.543 -15.391,-46.441 -12.625,-11.898 -30.398,-16.637 -47.273,-12.605 v -38.738 c 0.008,-6.460905 2.5781,-12.652005 7.1484,-17.219005 4.5664,-4.5664 10.762,-7.1367 17.219,-7.1445 h 41.414 c 4.6719,0 9.0703,-2.2148 11.855,-5.9648 2.7847,-3.75 3.6367,-8.5977 2.2891,-13.074 -3.1328,-10.469 -1.1328,-21.801 5.3945,-30.562 6.5273,-8.7617 16.812,-13.926 27.738,-13.922 10.93,0.004 21.211,5.1719 27.73,13.941 6.5234,8.7656 8.5156,20.098 5.375,30.566 -1.3438,4.4727 -0.48828,9.3164 2.3008,13.066 2.7891,3.7461 7.1836,5.9531 11.855,5.9492 h 41.41 c 6.4609,0.008 12.656,2.5781 17.223,7.1445 4.5703,4.5664 7.1406,10.758 7.1484,17.219005 v 41.465 c 0,4.6758 2.2109,9.0742 5.9648,11.863 3.7539,2.7852 8.6016,3.6328 13.078,2.2852 11.414,-3.3945 23.766,-0.67969 32.707,7.1797 8.9414,7.8594 13.215,19.766 11.312,31.52 z"
     id="path4648"
     style="fill:#fefefe;fill-opacity:1" />
</svg>
