<svg width="12" height="8" viewBox="0 0 12 8" fill="none" xmlns="http://www.w3.org/2000/svg">
<path d="M3.14714 0.976C3.86106 0.349189 4.7716 0.00300983 5.71429 0C7.63571 0 9.23071 1.45455 9.40429 3.33018C10.5414 3.49382 11.4286 4.46327 11.4286 5.65309C11.4286 6.95927 10.3586 8 9.06214 8H2.70071C1.22 8 0 6.81164 0 5.32218C0 4.04 0.904286 2.97818 2.10143 2.70909C2.20357 2.08145 2.6 1.456 3.14714 0.976ZM3.61357 1.52655C3.07286 2.00145 2.79 2.57382 2.79 3.02182V3.34764L2.47214 3.38327C1.47429 3.49455 0.714286 4.32873 0.714286 5.32218C0.714286 6.38909 1.59286 7.27273 2.70071 7.27273H9.06214C9.98571 7.27273 10.7143 6.53673 10.7143 5.65309C10.7143 4.76873 9.98571 4.03273 9.06214 4.03273H8.705V3.66909C8.70571 2.05455 7.37714 0.727273 5.71429 0.727273C4.94277 0.730411 4.19774 1.01413 3.61357 1.52727V1.52655Z" fill="white"/>
</svg>
