<svg xmlns="http://www.w3.org/2000/svg" viewBox="0 0 24 24" id="sap"><path fill="#1873CC" d="M24 6H0v12h12.13L24 6zm-13.986 8.683c-.37.123-.787.191-1.23.191-.456 0-.885-.072-1.263-.202l-.358.928-2 .006.09-.467c-.029.025-.057.051-.087.075-.535.435-1.208.636-2.037.651l-.213.002h-.052c-.921 0-1.784-.25-2.53-.683l.729-1.463c.79.472 1.286.578 1.956.564.347-.007.598-.071.761-.242a.565.565 0 0 0 .156-.372v-.001c.007-.38-.53-.559-1.185-.764-.531-.166-1.135-.393-1.606-.743-.559-.414-.825-.934-.812-1.668.005-.541.22-1.032.567-1.391.519-.543 1.357-.872 2.363-.872h.006c.863.001 1.915.248 2.676.64l-.82 1.445c-.835-.408-1.255-.447-1.73-.472-.708-.038-1.064.217-1.069.493-.007.336.669.64 1.305.847.964.309 2.19.723 2.377 1.92L7.77 8.399h2.046l2.064 5.636-.007-5.635h2.37c2.257 0 3.318.772 3.318 2.546 0 1.592-1.09 2.541-2.936 2.541h-.763l-.01 2.117-3.588-.004-.25-.917z"/><path fill="#1873CC" d="M15.63 10.87c0-.717-.554-.95-1.248-.95h-.521v1.925h.521c.694-.001 1.247-.233 1.248-.975zm-6.856-.175-.748 2.387a2.22 2.22 0 0 0 1.499.007l-.736-2.395-.015.001z"/></svg>