<?xml version="1.0" encoding="UTF-8"?>
<svg enable-background="new 0 0 115.28 122.88" version="1.1" viewBox="0 0 115 123" xml:space="preserve" xmlns="http://www.w3.org/2000/svg"><style type="text/css">.st0{fill-rule:evenodd;clip-rule:evenodd;}</style><path class="st0" d="m25.4 57h64.9v-19.7h-20.7c-2.17 0-5.19-1.17-6.62-2.6s-2.3-4.01-2.3-6.17v-20.9h-52.5c-0.18 0-0.32 0.09-0.41 0.18-0.15 0.1-0.19 0.23-0.19 0.42v106c0 0.14 0.09 0.32 0.18 0.41 0.09 0.14 0.28 0.18 0.41 0.18h81.5c0.18 0 0.17-0.09 0.27-0.18 0.14-0.09 0.33-0.28 0.33-0.41v-11.2h-64.9c-4.14 0-7.56-3.4-7.56-7.56v-31.4c0-4.15 3.4-7.55 7.56-7.55zm7.71 10.7h14.7c2.45 0 4.33 0.61 5.65 1.82 1.31 1.21 1.97 2.72 1.97 4.51 0 1.5-0.47 2.79-1.41 3.87-0.62 0.72-1.54 1.28-2.74 1.7 1.83 0.44 3.17 1.19 4.03 2.26s1.29 2.42 1.29 4.03c0 1.32-0.31 2.5-0.92 3.56-0.62 1.05-1.46 1.88-2.52 2.5-0.66 0.38-1.66 0.66-2.99 0.83-1.77 0.23-2.94 0.35-3.52 0.35h-13.6zm7.92 9.98h3.43c1.23 0 2.08-0.21 2.56-0.63 0.48-0.43 0.72-1.04 0.72-1.83 0-0.74-0.24-1.32-0.72-1.73-0.48-0.42-1.32-0.63-2.51-0.63h-3.48zm0 9.98h4.01c1.36 0 2.31-0.24 2.86-0.72 0.56-0.48 0.83-1.12 0.83-1.93 0-0.75-0.27-1.36-0.82-1.81-0.55-0.46-1.52-0.69-2.89-0.69h-3.99zm19.5-20h7.88v25.4h-7.88zm13 0h7.33l9.54 14v-14h7.42v25.4h-7.42l-9.49-14v14h-7.39v-25.4zm24.3-10.7h9.93c4.16 0 7.56 3.41 7.56 7.56v31.4c0 4.15-3.41 7.56-7.56 7.56h-9.93v13.6c0 1.61-0.65 3.04-1.7 4.1-1.06 1.06-2.49 1.7-4.1 1.7h-86.2c-1.61 0-3.04-0.64-4.1-1.7s-1.7-2.49-1.7-4.1v-111c0-1.61 0.65-3.04 1.7-4.1 1.06-1.06 2.53-1.7 4.1-1.7h58.7c0.13-0.05 0.27-0.05 0.41-0.05 0.64 0 1.29 0.28 1.75 0.69h0.09c0.09 0.05 0.14 0.09 0.23 0.18l30 30.4c0.51 0.51 0.88 1.2 0.88 1.98 0 0.23-0.05 0.41-0.09 0.65v23.1zm-30.3-29v-19l21.4 21.7h-18.8c-0.74 0-1.38-0.32-1.89-0.78-0.46-0.46-0.78-1.15-0.78-1.89z" fill="#fff"/></svg>
