<svg width="50" height="50" viewBox="0 0 50 50" fill="none" xmlns="http://www.w3.org/2000/svg">
<path d="M44.1071 41.1217C44.1183 41.1049 44.135 41.0882 44.1462 41.0714C47.8013 36.7243 50 31.1217 50 25C50 18.8783 47.8013 13.2757 44.1518 8.92857C44.1406 8.91183 44.1239 8.90067 44.1127 8.88393C44.0513 8.81138 43.9955 8.74442 43.9342 8.67746C43.9118 8.64955 43.8895 8.62723 43.8672 8.59933L43.6384 8.33705L43.6328 8.33147C43.5491 8.23661 43.4598 8.14174 43.3761 8.04688L43.3705 8.0413C43.192 7.85156 43.0134 7.66183 42.8292 7.47768L42.8237 7.4721L42.5558 7.20424L42.5391 7.1875C42.4554 7.10379 42.3717 7.02567 42.2879 6.94754C42.26 6.91964 42.2321 6.89174 42.1987 6.86384C42.1429 6.80804 42.0871 6.75781 42.0312 6.70759C42.0145 6.69085 41.9922 6.67411 41.9754 6.65179C37.5223 2.52232 31.5569 0 25 0C18.4431 0 12.4777 2.52232 8.01897 6.65179C8.00223 6.66853 7.97991 6.68527 7.96317 6.70759C7.90737 6.75781 7.85156 6.81362 7.79576 6.86942C7.76786 6.89732 7.73996 6.92522 7.70647 6.95312C7.62277 7.03125 7.53906 7.11496 7.45536 7.19308L7.43862 7.20982L7.17076 7.47768L7.16518 7.48326C6.98103 7.66741 6.80246 7.85714 6.62388 8.04688L6.6183 8.05246C6.52902 8.14732 6.44531 8.24219 6.36161 8.33705L6.35603 8.34263C6.2779 8.42634 6.19978 8.51563 6.12723 8.60491C6.10491 8.63281 6.08259 8.65513 6.06027 8.68304C5.99888 8.75 5.94308 8.82254 5.8817 8.88951C5.87054 8.90625 5.85379 8.91741 5.84263 8.93415C2.19866 13.2757 0 18.8783 0 25C0 31.1217 2.19866 36.7243 5.84821 41.0714C5.85938 41.0882 5.87612 41.1049 5.88728 41.1217L6.06027 41.3281C6.08259 41.356 6.10491 41.3783 6.12723 41.4062L6.35603 41.6685C6.35603 41.6741 6.36161 41.6741 6.36161 41.6797C6.44531 41.7746 6.52902 41.8694 6.6183 41.9587L6.62388 41.9643C6.80246 42.154 6.98103 42.3438 7.1596 42.5279L7.16518 42.5335C7.25446 42.6228 7.33817 42.7121 7.42746 42.7958L7.4442 42.8125C7.62835 42.9967 7.81808 43.1752 8.00781 43.3482C12.4777 47.4777 18.4431 50 25 50C31.5569 50 37.5223 47.4777 41.981 43.3482C42.1711 43.174 42.3572 42.9953 42.5391 42.8125L42.5558 42.7958C42.6451 42.7065 42.7344 42.6228 42.8181 42.5335L42.8237 42.5279C43.0078 42.3438 43.1864 42.154 43.3594 41.9643L43.365 41.9587C43.4487 41.8638 43.5379 41.7746 43.6217 41.6797C43.6217 41.6741 43.6272 41.6741 43.6272 41.6685C43.7054 41.5848 43.7835 41.4955 43.856 41.4062C43.8784 41.3783 43.9007 41.356 43.923 41.3281C43.9861 41.2608 44.0475 41.192 44.1071 41.1217ZM44.3359 33.1641C43.5658 34.9833 42.5502 36.6685 41.3114 38.1975C39.9162 36.9918 38.3907 35.9455 36.7634 35.0781C37.4107 32.4609 37.8125 29.5871 37.9185 26.5625H45.9263C45.7589 28.8449 45.2232 31.0603 44.3359 33.1641ZM45.9263 23.4375H37.9185C37.8125 20.4129 37.4107 17.5391 36.7634 14.9219C38.3984 14.0513 39.9219 13.0022 41.3114 11.8025C44.0043 15.117 45.6151 19.1782 45.9263 23.4375ZM33.1641 5.66406C35.3795 6.60156 37.394 7.89621 39.1685 9.52567C38.1377 10.4034 37.028 11.1843 35.8538 11.8583C34.9777 9.3471 33.856 7.16518 32.5502 5.41853C32.7567 5.49665 32.9632 5.58036 33.1641 5.66406ZM28.1083 44.76C27.5949 45.1618 27.0815 45.4688 26.5625 45.6752V35.3237C28.7767 35.4781 30.9542 35.9712 33.019 36.7857C32.5558 38.1585 32.0201 39.4252 31.4007 40.5692C30.4297 42.3772 29.2913 43.8225 28.1083 44.76ZM31.4007 9.4308C32.0145 10.5804 32.5558 11.8471 33.019 13.2143C30.9542 14.0288 28.7767 14.5219 26.5625 14.6763V4.33036C27.0759 4.53683 27.5949 4.83817 28.1083 5.24554C29.2913 6.17746 30.4297 7.62277 31.4007 9.4308ZM26.5625 32.1931V26.5625H34.7935C34.7042 29.029 34.3973 31.423 33.8839 33.6942L33.8672 33.7612C31.5253 32.8731 29.0625 32.3444 26.5625 32.1931ZM26.5625 23.4375V17.8069C29.1183 17.6507 31.5737 17.1094 33.8672 16.2388L33.8839 16.3058C34.3973 18.577 34.7042 20.9654 34.7935 23.4375H26.5625ZM23.4375 26.5625V32.1931C20.8817 32.3493 18.4263 32.8906 16.1328 33.7612L16.1161 33.6942C15.6027 31.423 15.2958 29.0346 15.2065 26.5625H23.4375ZM15.2065 23.4375C15.2958 20.971 15.6027 18.577 16.1161 16.3058L16.1328 16.2388C18.4263 17.1094 20.8761 17.6507 23.4375 17.8069V23.4375H15.2065ZM23.4375 35.3237V45.6696C22.9241 45.4632 22.4051 45.1618 21.8917 44.7545C20.7087 43.8225 19.5647 42.3717 18.5938 40.5636C17.9799 39.4141 17.4386 38.1473 16.9754 36.7801C19.0513 35.9654 21.2109 35.4799 23.4375 35.3237ZM23.4375 14.6763C21.2233 14.5219 19.0458 14.0288 16.981 13.2143C17.4442 11.8415 17.9799 10.5748 18.5993 9.4308C19.5703 7.62277 20.7087 6.17187 21.8973 5.23995C22.4107 4.83817 22.9241 4.53125 23.4431 4.32478V14.6763H23.4375ZM16.8359 5.66406C17.0424 5.58036 17.2433 5.49665 17.4498 5.41853C16.144 7.16518 15.0223 9.3471 14.1462 11.8583C12.9743 11.1886 11.8638 10.4074 10.8315 9.52567C12.606 7.89621 14.6205 6.60156 16.8359 5.66406ZM5.66406 16.8359C6.43415 15.0167 7.44978 13.3315 8.68862 11.8025C10.0781 13.0022 11.6016 14.0513 13.2366 14.9219C12.5893 17.5391 12.1875 20.4129 12.0815 23.4375H4.07366C4.24107 21.1551 4.77679 18.9397 5.66406 16.8359ZM4.07366 26.5625H12.0815C12.1875 29.5871 12.5893 32.4609 13.2366 35.0781C11.6093 35.9455 10.0838 36.9918 8.68862 38.1975C5.9957 34.883 4.38486 30.8218 4.07366 26.5625ZM16.8359 44.3359C14.6205 43.3984 12.606 42.1038 10.8315 40.4743C11.8638 39.5926 12.9743 38.817 14.1462 38.1417C15.0223 40.6529 16.144 42.8348 17.4498 44.5815C17.2433 44.5033 17.0368 44.4196 16.8359 44.3359ZM33.1641 44.3359C32.9576 44.4196 32.7567 44.5033 32.5502 44.5815C33.856 42.8348 34.9777 40.6529 35.8538 38.1417C37.0257 38.8114 38.1362 39.5926 39.1685 40.4743C37.4038 42.097 35.3726 43.4033 33.1641 44.3359Z" fill="white"/>
</svg>
