<?xml version="1.0" encoding="UTF-8"?>
<svg clip-rule="evenodd" fill-rule="evenodd" image-rendering="optimizeQuality" shape-rendering="geometricPrecision" text-rendering="geometricPrecision" version="1.1" viewBox="0 0 441 512" xmlns="http://www.w3.org/2000/svg"><path d="m325 280c32 0 61 13 82 34 21.1 21 34.1 50 34.1 82.1 0 32.1-13 61.1-34 82.1l-1.32 1.22c-20.9 20.3-49.4 32.8-80.8 32.8-32.1 0-61.1-13-82.1-34-21-21-34-50-34-82.1s13-61.1 34-82.1c21-21 50-34 82.1-34zm-81.8-242v54.2c0.99 12.9 5.5 23.1 13.4 29.8 8.2 7.01 20.5 10.9 36.7 11.2l37.9-0.04-88-95.2zm91.2 120-41.3-0.04c-22.5-0.35-40.2-6.4-52.9-17.2-13.2-11.3-20.7-27.4-22.2-47.2l-0.11-1.74v-67h-155c-10.3 0-19.8 4.23-26.6 11s-11 16.2-11 26.6v336c0 10.3 4.25 19.7 11.1 26.5 6.8 6.8 16.2 11 26.5 11h119c2.54 8.79 5.87 17.2 9.92 25.3h-129c-17.3 0-33-7.08-44.4-18.5-11.4-11.4-18.5-27.1-18.5-44.4v-336c0-17.3 7.08-33 18.4-44.4 11.4-11.4 27.2-18.5 44.4-18.5h174c4.11 0 7.76 1.96 10.1 5l109 118c2.24 2.43 3.34 5.49 3.34 8.55l0.03 120c-8.18-1.97-16.6-3.25-25.3-3.79v-89.2zm-230 54.5c-6.98 0-12.6-5.66-12.6-12.6 0-6.99 5.66-12.6 12.6-12.6h150c6.98 0 12.6 5.66 12.6 12.6 0 6.98-5.67 12.6-12.6 12.6h-150zm0 72.3c-6.98 0-12.6-5.66-12.6-12.6 0-6.98 5.66-12.6 12.6-12.6h143c3.71 0 7.05 1.6 9.37 4.15a149 149 0 0 0-30.5 21.1h-121zm0 72.3c-6.98 0-12.6-5.66-12.6-12.6 0-6.98 5.66-12.6 12.6-12.6h86.2c-3.82 8.05-6.95 16.5-9.29 25.3h-76.9zm256-21.3c-1.53-1.05-3.28-1.53-5.05-1.17-1.76 0.35-3.28 1.28-4.33 2.8l-6 8.47c-4.05-1.81-9.22-3-13.6-3.64l-1.89-11c-0.36-1.87-1.3-3.27-2.7-4.35-1.53-1.04-3.17-1.4-5.04-1.04l-13.9 2.46c-1.76 0.35-3.18 1.18-4.35 2.7-1.04 1.52-1.52 3.18-1.17 5.05l1.77 10.1c-4.27 1.79-8.5 4.37-12.1 7.28l-9.41-6.47c-1.52-1.05-3.15-1.52-4.92-1.17-1.77 0.36-3.29 1.3-4.33 2.82l-7.99 11.4c-1.07 1.52-1.53 3.28-1.17 5.04 0.34 1.88 1.27 3.29 2.82 4.34l8.44 5.99c-1.78 4.02-3 9.26-3.63 13.6l-11 1.89c-1.89 0.36-3.29 1.29-4.36 2.7-1.06 1.53-1.4 3.16-1.06 5.04l2.47 13.8c0.35 1.77 1.18 3.17 2.7 4.35 1.53 1.06 3.18 1.53 5.06 1.18l10.1-1.77c1.86 4.42 4.4 8.4 7.28 12.2l-6.47 9.26c-1.05 1.53-1.52 3.18-1.16 4.93 0.35 1.76 1.3 3.29 2.82 4.33l11.5 8.11c1.53 1.06 3.3 1.41 5.04 1.06 1.77-0.35 3.3-1.17 4.48-2.69l5.97-8.58c4.12 1.82 9.17 2.97 13.6 3.65l1.88 11c0.34 1.89 1.28 3.29 2.69 4.35 1.54 1.05 3.18 1.4 5.06 1.05l13.8-2.47c1.77-0.35 3.17-1.17 4.35-2.69 1.05-1.53 1.51-3.17 1.16-5.04l-1.75-10.1c4.47-1.88 8.35-4.41 12.2-7.29l9.29 6.46c1.53 1.05 3.16 1.52 5.04 1.16 1.88-0.33 3.29-1.27 4.33-2.81l8.11-11.5c1.05-1.52 1.42-3.29 1.05-5.03-0.34-1.76-1.16-3.29-2.68-4.48l-8.58-5.86c1.78-4.02 3-9.25 3.63-13.6l11-1.89c1.88-0.36 3.28-1.3 4.36-2.7 1.05-1.52 1.4-3.17 1.05-5.04l-2.47-13.9c-0.35-1.77-1.17-3.17-2.69-4.34-1.53-1.07-3.19-1.54-5.06-1.18l-10.1 1.77c-1.94-4.4-4.27-8.35-7.28-12.1l6.47-9.4c1.05-1.53 1.52-3.17 1.16-4.93-0.35-1.76-1.3-3.29-2.82-4.35l-11.4-7.97-0.35 0.11zm-35.2 30c16.3 0 29.6 13.2 29.6 29.6 0 16.3-13.3 29.6-29.6 29.6s-29.6-13.2-29.6-29.6c0-16.4 13.3-29.6 29.6-29.6z" fill="#fcfcfc"/></svg>
