<svg enable-background="new 0 0 8000 8000" height="316.227766" viewBox="0 0 8000 8000" width="316.227766" xmlns="http://www.w3.org/2000/svg"><circle cx="4000" cy="3999.99" fill="#f32735" r="3989.83"/><path d="m6809.98 1167.54-5619.69 5665.16c.12.12.24.24.35.35 1564.56 1551.67 4090.76 1541.21 5642.42-23.35 1551.58-1564.46 1541.22-4090.47-23.08-5642.16z" fill="#9e0f20"/><g fill="#fff"><path d="m3418.55 4663.88c103.52-69.29 205.64-140.68 308.48-210.99 413.63-282.77 827.32-565.46 1241-848.16l460.86-316.27c-23.94-22-44.91-42.39-67.08-61.34-130.83-111.81-271.18-209.64-423.41-290.46-237.63-126.15-489.03-207.54-758.01-225.32-138.62-9.16-277.77-1.8-415.39 21.8-206.92 35.48-403.26 101.69-588.54 200.8-273.71 146.4-500.17 346.37-679.61 599.35-206.79 291.55-321.53 617.01-350.94 972.33-11.79 142.45-5.16 285.15 16.97 426.49 28.33 181.01 79.53 355.51 156.7 521.99 85.72 184.92 198.21 351.95 337.41 500.75 33.83 36.16 70.47 69.68 106.78 105.35 53.62-74.55 126.48-115.2 207.12-143.87 144.52-51.37 295.63-60.53 446.77-63.91 84.12-1.88 168.65 3.96 252.65 10.57 95.3 7.5 190.27 19.34 285.29 30.13 45.04 5.11 89.86 12.17 139.08 18.94-139.37-292.64-276.57-580.73-413.73-868.74-71.11 14.03-138.38 27.3-207.23 40.88-2.58-6.98-4.83-11.32-5.79-15.93-24.15-115.66-46.77-231.67-73.16-346.81-6.63-28.9.79-42.19 23.78-57.58zm-191.62-1435.07c-299.18 248.67-538.63 540.87-662.48 916.38-34.52 104.65-54.25 212.07-63.92 321.99-26.51 301.27 42 583.3 173.29 851.49 48.3 98.67 108.33 191.6 163.01 287.15 3.67 6.41 7.27 12.85 13.22 23.38-40.76 20.76-79.46 41.43-119.09 60.11-13.53 6.37-27.25 8.93-38.28-10.38-114.74-201.01-209.08-410.51-266.32-635.47-39.8-156.44-62.32-315.61-56.21-477.02 10.22-269.88 85.88-520.78 228.57-751.09 124.62-201.15 283.53-370.9 467.64-518.27 156.97-125.65 325.72-232.2 508.2-316.8 8.36-3.87 16.93-7.28 25.4-10.9-132.1 76.58-256.43 162.52-373.03 259.43z"/><path d="m3810.15 5126.95c71.34-13.78 141.09-27.73 211.14-40.03 7.06-1.24 17.53 5.85 23.62 11.9 101.26 100.62 199.06 204.95 303.9 301.65 87.91 81.1 183.82 153.54 276.37 229.59 131.92 108.4 247.22 232.56 346.44 371.17 173.4 242.26 298.75 507.36 368.36 797.5 6.12 25.51-1.66 56.9-10.53 82.99-30.12 88.64-94.02 152.58-164.66 209.75-98.96 80.09-209.83 139.92-327.3 188.41-24.42 10.08-33.29 5.25-44.22-18.67-120.95-264.59-243.44-528.48-365.36-792.63-165.29-358.1-330.43-716.27-495.67-1074.39-38.48-83.39-77.09-166.71-115.57-250.1-2.34-5.05-3.99-10.43-6.52-17.14z"/><path d="m4081.5 6038.59c-3.87-8.33-15.91-17.13-25-18.15-178.55-20.06-356.97-42.05-535.97-57.13-125.26-10.55-251.13-2.99-375.74 14.67-88.22 12.5-174.58 33.46-253.69 76.84-46.46 25.48-81.08 59.67-102.13 111.26-61.12 149.83-126.47 297.94-190.23 446.69-33.1 77.22-66.34 154.39-101.61 236.46 8.3-2.48 11.55-3.36 14.74-4.43 173.5-58.22 353.3-74.91 534.53-75.08 108.08-.1 216.37 7.59 324.19 16.39 105.68 8.63 211.32 20.18 316.19 35.74 136.47 20.24 272.17 45.71 411.2 69.44 65.36-117.75 132.4-238.18 198.72-359.01 3.42-6.23 3.35-17.11.33-23.75-71.26-156.91-142.94-313.64-215.53-469.94zm-1021.43 123.77c-14.13 4.33-29 15.05-37.68 27.04-95.97 132.57-190.8 265.96-285.78 399.24-2.59 3.63-3.33 8.58-4.94 12.91-2.48-2.14-4.96-4.27-7.44-6.41 16.48-35.11 32.72-70.33 49.49-105.3 55.41-115.58 110.69-231.22 167.09-346.32 5.14-10.48 16.63-21.66 27.46-24.94 114.44-34.65 231.3-55.74 350.67-66.01 88.46-7.61 175.53-5.06 262.39 12 9.13 1.79 18.01 4.87 27 7.36-191-13.78-370.12 35.86-548.26 90.43z"/><path d="m5827.13 4252.21c-21.53-132.44-43.29-264.84-64.56-397.32-18.91-117.75-37.03-235.62-56-353.36-14.46-89.77-29.56-179.47-44.9-271.99l-2169.89 1489.13c-7.41 6.72-14.64 19.4-12.83 26.5 17.76 69.76 37.96 138.89 57.32 207.81 4.9.25 7.86.99 10.58.45 171.86-34.12 343.61-68.78 515.55-102.45 329.03-64.43 658.22-128.03 987.23-192.49 263.64-51.66 527.05-104.49 790.82-155.49 23.18-4.48 25.37-14.07 22.18-33.05-12.19-72.51-23.7-145.15-35.5-217.74z"/><path d="m4581.5 2438.32c-51.59 74.74-103.23 149.45-154.09 223.08 284.02 48.7 508.95 165.56 630.93 236.08 18.8 8.58 30.36 7.04 45.52-5.97 95.28-81.78 191.04-163.01 287.18-243.8 190.04-159.7 380.58-318.82 570.63-478.51 199.81-167.88 399.34-336.08 598.92-504.23-326.39-232.07-695.2-407.31-1092.21-511.3-91.91 133.75-184.44 267.08-276.66 400.62-203.46 294.64-406.81 589.36-610.22 884.03z"/><path d="m3524.19 2467.48c-21.49 79.87-44.67 165.97-66.98 250.27 46.56-10.37 323.17-115.2 718.88-88.82 19.08 1.16 28.97-5.68 37.86-22.32 85.3-159.66 166.56-311.85 252.4-471.22 124.04-230.28 247.99-460.62 371.99-690.93 66.42-123.36 132.88-246.71 201.16-373.46-137.35-17.23-277.22-26.16-419.13-26.16-252.51 0-498.61 28.17-735.43 81.45-6.84 28.63-14.95 56.97-22.6 85.41-112.71 418.6-225.51 837.17-338.15 1255.78z"/><path d="m2545.86 1836.53c6.63 78.14 13.34 156.27 19.88 234.42 6.3 75.3 12.22 150.63 18.7 225.91 6.56 76.18 13.88 152.29 20.34 228.48 6.62 78.2 12.58 156.47 18.86 234.7 6.05 75.39 11.98 150.79 18.28 226.16 5.69 68.08 11.43 139.61 17.71 211.68 77.38-75.63 317.01-289.31 612.48-411.98 13.75-5.71 27.38-8.82 30.84-30.91 18.46-117.67 36.52-215.22 57.03-332.58 28.68-164.11 57.33-328.23 85.9-492.37 35.77-205.54 71.52-411.09 107.06-616.67 5.59-32.33 10.49-64.82 15.86-99.36-375.71 124.54-722.52 313.9-1027.32 554.95-.14.6-.31 1.21-.32 1.8-.51 21.89 2.83 43.85 4.7 65.77z"/><path d="m2151.69 3602.03c28.95 58.26 62.61 126.45 92.44 186.35 62.88-139.38 194.26-347.57 318.13-488.72 6.41-7.31 10.14-21.49 8.12-30.98-20.81-97.89-43.14-189.66-65.05-287.32-57.91-258.1-115.86-516.2-173.82-774.29-15.21-67.73-30.56-135.42-47.53-210.59-22.74 24.23-40.47 42.85-57.9 61.74-72.83 78.96-151.57 153.39-216.96 238.1-88.09 114.1-168.83 233.86-251.92 351.85-14.06 22.66-27.86 45.51-41.4 68.52.01 6.6 2.26 13.25 6.04 20.84 143.57 288.03 286.64 576.29 429.85 864.5z"/><path d="m1463.39 3773.25c166.75 147.24 333.58 294.4 500.43 441.53 38 33.51 78.9 69.38 120.26 105.61 15.83-124.87 58.2-279.76 105.96-401.87 9.16-23.43-.04-37.32-12.31-53.78-168.78-226.42-339.26-452.55-507.93-679.06-37.99-51.02-76.32-101.8-115.94-154.62-4.47 8.41-7.33 13.18-9.63 18.2-5.97 13.06-11.84 26.15-17.63 39.27-78.19 180.23-141.29 368.58-187.77 563.37 1.54 6.68 5.02 13.54 9.12 17.41 37.65 35.53 76.62 69.66 115.44 103.94z"/><path d="m1937.2 4872.06c44.65 15.45 94.49 32.94 140.29 48.94-26.82-165.76-14.78-400.9-11.87-451.56 1.19-20.64-5.68-32.28-23.85-43.49-189.08-116.57-381.36-235.03-569.95-352.4-62.5-38.89-125.13-77.62-190.93-118.42-23.27 161.02-35.39 325.64-35.39 493.07 0 62.38 1.72 124.35 5.03 185.91 2.88 1.62 6.25 3.08 10.22 4.44 225.69 77.26 451.03 155.48 676.45 233.51z"/><path d="m2252.92 5507.54c-11.18-19.62-22.95-22.74-43.15-17.88-190.58 45.82-386.45 92.18-577.15 137.54-54.15 12.88-108.33 25.91-163.62 39.18 62.3 163.36 136.73 320.69 222.21 470.86 234.84-125.41 470.34-250.82 705.49-376.44-91.02-140.7-99.71-175.9-143.78-253.26z"/><path d="m1747.15 5373.51c104.59-.89 209.2-.18 313.8-.18h133.63c-2.68-10.32-65.65-190.27-85.44-283.48-1.26-8.85-15.9-20.52-26.07-22.69-231.85-49.45-461.9-96.87-693.98-145.24-37.34-7.78-74.93-14.84-113.97-22.4 21.62 163.84 54.78 324.05 98.74 479.73.8 0 1.58.01 2.41-.01 123.61-2.74 247.24-4.68 370.88-5.73z"/></g></svg>