<?xml version="1.0" encoding="UTF-8"?>
<svg="1.1" viewBox="0 0 36.5 40" xmlns="http://www.w3.org/2000/svg"><path d="m36.5 19.7s-0.6-0.8-0.8-1.7c-0.1-0.9 0.4-0.6 0.4-0.6s-0.2-1.3-1.1-2.4-1.9-2.4-2.3-4.1-1.2-2.8-1.8-3.4c-0.6-0.7-0.8-2.1-1.1-2.6s-0.4-3.2-2.6-4.4-6.2 0.1-7.4 1-2.3 3.3-3.8 4.3-2.6 1-3.8 3-1.4 3.1-1.4 4.3c0 0-0.8 0.1-0.9-0.4-0.1-0.4 0.3-2.1 0.4-2.5 0 0 0.3 0.2 0.2 0.4 0 0 0.7-1.4 0.3-2.3 0 0 0.3 0.1 0.4 0.2 0 0 0.3-1.4 0.3-2.3s-0.3-1.6-0.9-2c0 0 0.4-0.6-0.1-1.2 0 0-0.2-0.5-0.8-1.1-0.6-0.5-1.1-0.9-1.6-0.8l0.2-0.4s-0.5 0.1-0.6 0.3c0 0-0.3-0.2-0.3-0.6 0 0-0.4 0.1-0.5 0.4 0 0-1.1-0.4-1.5 0.8 0 0 0.2 0.1 0.2 0.2 0 0-0.1 0.3-0.8 0.4-0.6 0.1-2.5 0-3.1 0.2-0.6 0.3-0.8 0.4-0.8 0.7 0 0-0.3 0.1-0.4 0.8-0.1 0-0.5 0.1-0.5 0.6 0 0.4 0.3 0.3 0.3 0.3s-0.3 0.7 0.6 0.7c0 0 0.1 0.4 0.9 0.4s1.5 0.1 1.8 0.6c0 0-0.3 1-1.3 1.9 0 0 0.3 0.1 0.4 0 0 0-0.9 0.8-1.1 1.9 0 0 0.3-0.3 0.5-0.3 0 0-1.1 3.2 0.4 6.4 0 0 0.1-0.3 0.2-0.4 0 0-0.1 1.1 0.6 1.9 0 0 0.1-0.4 0.3-0.6 0 0 1 1.8 2.1 2.6 1 0.8 2.6 1.2 2.9 2.1 0 0 0.6-0.6 0.6-1 0 0 0.1 0.4 0.1 0.8l0.8-0.4c0.2-0.2 1.1-0.8 1.2 0.2s-0.9 2.9 0.1 5.3c0 0-0.3 0.4-0.3 1s0.4 0.9 0.4 1.1-0.2 0.8-0.2 1.3 0.4 1.3 0.1 3.2c-0.4 1.8-0.6 2.3-0.9 2.6s-1.2 0.9-1 1.8c0 0-2.3 0.3-2.3 1.1s1.2 1 2.5 1c1.4 0 1.7-0.3 1.8-0.8s-0.3-0.6 0-0.9 0.6-0.6 0.6-1.9c-0.1-1.3 0.6-2.4 0.6-2.4s-0.1-1 0.3-1.6 1.3-1.9 0.7-3.9c0 0 0.2 0.1 0.4 0.1 0 0-0.4-1.1 0.3-2.4s1.1-3.9 1.1-3.9 1.6 0.1 2.3 0c0 0-1.5 3.2-1.4 5.6 0 0-0.4 0.4-0.4 0.8s0.3 0.9 0.6 1.3c0.4 0.4 1.6 1.1 2.3 1.9s1.2 1.8 1.4 2c0 0-0.6 0.4-0.4 1.1 0 0-0.6 0.2-0.6 0.8 0 0-0.9 0-1.4 0.4s-0.8 1-0.3 1.2c0.4 0.2 2.1 0.2 2.6 0.2 0.6 0 1.2-0.4 1.3-0.7s-0.2-1-0.2-1 0.3 0.1 0.4-0.4c0 0 0.6 2.3 1.6 2.3 0 0 0.1 0 0.1-0.3 0 0 0.4 0.1 0.7-0.1 0.3-0.3 0.8-3.4-1.1-3.4 0 0 0.1-0.3-0.3-0.6s3.1-4.6 3.5-5c0 0-0.5-3.9 0.5-5.8s1.8-3.2 1.8-3.2 0.2 4.3 2.1 7.5c0 0 0.4 0.5 0.3 1.1s-0.3 0.9-0.3 1.7 0.6 2.8 0 4.9c-0.1 0.4-1.2 1.8-0.8 2.8 0 0-0.9 0.5-0.9 1.2s0.4 0.8 0.7 0.8 0.4-0.3 0.6-0.3 0.4 0.4 1.1 0.4 1.3-0.6 1.3-0.9-0.6-0.9-0.6-0.9 0.4-0.4 0.4-0.8-0.6-1.2-0.6-2.1 0.2-2.8 0.6-3.6c0.8-1.6 0.6-2.9 0.3-3.2 0 0 0.3-1 0.3-2.1s-0.8-3.9-0.1-6.8c0 0 0.8-1.2 1-3.1 0 0 1.5 3.1 0.4 5.1-1.1 2.1-0.9 2.1-0.9 2.8 0 0.6 0.3 1.6 0.3 1.6l1-1s0-0.7 0.5-1.3c0.5-0.5 0.9-1.9 0.6-2.3 0 0 0.3 0.2 0.4 0.3 0 0 0.2-0.7-0.1-1.6-0.3 0.1 0-0.1 0.4 0.1zm-13.5 10.1c-0.4 0.7-1.7 2.8-1.7 2.8s-1.3-0.8-1.8-1.6c-0.4-0.9-0.8-1.4-0.9-1.5 0 0 0.6-0.8 0.7-1.5 0 0 0.3 0 0.4 0.5 0.8-1 1.3-2.1 1.5-3.3 0 0 0.2 0.2 0.4 0.3 0 0 0-0.8 0.3-1.4s0.9-1.3 1-2.4h0.4s-0.3 2.5 0 4.6c0.3 2 0.2 2.8-0.3 3.5z" fill="#fff"/></svg>
