<?xml version="1.0" encoding="UTF-8"?>
<svg version="1.1" viewBox="0 0 88.9 85.2" xmlns="http://www.w3.org/2000/svg"><path d="m63.2 51.5c-12.9 8.33-25.7 16.6-38.9 25 19.7 2.69 39 5.32 58.7 8.02-6.71-11.2-13.3-22.1-19.9-33.1zm25.4-36.8c-1.74 2.6-3.47 5.21-5.2 7.81-5.95 8.95-11.9 17.9-17.8 26.9-0.331 0.5-0.76 0.896-0.294 1.66 5.74 9.48 11.4 19 17.2 28.5 0.901 1.5 1.81 3 2.98 4.44l3.46-69.2zm-78.4 29.6c0.269 0.255 0.94 0.402 1.25 0.249 5.51-2.71 11.1-5.36 16.4-8.29 1.76-0.954 3.11-2.67 4.62-4.06 5.01-4.6 10-9.2 15-13.8 0.307-0.283 0.668-0.556 0.852-0.913 1.8-3.51 3.56-7.04 5.39-10.7-2.18-0.817-4.25-1.62-6.34-2.35-0.284-0.099-0.73 0.098-1.04 0.27-4.84 2.71-9.78 5.27-14.5 8.22-2.35 1.48-4.26 3.65-6.34 5.55-3.35 3.06-6.69 6.12-9.99 9.23-0.876 0.825-1.67 1.77-2.36 2.76-2.26 3.29-4.45 6.62-6.74 10 1.28 1.33 2.44 2.59 3.69 3.77zm20.1-4.49c-2.74 11.6-5.46 23.1-8.28 35 13.2-8.5 26.1-16.8 38.9-25.1-10.2-3.3-20.4-6.59-30.6-9.91zm21.8-19.4 11.2 27.3c7.32-11 14.5-21.8 21.8-32.8-11.2 1.86-22 3.68-33.1 5.52zm-21.4 17.1c10 3.26 19.9 6.46 30 9.74-3.76-9.16-7.39-18-11.1-27zm-20.2 13.6-10.5 25.1c6.73-0.199 13.3-0.392 20-0.591-3.17-8.18-6.27-16.2-9.5-24.5zm9.74 18.7 0.248-0.054c2.4-9.99 4.84-19.9 7.29-30.3-5.47 2.84-10.7 5.55-16 8.34 2.74 7.11 5.65 14.6 8.51 22zm60.8-56.5c-3.2-0.846-6.39-1.7-9.58-2.54-4.59-1.21-9.19-2.4-13.8-3.62-0.573-0.152-0.989-0.251-1.33 0.44-1.62 3.32-3.3 6.62-4.94 9.94-0.051 0.103-0.041 0.237-0.08 0.492 9.95-1.51 19.8-3 29.7-4.5zm-18.5-7.56c8.58 2.37 17.2 4.75 26 7.2l-4.3-12.3c-7.29 1.62-14.5 3.21-21.7 4.81zm7.88 79.4-21.4-2.92c-8.87-1.21-17.7-2.54-26.6-3.57-3.22-0.371-6.54-0.029-9.81 0.026-2.69 0.046-5.37 0.148-8.06 0.233-0.277 8e-3 -0.553 0.064-0.828 0.361 22.2 2.05 44.4 4.11 66.6 6.16zm-70-16.5c2.86-6.64 5.71-13.3 8.59-19.9 0.288-0.667 0.267-1.12-0.296-1.65-1.2-1.14-2.32-2.38-3.63-3.74l-5.24 25.9 0.193 0.092c0.133-0.214 0.294-0.414 0.392-0.644zm56.4-64.6c4.83-1.25 9.72-2.22 14.6-3.3 0.314-0.071 0.622-0.175 0.932-0.264l-0.047-0.238-20.9 2.81c1.96 0.859 3.48 1.5 5.44 0.994z" fill="#d91404"/></svg>
