<?xml version="1.0" encoding="UTF-8"?>
<svg width="700pt" height="700pt" version="1.1" viewBox="0 0 700 700" xmlns="http://www.w3.org/2000/svg"><rect x="171" y="230" width="359" height="240" rx="56.7" ry="56.7" fill="#010101" stop-color="#000000" stroke-linecap="round" stroke-linejoin="round" stroke-width="2.74"/><path d="m117 187c0-38.7 31.3-70 70-70h327c38.7 0 70 31.3 70 70v327c0 38.7-31.3 70-70 70h-327c-38.7 0-70-31.3-70-70zm194 217c-9.11 9.11-9.11 23.9 0 33 9.11 9.11 23.9 9.11 33 0l70-70c9.11-9.11 9.11-23.9 0-33l-70-70c-9.11-9.11-23.9-9.11-33 0s-9.11 23.9 0 33l53.5 53.5z" fill="#fff" fill-rule="evenodd"/></svg>
