<?xml version="1.0" encoding="UTF-8"?>
<svg version="1.1" viewBox="0 0 32 32" xmlns="http://www.w3.org/2000/svg"><title>file_type_verilog</title><path d="m29 17.4h0.037a1.45 1.45 0 0 0 0.938-0.316 1.47 1.47 0 0 0 0.519-1.03v-0.153a1.41 1.41 0 0 0-1.38-1.3h-9e-3 -2.06-1.55v-2.64h3.51 0.034a1.41 1.41 0 0 0 1.45-1.36v-0.09-0.032a1.41 1.41 0 0 0-0.646-1.1 1.46 1.46 0 0 0-0.835-0.225h-3.56a2.96 2.96 0 0 0-0.278-1.03 2.91 2.91 0 0 0-1.7-1.46 2.68 2.68 0 0 0-0.629-0.13v-1.58-2.06a1.41 1.41 0 0 0-1.37-1.38h-0.116a1.4 1.4 0 0 0-1.32 1.39q0 1.15 0 2.31v1.31h-2.65v-1.52-2.09a1.41 1.41 0 0 0-1.35-1.39h-0.153a1.41 1.41 0 0 0-1.3 1.38v2.06 1.56q-1.32 0-2.64 0v-1.62-1.99a1.37 1.37 0 0 0-0.4-0.975 1.4 1.4 0 0 0-0.984-0.424h-0.077a1.41 1.41 0 0 0-1.34 1.38v2.05 1.6a2.93 2.93 0 0 0-2.47 1.9 2.88 2.88 0 0 0-0.161 0.726h-1.58-2.07-8e-3a1.41 1.41 0 0 0-1.38 1.34v0.095a1.42 1.42 0 0 0 0.575 1.09 1.46 1.46 0 0 0 0.887 0.273h0.017 3.52v2.64h-1.55-2.06a1.43 1.43 0 0 0-1.39 1.31v0.187a1.4 1.4 0 0 0 1.39 1.3h2.14 1.48v2.65h-0.292c-0.613-7e-3 -1.23 0-1.84 0h-1.28a1.63 1.63 0 0 0-0.918 0.211 1.44 1.44 0 0 0-0.669 1.14v0.1a1.42 1.42 0 0 0 1.38 1.34h5e-3q0.645 0 1.29 0h2.38a2.83 2.83 0 0 0 1.98 2.5 2.71 2.71 0 0 0 0.631 0.128v1.62 2.02a1.4 1.4 0 1 0 2.8-0.092v-3.53h2.64v3.52a1.41 1.41 0 0 0 1.35 1.49h0.153a1.41 1.41 0 0 0 1.3-1.38q6e-3 -1.07 0-2.13v-1.48h2.64v3.6a1.42 1.42 0 0 0 1.36 1.4h0.119a1.41 1.41 0 0 0 1.16-0.741 1.64 1.64 0 0 0 0.167-0.833v-3.45a2.67 2.67 0 0 0 0.62-0.128 2.93 2.93 0 0 0 1.89-1.89 2.83 2.83 0 0 0 0.123-0.613h1.58 2.06 8e-3a1.42 1.42 0 0 0 1.38-1.36v-0.118a1.41 1.41 0 0 0-1.38-1.32h-2.15-1.46v-2.64z" fill="#c5c5c5" opacity=".3"/><g fill="#1a348f"><path d="m10.5 2h0.056a0.91 0.91 0 0 1 0.886 0.893c6e-3 1.11 0 2.22 0 3.32h-1.8v-3.33a0.907 0.907 0 0 1 0.858-0.884z"/><path d="m15.9 2h0.116a0.912 0.912 0 0 1 0.846 0.889c6e-3 1.11 0 2.22 0 3.33h-1.8v-3.33a0.911 0.911 0 0 1 0.837-0.888z"/><path d="m21.4 2h0.089a0.907 0.907 0 0 1 0.859 0.881c7e-3 1.11 0 2.22 0 3.34h-1.8v-3.33a0.912 0.912 0 0 1 0.852-0.892z"/><path d="m2 10.5a0.908 0.908 0 0 1 0.882-0.859c1.11-7e-3 2.22 0 3.33 0q0 0.9 0 1.8h-3.24a0.983 0.983 0 0 1-0.6-0.173 0.924 0.924 0 0 1-0.379-0.715z"/><path d="m25.8 9.66h3.23a1 1 0 0 1 0.561 0.143 0.924 0.924 0 0 1 0.42 0.716v0.058a0.933 0.933 0 0 1-0.3 0.651 0.957 0.957 0 0 1-0.677 0.234h-3.24q0-0.901 0-1.8z"/><path d="m2 15.9a0.913 0.913 0 0 1 0.888-0.842c1.11-7e-3 2.22 0 3.33 0q0 0.9 0 1.8h-3.33a0.915 0.915 0 0 1-0.89-0.839z"/><path d="m25.8 15.1h3.33a0.914 0.914 0 0 1 0.889 0.835v0.117a0.946 0.946 0 0 1-0.331 0.641 0.973 0.973 0 0 1-0.651 0.207h-3.23q-1e-3 -0.9 0-1.8z"/><path d="m2.43 20.7a1.12 1.12 0 0 1 0.643-0.136c1.04 6e-3 2.09-6e-3 3.13 6e-3 0.028 0.6 0 1.2 0.012 1.8h-3.33a0.911 0.911 0 0 1-0.886-0.865v-0.083a0.925 0.925 0 0 1 0.433-0.722z"/><path d="m25.8 20.5h3.32a0.914 0.914 0 0 1 0.89 0.847v0.09a0.911 0.911 0 0 1-0.888 0.859c-1.11 7e-3 -2.22 0-3.33 0 0-0.596-1e-3 -1.2 0-1.8z"/><path d="m9.66 25.8h1.8v3.24a0.957 0.957 0 0 1-0.235 0.677 0.931 0.931 0 0 1-0.653 0.3h-0.052a0.907 0.907 0 0 1-0.86-0.882c-5e-3 -1.11 2e-3 -2.22 0-3.34z"/><path d="M15.1,25.781h1.8c0,1.11,0,2.22,0,3.33a.914.914,0,0,1-.836.889h-.116a.94.94,0,0,1-.619-.306.962.962,0,0,1-.228-.673Q15.1,27.4,15.1,25.781Z"/><path d="m20.5 29.1v-3.32h1.8v3.14a1.18 1.18 0 0 1-0.105 0.59 0.92 0.92 0 0 1-0.756 0.484h-0.086a0.911 0.911 0 0 1-0.853-0.893z"/><path d="m24.7 8.35a2.43 2.43 0 0 0-1.42-1.22 3.24 3.24 0 0 0-1.06-0.131c-4.3 8e-3 -8.6-0.011-12.9 0.01a2.44 2.44 0 0 0-2.19 1.6 3.61 3.61 0 0 0-0.157 1.33q0 6.25 0 12.5a2.67 2.67 0 0 0 0.268 1.22 2.43 2.43 0 0 0 1.42 1.22 3.76 3.76 0 0 0 1.24 0.13h12.1a3.76 3.76 0 0 0 1.24-0.127 2.43 2.43 0 0 0 1.56-1.57 3.8 3.8 0 0 0 0.125-1.23q0-6.25 0-12.5a2.69 2.69 0 0 0-0.268-1.22z"/></g><path d="M7.5,8.307l.084-.2q.968,0,1.935.024h.394q.179,0,.394-.012.776-.036,2.807-.036.406,0,.788.006t.741.018a.234.234,0,0,1,.108.108l-.024.191q-.072.119-.358.119h-.1a10.3,10.3,0,0,0-1.1.054,2.179,2.179,0,0,0-1,.245.432.432,0,0,0-.155.346,4.05,4.05,0,0,0,.394,1.4l1.818,4.217.634,1.4q.921,2.222,1.819,4.539.1.251.179.454l.8-1.959q.62-1.481,1.252-3.154l.823-2.246q.024-.072.131-.478a17.026,17.026,0,0,0,1.157-4,.561.561,0,0,0-.161-.364,1.165,1.165,0,0,0-.52-.3,7.723,7.723,0,0,0-.932-.143l-.884-.108a.337.337,0,0,1-.108-.2l.036-.1,3.87-.036H23.6a3.1,3.1,0,0,1,.885.084l.012.1a.641.641,0,0,1-.072.251,2.449,2.449,0,0,1-.526.119,3.6,3.6,0,0,0-1.244.281,1.815,1.815,0,0,0-.5.687l-3.134,7.765q-1.466,3.5-2.086,5.423l-.345,1.039a.531.531,0,0,1-.263.1,1.383,1.383,0,0,1-.3-.036q-1.422-3.676-2.318-5.681L10.055,9.92a3.247,3.247,0,0,0-.591-.89,5.463,5.463,0,0,0-1.379-.424,4.347,4.347,0,0,1-.466-.119A.326.326,0,0,1,7.5,8.307Z" fill="#c5c2ff"/></svg>
