<?xml version="1.0" encoding="UTF-8"?>
<svg width="800px" height="800px" fill="#000000" version="1.1" viewBox="0 0 337 337" xml:space="preserve" xmlns="http://www.w3.org/2000/svg">
<g fill="#fff">
	<g fill="#fff">
		<g fill="#fff">
			<path d="m51.5 80.6h171c4.14 0 7.5-3.36 7.5-7.5s-3.36-7.5-7.5-7.5h-171c-4.14 0-7.5 3.36-7.5 7.5s3.36 7.5 7.5 7.5z"/>
			<path d="m51.5 113h189c4.14 0 7.5-3.36 7.5-7.5s-3.36-7.5-7.5-7.5h-189c-4.14 0-7.5 3.36-7.5 7.5s3.36 7.5 7.5 7.5z"/>
			<path d="m325 121c-9.94-9.94-25.9-10.3-36.2-0.994v-113c0-4.14-3.36-7.5-7.5-7.5h-269c-4.14 0-7.5 3.36-7.5 7.5v322c0 4.14 3.36 7.5 7.5 7.5h269c4.14 0 7.5-3.36 7.5-7.5v-135l36.1-36.1c0.02-0.02 0.035-0.041 0.054-0.06 0.023-0.022 0.048-0.041 0.07-0.063 10.3-10.3 10.3-27 0-37.3zm-305 201v-307h254v120l-28.7 28.7c-1.13-0.688-2.46-1.09-3.88-1.09h-189c-4.14 0-7.5 3.36-7.5 7.5s3.36 7.5 7.5 7.5h179l-17.3 17.3h-162c-4.14 0-7.5 3.36-7.5 7.5s3.36 7.5 7.5 7.5h147l-17.3 17.3h-130c-4.14 0-7.5 3.36-7.5 7.5s3.36 7.5 7.5 7.5h115l-13.8 13.8c-0.203 0.203-0.388 0.416-0.563 0.635-0.045 0.058-0.086 0.119-0.13 0.178-0.129 0.172-0.252 0.347-0.364 0.527-0.042 0.067-0.082 0.137-0.122 0.206-0.109 0.187-0.208 0.378-0.3 0.571-0.019 0.041-0.043 0.077-0.062 0.118l-1.23 2.74c-1.23-0.893-2.75-1.42-4.38-1.42h-93.7c-4.14 0-7.5 3.36-7.5 7.5s3.36 7.5 7.5 7.5h92l-9.66 21.5c-0.173 0.387-0.305 0.783-0.409 1.18-1.96 4.17-1.23 9.3 2.21 12.7 2.12 2.12 4.94 3.29 7.95 3.29 1.7 0 3.35-0.389 4.84-1.1 0.382-0.103 0.761-0.226 1.13-0.391l37.9-17c0.039-0.018 0.074-0.041 0.112-0.06 0.198-0.092 0.393-0.193 0.583-0.305 0.066-0.038 0.132-0.076 0.196-0.116 0.187-0.116 0.368-0.242 0.546-0.376 0.052-0.04 0.107-0.076 0.159-0.117 0.221-0.176 0.436-0.362 0.64-0.566l83.8-83.8v112h-254zm152-36.3-19.6 8.77c-0.082-0.087-0.154-0.179-0.238-0.264-0.084-0.084-0.175-0.156-0.261-0.237l8.77-19.6 11.3 11.3zm13-8.21-16.1-16.1 124-124 16.1 16.1-124 124zm133-137-12.3-12.3c3.22-0.271 6.54 0.818 9 3.28 2.46 2.46 3.55 5.78 3.28 9z"/>
			<path d="m51.5 145h160c4.14 0 7.5-3.36 7.5-7.5s-3.36-7.5-7.5-7.5h-160c-4.14 0-7.5 3.36-7.5 7.5s3.36 7.5 7.5 7.5z"/>
		</g>
	</g>
</g>
</svg>
