<?xml version="1.0" encoding="UTF-8"?>
<svg enable-background="new 0 0 115.28 122.88" version="1.1" viewBox="0 0 115 123" xml:space="preserve" xmlns="http://www.w3.org/2000/svg"><style type="text/css">.st0{fill-rule:evenodd;clip-rule:evenodd;}</style><g fill="#fff"><path class="st0" d="m25.4 57h64.9v-19.7h-20.7c-2.17 0-5.19-1.17-6.62-2.6s-2.3-4.01-2.3-6.17v-20.9h-52.5c-0.18 0-0.32 0.09-0.41 0.18-0.15 0.1-0.19 0.23-0.19 0.42v106c0 0.14 0.09 0.32 0.18 0.41 0.09 0.14 0.28 0.18 0.41 0.18h81.5c0.18 0 0.17-0.09 0.27-0.18 0.14-0.09 0.33-0.28 0.33-0.41v-11.2h-64.9c-4.14 0-7.56-3.4-7.56-7.56v-31.4c0-4.15 3.4-7.55 7.56-7.55zm4.6 11.8h7.76l4.03 7 3.92-7h7.66l-7.07 11 7.74 11.7h-7.91l-4.47-7.31-4.5 7.31h-7.85l7.85-11.9-7.16-10.9zm25.7 0h9.28l3.53 13.8 3.54-13.8h9.23v22.8h-5.75v-17.4l-4.44 17.4h-5.21l-4.43-17.4v17.4h-5.75v-22.8zm29.6 0h7.03v17.2h11v5.59h-18v-22.8zm12.5-11.8h9.93c4.16 0 7.56 3.41 7.56 7.56v31.4c0 4.15-3.41 7.56-7.56 7.56h-9.93v13.6c0 1.61-0.65 3.04-1.7 4.1-1.06 1.06-2.49 1.7-4.1 1.7h-86.2c-1.61 0-3.04-0.64-4.1-1.7s-1.7-2.49-1.7-4.1v-111c0-1.61 0.65-3.04 1.7-4.1 1.06-1.06 2.53-1.7 4.1-1.7h58.7c0.13-0.05 0.27-0.05 0.41-0.05 0.64 0 1.29 0.28 1.75 0.69h0.09c0.09 0.05 0.14 0.09 0.23 0.18l30 30.4c0.51 0.51 0.88 1.2 0.88 1.98 0 0.23-0.05 0.41-0.09 0.65v23.1zm-30.3-29v-19l21.4 21.7h-18.8c-0.74 0-1.38-0.32-1.89-0.78-0.46-0.46-0.78-1.15-0.78-1.89z" fill="#fff"/></g></svg>
